<?xml version="1.0" encoding="UTF-8"?>
<svg width="128pt" height="128pt" version="1.1" viewBox="0 0 128 128" xmlns="http://www.w3.org/2000/svg">
 <g>
  <path d="m100.48 68.352v-28.672c0-0.25781 0-0.38281-0.12891-0.64063v-0.12891c-0.12891-0.25781-0.25781-0.38281-0.38281-0.64062l-15.359-16.641c-0.12891-0.12891-0.38281-0.25781-0.51172-0.38281-0.25781-0.12891-0.38281-0.12891-0.64062-0.12891l-48.129 0.003906c-2.9453 0-5.2461 2.3047-5.2461 5.2461v73.984c0 2.9453 2.3047 5.2461 5.2461 5.2461h38.398c4.3516 5.5039 11.137 8.9609 18.559 8.9609 13.184 0 23.809-10.754 23.809-23.809 0.003906-10.238-6.5273-19.07-15.613-22.398zm-15.359-40.449 9.0898 9.8555h-9.0898zm-49.793 73.859c-0.76953 0-1.4062-0.64062-1.4062-1.4062v-73.988c0-0.76953 0.64062-1.4062 1.4062-1.4062h45.953v14.719c0 1.0234 0.89453 1.9219 1.9219 1.9219h13.441v25.727c-1.4062-0.25781-2.8164-0.38281-4.3516-0.38281-8.7031 0-16.383 4.7344-20.609 11.777l-24.324-0.003906c-1.0234 0-1.9219 0.89453-1.9219 1.9219 0 1.0234 0.89453 1.9219 1.9219 1.9219h22.527c-0.89453 2.5586-1.4062 5.2461-1.4062 8.1914 0 3.9688 1.0234 7.6797 2.6875 11.008zm56.961 8.957c-11.008 0-19.969-8.9609-19.969-19.969 0-3.1992 0.76953-6.1445 2.0469-8.832 0.25781-0.25781 0.38281-0.51172 0.38281-0.89453 3.457-6.1445 9.9844-10.367 17.535-10.367 11.008 0 19.969 8.9609 19.969 19.969 0.003906 11.137-8.957 20.094-19.965 20.094z"/>
  <path d="m92.16 73.602c-2.4336 0-4.4805 2.0469-4.4805 4.4805v15.359c0 2.4336 2.0469 4.4805 4.4805 4.4805s4.4805-2.0469 4.4805-4.4805v-15.363c0-2.4297-2.0469-4.4766-4.4805-4.4766zm0.64062 19.84c0 0.38281-0.25781 0.64062-0.64062 0.64062-0.38281 0-0.64062-0.25781-0.64062-0.64062v-15.363c0-0.38281 0.25781-0.64062 0.64062-0.64062 0.38281 0 0.64062 0.25781 0.64062 0.64062z"/>
  <path d="m92.16 99.199c-2.4336 0-4.4805 2.0469-4.4805 4.4805 0 2.4336 2.0469 4.4805 4.4805 4.4805s4.4805-2.0469 4.4805-4.4805c0-2.4336-2.0469-4.4805-4.4805-4.4805zm0 5.1211c-0.38281 0-0.64062-0.25781-0.64062-0.64062 0-0.38281 0.25781-0.64063 0.64062-0.64063 0.38281 0 0.64062 0.25781 0.64062 0.64063 0 0.38281-0.25781 0.64062-0.64062 0.64062z"/>
  <path d="m47.359 49.281h35.84c1.0234 0 1.9219-0.89453 1.9219-1.9219 0-1.0234-0.89453-1.9219-1.9219-1.9219l-35.84 0.003906c-1.0234 0-1.9219 0.89453-1.9219 1.9219 0.003906 1.0195 0.89844 1.918 1.9219 1.918z"/>
  <path d="m47.359 65.922h35.84c1.0234 0 1.9219-0.89453 1.9219-1.9219 0-1.0234-0.89453-1.9219-1.9219-1.9219h-35.84c-1.0234 0-1.9219 0.89453-1.9219 1.9219 0.003906 1.0234 0.89844 1.9219 1.9219 1.9219z"/>
 </g>
</svg>
