<?xml version="1.0" encoding="UTF-8"?>
<svg width="1200pt" height="1200pt" version="1.1" viewBox="0 0 1200 1200" xmlns="http://www.w3.org/2000/svg">
 <path d="m728.43 599.53c-0.078126-9.8203-3.9727-19.219-10.863-26.215l-181.37-181.37c-9.5352-9.5781-23.453-13.34-36.512-9.8711-13.062 3.4688-23.277 13.641-26.805 26.688-3.5273 13.043 0.17578 26.977 9.707 36.555l154.68 154.69-154.68 154.69v-0.003906c-9.5312 9.5781-13.234 23.512-9.707 36.555 3.5273 13.047 13.742 23.219 26.805 26.688 13.059 3.4688 26.977-0.29297 36.512-9.8711l181.37-181.37c7.1211-7.2266 11.035-17.016 10.863-27.156z"/>
</svg>
