<?xml version="1.0" encoding="UTF-8"?>
<svg width="1200pt" height="1200pt" version="1.1" viewBox="0 0 1200 1200" xmlns="http://www.w3.org/2000/svg">
 <g>
  <path d="m1161.1 349.52c0-0.20703 0-0.42969-0.16797-0.63672-0.91406-2.0508-2.1836-3.9219-3.75-5.5312-0.50781-0.50781-1.125-0.86328-1.6875-1.332-0.84766-0.82422-1.7773-1.5586-2.7734-2.1953l-543.75-300c-5.6367-3.1094-12.477-3.1094-18.113 0l-543.75 300c-0.99609 0.63672-1.9258 1.3711-2.7734 2.1953-0.5625 0.46875-1.1797 0.82422-1.6875 1.332-1.5742 1.6016-2.8438 3.4766-3.75 5.5312 0 0.1875 0 0.42969-0.14844 0.61719h-0.003906c-0.75 1.9492-1.168 4.0078-1.2383 6.0938 0 0.22656-0.13281 0.42969-0.13281 0.65625l0.003906 787.5c0 4.9727 1.9766 9.7422 5.4922 13.258 3.5156 3.5156 8.2852 5.4922 13.258 5.4922h1087.6c4.9727 0 9.7422-1.9766 13.258-5.4922 3.5156-3.5156 5.4922-8.2852 5.4922-13.258v-787.5c0-0.24219-0.13281-0.42969-0.13281-0.65625-0.0625-2.0781-0.47266-4.1328-1.2188-6.0742zm-561.15-271.84 470.95 259.82h-941.89zm-412.5 447.32h825v37.5h-825zm825-37.5h-825v-37.5h825zm-669.51 425.76 5.4922 5.4922h-85.984v-37.5h75v18.75c0 4.9727 1.9766 9.7422 5.4922 13.258zm407.01-125.76v-56.25h37.5v112.5h-112.5v-112.5h37.5v56.25zm150 150v-56.25h37.5v112.5h-112.5v-112.5h37.5v56.25zm-225 56.25v-112.5h37.5v56.25h37.5v-56.25h37.5v112.5zm-37.5-281.25v337.5h-37.5v-375h37.5zm-337.5 318.75c9.9453 0 19.484 3.9492 26.516 10.984 7.0352 7.0312 10.984 16.57 10.984 26.516s-3.9492 19.484-10.984 26.516c-7.0312 7.0352-16.57 10.984-26.516 10.984s-19.484-3.9492-26.516-10.984c-7.0352-7.0312-10.984-16.57-10.984-26.516s3.9492-19.484 10.984-26.516c7.0312-7.0352 16.57-10.984 26.516-10.984zm0-37.5c-13.203 0.078125-26.148 3.6758-37.5 10.426v-47.926h123.49l13.258 13.258h-0.003906c3.5156 3.5156 8.2852 5.4922 13.258 5.4922h150v29.176c-17.07-10.188-37.527-13.059-56.738-7.9609-19.215 5.0977-35.559 17.727-45.336 35.035h-95.852c-13.293-23.125-37.902-37.414-64.574-37.5zm131.25-93.75h37.5c4.9727 0 9.7422 1.9766 13.258 5.4922 3.5156 3.5156 5.4922 8.2852 5.4922 13.258v18.75h-67.238l-45.262-45.262v-67.238h18.75c4.9727 0 9.7422 1.9766 13.258 5.4922 3.5156 3.5156 5.4922 8.2852 5.4922 13.258v37.5c0 4.9727 1.9766 9.7422 5.4922 13.258 3.5156 3.5156 8.2852 5.4922 13.258 5.4922zm93.75 131.25c9.9453 0 19.484 3.9492 26.516 10.984 7.0352 7.0312 10.984 16.57 10.984 26.516s-3.9492 19.484-10.984 26.516c-7.0312 7.0352-16.57 10.984-26.516 10.984s-19.484-3.9492-26.516-10.984c-7.0352-7.0312-10.984-16.57-10.984-26.516s3.9492-19.484 10.984-26.516c7.0312-7.0352 16.57-10.984 26.516-10.984zm37.5-93.75h-37.5v-18.75c0-14.918-5.9258-29.227-16.477-39.773-10.547-10.551-24.855-16.477-39.773-16.477h-18.75v-18.75c0-14.918-5.9258-29.227-16.477-39.773-10.547-10.551-24.855-16.477-39.773-16.477h-18.75v-56.25h93.75c24.855 0.03125 48.684 9.918 66.258 27.492 17.574 17.574 27.461 41.402 27.492 66.258zm-187.5 131.25h75c0.066406 21.621 9.5234 42.148 25.914 56.25h-126.83c16.391-14.102 25.848-34.629 25.914-56.25zm199.09 56.25c11.359-9.8672 19.465-22.941 23.25-37.5h58.914c4.9727 0 9.7422-1.9766 13.258-5.4922 3.5156-3.5156 5.4922-8.2852 5.4922-13.258v-37.5h281.25c4.9727 0 9.7422-1.9766 13.258-5.4922 3.5156-3.5156 5.4922-8.2852 5.4922-13.258v-150c0-4.9727-1.9766-9.7422-5.4922-13.258-3.5156-3.5156-8.2852-5.4922-13.258-5.4922h-131.25v-131.25c0-4.9727-1.9766-9.7422-5.4922-13.258-3.5156-3.5156-8.2852-5.4922-13.258-5.4922h-131.25v-37.5c0-4.9727-1.9766-9.7422-5.4922-13.258-3.5156-3.5156-8.2852-5.4922-13.258-5.4922h-75c-4.9727 0-9.7422 1.9766-13.258 5.4922-3.5156 3.5156-5.4922 8.2852-5.4922 13.258v77.082c-24.621-25.312-58.438-39.59-93.75-39.582h-112.5c-4.9727 0-9.7422 1.9766-13.258 5.4922-3.5156 3.5156-5.4922 8.2852-5.4922 13.258v131.25h-93.75c-4.9727 0-9.7422 1.9766-13.258 5.4922-3.5156 3.5156-5.4922 8.2852-5.4922 13.258v187.5c0.058594 2.1445 0.48438 4.2617 1.2578 6.2617-0.76172 4.1211-1.1836 8.2969-1.2578 12.488 0.066406 21.621 9.5234 42.148 25.914 56.25h-63.414v-525h825v525zm550.91 0h-75v-693.75c0-4.9727-1.9766-9.7422-5.4922-13.258-3.5156-3.5156-8.2852-5.4922-13.258-5.4922h-862.5c-4.9727 0-9.7422 1.9766-13.258 5.4922-3.5156 3.5156-5.4922 8.2852-5.4922 13.258v693.75h-75v-750h1050z"/>
  <path d="m525 262.5h150v37.5h-150z"/>
  <path d="m525 187.5h150v37.5h-150z"/>
 </g>
</svg>
