<?xml version="1.0" encoding="UTF-8"?>
<svg width="1200pt" height="1200pt" version="1.1" viewBox="0 0 1200 1200" xmlns="http://www.w3.org/2000/svg">
 <path d="m978.24 221.76c-9-9.0156-21.219-14.078-33.957-14.078-12.742 0-24.957 5.0625-33.961 14.078l-310.32 310.32-310.32-310.32c-12.133-12.133-29.816-16.871-46.391-12.434-16.574 4.4414-29.52 17.387-33.961 33.961-4.4375 16.574 0.30078 34.258 12.434 46.391l310.32 310.32-310.32 310.32c-12.133 12.133-16.871 29.816-12.434 46.391 4.4414 16.574 17.387 29.52 33.961 33.961 16.574 4.4375 34.258-0.30078 46.391-12.434l310.32-310.32 310.32 310.32c12.133 12.133 29.816 16.871 46.391 12.434 16.574-4.4414 29.52-17.387 33.961-33.961 4.4375-16.574-0.30078-34.258-12.434-46.391l-310.32-310.32 310.32-310.32c9.0156-9.0039 14.078-21.219 14.078-33.961 0-12.738-5.0625-24.957-14.078-33.957z"/>
</svg>
