<?xml version="1.0" encoding="UTF-8"?>
<svg width="1200pt" height="1200pt" version="1.1" viewBox="0 0 1200 1200" xmlns="http://www.w3.org/2000/svg">
 <g>
  <path d="m1158.4 323.6-4.9336-6.8008-550.13-316.8h-10.133l-549.73 316.67-5.0664 7.8672 3.6016 546.67 3.332 11.332 550.54 317.46h10.133l552.4-318.4 3.6016-11.602zm-548.53 345.46 42.801 24.266-50.801 29.465c-0.45313 0.22656-0.86719 0.54688-1.1992 0.93359-0.70703 0.76172-1.0938 1.7617-1.0664 2.8008v33.469l-32.801-18.535v-48.133zm-273.73 210.93v65.332h-8.3984v-69.602l93.332-54 1.4648 0.80078v175.6h-8.3984v-72.133zm32.535 23.867 40.801 23.867v29.199l-67.07-36.934zm-28.27 8.668v-24.535l21.867 13.332zm-16.797-37.07v32.801l-32.801-18.535v-46.801l38.398-22.133 42.535 24.27-46.133 26.668-1.1992 1.0664c-0.69141 0.77344-1.0781 1.7617-1.0664 2.8008 0.027343 0.1875 0.066406 0.35938 0.13281 0.53516zm0 40v6.3984l-32.801 18.668v-42.801zm97.199-98.93c-0.69141-0.1875-1.4414-0.1875-2.1328 0l-40 23.332-42.801-24.266 88.535-51.066 21.602 12.266v2.3984l-22.801 13.332c-0.49219 0.25391-0.8125 0.77344-0.80078 1.332v22.801zm-43.066-121.47 14.934-8.8008v17.465zm221.73 78.266v24.266c0 2.3594 1.9062 4.2656 4.2656 4.2656l8.0039 0.003907c2.3594 0 4.2656-1.9062 4.2656-4.2656v-20.801l69.066 39.199v0.80078l-78.934 44.934-81.867-46.398 26.668-15.066v20.535h15.602v-29.332zm-32.797 11.203v-35.867l31.73 17.598zm130-111.34 1.4648 0.80078v175.2h-8.3984v-72.133l-78-45.465v65.332h-8v-70.266zm98.133 3.6016 68.133 39.199-68.133 38.934zm-4.2656 55.332v65.199h-8.3984v-60.934zm-12.668 25.332-15.602-8.8008 15.602-8.9336zm-22.133-5.0664 21.734 12.266-75.066 42.535v-24.398zm-53.336 62.801 75.602-43.199v25.332c0 2.3594 1.9062 4.2656 4.2656 4.2656h8.3984c2.3594 0 4.2656-1.9062 4.2656-4.2656l0.003906-24 80 45.066-84.801 48.398-87.066-49.332v-2.7969zm0 34.535v-24.266l80 45.734-80 45.465-90-51.066 72.266-41.199v24.934c0 2.3594 1.9062 4.2656 4.2656 4.2656h8.3984c2.3203 0.44141 4.5469-1.0664 5-3.3867 0.066406-0.33203 0.09375-0.67969 0.066406-1.0117zm-241.2-78.133v-26.668l48.801-27.867 41.602 23.602v53.332l-33.203 17.332v-70.133c0.011718-0.55859-0.30859-1.0781-0.80078-1.332-0.45312-0.26563-1.0117-0.26563-1.4648 0zm53.336 108.93v66.133h-8.3984v-61.332zm-12.668 7.5977v23.199l-20.266-11.465zm98.133-22.531-81.602 46.398v-92.535zm-81.602 54.398 87.867-50.133 90.402 50.133-89.066 50.801-89.203-50zm97.602-156.27 20.801-11.867 48.266 28.266v29.066l-68.668-39.867zm0-7.4688v-17.199l14.398 8.3984zm-65.199-23.332-34.934-19.867 34.934-20zm-41.602-23.602-78.133-44.398 40-23.332 77.465 45.332zm-101.46-56.664v-48l41.066 24.133zm17.332 15.598 78.133 44.266-48.801 27.734-46.266-26.668v-35.465zm20.801 85.199v17.199l-15.066-8.5352zm-19.469 178.27 48.801-28.133 26.668 15.199v2.8008l-75.465 43.199zm75.602-2.668v17.602c0 2.3594 1.9062 4.2656 4.2656 4.2656h8.3984c2.1484-0.26562 3.75-2.1055 3.7344-4.2656v-18.398l82.266 46.668-80 45.734-90.133-51.066zm105.73 49.602 76.934 43.602-80 45.867-76.934-43.602zm6.5312-3.7344 89.066-50.801 76.934 43.602-88.531 50.801zm95.602-54.934 80-45.465 76.934 43.602-80 45.332zm86.133-49.199 84.801-48.398 77.598 44.266-84.801 48.398zm91.332-52.133 77.066-44 75.602 44.398-75.602 43.602zm-6.6641-3.7344-86-48.801v-4.668l74.668-42.668 89.062 52.402zm-86-160v-62.668c0.039062-0.53516-0.21484-1.0391-0.66797-1.332-0.45312-0.26562-1.0117-0.26562-1.4648 0l-24.266 13.332-0.003906-245.73 185.33 104.54zm-72.934-41.602-7.7344-4.3984 7.7344-4.5352zm-2.4023 19.602-20.398 11.734c-0.49219 0.25391-0.8125 0.77344-0.80078 1.332v22.801h-1.4648c-0.69141-0.1875-1.4414-0.1875-2.1328 0l-35.465 20.535-42.668-24 80-46zm-659.07-303.6 530.67-306.67v488l-26.668-15.465-171.6 99.602v66.668l-37.465 21.734-66.668-38.668-171.86 99.199v76.934l-53.332 30.934zm180.8 533.34-75.066-43.066 40-23.332 69.199 40v5.8672zm34.133-12v31.332l-27.602-15.602zm-143.46-38.668v-58.934l50.801 29.734zm17.332 102.93-73.332-42.535 40.801-23.867v25.066l15.199 0.003906v-33.602l27.465-16 74.934 42.535-84.801 47.867c0-0.003906-0.13281 0.39844-0.26562 0.53125zm93.332 54.266-87.332-50.668 85.734-48.934 34.133 19.332v61.465l-32.133 18.398s0 0.26562-0.13281 0.39844zm6.2695 3.6016 26.668-14.934v11.867h15.465v-20.668l32.801-18.668v15.602c0 2.3594 1.9062 4.2656 4.2656 4.2656h8.3984c2.3594 0 4.2656-1.9062 4.2656-4.2656v-20l69.066 39.199v9.1992l-80 45.465zm87.465 50.664 73.066-41.734v16.266c0 2.3594 1.9062 4.2656 4.2656 4.2656h8.3984c2.3594 0 4.2656-1.9062 4.2656-4.2656l0.003906-23.328 87.867 49.867-88.934 50.664zm95.602 55.469 88.934-50.801 77.73 43.734-89.734 51.199zm168.93 98-86.266-50 89.867-51.332 87.465 49.199zm96.797-56-86.668-49.066 80.938-45.199 86.133 48.801zm86.27-49.867-86-48.801 89.066-50.801 85.465 48.398zm94.664-54.934-85.332-48.398 80-45.465 85.332 48.133zm85.602-49.598-84.801-48.133 84.801-48.398 84.266 47.867zm90.801-52.535-83.867-47.332 75.602-43.066 82.266 48.266zm-92.402-162.67v-291.07l-2.5352-4.2656-193.33-110.27-7.6016 4.2656v260.27l-21.332 12.266v-26.668l-133.33-77.332v-496l531.73 306.67 2.8008 522.54z"/>
  <path d="m1010.7 484.93 61.602 36.266-61.602 24v-60.266m-3.8672-6.8008v69.332l69.465 40.801v-69.332z"/>
  <path d="m654.4 298.13 61.602 36.266-61.602 24v-60.266m-3.8633-6.8008v68.668l69.465 40.934v-69.332l-69.602-40.398z"/>
 </g>
</svg>
