<?xml version="1.0" encoding="UTF-8"?>
<svg width="1200pt" height="1200pt" version="1.1" viewBox="0 0 1200 1200" xmlns="http://www.w3.org/2000/svg">
 <g>
  <path d="m114.94 1017.9-0.050781 0.10547 970.18-0.10547-485.06-800.27zm529-511.45c7.9297 4.543 12.109 13.613 10.402 22.59l-26.734 140.79 168.72 27.625c8.1875 1.3398 14.863 7.2891 17.141 15.266 2.2734 7.9805-0.26172 16.555-6.5117 22.012l-269 235.02c-6.8789 6.0117-16.816 7-24.746 2.457-7.9297-4.543-12.105-13.613-10.398-22.59l26.73-140.79-168.71-27.621c-8.1875-1.3438-14.867-7.2891-17.141-15.27-2.2773-7.9766 0.26172-16.555 6.5078-22.012l269-235.01c6.875-6.0195 16.816-7.0078 24.742-2.4609z"/>
  <path d="m572.25 778.9c3.3164 4.7344 4.5781 10.605 3.4961 16.281l-19.262 101.43 188.01-164.25-145.51-23.824c-5.6992-0.93359-10.781-4.1289-14.094-8.8633s-4.5703-10.605-3.4922-16.281l19.262-101.43-188.01 164.25 145.51 23.824c5.7031 0.93359 10.785 4.1289 14.094 8.8633z"/>
  <path d="m1192.9 1030.5-551.46-909.83c-8.8086-14.473-24.523-23.305-41.465-23.305s-32.656 8.832-41.465 23.305l-551.47 909.84c-9 14.918-9.25 33.535-0.65234 48.691 8.5977 15.152 24.703 24.488 42.129 24.414h1102.9c17.426 0.074219 33.535-9.2617 42.133-24.422 8.5977-15.156 8.3438-33.777-0.66797-48.695zm-70.52 8.4258c-7.6016 13.48-21.871 21.824-37.344 21.836h-970.12c-15.477-0.003906-29.75-8.3477-37.34-21.832-7.5938-13.484-7.3281-30.016 0.69922-43.25l485.06-800.27c7.7656-12.82 21.664-20.648 36.652-20.645 14.984 0 28.883 7.832 36.645 20.652l485.05 800.27c8.0156 13.234 8.2852 29.758 0.70312 43.246z"/>
 </g>
</svg>
