<?xml version="1.0" encoding="UTF-8"?>
<svg width="1200pt" height="1200pt" version="1.1" viewBox="0 0 1200 1200" xmlns="http://www.w3.org/2000/svg">
 <path d="m865.68 639.24c0-146.52-119.16-265.68-265.68-265.68s-265.68 119.16-265.68 265.68v265.68h531.36zm-415.08 154.92h-36v-97.922h36zm148.68-304.68c-81.961 0-148.68 66.719-148.68 148.68h-36c0-101.88 82.801-184.68 184.68-184.68zm350.64 478.44v65.641c0 14.879-12.121 27-27 27l-645.84-0.003906c-14.879 0-27-12.121-27-27v-65.641c0-14.879 12.121-27 27-27h645.72c14.879 0 27 12.121 27 27zm-331.92-686.4h-36v-142.08h36zm-315.12 137.04-100.44-100.44 25.441-25.441 100.44 100.44zm594.12 0-25.441-25.441 100.44-100.44 25.441 25.441zm202.44 295.8h-142.08v-36h142.08zm-857.04 0h-141.96v-36h142.08v36z"/>
</svg>
