<?xml version="1.0" encoding="UTF-8"?>
<svg width="1200pt" height="1200pt" version="1.1" viewBox="0 0 1200 1200" xmlns="http://www.w3.org/2000/svg">
 <g>
  <path d="m965.06 844.8 32.68-32.68-42.543-42.562c6.1133-12.711 11.477-25.52 16.051-38.324l60-0.003906v-262.48h-59.98c-4.5742-12.844-9.957-25.648-16.051-38.344l36.73-36.73c0.60156 0 1.1992 0.074219 1.8008 0.074219 103.39 0 187.5-84.113 187.5-187.5 0-23.926-4.5547-47.398-13.555-69.805l-10.574-26.344-125.87 125.89-67.238-67.238 125.89-125.87-26.344-10.574c-22.406-9.0039-45.879-13.559-69.805-13.559-103.39 0-187.5 84.113-187.5 187.5 0 0.60156 0.074219 1.1992 0.074219 1.8203l-36.73 36.73c-12.695-6.0938-25.5-11.477-38.344-16.051v-60h-198.49l-157.76-157.76-121.88 121.88-46.875-46.875-120.26 120.26 46.875 46.875-121.88 121.88 157.76 157.76v198.49h59.98c4.5742 12.805 9.9375 25.613 16.051 38.324l-36.77 36.789c-0.58203 0-1.1797-0.11328-1.7617-0.11328-103.39 0-187.5 84.113-187.5 187.5s84.113 187.5 187.5 187.5 187.5-84.113 187.5-187.5c0-0.60156-0.09375-1.1992-0.09375-1.8008l36.77-36.75c12.711 6.1133 25.52 11.477 38.324 16.051v60h262.5v-59.98c12.805-4.5742 25.613-9.9375 38.324-16.051l42.562 42.543 32.68-32.68 191.29 191.29c16.031 16.027 37.387 24.879 60.113 24.879 46.895 0 85.031-38.137 85.031-85.031 0-22.727-8.8516-44.082-24.898-60.133zm28.688-788.55c9.168 0 18.281 0.84375 27.227 2.5117l-109.99 109.99 120.26 120.26 109.99-109.99c1.668 8.9453 2.5117 18.059 2.5117 27.227 0 82.707-67.293 150-150 150-19.125 0-37.895-3.6367-55.82-10.836l-11.492-4.6133-232.69 232.69-67.238-67.238 232.69-232.69-4.6133-11.492c-7.1992-17.926-10.836-36.695-10.836-55.82 0-82.707 67.293-150 150-150zm-514.01 543.75-57.957 57.957c-5.9609-18.262-9.2812-37.727-9.2812-57.957 0-19.988 3.207-39.355 9.2617-57.977zm26.512 26.512 67.238 67.238-67.949 67.949c-27.77-16.293-50.945-39.469-67.238-67.238zm93.75 93.75 57.957 57.957c-18.262 5.9609-37.727 9.2812-57.957 9.2812s-39.695-3.3203-57.957-9.2812zm94.461 41.438-321.07-321.07 67.238-67.238 321.07 321.07c-16.293 27.77-39.469 50.945-67.238 67.238zm-152.42-339.92c37.48-12.094 78.355-12.074 115.88 0.039062l-57.918 57.918zm245.46 178.22c0 20.23-3.3203 39.695-9.2812 57.957l-57.957-57.957 58.012-58.012c6.0781 18.637 9.2266 38.043 9.2266 58.012zm-93.75-393.75v49.707l13.105 4.1445c19.273 6.0547 38.68 14.195 57.711 24.133l12.207 6.3945 35.344-35.344 1.1641 1.1641c0.73047 2.6055 1.3672 5.2109 2.2109 7.8008l-128.55 128.55c-55.312-23.137-118.59-23.195-173.91-0.019531l-45.898-45.906 121.88-121.88-18.75-18.75zm-554.74 0 67.238-67.238 20.363 20.363-67.238 67.238zm235.99-142.24 160.99 160.99-310.99 310.99-160.99-160.99zm-168.75 1079.7c-82.707 0-150-67.293-150-150s67.293-150 150-150c10.52 0 20.98 1.4453 31.293 3.6562l116.44 116.44-0.75 0.14844c2.0078 9.7344 3.0195 19.746 3.0195 29.758 0 82.707-67.293 150-150 150zm570.54-234.38-12.188 6.375c-19.125 9.9922-38.551 18.113-57.73 24.148l-13.125 4.1445v49.707h-187.5v-49.707l-13.105-4.1445c-19.18-6.0391-38.625-14.156-57.73-24.148l-12.188-6.375-35.344 35.344-132.58-132.58 35.344-35.344-6.375-12.188c-9.9922-19.125-18.113-38.551-24.148-57.73l-4.1641-13.125h-49.707v-123.49l18.75 18.75 121.88-121.88 45.898 45.898c-11.586 27.547-17.773 56.684-17.773 86.965 0 124.07 100.93 225 225 225s225-100.93 225-225c0-30.242-6.1484-59.418-17.738-87l128.49-128.49c2.832 0.91797 5.6797 1.6328 8.5508 2.418l-0.26172 0.26172 0.67578 0.67578-35.344 35.344 6.3945 12.207c9.9375 19.031 18.074 38.438 24.133 57.711l4.1406 13.125h49.707v187.5h-49.707l-4.1445 13.105c-6.0391 19.18-14.156 38.625-24.148 57.73l-6.375 12.188 35.344 35.344-132.58 132.58zm319.43 234.38c-12.711 0-24.637-4.9492-33.617-13.914l-191.29-191.29 67.238-67.238 191.29 191.29c8.9609 8.9609 13.91 20.906 13.91 33.617 0 26.195-21.336 47.531-47.531 47.531z"/>
  <path d="m206.25 900c-51.695 0-93.75 42.055-93.75 93.75s42.055 93.75 93.75 93.75 93.75-42.055 93.75-93.75-42.055-93.75-93.75-93.75zm0 150c-31.012 0-56.25-25.238-56.25-56.25s25.238-56.25 56.25-56.25 56.25 25.238 56.25 56.25-25.238 56.25-56.25 56.25z"/>
  <path d="m859.88 635.01 37.164 4.9883c2.0234-15.039 2.9609-27.734 2.9609-39.996h-37.5c0 10.539-0.82422 21.676-2.625 35.008z"/>
  <path d="m600 862.5v37.5c134.29 0 253.09-90.469 288.9-219.99l-36.148-9.9922c-31.332 113.32-135.26 192.48-252.75 192.48z"/>
 </g>
</svg>
