<?xml version="1.0" encoding="UTF-8"?>
<!DOCTYPE svg PUBLIC "-//W3C//DTD SVG 1.1//EN" "http://www.w3.org/Graphics/SVG/1.1/DTD/svg11.dtd">
<svg xmlns="http://www.w3.org/2000/svg" version="1.1" width="1200px" height="1200px" style="shape-rendering:geometricPrecision; text-rendering:geometricPrecision; image-rendering:optimizeQuality; fill-rule:evenodd; clip-rule:evenodd" xmlns:xlink="http://www.w3.org/1999/xlink">
<g><path style="opacity:0.982" fill="#000000" d="M 226.5,52.5 C 342.5,52.5 458.5,52.5 574.5,52.5C 574.5,72.8333 574.5,93.1667 574.5,113.5C 458.833,113.333 343.166,113.5 227.5,114C 178.448,121.057 145.615,147.89 129,194.5C 127.154,201.065 125.82,207.731 125,214.5C 124.5,338.5 124.333,462.5 124.5,586.5C 104.167,586.5 83.8333,586.5 63.5,586.5C 63.3333,461.5 63.5,336.5 64,211.5C 72.8312,142.307 108.998,93.4735 172.5,65C 190.069,58.324 208.069,54.1573 226.5,52.5 Z"/></g>
<g><path style="opacity:0.982" fill="#000000" d="M 623.5,52.5 C 743.184,52.0211 862.851,52.5211 982.5,54C 1046.32,64.162 1092.15,98.3287 1120,156.5C 1127.64,174.066 1132.31,192.399 1134,211.5C 1134.5,336.5 1134.67,461.5 1134.5,586.5C 1114.17,586.5 1093.83,586.5 1073.5,586.5C 1073.67,462.5 1073.5,338.5 1073,214.5C 1066.54,172.054 1044.04,141.554 1005.5,123C 994.279,118.278 982.612,115.278 970.5,114C 854.834,113.5 739.167,113.333 623.5,113.5C 623.5,93.1667 623.5,72.8333 623.5,52.5 Z"/></g>
<g><path style="opacity:0.991" fill="#000000" d="M 595.5,341.5 C 608.756,341.209 618.923,346.542 626,357.5C 717.667,516.167 809.333,674.833 901,833.5C 910.988,856.685 904.154,872.518 880.5,881C 692.833,881.667 505.167,881.667 317.5,881C 297.2,874.915 289.366,861.415 294,840.5C 386.4,679.369 479.067,518.369 572,357.5C 577.825,349.02 585.658,343.686 595.5,341.5 Z"/></g>
<g><path style="opacity:1" fill="#f0eb6b" d="M 822.5,818.5 C 674.001,819.5 525.334,819.833 376.5,819.5C 450.138,690.228 524.304,561.228 599,432.5C 673.764,561.031 748.264,689.697 822.5,818.5 Z"/></g>
<g><path style="opacity:1" fill="#000000" d="M 591.5,540.5 C 609.105,538.377 621.272,545.377 628,561.5C 628.667,599.167 628.667,636.833 628,674.5C 621.657,693.159 608.824,700.325 589.5,696C 579.91,692.077 573.41,685.244 570,675.5C 569.333,637.5 569.333,599.5 570,561.5C 573.751,550.915 580.917,543.915 591.5,540.5 Z"/></g>
<g><path style="opacity:0.982" fill="#000000" d="M 63.5,635.5 C 83.8333,635.5 104.167,635.5 124.5,635.5C 124.333,759.5 124.5,883.5 125,1007.5C 132.468,1054.3 158.302,1086.13 202.5,1103C 210.313,1105.56 218.313,1107.23 226.5,1108C 342.5,1108.5 458.5,1108.67 574.5,1108.5C 574.5,1128.83 574.5,1149.17 574.5,1169.5C 454.481,1169.98 334.481,1169.48 214.5,1168C 141.613,1155.11 93.446,1113.61 70,1043.5C 67.0991,1032.66 65.0991,1021.66 64,1010.5C 63.5,885.5 63.3333,760.5 63.5,635.5 Z"/></g>
<g><path style="opacity:0.982" fill="#000000" d="M 1073.5,635.5 C 1093.83,635.5 1114.17,635.5 1134.5,635.5C 1134.67,760.5 1134.5,885.5 1134,1010.5C 1125.58,1077.57 1091.08,1125.73 1030.5,1155C 1015.4,1161.37 999.735,1165.7 983.5,1168C 863.519,1169.48 743.519,1169.98 623.5,1169.5C 623.5,1149.17 623.5,1128.83 623.5,1108.5C 739.5,1108.67 855.5,1108.5 971.5,1108C 1020.01,1100.49 1052.51,1073.65 1069,1027.5C 1070.85,1020.94 1072.18,1014.27 1073,1007.5C 1073.5,883.5 1073.67,759.5 1073.5,635.5 Z"/></g>
<g><path style="opacity:1" fill="#010100" d="M 590.5,730.5 C 609.286,727.466 621.786,734.8 628,752.5C 628.667,760.5 628.667,768.5 628,776.5C 620.692,796.281 606.859,803.114 586.5,797C 573.437,789.875 567.77,778.875 569.5,764C 568.537,747.745 575.537,736.578 590.5,730.5 Z"/></g>
<g><path style="opacity:1" fill="#595828" d="M 822.5,818.5 C 823.043,818.56 823.376,818.893 823.5,819.5C 748.833,819.833 674.167,820.167 599.5,820.5C 524.43,820.502 450.097,820.168 376.5,819.5C 525.334,819.833 674.001,819.5 822.5,818.5 Z"/></g>
</svg>
