<?xml version="1.0" encoding="UTF-8"?>
<svg width="1200pt" height="1200pt" version="1.1" viewBox="0 0 1200 1200" xmlns="http://www.w3.org/2000/svg">
 <g>
  <path d="m772.8 476.4h-24c1.1992 0 2.3984 1.1992 3.6016 1.1992v44.398c0 6-9.6016 12-15.602 12s-15.602-4.8008-15.602-12v-44.398c1.1992-15.602-9.6016-30-26.398-32.398h-3.6016-21.602v48c0 6-9.6016 12-15.602 12s-15.602-4.8008-15.602-12v-52.801c0-19.199-12-36-30-36h-31.199v88.801c0 6-9.6016 12-15.602 12s-15.602-4.8008-15.602-12l0.007812-188.4c2.3984-16.801-10.801-32.398-27.602-34.801-16.801-2.3984-32.398 10.801-34.801 27.602v7.1992 288c0 6-4.8008 10.801-10.801 10.801s-10.801-4.8008-10.801-10.801v-49.199h-2.3984c-48-64.801-63.602-55.199-78-46.801-10.801 7.1992-14.398 13.199-14.398 16.801-2.3984 10.801 3.6016 27.602 16.801 50.398 25.199 40.801 104.4 171.6 120 196.8 4.8008 8.3984 7.1992 16.801 7.1992 26.398h249.6c13.199-40.801 31.199-92.398 40.801-120v-156c1.1992-18-12-33.602-30-34.801h1.1992z"/>
  <path d="m512.4 806.4v82.801h249.6v-82.801zm212.4 62.402c-12 0-20.398-9.6016-20.398-20.398 0-12 9.6016-20.398 20.398-20.398 12 0 20.398 9.6016 20.398 20.398 1.1992 10.797-8.3984 20.398-20.398 20.398z"/>
 </g>
</svg>
