<?xml version="1.0" encoding="UTF-8"?>
<svg width="1200pt" height="1200pt" version="1.1" viewBox="0 0 1200 1200" xmlns="http://www.w3.org/2000/svg">
 <path d="m1073.4 544.34v-424.68l-325.04-46.105v981.59l297.82-43.172c0.24219-0.050781 0.48828-0.085937 0.74219-0.10547l26.48-3.8398v-393.71c-8.0664-4.5938-16.902-8.2891-26.512-10.965v69.109h-0.023437c0.70312 46.551-24.348 70.559-57.742 82.922-9.1602 3.3906-18.926 5.8711-28.922 7.6875-7.8125 13.133-10.027 27.477 15.18 53.148 16.117 16.418 22.578 31.512 23.109 45.262 0.53906 13.93-5.0078 26.051-12.809 36.625-2.8164 3.8203-5.4297 8.0039-7.5547 12.711-1.3594 3.0156-2.5273 6.2539-3.4297 9.7617 1.8281 2.1133 2.8008 4.9805 2.4492 7.9961-0.19141 1.5938-0.32031 3.0508-0.39062 4.3555-0.085938 1.6484-0.12109 3.2148-0.10547 4.6953 0.066406 5.6562-4.3867 10.301-9.9414 10.367-5.5547 0.066407-10.113-4.4648-10.176-10.125-0.027344-2.1836 0.007812-4.1719 0.10547-5.9805 0.11328-2.1523 0.26953-4.0547 0.46875-5.7227 0.42188-3.6289 2.6523-6.5938 5.6641-8.0625 1.1055-4.4883 2.5742-8.6094 4.2969-12.43 2.5312-5.6055 5.5977-10.535 8.8906-14.992 6.3008-8.5391 10.785-18.121 10.375-28.711-0.41797-10.77-5.8828-23.008-19.582-36.961-26.891-27.387-28.344-44.668-21.797-59.668-7.6211 0.90625-15.266 1.5039-22.781 1.8984-5.7344 12.086-5.1523 25.988 17.422 48.98 16.117 16.418 22.578 31.512 23.109 45.262 0.53906 13.93-5.0078 26.051-12.809 36.625-3.0977 4.1992-5.957 8.8633-8.1992 14.207-1.3516 3.2266-2.4844 6.707-3.3086 10.488 1.9648 2.0781 3.0625 4.9844 2.7773 8.082-0.10938 1.1523-0.1875 2.3594-0.23828 3.6172-0.054688 1.3438-0.074219 2.6328-0.058594 3.8594 0.066406 5.6562-4.3867 10.301-9.9414 10.367-5.5547 0.066406-10.113-4.4648-10.176-10.125-0.019532-1.7656 0-3.3945 0.058593-4.9023 0.0625-1.5938 0.17188-3.1758 0.32031-4.7422 0.32812-3.5273 2.375-6.4688 5.2188-8.043 1.0039-4.8789 2.4258-9.3359 4.1523-13.449 2.6562-6.332 6.0273-11.836 9.6758-16.781 6.3008-8.5391 10.785-18.121 10.375-28.711-0.41797-10.77-5.8828-23.008-19.582-36.961-25.453-25.922-28.113-42.789-22.773-57.242-7.4883 0.18359-14.73 0.21875-21.551 0.21875-15.402 0-23.461-6.3477-27.738-16.836-3.7539-9.1992-3.9805-21.121-3.9805-34.57v-189.84c0-37.734 28.574-64.641 63.691-76.637 12.488-4.2656 25.836-6.6445 39.012-6.9414 13.25-0.29688 26.332 1.5117 38.199 5.6211 29.148 10.094 51.051 33.664 51.051 73.457v15.207c9.2344 1.668 18.074 3.9883 26.512 6.8984zm-174.79-252.9c-2.2227-0.15234-3.9023-2.1094-3.7539-4.3711 0.14844-2.2617 2.0703-3.9766 4.293-3.8242l82.262 5.7031c2.2227 0.15234 3.9023 2.1094 3.7539 4.3711-0.14844 2.2617-2.0703 3.9766-4.293 3.8242zm-21.422-52.32 128.93 10.082c3.1484 0.24609 6.043 1.6133 8.1367 3.7461 2.1367 2.1758 3.457 5.125 3.4492 8.5195l-0.12109 64.121c0 0.34766-0.003906 0.57031-0.007813 0.67188-0.17187 3.0898-1.4805 5.9531-3.5 8.043-2.1133 2.1836-5.0078 3.5625-8.2422 3.5547-0.32422 0-0.53516-0.003906-0.62109-0.007813l-128.82-7.4102c-3.2031-0.18359-6.125-1.5508-8.2383-3.6992-2.1562-2.1953-3.4922-5.1797-3.4922-8.5625v-66.793c0-0.25391 0.015625-0.56641 0.042969-0.92969 0.22656-2.9883 1.5273-5.7773 3.5-7.8242 2.0977-2.1719 4.9492-3.5508 8.1328-3.5508 0.22266 0 0.50391 0.011719 0.84375 0.039063zm128.03 22.461-128.34-10.035v66.465c0.054687 0.027343 0.12109 0.046875 0.19531 0.050781l128.37 7.3828 0.11719-63.77c-0.085937-0.050781-0.19922-0.082031-0.33984-0.09375zm-128.91-10.082h-0.023437c-0.042969-0.003906-0.007813 0 0.023437 0.003906zm-430.62 568.72c-1.1758 1.9258-3.6641 2.5156-5.5547 1.3164-1.8906-1.1992-2.4688-3.7305-1.293-5.6562 12.086-19.809 23.086-42.426 31.98-67.008 8.1914-22.641 14.594-46.949 18.406-72.266 0.33203-2.2461 2.3867-3.793 4.5938-3.457 2.2031 0.33594 3.7227 2.4297 3.3906 4.6758-3.8984 25.875-10.441 50.723-18.816 73.871-9.0898 25.121-20.34 48.25-32.707 68.516zm524.2-104.62c0.10547-3.418 2.9102-6.1016 6.2695-5.9961 3.3555 0.10547 5.9922 2.9648 5.8867 6.3828-0.40625 13.277-5.7461 23.234-11.789 32.262 5.0664-1.2734 10-2.7656 14.73-4.5156 11.844-4.3828 22.465-10.457 30.824-18.863 7.8398-8.2617 10.996-16.176 10.441-23.051-0.37891-4.7109-2.5664-9.0742-6.2109-12.805-3.9844-4.0781-9.668-7.418-16.668-9.707-20.621-6.7383-51.664-4.1445-84.289 15.125-13.164 7.7734-26.531 17.898-35.652 29.461-6.4766 8.2109-10.758 17.098-11.098 26.254 2.7539 3.4336 7.207 5.4102 14.32 5.4102 8.8164 0 18.348-0.058593 28.18-0.42578 1.7305-2.668 3.5977-5.3164 5.4883-8 6.5234-9.2656 13.398-19.027 13.785-31.531 0.10547-3.418 2.9102-6.1016 6.2695-5.9961 3.3555 0.10547 5.9922 2.9648 5.8867 6.3828-0.5 16.293-8.4258 27.582-15.965 38.289 7.543-0.56641 15.137-1.3789 22.594-2.5469 1.0508-1.5273 2.1289-3.0586 3.2148-4.6016 6.5234-9.2656 13.398-19.027 13.785-31.531zm-102.66 10.484c1.9219-3.4258 4.1836-6.75 6.7148-9.957 10.164-12.883 24.758-23.988 39.035-32.422 35.895-21.199 70.672-23.848 94.105-16.191 8.8711 2.8984 16.23 7.293 21.578 12.762 2.043 2.0898 3.793 4.3359 5.2266 6.7109 0.62109-4.5039 0.90625-9.3086 0.82422-14.43l-0.023438-0.097656v-150.22c0-33.461-18.344-53.258-42.758-61.711-10.543-3.6484-22.203-5.2539-34.055-4.9883-11.926 0.26953-24.035 2.4297-35.391 6.3086-30.52 10.426-55.352 33.273-55.352 64.887v189.84c0 3.2891 0.011718 6.4727 0.089844 9.5039zm179.67-135.55c26.262 6.6445 47.484 20.098 63.797 38.453 18.383 20.684 30.418 47.492 36.305 77.688 6.5586 33.629 6.082 75.602-6.5742 112.74-9.9531 29.215-27.402 55.457-54.812 72.496v41.594c38.633-16.27 64.57-47.113 80.621-82.715 22.316-49.504 25.648-108.09 17.473-150-7.8281-40.137-24.953-76.461-50.824-103.73-22.242-23.445-51.02-40.23-85.984-46.996zm38.715 31.84v254.7c21.152-15.359 35.039-37.367 43.324-61.688 11.891-34.898 12.305-74.508 6.0977-106.34-5.4727-28.066-16.531-52.844-33.352-71.766-4.8633-5.4727-10.219-10.465-16.074-14.914zm0 324.47v65.512c0 1.832-0.66797 3.5312-1.793 4.8516s-2.6875 2.2344-4.4766 2.4922l-25.82 3.7422v31.391c0 1.6328-0.60156 3.1562-1.6055 4.332-1.0039 1.1758-2.4023 1.9961-4 2.2305l-531.79 78.586c-3.9062 0.57031-7.3867-2.5195-7.4141-6.5391l-0.078124-19.086-58.469 6.6406c-3.8086 0.43359-7.2344-2.6875-7.2344-6.5898v-18.395c0-19.539 3.9336-21.492 21-23.758l173.04-22.984-282.58-51.32-274.18 34.863c-3.8555 0.48438-7.3281-2.5469-7.3438-6.543l-0.082031-17.836-65.16 6.3711c-3.7969 0.375-7.1875-2.6523-7.1875-6.5703v-17.43c0-15.348 2.8633-20.574 17.422-22.262l106.56-12.363-118.45-21.512c-1.75-0.31641-3.2539-1.2461-4.3281-2.5508-1.0742-1.3086-1.707-2.9688-1.707-4.7617v-678.3c0-1.707 0.57031-3.3047 1.5625-4.5898 0.98047-1.2695 2.3711-2.2031 4.0195-2.6133l734.68-181.46c0.042969-0.011719 0.082031-0.019531 0.125-0.03125 0.60938-0.20703 1.2656-0.32031 1.9453-0.32031 0.79297 0 1.5547 0.15625 2.25 0.4375l334.8 47.488c1.8164 0.25781 3.3867 1.1641 4.5039 2.4688 1.125 1.3164 1.793 3.0234 1.793 4.875v433.76c21.617 9.3633 40.332 22.832 56.039 39.391 27.547 29.039 45.746 67.531 54.02 109.95 8.5781 43.988 5.0703 105.51-18.379 157.52-17.883 39.668-47.297 73.875-91.68 90.906zm-349.44 107.83v-980.53l-724.03 178.82v670.21l343.3 62.352c0.12891 0.019531 0.25781 0.042968 0.38281 0.070312l193.19 35.086h0.007812c62.383 11.328 124.77 22.66 187.15 33.988zm-53.984-218.48c2.2227 0.19531 3.8672 2.1875 3.6758 4.4531-0.19141 2.2617-2.1484 3.9414-4.3711 3.7461l-136.86-12.102c-2.2227-0.19531-3.8672-2.1875-3.6758-4.4531 0.19141-2.2617 2.1484-3.9414 4.3711-3.7461zm0.10938-42.273c2.2227 0.15234 3.9023 2.1094 3.7539 4.3711-0.14844 2.2617-2.0703 3.9766-4.293 3.8242l-136.86-9.5508c-2.2227-0.15234-3.9023-2.1094-3.7539-4.3711 0.14844-2.2617 2.0703-3.9766 4.293-3.8242zm0.10938-42.273c2.2227 0.10547 3.9375 2.0273 3.8359 4.2891-0.10547 2.2617-1.9922 4.0117-4.2148 3.9062l-136.86-7c-2.2227-0.10547-3.9375-2.0273-3.8359-4.2891 0.10547-2.2617 1.9922-4.0117 4.2109-3.9062l136.86 7zm0.12891-42.273c2.2227 0.070312 3.9688 1.9648 3.8984 4.2266-0.070313 2.2617-1.9258 4.0391-4.1484 3.9688l-136.86-4.4492c-2.2227-0.070313-3.9688-1.9648-3.8984-4.2266 0.070313-2.2617 1.9258-4.0391 4.1484-3.9688zm0.10938-42.273c2.2227 0.027344 4.0039 1.8828 3.9766 4.1445-0.027344 2.2617-1.8477 4.0781-4.0703 4.0508l-136.86-1.8984c-2.2227-0.027343-4.0039-1.8828-3.9766-4.1445 0.027344-2.2617 1.8477-4.0781 4.0703-4.0508zm0.12891-42.273c2.2227-0.007813 4.0312 1.8203 4.0391 4.082s-1.7852 4.1055-4.0078 4.1133l-136.86 0.65234c-2.2227 0.007813-4.0312-1.8203-4.0391-4.082-0.007813-2.2617 1.7852-4.1055 4.0078-4.1133zm0.125-42.273c2.2227-0.042969 4.0586 1.7539 4.1016 4.0195 0.042969 2.2617-1.7227 4.1328-3.9453 4.1797l-136.87 3.2031c-2.2227 0.042969-4.0586-1.7539-4.1016-4.0195-0.042968-2.2617 1.7227-4.1328 3.9453-4.1797zm0.10938-42.273c2.2227-0.089844 4.0938 1.6758 4.1797 3.9375 0.085937 2.2617-1.6445 4.1719-3.8672 4.2578l-136.87 5.75c-2.2227 0.089844-4.0938-1.6758-4.1797-3.9375-0.085937-2.2617 1.6445-4.168 3.8672-4.2578zm0.10937-42.273c2.2227-0.13281 4.1289 1.5938 4.2617 3.8555 0.12891 2.2617-1.5664 4.207-3.7852 4.3398l-136.87 8.3008c-2.2227 0.13281-4.1289-1.5938-4.2617-3.8555-0.12891-2.2617 1.5664-4.207 3.7852-4.3398zm0.125-42.273c2.2227-0.16797 4.1562 1.5312 4.3242 3.793 0.16406 2.2617-1.5 4.2344-3.7227 4.4023l-136.87 10.852c-2.2227 0.16797-4.1562-1.5312-4.3242-3.793-0.16406-2.2617 1.5-4.2344 3.7227-4.4023zm0.10938-42.258c2.2148-0.21094 4.1758 1.4414 4.3867 3.6953 0.21094 2.2539-1.4141 4.2539-3.6289 4.4688l-136.87 13.402c-2.2148 0.21484-4.1758-1.4414-4.3867-3.6953-0.21094-2.2539 1.4141-4.2539 3.6289-4.4688zm0.10937-42.273c2.2148-0.25781 4.2109 1.3633 4.4648 3.6172s-1.3359 4.2891-3.5508 4.5469l-136.88 15.953c-2.2148 0.25781-4.2109-1.3633-4.4648-3.6172-0.25391-2.2539 1.3359-4.2891 3.5508-4.5469zm0.12891-42.258c2.2031-0.29297 4.2266 1.2891 4.5117 3.5352 0.28906 2.2461-1.2656 4.3047-3.4727 4.5977l-136.88 18.504c-2.2031 0.29297-4.2266-1.2891-4.5117-3.5352-0.28906-2.2461 1.2656-4.3047 3.4727-4.5977zm0.10938-42.273c2.2031-0.33594 4.2617 1.2109 4.5938 3.457 0.33203 2.2461-1.1875 4.3398-3.3906 4.6758l-136.88 21.055c-2.2031 0.33594-4.2617-1.2109-4.5898-3.457-0.33203-2.2461 1.1875-4.3398 3.3906-4.6758l136.88-21.055zm-402.1 44.598c11.512 0.86719 22.691 3.6797 33.414 8.2344 0.78906-15.602 2.3398-31.637 5.2148-48.18-13.332-5.1875-27.223-8.1172-41.5-8.5156-0.089844 17.086 1.0469 33.141 2.8711 48.461zm41.309 11.938c10.641 5.4805 20.777 12.707 30.285 21.457 3.375-14.77 7.6016-29.672 13.246-44.57-6.457-5.6875-13.141-10.789-20.027-15.262-6.0312-3.918-12.223-7.3477-18.551-10.266-2.8047 16.684-4.2578 32.875-4.9531 48.641zm37.086 28.094c9.4297 9.7305 18.164 21.016 26.051 33.629 5.7148-13 12.273-25.781 20.207-37.98-10.113-15.527-21.309-29.277-33.391-40.93-5.5195 15.094-9.6055 30.246-12.867 45.281zm31.16 42.195c7.5586 13.281 14.23 27.867 19.871 43.52 7.6953-10.332 16.172-20.121 25.895-28.797-7.3477-19.43-16.047-37.43-25.898-53.668-7.8203 12.484-14.25 25.609-19.871 38.945zm23.082 52.887c5.207 15.996 9.3633 33.004 12.316 50.785 9.1602-6.9336 18.996-13.047 29.875-17.598-2.043-11.391-4.5039-22.504-7.3555-33.301-2.7031-10.227-5.75-20.16-9.125-29.77-9.6445 8.9766-18.047 19.16-25.707 29.883zm13.73 60.02c2.4805 17.625 3.7891 35.953 3.7891 54.758v0.007812c10.004-3.0547 20.523-5.0664 31.785-5.1641-0.25-23.473-2.2148-46.281-5.707-68.129-10.828 4.75-20.66 11.223-29.867 18.523zm3.6953 63.406c-0.40625 18.914-2.1328 37.297-5.0391 54.926 10.168 1.0547 20.656 3.3125 31.543 7.7031 1.6992-10.977 3.0234-22.262 3.9375-33.82 0.89062-11.25 1.3867-22.727 1.457-34.395-11.242 0.11328-21.805 2.3125-31.898 5.5898zm-6.4727 63.055c-3.375 17.953-7.9844 35.059-13.668 51.066 9.6094 5.1055 19.324 11.488 29.055 20.078 6.8672-19.867 12.344-41.07 16.223-63.285-10.84-4.5664-21.363-6.8398-31.609-7.8594zm-16.547 58.836c-6.0742 15.746-13.211 30.344-21.254 43.523 8.3789 8.8008 16.641 18.863 24.547 31.043 9.7734-16.344 18.398-34.445 25.668-53.98-9.6367-8.8555-19.328-15.391-28.961-20.59zm-25.754 50.605c-8.2695 12.508-17.398 23.602-27.23 33.039 6.5625 11.867 12.797 24.918 18.34 39.859 12.027-11.789 23.164-25.664 33.211-41.309-7.7695-12.426-15.965-22.668-24.32-31.594zm-33.391 38.66c-9.8594 8.5234-20.363 15.422-31.367 20.48 4.3164 14.055 8.1094 29.129 10.918 45.762 5.9141-2.7969 11.711-6.043 17.363-9.7148 7.3008-4.7422 14.375-10.191 21.188-16.293-5.4023-15.086-11.566-28.262-18.105-40.234zm-38.867 23.613c-10.723 4.0312-21.875 6.332-33.336 6.7109 1.7656 15.203 2.8594 31.16 2.7695 48.188 14.234-0.55469 28.078-3.625 41.355-8.9375-2.7227-16.699-6.4766-31.84-10.785-45.957zm-41.469 6.6562c-11.41-0.53516-22.508-2.9727-33.176-7.1289-0.84375 15.176-2.4609 30.793-5.3711 46.941 13.297 5.1602 27.152 8.0742 41.395 8.4727 0.089843-17.02-1.0391-33.016-2.8516-48.285zm-41.07-10.555c-10.898-5.2188-21.297-12.25-31.051-20.875-3.293 14.07-7.375 28.25-12.738 42.426 6.457 5.6875 13.141 10.789 20.027 15.262 6.0625 3.9375 12.289 7.3867 18.652 10.316 2.8281-16.203 4.3516-31.883 5.1055-47.133zm-37.883-27.277c-9.6406-9.5664-18.578-20.742-26.668-33.285-5.4336 12.051-11.641 23.898-19.059 35.254 10.113 15.531 21.312 29.281 33.391 40.934 5.2227-14.293 9.1602-28.645 12.332-42.902zm-31.805-41.637c-7.8242-13.316-14.742-28-20.602-43.801-7.1719 9.3516-15.043 18.215-23.984 26.148 7.3516 19.441 16.059 37.445 25.91 53.691 7.2734-11.574 13.344-23.699 18.676-36.039zm-23.844-52.988c-5.457-16.25-9.8203-33.57-12.934-51.715-8.4297 6.1484-17.441 11.566-27.312 15.695 2.043 11.391 4.5039 22.504 7.3555 33.297 2.7031 10.234 5.7578 20.184 9.1367 29.801 8.8398-8.1836 16.629-17.383 23.75-27.082zm-14.379-60.828c-2.6289-17.984-4.0352-36.711-4.0742-55.941-9.1406 2.5781-18.719 4.2305-28.906 4.3164 0.25 23.473 2.2148 46.281 5.707 68.129 9.8164-4.3086 18.816-10.031 27.273-16.504zm-4-64.52c0.37109-19.348 2.125-38.148 5.1094-56.152-9.2812-1.1641-18.828-3.3906-28.703-7.3711-3.3906 21.887-5.2578 44.719-5.4062 68.207 10.168-0.10547 19.785-1.9141 29-4.6836zm6.5508-64.273c3.4609-18.332 8.2109-35.781 14.082-52.074-8.8242-4.8789-17.727-10.895-26.645-18.758-3.125 9.043-5.9609 18.371-8.4961 27.957-3.0195 11.434-5.6055 23.23-7.7148 35.332 9.8438 4.1484 19.426 6.4023 28.777 7.5469zm16.996-59.84c6.25-15.98 13.602-30.754 21.883-44.051-7.7852-8.3594-15.453-17.859-22.809-29.191-9.7773 16.352-18.402 34.449-25.668 53.969 8.8438 8.125 17.738 14.293 26.594 19.273zm26.453-51.098c8.4844-12.562 17.84-23.652 27.918-33.02-6.2031-11.387-12.09-23.875-17.355-38.066-12.023 11.785-23.16 25.656-33.207 41.301 7.2539 11.602 14.871 21.293 22.641 29.789zm34.156-38.523c10.035-8.3828 20.711-15.102 31.887-19.922-4.1602-13.754-7.8125-28.473-10.535-44.645-5.9141 2.7969-11.707 6.043-17.359 9.7109-7.3008 4.7422-14.375 10.191-21.188 16.297 5.1523 14.387 10.996 27.031 17.195 38.562zm39.449-22.867c10.836-3.7734 22.098-5.7812 33.656-5.8398-1.7617-15.188-2.8516-31.125-2.7617-48.129-14.234 0.55469-28.078 3.625-41.355 8.9375 2.6523 16.312 6.2891 31.16 10.465 45.031zm139.5 72.543c-6.5352-10.457-13.66-19.945-21.289-28.332-3.1016 15.855-5.4297 31.539-7.6953 46.844-1.2812 8.6445-2.5469 17.172-3.9219 25.551 1.6641 2.3516 3.2812 4.7812 4.8477 7.2891 3.0742 4.9219 5.9648 10.141 8.6484 15.625 1.8906-5.3984 3.7578-10.883 5.6445-16.426 5.1328-15.066 10.398-30.535 16.645-45.816-0.94531-1.5977-1.9062-3.1797-2.8789-4.7383zm-28.109-35.41c-8.9609-8.7539-18.535-16.027-28.586-21.625-0.46484 17.176-0.15234 33.859 0.15625 50.137 0.16406 8.7148 0.32813 17.32 0.36719 25.828 5.8203 4.6641 11.34 10.133 16.492 16.312 0.92187-5.9141 1.8125-11.902 2.707-17.953 2.5469-17.176 5.1602-34.82 8.8594-52.699zm-36.523-25.652c-10.262-4.6914-20.965-7.6562-31.98-8.6836 2.4688 18.074 5.7852 35.176 9.0117 51.82 1.4258 7.3555 2.8359 14.625 4.1484 21.852 6.6406 2.1328 13.059 5.2227 19.188 9.1641-0.070312-6.5586-0.19531-13.176-0.32031-19.863-0.33203-17.586-0.67188-35.637-0.046876-54.293zm-40.18-9.0938c-0.17969 0-0.35938-0.003907-0.53906-0.003907-10.867 0-21.473 1.8828-31.695 5.4609 5.457 16.898 11.625 32.418 17.621 47.516 2.4023 6.043 4.7773 12.023 7.0703 17.996 2.3125-0.23047 4.6484-0.34766 7-0.34766 4.5 0 8.9297 0.42969 13.281 1.2617-1.1094-5.9805-2.2734-12-3.4531-18.078-3.3438-17.242-6.7773-34.969-9.2891-53.805zm-39.773 8.4297c-10.621 4.6641-20.777 11.176-30.328 19.305 8.0234 14.027 16.504 26.465 24.754 38.566 3.125 4.582 6.2148 9.1172 9.2383 13.672 6.5352-3.5586 13.355-6.1641 20.402-7.707-2.0781-5.3789-4.2188-10.766-6.3828-16.211-6.0117-15.129-12.191-30.68-17.684-47.625zm-36.492 24.855c-9.4844 9.0195-18.305 19.68-26.309 31.73 9.832 9.9805 19.824 18.344 29.551 26.484 3.6797 3.0781 7.3203 6.1289 10.906 9.2188 5.9492-6.4688 12.328-12.02 19.062-16.531-2.918-4.3906-5.9023-8.7695-8.918-13.191-8.082-11.855-16.379-24.027-24.289-37.711zm-30.797 38.766c-7.7461 12.668-14.629 26.695-20.504 41.844 10.703 5.3203 21.301 9.1875 31.629 12.953 4.168 1.5195 8.293 3.0234 12.367 4.5977 1.832-3.4297 3.7461-6.7461 5.7383-9.9375 3.2617-5.2188 6.7344-10.105 10.395-14.625-3.5156-3.0352-7.0938-6.0273-10.707-9.0508-9.5117-7.9609-19.273-16.129-28.922-25.781zm-23.379 49.578c-5.4766 15.367-9.9336 31.793-13.227 49.043 10.668 0.65234 21.039 0.10938 31.152-0.41406 4.5508-0.23828 9.0469-0.47266 13.508-0.60156 3.2266-10.965 7.1641-21.297 11.719-30.844-3.7422-1.4375-7.5352-2.8203-11.363-4.2148-10.371-3.7812-21.008-7.6641-31.793-12.965zm-14.688 57.195c-2.8242 16.895-4.543 34.523-5.0195 52.672 9.9766-3.6367 19.516-8.1797 28.832-12.617 4.6523-2.2188 9.2539-4.4102 13.832-6.457 1.3125-11.965 3.4102-23.504 6.2031-34.48-3.5742 0.12891-7.1836 0.31641-10.824 0.50781-10.695 0.55859-21.668 1.1289-33.023 0.375zm-5.1523 61.422c-0.003906 0.56641-0.007813 1.1367-0.007813 1.7031 0 17.461 1.1484 34.48 3.3281 50.887 8.9219-7.5 17.293-15.668 25.465-23.645 4.3047-4.1992 8.5547-8.3477 12.812-12.336-0.26953-4.9141-0.40625-9.8867-0.40625-14.91 0-6.8203 0.25391-13.547 0.74219-20.156-3.168 1.4609-6.3516 2.9805-9.5625 4.5117-10.402 4.957-21.074 10.039-32.375 13.941zm4.6953 62.027c2.7344 17.168 6.6055 33.598 11.48 49.074 7.582-11.113 14.465-22.672 21.18-33.953 3.4453-5.7852 6.8477-11.5 10.285-17.059-2.4141-10.555-4.1953-21.594-5.2656-32.996-2.6562 2.5469-5.3203 5.1484-8.0039 7.7695-9.4375 9.2148-19.133 18.672-29.676 27.164zm14.676 58.668c5.3164 15.148 11.621 29.281 18.766 42.18 5.7227-14.262 10.625-28.688 15.402-42.762 2.3555-6.9297 4.6797-13.777 7.0625-20.484-3.9414-8.9414-7.3555-18.508-10.176-28.586-2.0586 3.4102-4.1133 6.8633-6.1875 10.348-7.7891 13.082-15.793 26.523-24.867 39.305zm23.887 50.973c0.375 0.61328 0.75391 1.2266 1.1328 1.8359 7.2031 11.527 15.129 21.887 23.652 30.883 3.3555-16.703 5.8086-33.234 8.1992-49.348 1.1211-7.5547 2.2266-15.016 3.4102-22.371-2.5-3.3359-4.9023-6.8438-7.1992-10.52-2.4258-3.8828-4.7383-7.9531-6.9219-12.191-1.4609 4.2305-2.918 8.5117-4.3828 12.824-5.4609 16.07-11.074 32.598-17.891 48.883zm31.633 39.527c9.2227 8.6328 19.059 15.723 29.379 21.051 0.57812-18.305 0.19531-35.992-0.18359-53.211-0.16406-7.4336-0.32422-14.785-0.40625-22.062-6.0547-4.4688-11.801-9.793-17.176-15.875-0.76953 5.0078-1.5195 10.062-2.2773 15.16-2.6562 17.891-5.3867 36.293-9.3359 54.934zm37.312 24.762c10.195 4.2695 20.809 6.8477 31.711 7.5273-2.4727-18.16-5.8008-35.336-9.043-52.055-1.3672-7.0469-2.7148-14.016-3.9844-20.945-6.5898-1.8086-12.973-4.5508-19.09-8.1367 0.085938 5.4648 0.20703 10.973 0.32812 16.531 0.40234 18.43 0.81641 37.387 0.074219 57.078zm39.879 7.6758c10.945-0.27344 21.613-2.457 31.883-6.3516-5.3555-16.375-11.363-31.441-17.215-46.109-2.5156-6.3125-5.0039-12.551-7.4023-18.789-3.1641 0.43359-6.3672 0.65625-9.6055 0.65625-3.4766 0-6.9141-0.25781-10.309-0.75781 1.082 5.8164 2.2148 11.664 3.3594 17.574 3.3398 17.234 6.7773 34.953 9.2852 53.777zm39.355-9.5234c10.441-4.9023 20.414-11.59 29.789-19.852-7.7383-13.348-15.871-25.281-23.793-36.902-3.3945-4.9766-6.7461-9.8984-10.02-14.852-6.4023 3.7227-13.094 6.5195-20.008 8.293 2.2148 5.7383 4.5078 11.48 6.8203 17.289 5.8398 14.641 11.836 29.676 17.207 46.023zm35.875-25.52c9.2383-9.0742 17.824-19.715 25.613-31.691-9.2695-9.2188-18.66-17.078-27.816-24.738-4.2344-3.543-8.418-7.043-12.52-10.617-5.7266 6.418-11.867 11.98-18.352 16.566 3.207 4.8516 6.4961 9.6758 9.8203 14.555 7.7305 11.336 15.656 22.965 23.254 35.926zm30.031-38.766c7.5078-12.531 14.184-26.359 19.883-41.254-9.8867-4.7266-19.672-8.2969-29.227-11.777-4.9727-1.8125-9.8867-3.6055-14.73-5.5195-1.9805 3.7656-4.0625 7.3945-6.2383 10.875-2.9102 4.6562-5.9883 9.043-9.2188 13.148 4.0625 3.543 8.2109 7.0117 12.406 10.527 8.918 7.4648 18.055 15.113 27.121 24zm22.727-48.996c5.2969-15.066 9.6211-31.137 12.832-47.988-9.668-0.40625-19.09 0.082031-28.301 0.5625-5.5391 0.28906-11 0.57422-16.41 0.66797-3.1172 10.574-6.8945 20.562-11.25 29.824 4.5234 1.7773 9.1211 3.4531 13.773 5.1484 9.5898 3.4961 19.406 7.0742 29.355 11.781zm14.289-56.156c2.7539-16.508 4.4492-33.715 4.9648-51.422-8.9258 3.4297-17.516 7.5234-25.922 11.527-5.6836 2.707-11.285 5.375-16.863 7.793-1.3242 11.52-3.375 22.641-6.0742 33.234 4.5234-0.12109 9.1016-0.35938 13.73-0.59766 9.7969-0.51172 19.824-1.0312 30.168-0.53516zm5.1211-60.234c0.007812-0.91016 0.011718-1.8203 0.011718-2.7305 0-16.676-1.0469-32.957-3.0391-48.68-7.9609 6.8789-15.496 14.234-22.875 21.434-5.2305 5.1055-10.387 10.137-15.566 14.887 0.18359 4.082 0.27734 8.2031 0.27734 12.355 0 7.2891-0.28906 14.469-0.84766 21.52 4.1484-1.8711 8.3242-3.8633 12.551-5.875 9.5117-4.5312 19.254-9.1719 29.488-12.918zm-4.3633-60.961c-2.5742-16.805-6.2422-32.914-10.867-48.129-6.7578 10.129-12.988 20.566-19.082 30.781-4.2031 7.043-8.3438 13.98-12.559 20.66 2.1953 10.285 3.793 21.012 4.7266 32.066 3.5352-3.3477 7.0781-6.8086 10.66-10.301 8.6719-8.4648 17.559-17.137 27.121-25.074zm-14.016-57.91c-5.1016-14.996-11.16-29.031-18.047-41.891-5.1758 13.184-9.6992 26.469-14.121 39.457-2.8164 8.2656-5.5898 16.414-8.4648 24.352 3.6953 8.8633 6.8828 18.309 9.5 28.223 2.7695-4.5273 5.5312-9.1523 8.3164-13.824 7.2031-12.07 14.59-24.445 22.816-36.316zm-60.852 0.10156-0.066406-0.10547c-3.7617 20.535-8.5977 40.078-16.52 58.191 1.8594 3.9297 3.5391 8.082 5.0117 12.422 9.3828-14.059 16.547-30.629 23.121-48.453-3.4453-7.8906-7.3125-15.27-11.551-22.051zm-6.5898-9.6562c-4.5938-6.1641-9.5312-11.684-14.754-16.465-0.21484 22.449-1.6445 44.285-6.5312 65.855 1.832 2.3008 3.582 4.7578 5.2344 7.3516 0.38281 0.59766 0.75781 1.2031 1.1289 1.8164 7.1094-18.082 11.414-37.805 14.922-58.555zm-22.773-23.059c-5.6172-4.1172-11.508-7.4219-17.609-9.8125 3.8242 22.648 6.3672 45.117 5.1836 68.926 2.5039 1.7617 4.918 3.7617 7.2305 5.9805 4.1953-21.156 5.1914-42.773 5.1953-65.094zm-26.277-12.559c-4.8516-1.1758-9.8164-1.7891-14.863-1.7891-1.332 0-2.6602 0.042969-3.9805 0.12891 7.6758 20.762 14.09 41.82 16.988 65.812 2.668 0.72656 5.2812 1.6992 7.8203 2.9023 0.70703-22.902-2.0781-44.816-5.9688-67.055zm-27.07-0.58594c-6.4961 1.2891-12.805 3.5898-18.863 6.8047 10.887 16.969 20.629 34.703 27.477 56.672 1.6641-0.19141 3.3438-0.28906 5.0391-0.28906 1.0938 0 2.1797 0.042969 3.2617 0.12109-3.0195-22.82-9.3828-43.141-16.91-63.309zm-25.836 10.977c-6.1367 4.0977-11.977 9.1562-17.441 15.059 13.074 11.781 25.195 24.746 35.328 42.719 2.7891-1.4922 5.6719-2.7031 8.6289-3.6094-6.582-20.762-15.988-37.789-26.516-54.168zm-22.762 21.219c-3.4102 4.2227-6.6523 8.7891-9.6992 13.668-1.7266 2.7617-3.3867 5.6172-4.9883 8.5703 14.117 5.9688 27.562 13.465 40.02 26.234 2.6836-2.8359 5.5195-5.3711 8.4844-7.5703-9.5859-17.066-21.219-29.535-33.816-40.898zm-18.43 29.57c-4.1406 8.6055-7.7617 17.895-10.781 27.746 14.145 0.14844 27.941 2.0469 41.703 9.0781 1.0625-1.9492 2.1758-3.832 3.332-5.6445 1.3477-2.1094 2.7539-4.125 4.2188-6.0469-11.773-12.191-24.754-19.371-38.473-25.133zm-13.129 35.957c-2.6133 9.8711-4.6445 20.246-6.0195 31.008 13.336-5.332 26.668-8.832 40.816-7.5859 1.582-5.3477 3.4648-10.441 5.6172-15.223-13.059-6.6328-26.496-8.2148-40.414-8.1992zm-7.0273 40.277c-0.70703 7.8008-1.0742 15.781-1.0742 23.902 0 2.6328 0.039063 5.2461 0.11719 7.8477 11.879-10.371 24.078-18.941 37.844-23.293 0.60938-5.9297 1.5586-11.691 2.8242-17.223-13.43-0.82812-26.465 3.1484-39.711 8.7695zm-0.44531 42.215c0.72266 10.441 2.0508 20.582 3.9297 30.328 9.8281-14.977 20.27-28.301 32.984-38.031-0.24219-3.4883-0.37109-7.0273-0.37109-10.609 0-2.207 0.046875-4.3945 0.14062-6.5664-13 4.8633-24.871 14.07-36.688 24.883zm6.3672 41.512c2.3008 9.4297 5.125 18.43 8.4219 26.906 7.1484-18.906 15.16-36.391 26.07-51.125-1.2422-4.9297-2.2344-10.051-2.9531-15.324-11.879 10.223-21.867 24.137-31.539 39.543zm13.023 37.738c3.0273 6.5508 6.3516 12.73 9.9414 18.473 0.76172 1.2148 1.5352 2.4102 2.3164 3.5898 3.8555-21.812 8.7852-42.543 17.148-61.672-1.8594-3.9258-3.5352-8.0742-5.0078-12.414-10.02 15.012-17.488 32.855-24.398 52.02zm18.895 31.207c4.8164 6.0781 9.9805 11.465 15.434 16.062 0.039063-23.352 1.2891-46.031 6.3711-68.527-1.832-2.3047-3.582-4.7578-5.2383-7.3516-0.38281-0.59766-0.75781-1.2031-1.1289-1.8164-7.457 18.969-11.832 39.75-15.441 61.633zm23.5 22.145c5.6289 3.7617 11.512 6.7148 17.594 8.7695-3.9297-23.027-6.5781-45.848-5.375-70.047-2.5-1.7617-4.9102-3.7578-7.2227-5.9727-4.3203 21.891-5.1406 44.191-4.9922 67.25zm26.184 11.047c3.8945 0.75 7.8555 1.1406 11.867 1.1406 2.2227 0 4.4297-0.12109 6.6172-0.35547-7.6133-20.625-13.945-41.602-16.758-65.59-2.6641-0.72656-5.2695-1.6953-7.8086-2.8984-0.71094 23.129 2.1289 45.246 6.082 67.703zm26.594-0.61719c6.3711-1.5312 12.551-4.0391 18.48-7.4258-10.59-16.617-20.039-34.039-26.727-55.496-1.6602 0.19141-3.3398 0.28906-5.0352 0.28906-1.1016 0-2.1953-0.042968-3.2812-0.125 2.9219 22.684 9.1523 42.828 16.566 62.758zm25.316-11.801c5.8945-4.1797 11.496-9.2539 16.742-15.113-12.473-11.406-24.031-24.043-33.754-41.281-2.7891 1.4883-5.6641 2.6992-8.6172 3.6055 6.3984 20.188 15.465 36.836 25.629 52.793zm21.973-21.363c2.9688-3.793 5.8047-7.8477 8.4922-12.145 1.9219-3.0742 3.7656-6.2695 5.5273-9.582-13.254-5.8008-25.898-13.156-37.672-25.227-2.6875 2.8398-5.5195 5.375-8.4844 7.5742 9.1602 16.312 20.188 28.422 32.141 39.383zm17.711-29.078c3.9453-8.332 7.4023-17.293 10.309-26.773-13.148-0.37109-26.012-2.4648-38.844-9.0156-1.0625 1.9453-2.1719 3.8281-3.3281 5.6406-1.3477 2.1133-2.7578 4.1328-4.2266 6.0547 11.082 11.477 23.246 18.508 36.086 24.098zm12.645-34.949c2.5156-9.5039 4.4883-19.473 5.8594-29.805-12.332 4.6562-24.707 7.5586-37.781 6.4023-1.582 5.3438-3.4648 10.434-5.6133 15.215 12.16 6.1797 24.645 7.9766 37.535 8.1875zm6.9102-39.016c0.78516-8.1953 1.1914-16.59 1.1914-25.145 0-1.8164-0.019531-3.625-0.054687-5.4258-10.996 9.2773-22.348 16.871-35.023 20.879-0.60938 5.9297-1.5586 11.684-2.8242 17.215 12.422 0.76172 24.496-2.5781 36.715-7.5234zm0.71875-41c-0.60156-10.086-1.7695-19.902-3.4531-29.367-9.1992 13.602-19.016 25.656-30.738 34.625 0.24219 3.4805 0.36719 7.0156 0.36719 10.594 0 2.2031-0.046875 4.3906-0.14062 6.5586 12.008-4.4922 23.043-12.68 33.965-22.414zm-5.7344-40.617c-2.1094-9.2383-4.7188-18.082-7.7773-26.445-6.8008 17.445-14.465 33.57-24.629 47.301 1.2422 4.9297 2.2344 10.047 2.9531 15.324 11.012-9.4727 20.414-22.113 29.453-36.176zm-54.84-6.8984c-9.875-15.48-23.316-25.055-37.98-25.055-14.668 0-28.109 9.5742-37.98 25.055-10.289 16.129-16.652 38.527-16.652 63.371s6.3633 47.242 16.652 63.371c9.875 15.48 23.316 25.055 37.98 25.055 14.668 0 28.109-9.5742 37.98-25.055 10.289-16.129 16.652-38.527 16.652-63.371s-6.3633-47.242-16.652-63.371zm-8.9688 86.633c0.38281-2.2383 2.4727-3.7344 4.6719-3.3438 2.1953 0.39062 3.6641 2.5195 3.2812 4.7578-1.5625 8.9844-4.582 17.062-8.6484 23.582-4.2031 6.7383-9.5625 11.863-15.645 14.691-2.0234 0.94141-4.4102 0.035156-5.332-2.0234-0.92188-2.0586-0.035156-4.4922 1.9883-5.4336 4.6094-2.1445 8.7852-6.207 12.172-11.637 3.5156-5.6367 6.1406-12.688 7.5156-20.59zm48.559-310.03c24.523 15.926 46.543 39.184 64.922 67.996 18.27 28.641 32.973 62.789 42.98 100.68 9.6211 36.41 14.93 76.297 14.93 118.09 0 12.973-0.51562 25.797-1.5156 38.422-1.0078 12.738-2.5312 25.32-4.5312 37.688-4.3906 27.148-11.062 52.844-19.676 76.551-8.8008 24.227-19.652 46.453-32.188 66.105-18.379 28.812-40.395 52.07-64.922 67.996-23.879 15.504-50.078 24.062-77.57 24.062-27.496 0-53.691-8.5586-77.57-24.062-24.523-15.926-46.543-39.184-64.922-67.996-18.27-28.641-32.973-62.789-42.98-100.68-9.6211-36.41-14.93-76.297-14.93-118.09s5.3086-81.684 14.93-118.09c10.012-37.887 24.711-72.035 42.98-100.68 18.379-28.812 40.395-52.07 64.922-67.996 23.879-15.504 50.078-24.062 77.57-24.062 27.496 0 53.691 8.5586 77.57 24.062zm-295.56 682.05c10.461 3.0508 27.113 8.9844 27.512 21.945 0 7.0938 0.066407 14.199 0.097657 21.297l228.86-29.102-147.48-26.785zm-44.742 14.363v11.066l58.426-5.7109c-7.0664-6.3711-40.668-14.641-54.547-14.973-2.9492 0.25-3.668 2.0703-3.8359 5.0898-0.070313 1.2969-0.042969 2.8203-0.042969 4.5312zm481.42 89.938c10.645 3.4297 26.332 10.008 26.684 23.309 0 7.5625 0.058594 15.133 0.089844 22.699l520.48-76.914v-24.625l-297.38 43.105c-0.67969 0.097657-1.6094 0.089844-2.2852-0.03125l-64.965-11.801zm-38.934 15.27v11.938l52.551-5.9688c-5.7969-8.1055-30.367-12.988-39.625-14.859-1.3555-0.27344-2.5586-0.51562-3.9648-0.82031l-0.078125-0.011719c-7.9258-0.92578-8.8828-1.5195-8.8828 9.7188z"/>
</svg>
