<svg width="1600" height="1600" viewBox="0 0 1600 1600" fill="none" xmlns="http://www.w3.org/2000/svg">
<path d="M1206 160H390C381.151 160 374 167.151 374 176V1405.85H176C167.151 1405.85 160 1413 160 1421.85C160 1430.7 167.151 1437.85 176 1437.85H1424C1432.85 1437.85 1440 1430.7 1440 1421.85C1440 1413 1432.85 1405.85 1424 1405.85H1222V176C1222 167.151 1214.85 160 1206 160ZM406 192H1190V1405.85H1132.54V269.387C1132.54 260.538 1125.39 253.387 1116.54 253.387H479.461C470.612 253.387 463.461 260.538 463.461 269.387V1405.85H406.003L406 192ZM1100.55 1405.85H495.467V285.387H1100.56L1100.55 1405.85Z" fill="#1B61AA"/>
<path d="M550 955.28C558.849 955.28 566 948.129 566 939.28V834.671C566 825.822 558.849 818.671 550 818.671C541.151 818.671 534 825.822 534 834.671V939.28C534 948.129 541.151 955.28 550 955.28Z" fill="#1B61AA"/>
</svg>
