<svg width="1600" height="1600" viewBox="0 0 1600 1600" fill="none" xmlns="http://www.w3.org/2000/svg">
<path d="M406.905 572.368C429.668 572.368 448.292 590.992 448.292 613.755C448.292 636.518 429.668 655.142 406.905 655.142C392.42 655.142 377.934 646.865 371.726 634.449H284.814C293.092 679.974 324.132 715.153 365.518 729.638V799.996H448.292V729.638C495.887 713.083 531.066 667.558 531.066 613.755C531.066 582.715 518.65 553.744 500.026 530.982C477.263 506.15 444.153 489.595 406.905 489.595C384.143 489.595 365.518 470.971 365.518 448.208C365.518 425.445 384.143 406.821 406.905 406.821C421.391 406.821 435.876 415.099 442.084 427.515H528.996C520.719 381.989 489.679 346.811 448.292 332.325V261.968H365.518V332.325C317.924 348.88 282.745 394.405 282.745 448.208C282.745 479.248 295.161 508.219 313.785 530.982C336.548 555.814 369.657 572.368 406.905 572.368Z" fill="#1B61AA"/>
<path d="M572.455 549.193H722.275V590.579H572.455V549.193Z" fill="#1B61AA"/>
<path d="M926.725 549.193H1069.92V590.579H926.725V549.193Z" fill="#1B61AA"/>
<path d="M572.455 633.626H685.855V675.013H572.455V633.626Z" fill="#1B61AA"/>
<path d="M956.525 631.968H1069.93V673.354H956.525V631.968Z" fill="#1B61AA"/>
<path d="M572.455 714.743H685.855V756.13H572.455V714.743Z" fill="#1B61AA"/>
<path d="M941.623 714.743H1031.85V756.13H941.623V714.743Z" fill="#1B61AA"/>
<path d="M282.745 1048.32H838.156V1089.71H560.451H282.745V1048.32Z" fill="#1B61AA"/>
<path d="M282.745 1138.55H800.08V1179.93H541.413H282.745V1138.55Z" fill="#1B61AA"/>
<path d="M282.745 1255.25H1069.09V1296.64H282.745V1255.25Z" fill="#1B61AA"/>
<path d="M1348.48 220.584C1323.65 210.238 1296.75 214.376 1273.99 226.792C1267.78 199.891 1245.02 179.198 1213.98 179.198H262.08C226.901 179.198 200 206.099 200 241.278V1358.72C200 1393.9 226.901 1420.8 262.08 1420.8H1213.98C1249.16 1420.8 1276.06 1393.9 1276.06 1358.72V613.759L1394.01 328.19C1410.57 286.803 1391.95 239.208 1348.49 220.584H1348.48ZM1234.68 241.278V280.595L1151.9 479.252V241.283C1151.9 233.006 1149.83 226.798 1147.76 220.59H1213.98C1226.4 220.59 1234.68 228.867 1234.68 241.283V241.278ZM262.086 1379.36C249.67 1379.36 241.392 1371.08 241.392 1358.67V241.223C241.392 228.807 249.67 220.529 262.086 220.529H1089.82C1102.24 220.529 1110.52 228.807 1110.52 241.223V580.595L1019.46 799.945H893.201L876.233 829.385L763.247 824.832L747.934 799.945H572.487V841.332H1002.91L986.355 882.718H282.779V924.105H967.725L951.17 965.492H282.779V1006.88H942.893L915.992 1211.74C913.922 1222.08 920.13 1230.36 928.408 1234.5C936.685 1238.64 947.032 1234.5 953.24 1228.29L1100.16 1037.91L1110.5 1013.08V1358.66C1110.5 1371.07 1102.23 1379.35 1089.81 1379.35L262.086 1379.36ZM986.355 988.249L1062.92 1019.29L969.8 1135.17L986.355 988.249ZM1234.68 1358.66C1234.68 1371.07 1226.4 1379.35 1213.98 1379.35H1147.76C1149.83 1373.14 1151.9 1366.93 1151.9 1358.66V913.753L1234.68 713.021V1358.66ZM1079.48 982.036L1002.92 950.996L1249.16 359.164L1325.73 390.204L1079.48 982.036ZM1356.77 313.644L1340.22 350.892L1263.65 319.852L1280.21 282.604C1288.48 259.841 1311.25 249.494 1334.01 259.841C1354.7 268.118 1365.05 292.951 1356.77 313.644Z" fill="#1B61AA"/>
<path fill-rule="evenodd" clip-rule="evenodd" d="M821.19 560.783C752.847 560.783 697.444 616.186 697.444 684.529C697.444 752.872 752.847 808.276 821.19 808.276C889.533 808.276 944.936 752.872 944.936 684.529C944.936 616.186 889.533 560.783 821.19 560.783ZM643.641 684.529C643.641 586.471 723.132 506.98 821.19 506.98C919.248 506.98 998.739 586.471 998.739 684.529C998.739 782.587 919.248 862.078 821.19 862.078C723.132 862.078 643.641 782.587 643.641 684.529Z" fill="#1B61AA"/>
<path d="M588.433 461.456H688.998V425.308H634.355V308.455H588.433V461.456Z" fill="#1B61AA"/>
<path d="M698.561 461.456H806.062V426.779H742.381V399.982H795.343V368.773H742.381V344.603H804.275V308.455H698.561V461.456Z" fill="#1B61AA"/>
<path d="M813.838 420.789C813.838 434.87 819.442 445.519 830.651 452.734C841.86 459.95 856.012 463.558 873.105 463.558C890.129 463.558 903.965 459.355 914.613 450.948C925.262 442.541 930.586 430.772 930.586 415.64C930.586 402.189 926.943 391.611 919.657 383.905C912.442 376.128 901.408 370.034 886.556 365.62C874.226 361.977 866.345 359.07 862.912 356.898C859.479 354.656 857.763 351.889 857.763 348.597C857.763 345.094 858.884 342.256 861.126 340.085C863.367 337.913 867.01 336.827 872.054 336.827C876.748 336.827 880.356 338.123 882.878 340.715C885.4 343.237 886.661 346.81 886.661 351.434V354.902H927.223V347.441C927.223 334.27 922.004 324.147 911.566 317.071C901.198 309.996 887.677 306.458 871.003 306.458C854.33 306.458 840.879 310.486 830.651 318.543C820.493 326.599 815.414 337.843 815.414 352.274C815.414 364.884 819.162 374.972 826.658 382.539C834.154 390.034 845.924 396.445 861.966 401.769C873.105 405.412 880.286 408.459 883.508 410.911C886.731 413.363 888.342 416.48 888.342 420.263C888.342 424.607 886.941 428.04 884.139 430.562C881.337 433.014 877.414 434.24 872.37 434.24C866.905 434.24 862.632 432.803 859.549 429.931C856.537 426.989 855.031 422.505 855.031 416.48V411.542H813.838V420.789Z" fill="#1B61AA"/>
<path d="M940.149 420.789C940.149 434.87 945.753 445.519 956.962 452.734C968.171 459.95 982.322 463.558 999.416 463.558C1016.44 463.558 1030.28 459.355 1040.92 450.948C1051.57 442.541 1056.9 430.772 1056.9 415.64C1056.9 402.189 1053.25 391.611 1045.97 383.905C1038.75 376.128 1027.72 370.034 1012.87 365.62C1000.54 361.977 992.655 359.07 989.223 356.898C985.79 354.656 984.074 351.889 984.074 348.597C984.074 345.094 985.194 342.256 987.436 340.085C989.678 337.913 993.321 336.827 998.365 336.827C1003.06 336.827 1006.67 338.123 1009.19 340.715C1011.71 343.237 1012.97 346.81 1012.97 351.434V354.902H1053.53V347.441C1053.53 334.27 1048.31 324.147 1037.88 317.071C1027.51 309.996 1013.99 306.458 997.314 306.458C980.641 306.458 967.19 310.486 956.962 318.543C946.804 326.599 941.725 337.843 941.725 352.274C941.725 364.884 945.473 374.972 952.969 382.539C960.465 390.034 972.234 396.445 988.277 401.769C999.416 405.412 1006.6 408.459 1009.82 410.911C1013.04 413.363 1014.65 416.48 1014.65 420.263C1014.65 424.607 1013.25 428.04 1010.45 430.562C1007.65 433.014 1003.72 434.24 998.68 434.24C993.216 434.24 988.942 432.803 985.86 429.931C982.848 426.989 981.341 422.505 981.341 416.48V411.542H940.149V420.789Z" fill="#1B61AA"/>
<path d="M759.522 668.389H883.683V701.498H759.522V668.389Z" fill="#1B61AA"/>
</svg>
