<?xml version="1.0" encoding="UTF-8"?>
<svg width="1200pt" height="1200pt" version="1.1" viewBox="0 0 1200 1200" xmlns="http://www.w3.org/2000/svg">
 <path d="m359.11 223.62c-23.992 0-43.766 19.773-43.766 43.766v665.24c0 23.992 19.773 43.762 43.766 43.762h481.79c23.992 0 43.766-19.77 43.766-43.762v-522.37l-4.1953-4.2734-178.91-182.36h-342.45zm0 29.316h321.64v133.47c0 24.168 19.621 44.492 44.055 44.492h130.54v501.72c0 8.2578-6.1875 14.445-14.445 14.445h-481.79c-8.2578 0-14.445-6.1875-14.445-14.445v-665.24c0-8.2578 6.1875-14.445 14.445-14.445zm350.96 21.215 125.02 127.43h-110.28c-7.8164 0-14.738-7.0938-14.738-15.176zm-304.34 18.301c-0.10156 0-0.19922 0.015625-0.30078 0.019531l76.953 44.426h-16.707l-71.461-41.258c-0.9375 0.55859-1.8438 1.168-2.6875 1.8555l68.246 39.402h-2.2539c-3.8711 0-7.6016 0.69141-11.074 1.9531l-60.359-34.848c-0.47656 0.85938-0.89062 1.7578-1.2539 2.6797l58.223 33.617c-2.793 1.3828-5.375 3.1445-7.6641 5.2227l-52.129-30.098v3.4062l49.961 28.844c-1.8945 2.0586-3.5391 4.3516-4.875 6.8281l-45.086-26.027v3.4062l43.797 25.285c-1.125 2.6211-1.9102 5.4062-2.3203 8.3047l-41.477-23.945v3.4062l41.184 23.777c-0.019531 0.42969-0.035156 0.85937-0.035156 1.293v8.332l-41.148-23.758v3.4062l41.148 23.758v9.6445l-41.148-23.758v3.4062l41.148 23.758v9.6445l-41.148-23.758v3.4062l41.148 23.758v9.6445l-41.148-23.758v3.4062l41.148 23.758v9.6445l-41.148-23.758v3.4062l41.148 23.758v9.6445l-41.148-23.758v3.4062l41.148 23.758v4.2852c0 1.9258 0.17969 3.8125 0.50781 5.6523l-41.656-24.047v3.4062l42.609 24.598c1.9102 6.1602 5.5977 11.586 10.441 15.672l-53.051-30.629v3.4062l210.63 121.61h-16.707l-193.93-111.96v3.4062l188.02 108.55h-16.707l-171.32-98.91v3.4062l165.41 95.504h-16.707l-148.71-85.855v3.4062l142.8 82.449h-16.707l-126.1-72.805v3.4062l120.2 69.395h-16.707l-103.49-59.75v3.4062l97.586 56.344h-16.707l-80.879-46.695v3.4062l74.98 43.289h-16.707l-58.27-33.641v3.4062l52.707 30.43v0.027343c-3.3203 0.53125-6.3555 2.1797-8.6094 4.6719l-44.094-25.457v3.4062l42.336 24.445h-0.003906c-1.5078 2.5586-2.2109 5.5117-2.0117 8.4766l-40.32-23.277v3.4062l41.098 23.727-0.003907 0.003906c1.0156 2.9297 2.9297 5.4648 5.4688 7.2461 2.5391 1.7812 5.5742 2.7188 8.6758 2.6758h3.043l86.398 49.883h-16.707l-127.97-73.887v3.4062l122.07 70.48h-16.707l-105.36-60.832v3.4062l99.465 57.426h-16.707l-82.758-47.781v3.4062l76.855 44.371h-16.707l-60.148-34.727v3.4062l54.789 31.633-0.003906 0.003906c-3.2148 0.66797-6.1172 2.3867-8.2461 4.8867l-46.547-26.875v3.4062l44.867 25.902v0.003906c-1.4531 2.6289-2.0664 5.6406-1.7578 8.6289l-43.105-24.887v3.4062l44.098 25.461h-0.003907c1.1094 2.7695 3.0312 5.1367 5.5117 6.7891 2.4766 1.6562 5.4023 2.5234 8.3828 2.4844h2.168l86.395 49.883h-16.707l-129.85-74.969v3.4062l123.95 71.559h-16.707l-107.24-61.914v3.4062l101.34 58.508h-16.703l-84.633-48.863v3.4062l78.734 45.457h-16.707l-62.023-35.809v3.4062l56.27 32.488v0.003906c-3.4492 0.35547-6.6602 1.9141-9.0781 4.3984l-47.191-27.246v3.4062l45.34 26.18v0.003906c-1.5781 2.4766-2.3789 5.3711-2.3047 8.3086l-43.035-24.844v3.4062l43.629 25.191c0.90234 3.0977 2.7969 5.8125 5.3906 7.7344 2.5938 1.918 5.7461 2.9336 8.9727 2.8945h4.043l86.395 49.883h-16.707l-131.73-76.051v3.4062l125.82 72.645h-16.707l-109.11-63v3.4062l103.21 59.59h-16.707l-86.508-49.945v3.4062l80.605 46.539h-16.707l-63.898-36.891v3.4062l57.996 33.484c-3.7227-0.046875-7.3281 1.3164-10.09 3.8164l-47.902-27.656v3.4062l45.879 26.488 0.003906 0.003907c-1.707 2.3359-2.6914 5.1211-2.8242 8.0117l-43.055-24.859v3.4062l43.312 25.008v0.003906c0.67188 3.3867 2.5078 6.4297 5.1875 8.6016 2.6797 2.1719 6.0391 3.3359 9.4883 3.2891h5.9219l119.57 69.031h5.9023l-119.57-69.031h16.707l119.57 69.031h5.8984l-119.57-69.031h16.707l119.57 69.031h5.9023l-119.57-69.031h16.707l119.57 69.031h5.9023l-119.57-69.031h16.707l119.57 69.031h5.9023l-119.57-69.031h16.707l119.57 69.031h5.8984l-119.57-69.031h16.707l119.57 69.031h5.9023l-119.57-69.031h16.707l119.57 69.031h5.9023l-119.57-69.031h16.707l119.57 69.031h5.8984l-119.57-69.031h16.707l119.57 69.031h5.8984l-119.57-69.031h16.707l119.57 69.031h1.3242c1.3477 0 2.6602-0.14062 3.9453-0.36719l-118.93-68.664h16.707l111.77 64.527c0.83594-0.62891 1.6406-1.2969 2.3828-2.0312l-108.25-62.496h16.707l96.262 55.578c0.39844-0.91016 0.73047-1.8555 1.0078-2.8242l-91.371-52.754h16.707l75.543 43.613v-3.4062l-69.641-40.207h5.4336c2.707 0.035156 5.375-0.67969 7.7031-2.0625l56.508 32.625v-3.4062l-53.938-31.141h0.003906c2.0742-1.9453 3.543-4.4453 4.2344-7.2031l49.703 28.695v-3.4062l-49.27-28.445h-0.003907c0.11328-4.0195-1.418-7.9102-4.2383-10.773-2.8203-2.8633-6.6836-4.4531-10.703-4.4023h-11.34l-86.395-49.883h16.707l145.24 83.855v-3.4062l-139.34-80.449h16.707l122.63 70.801v-3.4062l-116.73-67.395h16.707l100.02 57.75v-3.4062l-94.121-54.34h16.707l77.414 44.695v-3.4062l-71.516-41.289h7.3008c2.3359 0.027343 4.6484-0.5 6.7422-1.543l57.473 33.18v-3.4062l-54.672-31.562-0.003906 0.003906c2.207-1.8086 3.8438-4.2148 4.7109-6.9297l49.965 28.844v-3.4062l-49.328-28.48v0.003906c0.46094-4.668-1.3203-9.2734-4.7969-12.418l54.125 31.25v-3.4062l-141.22-81.531h16.707l124.51 71.887v-3.4062l-118.61-68.48h16.707l101.9 58.832v-3.4062l-95.996-55.426h16.707l79.293 45.777v-3.4062l-73.391-42.371h9.1758c1.9492 0.023437 3.8828-0.33594 5.6953-1.0625l58.52 33.785v-3.4062l-55.496-32.039c2.3477-1.6562 4.1602-3.9609 5.2148-6.6328l50.281 29.027v-3.4062l-49.465-28.559c0.66406-3.9219-0.28125-7.9453-2.6211-11.16l52.082 30.07v-3.4062l-146.93-84.832h0.003906c2.4688-1.5273 4.4336-3.7461 5.6445-6.3828l141.29 81.57v-3.4062l-140.32-81.012c0.82422-3.5625 0.30078-7.3047-1.4766-10.5l141.79 81.863v-3.4062l-298.94-172.59h16.707l282.23 162.94v-3.4062l-276.33-159.54h16.707l259.62 149.89v-3.4062l-253.72-146.48h3.3164c3.625 0 7.125-0.61328 10.406-1.7227l240 138.56v-3.4062l-236.52-136.55c2.8477-1.3398 5.4766-3.0742 7.8242-5.1328l228.7 132.04v-3.4062l-226.48-130.76c1.9336-2.0312 3.6172-4.3008 4.9922-6.7617l221.49 127.88v-3.4062l-220.16-127.11c1.1641-2.5938 2.0039-5.3516 2.4609-8.2266l217.7 125.69v-3.4062l-217.35-125.49c0.035156-0.625 0.058594-1.2539 0.058594-1.8867v-7.7188l217.3 125.45v-3.4062l-217.3-125.46v-9.6445l217.3 125.45v-3.4062l-217.3-125.45v-9.6484l217.3 125.45v-3.4062l-131.22-75.762c-3.1016-1.5234-6.0898-3.2383-8.9297-5.1562l-77.145-44.539v-9.6445l55.777 32.203c-1.0664-1.6758-2.0898-3.3867-3.0273-5.1523l-52.75-30.453v-9.6484l47.418 27.379c-0.42969-1.3477-0.82422-2.7109-1.1836-4.0898l-46.238-26.695v-9.6484l44.25 25.551c-0.13672-1.1875-0.23828-2.3867-0.32422-3.5938l-43.93-25.359v-4.8984c0-1.6875-0.13281-3.3477-0.38281-4.9688l44.098 25.457v-3.4062l-44.961-25.961c-1.6055-5.6484-4.6953-10.711-8.8086-14.734l53.77 31.047v-3.4062l-141.3-81.582h-5.9023l79.02 45.621c-2.7617-0.76172-5.6562-1.1758-8.6367-1.1758h-10.109l-76.98-44.445h-5.9023l76.98 44.445h-16.707l-76.984-44.445h-5.8984l76.98 44.445h-16.711l-76.98-44.445h-5.8984l76.977 44.445h-16.711l-76.973-44.441h-5.5703zm112.71 0 124.59 71.934v-3.4062l-118.7-68.531h-5.8984zm22.605 0 101.99 58.883v-3.4062l-96.086-55.477zm22.605 0 79.383 45.832v-3.4062l-73.484-42.422h-5.8984zm22.609 0 56.77 32.777v-3.4062l-50.875-29.371h-5.8984zm22.605 0 34.164 19.723v-3.4062l-28.262-16.316zm22.605 0 11.559 6.6719v-3.4062l-5.6562-3.2656zm-173.96 73.965h108.7c2.2422 0 3.5898 1.3438 3.5898 3.5898v81.289c0 2.2422-1.3438 3.5898-3.5898 3.5898h-108.7c-2.2422 0-3.5898-1.3438-3.5898-3.5898v-81.289c0-2.2422 1.3438-3.5898 3.5898-3.5898zm258.02 105.09 101.09 58.363v-3.4062l-95.004-54.852h-1.9805c-1.3789 0-2.7461-0.039062-4.1016-0.10547zm22.789 0.10547 78.297 45.207v-3.4062l-72.395-41.797h-5.9023zm22.609 0 55.688 32.152v-3.4062l-49.789-28.746zm22.605 0 33.082 19.098v-3.4062l-27.18-15.691zm22.609 0 10.469 6.0469v-3.4062l-4.5703-2.6367h-5.9023zm-359.62 10.867c3.4492 1.2383 7.1484 1.9219 10.988 1.9219h9.0508l149.93 86.562h-16.707l-153.26-88.484zm25.938 1.9219h16.707l149.93 86.562h-16.707l-149.93-86.562zm22.605 0h16.707l149.93 86.562h-16.711zm171.33 115.38 87.797 50.688 0.011719 0.003906c-0.59766-0.070312-1.1953-0.10156-1.7969-0.10156h-15.086l-86.398-49.883h10.809v0.003906c1.5859 0.015625 3.1641-0.22266 4.6758-0.70703zm-218.96 0.70703h16.707l86.398 49.883h-16.707zm22.605 0h16.707l86.398 49.883h-16.707zm22.609 0h16.707l86.398 49.883h-16.711zm22.609 0h16.707l86.398 49.883h-16.707l-86.395-49.883zm22.605 0h16.707l86.398 49.883h-16.707zm22.609 0h16.707l86.398 49.883h-16.707zm22.609 0h16.707l86.398 49.883h-16.707zm22.605 0h16.707l86.398 49.883h-16.707zm22.609 0h16.707l86.395 49.883h-16.707l-86.398-49.883zm-179 79.402h16.707l86.398 49.883h-16.707l-86.395-49.883zm22.609 0h16.707l86.395 49.883h-16.707zm22.605 0h16.707l86.395 49.883h-16.707l-86.398-49.883zm22.609 0h16.707l86.398 49.883h-16.707l-86.395-49.883zm22.609 0h16.707l86.398 49.883h-16.707l-86.395-49.883zm22.605 0h16.707l86.398 49.883h-16.707zm22.609 0h16.707l86.398 49.883h-16.707zm22.605 0h16.707l86.398 49.883h-16.707zm22.609 0h16.707l86.398 49.883h-16.711zm22.605 0h16.707l87.68 50.621 0.027344 0.003907c-1.543-0.50781-3.1562-0.75781-4.7773-0.74219h-13.215l-86.398-49.883zm-201.6 79.402h16.707l86.395 49.883h-16.707l-86.398-49.883zm22.609 0h16.707l86.398 49.883h-16.707l-86.395-49.883zm22.609 0h16.707l86.398 49.883h-16.707l-86.395-49.883zm22.605 0h16.707l86.398 49.883h-16.707zm22.605 0h16.707l86.398 49.883h-16.707zm22.605 0h16.707l86.398 49.883h-16.707zm22.605 0h16.707l86.398 49.883h-16.707zm22.609 0h16.707l86.395 49.883h-16.707l-86.398-49.883zm22.609 0h16.707l86.398 49.883h-16.707zm-248.8 52.148v3.4062l160.87 92.879h5.9023l-166.77-96.285zm0 13.055v3.4062l138.26 79.824h5.8984l-144.16-83.234zm0 13.055v3.4062l115.65 66.773h5.8984zm0 13.055v3.4062l93.043 53.719h5.9023zm0 13.055v3.4062l70.434 40.664h5.9023l-76.336-44.074zm0 13.055v3.4062l47.824 27.613h5.9023zm0.52344 13.355c0.31641 1.4531 0.76562 2.8516 1.3477 4.1836l23.344 13.48h5.9023z" fill-rule="evenodd"/>
</svg>
