<?xml version="1.0" encoding="UTF-8"?>
<svg width="1200pt" height="1200pt" version="1.1" viewBox="0 0 1200 1200" xmlns="http://www.w3.org/2000/svg">
 <path d="m359.11 223.62c-23.992 0-43.766 19.773-43.766 43.766v665.24c0 23.992 19.773 43.762 43.766 43.762h481.79c23.992 0 43.766-19.77 43.766-43.762v-522.37l-4.1953-4.2734-178.91-182.36h-342.45zm0 29.316h321.64v133.47c0 24.168 19.621 44.492 44.055 44.492h130.54v355.04l-38.727-48.605v-2.0156l-2.9766-1.7188-14.23-17.863 17.207 9.9336v-3.4062l-22.234-12.836-14.23-17.863 36.465 21.055v-3.4062l-41.492-23.957-8.7734-11.008-3.7695 3.7695-379.33-219v3.4062l377.17 217.76-6.1133 6.1133-371.05-214.23v3.4062l368.89 212.98-6.1133 6.1133-362.78-209.45v3.4062l360.62 208.2-6.1133 6.1133-354.5-204.67v3.4062l134.59 77.707-6.1133 6.1133-128.48-74.176v3.4062l126.32 72.93-6.1133 6.1133-120.2-69.398v3.4062l118.04 68.148-6.1172 6.1172-111.93-64.621v3.4062l109.77 63.375-6.1133 6.1133-103.65-59.84v3.4062l101.49 58.594-6.1172 6.1172-95.375-55.066v3.4062l93.215 53.82-6.1133 6.1133-87.102-50.289v3.4062l84.941 49.039-6.1172 6.1172-78.824-45.512v3.4062l76.664 44.262-6.1133 6.1133-70.551-40.73v3.4062l68.391 39.484-6.1133 6.1133-62.273-35.953v3.4062l60.113 34.711-6.1133 6.1133-54-31.176v3.4062l51.84 29.93-6.1133 6.1133-45.723-26.398v3.4062l43.562 25.152-6.1133 6.1133-37.449-21.621v3.4062l35.289 20.371-6.1133 6.1133-29.176-16.84v3.4062l27.012 15.598-6.1133 6.1133-20.902-12.066v3.4062l18.738 10.82-6.1133 6.1133-12.625-7.2891v3.4062l10.465 6.0391-6.1172 6.1172-4.3477-2.5117v3.4062l2.1875 1.2617-40.781 40.781v-485.08c0-8.2578 6.1875-14.445 14.445-14.445zm350.96 21.215 125.02 127.43h-110.28c-7.8164 0-14.738-7.0938-14.738-15.176zm-304.34 18.301c-0.10156 0-0.19922 0.015625-0.30078 0.015625l108.41 62.59c-2.6328-0.30469-5.3047-0.47656-8.0156-0.47656-2.9023 0-5.7617 0.19922-8.5742 0.54688l-103.04-59.492c-0.9375 0.55859-1.8438 1.168-2.6875 1.8555l101.09 58.363c-3.8633 0.74609-7.6211 1.8047-11.238 3.1602l-95.293-55.016c-0.47656 0.85938-0.89062 1.7578-1.2539 2.6797l93.09 53.746c-3.0352 1.3281-5.9609 2.8594-8.7578 4.5898l-85.898-49.598v3.4062l83.129 47.992c-2.4805 1.6992-4.8438 3.5586-7.0859 5.5547l-76.043-43.906v3.4062l73.785 42.598c-2.0469 1.9883-3.9727 4.0977-5.7656 6.3203l-68.02-39.273v3.4062l66.195 38.219c-1.6562 2.2383-3.1758 4.5859-4.5625 7.0156l-61.633-35.586v3.4062l60.227 34.773c-1.2812 2.4805-2.4297 5.0391-3.4102 7.6758l-56.816-32.805v3.4062l55.836 32.234c-0.88281 2.7344-1.5938 5.543-2.1406 8.4102l-53.695-31v3.4062l53.172 30.699c-0.43359 3.0234-0.67188 6.1094-0.69922 9.2422l-52.473-30.297v3.4062l52.527 30.328c0.14062 3.5156 0.54297 6.9609 1.1875 10.328l-53.715-31.012v3.4062l54.57 31.504c1.0586 4.2031 2.5039 8.2539 4.2891 12.125l-58.859-33.984v3.4062l61.305 35.395c3.7148 6.6562 8.4766 12.66 14.07 17.77l-75.379-43.52v3.4062l433.36 250.2v-3.4062l-331.7-191.51c6.6094 2.082 13.633 3.207 20.906 3.207 0.4375 0 0.86719-0.027344 1.3047-0.035157l309.49 178.69v-3.4062l-304.11-175.58c4.3086-0.41406 8.5039-1.2305 12.555-2.3945l291.55 168.32v-3.4062l-287.75-166.13c3.2891-1.1562 6.4648-2.5469 9.5117-4.1562l278.24 160.64v-3.4062l-275.24-158.91c2.6641-1.5781 5.207-3.332 7.6289-5.2383l267.61 154.5v-3.4062l-265.18-153.1c2.1953-1.8906 4.2891-3.9023 6.2383-6.0469l258.94 149.5v-3.4062l-256.97-148.36c1.793-2.1523 3.4492-4.418 4.9805-6.7734l251.99 145.49v-3.4062l-250.43-144.59c1.418-2.3945 2.6953-4.8789 3.8242-7.4414l246.61 142.38v-3.4062l-245.46-141.72c1.0312-2.6406 1.918-5.3477 2.625-8.1289l242.84 140.2v-3.4062l-242.14-139.8c0.60547-2.9141 1.0078-5.8984 1.2383-8.9297l240.91 139.09v-3.4062l-240.73-138.99c0.019532-0.64844 0.046876-1.2891 0.046876-1.9414 0-2.6875-0.16797-5.3359-0.46875-7.9453l241.15 139.23v-3.4062l-241.68-139.54c-0.66016-3.8945-1.6406-7.6758-2.9219-11.328l244.6 141.22v-3.4062l-131.22-75.762c-3.1016-1.5234-6.0898-3.2383-8.9297-5.1562l-106.13-61.273c-2.2109-5.168-5.0234-10.023-8.3555-14.473l93.121 53.762c-1.0664-1.6758-2.0898-3.3867-3.0273-5.1523l-95.82-55.32c-9.0859-9.4336-20.766-16.344-33.863-19.551l-111.09-64.141h-5.5703zm22.277 0 218.74 126.29c-0.42969-1.3477-0.82422-2.7109-1.1836-4.0898l-211.66-122.2zm22.609 0 192.96 111.41c-0.13672-1.1875-0.24219-2.3867-0.32422-3.5938l-186.74-107.81h-5.8984zm22.605 0 169.82 98.043v-3.4062l-163.91-94.637zm22.609 0 147.21 84.988v-3.4062l-141.3-81.582zm22.609 0 124.59 71.934v-3.4062l-118.7-68.531h-5.8984zm22.605 0 101.99 58.883v-3.4062l-96.086-55.477zm22.605 0 79.383 45.832v-3.4062l-73.484-42.422h-5.8984zm22.609 0 56.77 32.777v-3.4062l-50.875-29.371h-5.8984zm22.605 0 34.164 19.723v-3.4062l-28.262-16.316zm22.605 0 11.559 6.6719v-3.4062l-5.6562-3.2656zm-125.66 90.691c23.117 0 41.555 18.434 41.555 41.551 0 23.117-18.438 41.551-41.555 41.551-23.117 0-41.551-18.434-41.551-41.551 0-23.117 18.434-41.551 41.551-41.551zm-122.57 62.809v3.4062l433.36 250.2v-3.4062zm332.28 25.555 101.09 58.363v-3.4062l-95.004-54.852h-1.9805c-1.3789 0-2.7461-0.039062-4.1016-0.10547zm22.789 0.10547 78.297 45.207v-3.4062l-72.395-41.797h-5.9023zm22.609 0 55.688 32.152v-3.4062l-49.789-28.746zm22.605 0 33.082 19.098v-3.4062l-27.18-15.691zm22.609 0 10.469 6.0469v-3.4062l-4.5703-2.6367h-5.9023zm-286.29 108.83 215.73 124.55-6.1133 6.1172-194.51-112.3zm20.449 24.863 187.01 107.97-6.1172 6.1133-165.78-95.715-15.113-18.371zm-24.016 17.273 266.93 324.49h-424.11c-8.2578 0-14.445-6.1914-14.445-14.445v-138.41l171.63-171.63zm44.461 7.5859 158.29 91.387-6.1172 6.1172-137.05-79.129zm20.449 24.859 129.56 74.805-6.1172 6.1133-108.33-62.547zm20.449 24.859 100.84 58.219-6.1172 6.1172-79.605-45.961-15.113-18.375zm20.453 24.863 72.109 41.629-6.1133 6.1133-50.883-29.375-15.113-18.371zm141.75 13.742 91.484 114.82v99.312c0 8.2578-6.1875 14.445-14.445 14.445h-19.449l-129.16-157.01zm-121.3 11.117 43.387 25.051-6.1172 6.1133-22.156-12.793zm20.449 24.859 14.66 8.4648-4.2227 4.2227z" fill-rule="evenodd"/>
</svg>
