<svg width="1600" height="1600" viewBox="0 0 1600 1600" fill="none" xmlns="http://www.w3.org/2000/svg">
<path d="M406.931 572.368C429.693 572.368 448.317 590.992 448.317 613.755C448.317 636.518 429.693 655.142 406.931 655.142C392.445 655.142 377.96 646.865 371.752 634.449H284.84C293.117 679.974 324.157 715.153 365.544 729.638V799.996H448.317V729.638C495.912 713.083 531.091 667.558 531.091 613.755C531.091 582.715 518.675 553.744 500.051 530.982C477.288 506.15 444.179 489.595 406.931 489.595C384.168 489.595 365.544 470.971 365.544 448.208C365.544 425.445 384.168 406.821 406.931 406.821C421.416 406.821 435.901 415.099 442.109 427.515H529.022C520.744 381.989 489.704 346.811 448.317 332.325V261.968H365.544V332.325C317.949 348.88 282.77 394.405 282.77 448.208C282.77 479.248 295.186 508.219 313.81 530.982C336.573 555.814 369.683 572.368 406.931 572.368Z" fill="#1B61AA"/>
<path d="M572.455 549.193H722.276V590.579H572.455V549.193Z" fill="#1B61AA"/>
<path d="M926.727 549.193H1069.92V590.579H926.727V549.193Z" fill="#1B61AA"/>
<path d="M572.455 633.626H685.855V675.013H572.455V633.626Z" fill="#1B61AA"/>
<path d="M956.526 631.968H1069.93V673.354H956.526V631.968Z" fill="#1B61AA"/>
<path d="M572.455 714.743H685.855V756.13H572.455V714.743Z" fill="#1B61AA"/>
<path d="M941.62 714.743H1031.84V756.13H941.62V714.743Z" fill="#1B61AA"/>
<path d="M282.748 1048.32H838.16V1089.71H560.454H282.748V1048.32Z" fill="#1B61AA"/>
<path d="M282.748 1138.55H800.084V1179.93H541.416H282.748V1138.55Z" fill="#1B61AA"/>
<path d="M282.77 1255.25H1069.12V1296.64H282.77V1255.25Z" fill="#1B61AA"/>
<path d="M1348.48 220.584C1323.65 210.238 1296.75 214.376 1273.99 226.792C1267.78 199.891 1245.02 179.198 1213.98 179.198H262.08C226.901 179.198 200 206.099 200 241.278V1358.72C200 1393.9 226.901 1420.8 262.08 1420.8H1213.98C1249.16 1420.8 1276.06 1393.9 1276.06 1358.72V613.759L1394.01 328.19C1410.57 286.803 1391.95 239.208 1348.49 220.584H1348.48ZM1234.68 241.278V280.595L1151.9 479.252V241.283C1151.9 233.006 1149.83 226.798 1147.76 220.59H1213.98C1226.4 220.59 1234.68 228.867 1234.68 241.283V241.278ZM262.086 1379.36C249.67 1379.36 241.392 1371.08 241.392 1358.67V241.223C241.392 228.807 249.67 220.529 262.086 220.529H1089.82C1102.24 220.529 1110.52 228.807 1110.52 241.223V580.595L1019.46 799.945H899.023L868.811 828.557H783.14L745.064 799.945H572.487V841.332H1002.91L986.355 882.718H282.779V924.105H967.725L951.17 965.492H282.779V1006.88H942.893L915.992 1211.74C913.922 1222.08 920.13 1230.36 928.408 1234.5C936.685 1238.64 947.032 1234.5 953.24 1228.29L1100.16 1037.91L1110.5 1013.08V1358.66C1110.5 1371.07 1102.23 1379.35 1089.81 1379.35L262.086 1379.36ZM986.355 988.249L1062.92 1019.29L969.8 1135.17L986.355 988.249ZM1234.68 1358.66C1234.68 1371.07 1226.4 1379.35 1213.98 1379.35H1147.76C1149.83 1373.14 1151.9 1366.93 1151.9 1358.66V913.753L1234.68 713.021V1358.66ZM1079.48 982.036L1002.92 950.996L1249.16 359.164L1325.73 390.204L1079.48 982.036ZM1356.77 313.644L1340.22 350.892L1263.65 319.852L1280.21 282.604C1288.48 259.841 1311.25 249.494 1334.01 259.841C1354.7 268.118 1365.05 292.951 1356.77 313.644Z" fill="#1B61AA"/>
<path d="M557.183 446.553H597.632V373.9C597.632 371.701 597.567 369.115 597.438 366.14C597.373 363.165 597.308 360.837 597.244 359.156H597.826C598.02 360.837 598.44 363.165 599.087 366.14C599.733 369.05 600.348 371.637 600.93 373.9L621.882 446.553H660.197L680.858 373.9C681.44 371.637 682.022 369.212 682.604 366.625C683.186 363.974 683.671 361.484 684.059 359.156H684.641C684.447 361.355 684.35 363.812 684.35 366.528C684.35 369.244 684.35 371.701 684.35 373.9V446.553H725.963V305.321H666.211L645.065 374.385C644.418 376.648 643.804 378.847 643.222 380.981C642.705 383.115 642.22 385.378 641.767 387.771H641.379C640.926 385.378 640.409 383.115 639.827 380.981C639.31 378.847 638.76 376.648 638.178 374.385L617.032 305.321H557.183V446.553Z" fill="#1B61AA"/>
<path d="M737.118 379.72C737.118 403.776 742.809 421.268 754.19 432.197C765.636 443.061 780.219 448.493 797.937 448.493C815.786 448.493 830.4 443.061 841.782 432.197C853.163 421.268 858.854 403.776 858.854 379.72V372.154C858.854 348.098 853.163 330.638 841.782 319.774C830.4 308.845 815.786 303.381 797.937 303.381C780.219 303.381 765.636 308.845 754.19 319.774C742.809 330.638 737.118 348.098 737.118 372.154V379.72ZM781.35 393.3V358.865C781.35 349.1 782.773 342.181 785.618 338.107C788.528 334.033 792.635 331.996 797.937 331.996C803.305 331.996 807.411 334.033 810.257 338.107C813.167 342.181 814.622 349.1 814.622 358.865V393.3C814.622 403.194 813.167 410.21 810.257 414.349C807.411 418.488 803.305 420.557 797.937 420.557C792.635 420.557 788.528 418.488 785.618 414.349C782.773 410.21 781.35 403.194 781.35 393.3Z" fill="#1B61AA"/>
<path d="M870.106 446.553H912.495V399.605H934.417C947.221 399.605 958.117 395.078 967.106 386.025C976.095 376.972 980.589 365.364 980.589 351.202C980.589 337.557 976.418 326.499 968.076 318.028C959.734 309.556 948.708 305.321 934.999 305.321H870.106V446.553ZM912.495 372.93V334.615H923.941C929.05 334.679 932.606 336.522 934.611 340.144C936.68 343.765 937.715 348.389 937.715 354.015C937.715 359.576 936.68 364.135 934.611 367.692C932.606 371.184 929.05 372.93 923.941 372.93H912.495ZM940.528 446.553H986.409L954.205 374.87L917.83 386.607L940.528 446.553Z" fill="#1B61AA"/>
<path d="M991.55 446.553H1090.78V414.543H1032V389.808H1080.89V360.999H1032V338.689H1089.13V305.321H991.55V446.553Z" fill="#1B61AA"/>
<path fill-rule="evenodd" clip-rule="evenodd" d="M821.217 560.783C752.874 560.783 697.471 616.186 697.471 684.529C697.471 752.872 752.874 808.276 821.217 808.276C889.56 808.276 944.963 752.872 944.963 684.529C944.963 616.186 889.56 560.783 821.217 560.783ZM643.668 684.529C643.668 586.471 723.159 506.98 821.217 506.98C919.275 506.98 998.766 586.471 998.766 684.529C998.766 782.587 919.275 862.078 821.217 862.078C723.159 862.078 643.668 782.587 643.668 684.529Z" fill="#1B61AA"/>
<path d="M805.077 747.027V622.866H838.187V747.027H805.077Z" fill="#1B61AA"/>
<path d="M759.546 668.389H883.706V701.498H759.546V668.389Z" fill="#1B61AA"/>
</svg>
