<?xml version="1.0" encoding="UTF-8"?>
<svg width="1200pt" height="1200pt" version="1.1" viewBox="0 0 1200 1200" xmlns="http://www.w3.org/2000/svg">
 <g>
  <path d="m802.94 17.648h-624.71v1164.7h841.77v-945.89c-7.0586-8.8203-210-211.76-217.06-218.82zm157.06 208.23h-148.23v-148.23zm-746.47 921.18v-1094.1h562.94v190.59c0 10.59 7.0586 17.648 17.648 17.648h190.59l-0.003907 885.88z"/>
  <path d="m407.65 536.47c-35.293 0-63.531 28.234-63.531 63.531 0 35.293 28.234 63.531 63.531 63.531 35.293 0 63.531-28.234 63.531-63.531-0.003907-35.293-30.004-63.531-63.531-63.531zm0 91.766c-15.883 0-28.234-12.352-28.234-28.234s12.352-28.234 28.234-28.234c15.883 0 28.234 12.352 28.234 28.234s-14.117 28.234-28.234 28.234z"/>
  <path d="m600 536.47c-35.293 0-63.531 28.234-63.531 63.531 0 35.293 28.234 63.531 63.531 63.531 35.293 0 63.531-28.234 63.531-63.531 0-35.293-28.238-63.531-63.531-63.531zm0 91.766c-15.883 0-28.234-12.352-28.234-28.234s12.352-28.234 28.234-28.234 28.234 12.352 28.234 28.234-12.352 28.234-28.234 28.234z"/>
  <path d="m792.35 536.47c-35.293 0-63.531 28.234-63.531 63.531 0 35.293 28.234 63.531 63.531 63.531 35.293 0 63.531-28.234 63.531-63.531 0-35.293-28.234-63.531-63.531-63.531zm0 91.766c-15.883 0-28.234-12.352-28.234-28.234s12.352-28.234 28.234-28.234c15.883 0 28.234 12.352 28.234 28.234 0.003906 15.883-12.352 28.234-28.234 28.234z"/>
 </g>
</svg>
