<?xml version="1.0" encoding="UTF-8"?>
<svg width="1200pt" height="1200pt" version="1.1" viewBox="0 0 1200 1200" xmlns="http://www.w3.org/2000/svg">
 <g fill="#1B61AA">
  <path d="m876 1104h-824.57c-10.285 0-17.145-6.8555-17.145-17.145v-193.71c0-10.285 6.8555-17.145 17.145-17.145h308.57v-142.29c0-10.285 6.8555-17.145 17.145-17.145 10.285 0 17.145 6.8555 17.145 17.145v159.43c0 10.285-6.8555 17.145-17.145 17.145l-308.57-0.003906v159.43h790.29v-159.43h-308.57c-10.285 0-17.145-6.8555-17.145-17.145v-159.43c0-10.285 6.8555-17.145 17.145-17.145 10.285 0 17.145 6.8555 17.145 17.145v142.29h308.57c10.285 0 17.145 6.8555 17.145 17.145v193.71c0 8.5742-6.8594 17.145-17.145 17.145z"/>
  <path d="m540 642.86c-10.285 0-17.145-6.8555-17.145-17.145v-94.285h-116.57v94.285c0 10.285-6.8555 17.145-17.145 17.145-10.285 0-17.145-6.8555-17.145-17.145v-111.43c0-10.285 6.8555-17.145 17.145-17.145h150.86c10.285 0 17.145 6.8555 17.145 17.145v111.43c0.003906 8.5742-8.5703 17.145-17.141 17.145z"/>
  <path d="m606.86 529.71h-286.29c-10.285 0-17.145-6.8555-17.145-17.145v-137.14c0-10.285 6.8555-17.145 17.145-17.145h286.29c10.285 0 17.145 6.8555 17.145 17.145v137.14c0 10.285-6.8555 17.145-17.145 17.145zm-269.14-34.285h252v-102.86l-252-0.003907z"/>
  <path d="m677.14 241.71h-425.14c-54.855 0-97.715-44.57-97.715-97.715v-12c0-54.855 44.57-97.715 97.715-97.715h425.14c54.855 0 97.715 44.57 97.715 97.715v12c-0.003906 54.855-42.859 97.715-97.715 97.715zm-425.14-173.14c-36 0-63.43 29.145-63.43 63.43v12c0 36 29.145 63.43 63.43 63.43h425.14c36 0 63.43-29.145 63.43-63.43l-0.003907-12c0-36-29.145-63.43-63.43-63.43z"/>
  <path d="m555.43 749.14h-183.43c-37.715 0-66.855-30.855-66.855-66.855v-6.8555c0-37.715 30.855-66.855 66.855-66.855h183.43c37.715 0 66.855 30.855 66.855 66.855v6.8555c0 37.711-29.141 66.855-66.855 66.855zm-183.43-106.29c-18.855 0-32.57 15.43-32.57 32.57v6.8555c0 18.855 15.43 32.57 32.57 32.57h183.43c18.855 0 32.57-15.43 32.57-32.57v-6.8555c0-18.855-15.43-32.57-32.57-32.57z"/>
  <path d="m507.43 392.57h-85.715c-10.285 0-17.145-6.8555-17.145-17.145v-150.86c0-10.285 6.8555-17.145 17.145-17.145h85.715c10.285 0 17.145 6.8555 17.145 17.145v150.86c-0.003907 8.5742-8.5742 17.145-17.145 17.145zm-68.574-34.285h51.43v-116.57h-51.43z"/>
  <path d="m51.43 1165.7c-10.285 0-17.145-6.8555-17.145-17.145v-320.57c0-10.285 6.8555-17.145 17.145-17.145 10.285 0 17.145 6.8555 17.145 17.145l-0.003907 320.57c0 10.285-8.5703 17.145-17.141 17.145z"/>
  <path d="m876 1165.7c-10.285 0-17.145-6.8555-17.145-17.145v-320.57c0-10.285 6.8555-17.145 17.145-17.145 10.285 0 17.145 6.8555 17.145 17.145v320.57c0 10.285-6.8594 17.145-17.145 17.145z"/>
  <path d="m793.71 565.71c-1.7148 0-5.1445 0-6.8555-1.7148-8.5703-3.4297-12-13.715-8.5703-22.285l133.71-282.86c3.4297-8.5703 13.715-12 22.285-8.5703 8.5703 3.4297 12 13.715 8.5703 22.285l-133.71 282.86c-3.4297 6.8555-10.289 10.285-15.43 10.285z"/>
  <path d="m888 610.29c-1.7148 0-5.1445 0-6.8555-1.7148-8.5703-3.4297-12-13.715-8.5703-22.285l133.71-282.86c3.4297-8.5703 13.715-12 22.285-8.5703 8.5703 3.4297 12 13.715 8.5703 22.285l-133.71 282.86c-1.7148 6.8555-8.5742 10.285-15.43 10.285z"/>
  <path d="m1023.4 327.43c-22.285 0-41.145-5.1445-60-13.715-18.855-8.5703-36-22.285-48-37.715-36-42.855-42.855-101.14-18.855-150.86 22.285-46.285 68.57-77.145 120-80.57 8.5703 0 17.145 6.8555 18.855 15.43 0 10.285-6.8555 17.145-15.43 18.855-42.855 1.7109-77.145 25.711-94.285 59.996-17.145 37.715-12 82.285 13.715 114.86 10.285 12 22.285 22.285 37.715 29.145 13.715 6.8555 29.145 10.285 44.57 10.285 41.145 0 80.57-24 97.715-61.715 15.43-34.285 13.715-73.715-6.8555-106.29-5.1445-8.5703-3.4297-18.855 5.1445-24 8.5703-5.1445 18.855-3.4297 24 5.1445 27.43 41.145 30.855 94.285 10.285 138.86-24.004 51.43-73.719 82.289-128.57 82.289z"/>
  <path d="m1011.4 234.86c-6.8555 0-13.715-3.4297-15.43-10.285l-32.57-78.855c-1.7148-5.1445-1.7148-10.285 0-13.715l37.715-78.855c3.4297-8.5703 13.715-12 22.285-8.5703 8.5703 3.4297 12 13.715 8.5703 22.285l-34.285 72 24 56.57 58.285-17.145 32.57-68.57c3.4297-8.5703 13.715-12 22.285-8.5703 8.5703 3.4297 12 13.715 8.5703 22.285l-36 75.43c-1.7148 5.1445-5.1445 6.8555-10.285 8.5703l-80.57 24c-1.7148 3.4258-3.4258 3.4258-5.1406 3.4258z"/>
  <path d="m805.71 816c-8.5703 0-15.43-6.8555-17.145-15.43-1.7148-8.5703 5.1445-17.145 15.43-18.855 37.715-3.4297 70.285-27.43 85.715-61.715 17.145-37.715 12-82.285-13.715-114.86-10.285-12-22.285-22.285-36-29.145-13.715-6.8555-29.145-10.285-46.285-10.285h-1.7148c-41.145 0-78.855 24-97.715 61.715-17.145 36-13.715 77.145 10.285 109.71 5.1445 6.8555 3.4297 18.855-3.4297 24-6.8555 5.1445-18.855 3.4297-24-3.4297-30.855-42.855-36-97.715-13.715-144 24-49.715 73.715-80.57 128.57-80.57h1.7148c20.57 0 41.145 5.1445 60 13.715 18.855 8.5703 34.285 22.285 48 37.715 36 42.855 42.855 102.86 18.855 152.57-22.285 44.57-63.43 75.43-113.14 80.57-1.707-1.7148-1.707-1.7148-1.707-1.7148z"/>
  <path d="m805.71 816c-1.7148 0-5.1445 0-6.8555-1.7148-8.5703-3.4297-12-13.715-8.5703-22.285l32.57-68.57-24-56.57-58.285 17.145-34.285 72c-3.4297 8.5703-13.715 12-22.285 8.5703-8.5703-3.4297-12-13.715-8.5703-22.285l37.715-78.855c1.7148-5.1445 5.1445-6.8555 10.285-8.5703l80.57-24c8.5703-1.7148 17.145 1.7148 20.57 10.285l32.57 78.855c1.7148 5.1445 1.7148 10.285 0 13.715l-36 71.996c-3.4297 6.8555-8.5742 10.285-15.43 10.285z"/>
 </g>
</svg>
