<?xml version="1.0" encoding="UTF-8"?>
<svg width="1200pt" height="1200pt" version="1.1" viewBox="0 0 1200 1200" xmlns="http://www.w3.org/2000/svg">
 <g>
  <path d="m1190.5 380.95c5.2578 0 9.5234-4.2656 9.5234-9.5234 0-5.2578-4.2656-9.5234-9.5234-9.5234h-342.86v-28.574h342.86c5.2578 0 9.5234-4.2656 9.5234-9.5234 0-5.2578-4.2656-9.5234-9.5234-9.5234h-342.86v-152.38c0-21.004-17.09-38.094-38.094-38.094-21.004 0-38.094 17.09-38.094 38.094v152.38h-342.86v-152.38c0-21.004-17.09-38.094-38.094-38.094-21.004 0-38.094 17.09-38.094 38.094v152.38h-342.86c-5.2578 0-9.5234 4.2656-9.5234 9.5234 0 5.2578 4.2656 9.5234 9.5234 9.5234h342.86v28.57l-342.86 0.003906c-5.2578 0-9.5234 4.2656-9.5234 9.5234 0 5.2578 4.2656 9.5234 9.5234 9.5234h342.86v351.45c-7.6328 0.71094-14.113 0.92578-19.047 0.92578-75.215 0-127.24-38.32-146.12-54.797-3.5859-3.1289-8.9375-3.1289-12.523 0-56.664 49.461-121.06 54.797-146.12 54.797-6.0703 0-12.211-0.25391-18.262-0.75391-5.2031-0.44922-9.8438 3.4609-10.277 8.7031-0.4375 5.2422 3.4609 9.8438 8.7031 10.277 6.5742 0.54688 13.246 0.82031 19.836 0.82031 26.289 0 92.461-5.4141 152.4-54.227 24.414 19.664 77.93 54.227 152.36 54.227 26.289 0 92.461-5.4141 152.4-54.227 24.414 19.664 77.93 54.227 152.36 54.227 26.289 0 92.461-5.4141 152.4-54.227 24.41 19.664 77.93 54.227 152.36 54.227 26.289 0 92.453-5.4102 152.4-54.223 17.832 14.398 49.562 35.496 92.84 46.672 5.1055 1.3203 10.289-1.7461 11.602-6.8398s-1.7461-10.285-6.8398-11.602c-45.141-11.656-76.613-34.977-91.355-47.848-3.5859-3.1289-8.9375-3.1289-12.523 0-56.668 49.457-121.06 54.793-146.12 54.793-38.148 0-70.32-9.8633-95.238-21.727v-330.65zm-780.95 338.68c-13.637 4.9297-26.57 8.1328-38.094 10.188v-567.92c0-10.504 8.5469-19.047 19.047-19.047 10.504 0 19.047 8.5469 19.047 19.047zm361.9-30.785c-53.266 39.883-110.14 44.48-133.33 44.48-75.215 0-127.24-38.32-146.12-54.797-3.5859-3.1289-8.9375-3.1289-12.523 0-16.691 14.57-34.051 25.285-50.879 33.188l-0.003907-121.25h342.86zm0-117.42h-342.86v-38.094h342.86zm0-57.145h-342.86v-123.81h342.86zm0-142.86h-342.86v-38.098h342.86zm57.145 330-38.094-25.238v-514.29c0-10.504 8.5469-19.047 19.047-19.047 10.504 0 19.047 8.5469 19.047 19.047z"/>
  <path d="m1198.3 847.56c-3.0195-4.3047-8.9609-5.3438-13.266-2.3281-52.062 36.539-106.76 40.484-127.86 40.484-75.215 0-127.24-38.32-146.12-54.797-3.5859-3.1289-8.9375-3.1289-12.523 0-56.664 49.457-121.06 54.797-146.12 54.797-75.215 0-127.24-38.32-146.12-54.797-3.5859-3.1289-8.9375-3.1289-12.523 0-56.664 49.457-121.06 54.797-146.12 54.797-75.215 0-127.24-38.32-146.12-54.797-3.5859-3.1289-8.9375-3.1289-12.523 0-56.664 49.457-121.06 54.797-146.12 54.797-57.414 0-101.24-22.09-127.9-40.617-4.3203-3.0078-10.254-1.9375-13.254 2.3828-3.0039 4.3164-1.9375 10.254 2.3828 13.254 28.895 20.086 76.422 44.027 138.77 44.027 26.289 0 92.461-5.4141 152.4-54.227 24.414 19.66 77.934 54.227 152.36 54.227 26.289 0 92.461-5.4141 152.4-54.227 24.414 19.66 77.93 54.227 152.36 54.227 26.289 0 92.461-5.4141 152.4-54.227 24.414 19.66 77.93 54.227 152.36 54.227 28.457 0 84.328-5.707 138.8-43.938 4.3086-3.0234 5.3438-8.9609 2.3242-13.266z"/>
  <path d="m1101.5 1002.3c-3.5859-3.1289-8.9375-3.1289-12.523 0-56.664 49.457-121.06 54.793-146.12 54.793-75.215 0-127.24-38.32-146.12-54.797-3.5859-3.1289-8.9375-3.1289-12.523 0-56.668 49.461-121.06 54.797-146.12 54.797-75.215 0-127.24-38.32-146.12-54.797-3.5859-3.1289-8.9375-3.1289-12.523 0-56.664 49.461-121.06 54.797-146.12 54.797-75.215 0-127.24-38.32-146.12-54.797-3.5859-3.1289-8.9375-3.1289-12.523 0-56.664 49.461-121.06 54.797-146.12 54.797-6.0703 0-12.211-0.25391-18.262-0.75391-5.2031-0.44922-9.8438 3.4609-10.277 8.7031-0.4375 5.2422 3.4609 9.8438 8.7031 10.277 6.5742 0.54687 13.246 0.82422 19.836 0.82422 26.289 0 92.461-5.4141 152.4-54.227 24.414 19.66 77.93 54.227 152.36 54.227 26.289 0 92.461-5.4141 152.4-54.227 24.414 19.66 77.93 54.227 152.36 54.227 26.289 0 92.461-5.4141 152.4-54.227 24.41 19.66 77.93 54.227 152.36 54.227 26.289 0 92.453-5.4102 152.4-54.223 17.832 14.398 49.562 35.496 92.84 46.672 5.1055 1.3203 10.289-1.7461 11.602-6.8398s-1.7461-10.285-6.8398-11.602c-45.141-11.656-76.613-34.984-91.359-47.852z"/>
 </g>
</svg>
