<svg width="1600" height="1600" viewBox="0 0 1600 1600" fill="none" xmlns="http://www.w3.org/2000/svg">
<path d="M910.178 200H488.268C461.405 200 439.549 221.855 439.549 248.719V351.039C439.549 377.902 461.404 399.758 488.268 399.758H910.178C937.041 399.758 958.897 377.903 958.897 351.039L958.901 248.719C958.901 221.856 937.046 200 910.182 200H910.178Z" fill="#1B61AA"/>
<path d="M723.428 887.26H477.048C469.97 887.26 464.228 881.518 464.228 874.44C464.228 867.362 469.97 861.62 477.048 861.62H723.428C730.506 861.62 736.248 867.362 736.248 874.44C736.248 881.518 730.51 887.26 723.428 887.26Z" fill="#1B61AA"/>
<path d="M423.118 874.44C423.118 884.35 415.071 892.385 405.145 892.385C395.219 892.385 387.172 884.35 387.172 874.44C387.172 864.53 395.219 856.495 405.145 856.495C415.071 856.495 423.118 864.53 423.118 874.44" fill="#1B61AA"/>
<path d="M723.428 1015.45H477.048C469.97 1015.45 464.228 1009.71 464.228 1002.63C464.228 995.552 469.97 989.81 477.048 989.81H723.428C730.506 989.81 736.248 995.552 736.248 1002.63C736.248 1009.71 730.51 1015.45 723.428 1015.45Z" fill="#1B61AA"/>
<path d="M423.118 1002.62C423.118 1012.53 415.071 1020.57 405.145 1020.57C395.219 1020.57 387.172 1012.53 387.172 1002.62C387.172 992.71 395.219 984.675 405.145 984.675C415.071 984.675 423.118 992.71 423.118 1002.62" fill="#1B61AA"/>
<path d="M723.428 1143.63H477.048C469.97 1143.63 464.228 1137.89 464.228 1130.81C464.228 1123.73 469.97 1117.99 477.048 1117.99H723.428C730.506 1117.99 736.248 1123.73 736.248 1130.81C736.248 1137.89 730.51 1143.63 723.428 1143.63Z" fill="#1B61AA"/>
<path d="M423.118 1130.81C423.118 1140.72 415.071 1148.76 405.145 1148.76C395.219 1148.76 387.172 1140.72 387.172 1130.81C387.172 1120.9 395.219 1112.86 405.145 1112.86C415.071 1112.86 423.118 1120.9 423.118 1130.81" fill="#1B61AA"/>
<path d="M723.428 1271.8H477.048C469.97 1271.8 464.228 1266.06 464.228 1258.98C464.228 1251.9 469.97 1246.16 477.048 1246.16H723.428C730.506 1246.16 736.248 1251.9 736.248 1258.98C736.248 1266.06 730.51 1271.8 723.428 1271.8Z" fill="#1B61AA"/>
<path d="M423.118 1259C423.118 1268.91 415.071 1276.94 405.145 1276.94C395.219 1276.94 387.172 1268.91 387.172 1259C387.172 1249.09 395.219 1241.05 405.145 1241.05C415.071 1241.05 423.118 1249.09 423.118 1259" fill="#1B61AA"/>
<path d="M566.978 490.25C489.119 490.25 425.778 553.504 425.778 631.25C425.778 708.996 489.118 772.25 566.978 772.25C644.838 772.25 708.178 708.996 708.178 631.25C708.178 553.504 644.834 490.25 566.978 490.25ZM566.978 746.62C503.259 746.62 451.418 694.866 451.418 631.26C451.418 571.975 496.453 523.01 554.158 516.62V631.26C554.158 638.338 559.9 644.08 566.978 644.08H681.808C675.394 701.678 626.355 746.62 566.978 746.62Z" fill="#1B61AA"/>
<path d="M349.218 1400H1049.22L1049.22 1400C1084.56 1400 1113.32 1371.24 1113.32 1335.9V951.698H1087.68V1335.9C1087.68 1357.1 1070.43 1374.36 1049.22 1374.36H349.218C328.011 1374.36 310.757 1357.1 310.757 1335.9V346.987C310.757 325.78 328.011 308.526 349.218 308.526H375.441C382.519 308.526 388.261 302.784 388.261 295.706C388.261 288.628 382.519 282.886 375.441 282.886H349.214C313.87 282.886 285.112 311.64 285.112 346.988L285.116 1335.9C285.116 1371.24 313.87 1400 349.218 1400Z" fill="#1B61AA"/>
<path d="M1049.44 295.25C1084.78 295.25 1113.54 324.004 1113.54 359.352L1113.43 636.117H1087.78L1087.9 359.3C1087.9 338.144 1070.64 320.89 1049.44 320.89H1023.21C1016.13 320.89 1010.39 315.148 1010.39 308.07C1010.39 300.992 1016.13 295.25 1023.21 295.25H1049.44Z" fill="#1B61AA"/>
<path fill-rule="evenodd" clip-rule="evenodd" d="M1089.89 575C965.701 575 864.888 675.813 864.888 800C864.888 924.187 965.701 1025 1089.89 1025C1214.08 1025 1314.89 924.187 1314.89 800C1314.89 675.813 1214.08 575 1089.89 575ZM1161.46 734.254L1055.47 849.035L1014.62 803.99C1009.06 797.854 999.576 797.388 993.441 802.953C987.307 808.503 986.841 817.999 992.406 824.134L1044.26 881.329C1047.08 884.45 1051.1 886.234 1055.3 886.249C1059.52 886.279 1063.54 884.525 1066.39 881.436L1183.51 754.606C1189.12 748.533 1188.74 739.037 1182.66 733.413C1176.58 727.801 1167.08 728.178 1161.46 734.251L1161.46 734.254Z" fill="#1B61AA"/>
</svg>
