<svg width="1600" height="1600" viewBox="0 0 1600 1600" fill="none" xmlns="http://www.w3.org/2000/svg">
<path d="M910.179 200H488.269C461.406 200 439.55 221.855 439.55 248.719V351.039C439.55 377.902 461.405 399.758 488.269 399.758H910.179C937.042 399.758 958.898 377.903 958.898 351.039L958.902 248.719C958.902 221.856 937.047 200 910.183 200H910.179Z" fill="#1B61AA"/>
<path d="M723.429 887.26H477.049C469.971 887.26 464.229 881.518 464.229 874.44C464.229 867.362 469.971 861.62 477.049 861.62H723.429C730.507 861.62 736.249 867.362 736.249 874.44C736.249 881.518 730.511 887.26 723.429 887.26Z" fill="#1B61AA"/>
<path d="M423.119 874.44C423.119 884.35 415.072 892.385 405.146 892.385C395.22 892.385 387.173 884.35 387.173 874.44C387.173 864.53 395.22 856.495 405.146 856.495C415.072 856.495 423.119 864.53 423.119 874.44" fill="#1B61AA"/>
<path d="M723.429 1015.45H477.049C469.971 1015.45 464.229 1009.71 464.229 1002.63C464.229 995.552 469.971 989.81 477.049 989.81H723.429C730.507 989.81 736.249 995.552 736.249 1002.63C736.249 1009.71 730.511 1015.45 723.429 1015.45Z" fill="#1B61AA"/>
<path d="M423.119 1002.62C423.119 1012.53 415.072 1020.57 405.146 1020.57C395.22 1020.57 387.173 1012.53 387.173 1002.62C387.173 992.71 395.22 984.675 405.146 984.675C415.072 984.675 423.119 992.71 423.119 1002.62" fill="#1B61AA"/>
<path d="M723.429 1143.63H477.049C469.971 1143.63 464.229 1137.89 464.229 1130.81C464.229 1123.73 469.971 1117.99 477.049 1117.99H723.429C730.507 1117.99 736.249 1123.73 736.249 1130.81C736.249 1137.89 730.511 1143.63 723.429 1143.63Z" fill="#1B61AA"/>
<path d="M423.119 1130.81C423.119 1140.72 415.072 1148.76 405.146 1148.76C395.22 1148.76 387.173 1140.72 387.173 1130.81C387.173 1120.9 395.22 1112.86 405.146 1112.86C415.072 1112.86 423.119 1120.9 423.119 1130.81" fill="#1B61AA"/>
<path d="M723.429 1271.8H477.049C469.971 1271.8 464.229 1266.06 464.229 1258.98C464.229 1251.9 469.971 1246.16 477.049 1246.16H723.429C730.507 1246.16 736.249 1251.9 736.249 1258.98C736.249 1266.06 730.511 1271.8 723.429 1271.8Z" fill="#1B61AA"/>
<path d="M423.119 1259C423.119 1268.91 415.072 1276.94 405.146 1276.94C395.22 1276.94 387.173 1268.91 387.173 1259C387.173 1249.09 395.22 1241.05 405.146 1241.05C415.072 1241.05 423.119 1249.09 423.119 1259" fill="#1B61AA"/>
<path d="M566.979 490.25C489.12 490.25 425.779 553.504 425.779 631.25C425.779 708.996 489.119 772.25 566.979 772.25C644.839 772.25 708.179 708.996 708.179 631.25C708.179 553.504 644.835 490.25 566.979 490.25ZM566.979 746.62C503.26 746.62 451.419 694.866 451.419 631.26C451.419 571.975 496.454 523.01 554.159 516.62V631.26C554.159 638.338 559.901 644.08 566.979 644.08H681.809C675.395 701.678 626.356 746.62 566.979 746.62Z" fill="#1B61AA"/>
<path d="M349.219 1400H1049.22L1049.22 1400C1084.56 1400 1113.32 1371.24 1113.32 1335.9V951.698H1087.68V1335.9C1087.68 1357.1 1070.43 1374.36 1049.22 1374.36H349.219C328.012 1374.36 310.758 1357.1 310.758 1335.9V346.987C310.758 325.78 328.012 308.526 349.219 308.526H375.442C382.52 308.526 388.262 302.784 388.262 295.706C388.262 288.628 382.52 282.886 375.442 282.886H349.215C313.871 282.886 285.113 311.64 285.113 346.988L285.117 1335.9C285.117 1371.24 313.871 1400 349.219 1400Z" fill="#1B61AA"/>
<path d="M1049.44 295.25C1084.78 295.25 1113.54 324.004 1113.54 359.352L1113.43 636.117H1087.79L1087.9 359.3C1087.9 338.144 1070.64 320.89 1049.44 320.89H1023.21C1016.13 320.89 1010.39 315.148 1010.39 308.07C1010.39 300.992 1016.13 295.25 1023.21 295.25H1049.44Z" fill="#1B61AA"/>
<path fill-rule="evenodd" clip-rule="evenodd" d="M864.887 800C864.887 675.813 965.7 575 1089.89 575C1214.07 575 1314.89 675.813 1314.89 800C1314.89 924.187 1214.07 1025 1089.89 1025C965.7 1025 864.887 924.187 864.887 800ZM992.387 751.701C992.387 698.019 1035.91 654.501 1089.59 654.501L1089.59 654.503C1143.27 654.503 1186.79 698.022 1186.79 751.703C1186.79 777.583 1177.19 798.738 1160.99 817.64L1160.38 818.347L1159.68 818.959C1146.18 830.773 1143.19 841.088 1141.55 848.837C1141.33 849.918 1141.12 850.962 1140.91 852.059L1140.9 852.151C1140.7 853.181 1140.48 854.308 1140.25 855.389C1139.8 857.489 1139.12 860.34 1137.84 863.087C1136.46 866.055 1134.16 869.399 1130.25 871.802C1126.43 874.148 1122.35 874.822 1118.75 874.822H1060.43C1056.43 874.822 1052.52 873.838 1049 871.675C1045.6 869.591 1043.24 866.828 1041.56 864.27C1038.67 859.858 1036.73 854.199 1035.23 849.807L1035.01 849.162C1031.57 839.163 1027.8 828.297 1018.41 817.893L1018.05 817.49L1017.72 817.06C1004.01 799.059 992.387 778.034 992.387 751.701ZM1055.6 736.826C1052.14 734.808 1047.8 735.118 1044.66 737.607C1041.53 740.095 1040.24 744.252 1041.41 748.08L1067.33 832.32C1068.91 837.451 1074.35 840.33 1079.48 838.752C1084.61 837.173 1087.49 831.733 1085.92 826.603L1067.32 766.167L1084.69 776.298C1087.71 778.062 1091.46 778.062 1094.48 776.298L1111.85 766.167L1093.25 826.603C1091.68 831.733 1094.56 837.173 1099.69 838.752C1104.82 840.33 1110.26 837.451 1111.83 832.32L1137.75 748.08C1138.93 744.252 1137.64 740.095 1134.51 737.607C1131.37 735.118 1127.03 734.808 1123.57 736.826L1089.58 756.649L1055.6 736.826ZM1057.19 884.541C1050.03 884.541 1044.23 890.344 1044.23 897.501C1044.23 904.658 1050.03 910.461 1057.19 910.461H1121.99C1129.14 910.461 1134.95 904.658 1134.95 897.501C1134.95 890.344 1129.14 884.541 1121.99 884.541H1057.19ZM1066.91 920.181C1059.75 920.181 1053.95 925.984 1053.95 933.141C1053.95 940.298 1059.75 946.101 1066.91 946.101H1112.27C1119.42 946.101 1125.23 940.298 1125.23 933.141C1125.23 925.984 1119.42 920.181 1112.27 920.181H1066.91Z" fill="#1B61AA"/>
</svg>
