<?xml version="1.0" encoding="UTF-8"?>
<svg width="1200pt" height="1200pt" version="1.1" viewBox="0 0 1200 1200" xmlns="http://www.w3.org/2000/svg">
 <g>
  <path d="m1004.6 280.85h-809.2c-41.578 0-75.398 33.82-75.398 75.398v267.84c0 41.578 33.82 75.398 75.398 75.398h809.2c41.578 0 75.398-33.82 75.398-75.398v-267.84c0-41.578-33.82-75.398-75.398-75.398zm-38.18 394.64h-732.84v-70.969h732.84zm89.578-51.398c0 28.336-23.062 51.398-51.398 51.398h-14.18v-82.969c0-6.6328-5.3672-12-12-12h-756.84c-6.6328 0-12 5.3672-12 12v82.969h-14.18c-28.336 0-51.398-23.062-51.398-51.398v-267.84c0-28.336 23.062-51.398 51.398-51.398h809.2c28.336 0 51.398 23.062 51.398 51.398z"/>
  <path d="m369 920.58c0 6.6328 5.3672 12 12 12s12-5.3672 12-12c0-9.0938 3.5859-13.172 9.0117-19.324 6.3281-7.1953 14.988-17.027 14.988-35.191s-8.6719-28.008-15-35.191c-5.4141-6.1523-9-10.219-9-19.312s3.5859-13.16 9-19.312c6.3281-7.1836 15-17.016 15-35.168 0-6.6328-5.3672-12-12-12s-12 5.3672-12 12c0 9.082-3.5859 13.148-9 19.301-6.3281 7.1836-15 17.027-15 35.18s8.6602 27.996 14.988 35.18c5.4258 6.1523 9.0117 10.219 9.0117 19.324 0 9.0938-3.5859 13.172-9.0117 19.324-6.3281 7.1953-14.988 17.027-14.988 35.191z"/>
  <path d="m507 920.58c0 6.6328 5.3672 12 12 12s12-5.3672 12-12c0-9.0938 3.5859-13.172 9.0117-19.324 6.3281-7.1953 14.988-17.027 14.988-35.191s-8.6719-28.008-15-35.191c-5.4141-6.1523-9-10.219-9-19.312s3.5859-13.16 9-19.312c6.3281-7.1836 15-17.016 15-35.168 0-6.6328-5.3672-12-12-12s-12 5.3672-12 12c0 9.082-3.5859 13.148-9 19.301-6.3281 7.1836-15 17.027-15 35.18s8.6602 27.996 14.988 35.18c5.4258 6.1523 9.0117 10.219 9.0117 19.324 0 9.0938-3.5859 13.172-9.0117 19.324-6.3281 7.1953-14.988 17.027-14.988 35.191z"/>
  <path d="m645 920.58c0 6.6328 5.3672 12 12 12s12-5.3672 12-12c0-9.0938 3.5859-13.172 9.0117-19.324 6.3281-7.1953 14.988-17.027 14.988-35.191s-8.6719-28.008-15-35.191c-5.4141-6.1523-9-10.219-9-19.312s3.5859-13.16 9-19.312c6.3281-7.1836 15-17.016 15-35.168 0-6.6328-5.3672-12-12-12s-12 5.3672-12 12c0 9.082-3.5859 13.148-9 19.301-6.3281 7.1836-15 17.027-15 35.18s8.6602 27.996 14.988 35.18c5.4258 6.1523 9.0117 10.219 9.0117 19.324 0 9.0938-3.5859 13.172-9.0117 19.324-6.3281 7.1953-14.988 17.027-14.988 35.191z"/>
  <path d="m783 920.58c0 6.6328 5.3672 12 12 12s12-5.3672 12-12c0-9.0938 3.5859-13.172 9.0117-19.324 6.3281-7.1953 14.988-17.027 14.988-35.191s-8.6719-28.008-15-35.191c-5.4141-6.1523-9-10.219-9-19.312s3.5859-13.16 9-19.312c6.3281-7.1836 15-17.016 15-35.168 0-6.6328-5.3672-12-12-12s-12 5.3672-12 12c0 9.082-3.5859 13.148-9 19.301-6.3281 7.1836-15 17.027-15 35.18s8.6602 27.996 14.988 35.18c5.4258 6.1523 9.0117 10.219 9.0117 19.324 0 9.0938-3.5859 13.172-9.0117 19.324-6.3281 7.1953-14.988 17.027-14.988 35.191z"/>
 </g>
</svg>
