<?xml version="1.0" encoding="UTF-8"?>
<svg width="1200pt" height="1200pt" version="1.1" viewBox="0 0 1200 1200" xmlns="http://www.w3.org/2000/svg">
 <path d="m737.09 759.35 198.15 198.15c6.1406 6.1406 16.125 6.1406 22.262 0 6.1406-6.1367 6.1406-16.121 0-22.262l-198.15-198.15c47.75-53.027 76.816-123.17 76.816-200.06 0-165.09-134.05-299.14-299.14-299.14-165.09 0-299.14 134.05-299.14 299.14 0 165.09 134.05 299.14 299.14 299.14 76.891 0 147.03-29.066 200.06-76.816zm-200.06-489.97c147.72 0 267.65 119.93 267.65 267.65 0 147.72-119.93 267.65-267.65 267.65-147.73 0-267.65-119.93-267.65-267.65 0-147.73 119.93-267.65 267.65-267.65z" fill-rule="evenodd"/>
</svg>
