<?xml version="1.0" encoding="UTF-8"?>
<svg width="1200pt" height="1200pt" version="1.1" viewBox="0 0 1200 1200" xmlns="http://www.w3.org/2000/svg">
 <g>
  <path d="m646.8 1176.7c21.727 13.656 48.98 15.062 72 3.7227l288.6-141.48c13.449-6.6641 24.793-16.914 32.777-29.621 7.9844-12.707 12.297-27.375 12.465-42.379v-733.32c-0.16797-15.008-4.4805-29.676-12.465-42.383-7.9844-12.707-19.328-22.957-32.777-29.617l-288.72-141.96c-22.98-11.141-50.074-9.6914-71.738 3.832-21.66 13.523-34.859 37.23-34.941 62.77v85.559h-213.96c-19.602-0.09375-38.438 7.625-52.332 21.453s-21.707 32.625-21.707 52.227v53.16c0 10.719 5.7188 20.621 15 25.98s20.719 5.3594 30 0 15-15.262 15-25.98v-53.16c0.066406-7.4609 6.0977-13.496 13.559-13.559h214.44v736.08h-213.96c-3.668 0.097657-7.2227-1.2852-9.8633-3.8359-2.6406-2.5469-4.1445-6.0508-4.1758-9.7227v-53.16c0-10.719-5.7188-20.621-15-25.98s-20.719-5.3594-30 0-15 15.262-15 25.98v53.16c0.03125 19.5 7.793 38.191 21.582 51.98 13.785 13.785 32.477 21.547 51.977 21.578h214.44v85.562c-0.16016 25.656 13.016 49.559 34.801 63.117zm25.199-1090.4c-0.03125-4.9062 2.5234-9.4648 6.7188-12 2.1914-1.4102 4.7188-2.1953 7.3203-2.2812 2.1719 0.035156 4.3086 0.56641 6.2422 1.5586l288.72 141.36c3.5508 1.6836 6.5586 4.332 8.6797 7.6406 2.1211 3.3086 3.2734 7.1484 3.3203 11.078v732.72c-0.046875 3.9297-1.1992 7.7695-3.3203 11.078-2.1211 3.3086-5.1289 5.957-8.6797 7.6406l-288.72 141.36c-4.3867 2.0273-9.5 1.707-13.59-0.86328-4.0938-2.5664-6.6094-7.0273-6.6914-11.859z"/>
  <path d="m768 664.2c7.957 0 15.586-3.1602 21.215-8.7852 5.625-5.625 8.7852-13.258 8.7852-21.215v-68.398c0-10.719-5.7188-20.621-15-25.98-9.2812-5.3594-20.719-5.3594-30 0-9.2812 5.3594-15 15.262-15 25.98v68.398c0 7.957 3.1602 15.59 8.7852 21.215 5.6289 5.625 13.258 8.7852 21.215 8.7852z"/>
  <path d="m214.32 494.04v49.801c-18.516 2.4453-35.516 11.531-47.832 25.57-12.316 14.039-19.113 32.074-19.129 50.75v113.88c0 20.434 8.1172 40.027 22.566 54.477 14.445 14.449 34.043 22.562 54.473 22.562h206.04c20.43 0 40.027-8.1133 54.473-22.562 14.449-14.449 22.566-34.043 22.566-54.477v-113.88c-0.015625-18.676-6.8125-36.711-19.129-50.75-12.316-14.039-29.316-23.125-47.832-25.57v-49.801c-0.03125-27.867-11.117-54.59-30.824-74.297-19.707-19.707-46.426-30.789-74.297-30.82h-15.957c-27.871 0.03125-54.59 11.113-74.297 30.82-19.707 19.707-30.793 46.43-30.824 74.297zm233.16 126.12v113.88c0 4.5195-1.7969 8.8555-4.9922 12.051-3.1953 3.1953-7.5273 4.9883-12.047 4.9883h-206.16c-4.5195 0-8.8555-1.793-12.051-4.9883-3.1953-3.1953-4.9922-7.5312-4.9922-12.051v-113.88c0-4.5195 1.7969-8.8555 4.9922-12.051 3.1953-3.1953 7.5312-4.9883 12.051-4.9883h206.16c4.5195 0 8.8516 1.793 12.047 4.9883 3.1953 3.1953 4.9922 7.5312 4.9922 12.051zm-66.961-126.12v49.078l-106.2 0.003906v-49.082c0.03125-11.957 4.7969-23.414 13.25-31.867 8.4531-8.457 19.914-13.219 31.871-13.25h15.961-0.003906c11.957 0.03125 23.418 4.793 31.871 13.25 8.4531 8.4531 13.219 19.91 13.25 31.867z"/>
 </g>
</svg>
