<?xml version="1.0" encoding="UTF-8"?>
<svg width="1200pt" height="1200pt" version="1.1" viewBox="0 0 1200 1200" xmlns="http://www.w3.org/2000/svg">
 <g>
  <path d="m1143.8 487.5h-131.25c-0.042969-14.906-5.9844-29.188-16.523-39.727-10.539-10.539-24.82-16.48-39.727-16.523h-75c-14.906 0.042969-29.188 5.9844-39.727 16.523-10.539 10.539-16.48 24.82-16.523 39.727h-75v-75c14.906-0.042969 29.188-5.9844 39.727-16.523 10.539-10.539 16.48-24.82 16.523-39.727v-75c-0.042969-14.906-5.9844-29.188-16.523-39.727-10.539-10.539-24.82-16.48-39.727-16.523v-168.75c0-4.9727-1.9766-9.7422-5.4922-13.258-3.5156-3.5156-8.2852-5.4922-13.258-5.4922h-262.5c-4.9727 0-9.7422 1.9766-13.258 5.4922-3.5156 3.5156-5.4922 8.2852-5.4922 13.258v168.75c-14.906 0.042969-29.188 5.9844-39.727 16.523-10.539 10.539-16.48 24.82-16.523 39.727v75c0.042969 14.906 5.9844 29.188 16.523 39.727 10.539 10.539 24.82 16.48 39.727 16.523v75h-75c-0.042969-14.906-5.9844-29.188-16.523-39.727-10.539-10.539-24.82-16.48-39.727-16.523h-75c-14.906 0.042969-29.188 5.9844-39.727 16.523-10.539 10.539-16.48 24.82-16.523 39.727h-131.25c-4.9727 0-9.7422 1.9766-13.258 5.4922-3.5156 3.5156-5.4922 8.2852-5.4922 13.258v262.5c0 4.9727 1.9766 9.7422 5.4922 13.258 3.5156 3.5156 8.2852 5.4922 13.258 5.4922h131.25c0.042969 14.906 5.9844 29.188 16.523 39.727 10.539 10.539 24.82 16.48 39.727 16.523h75c14.906-0.042969 29.188-5.9844 39.727-16.523 10.539-10.539 16.48-24.82 16.523-39.727h450c0.042969 14.906 5.9844 29.188 16.523 39.727 10.539 10.539 24.82 16.48 39.727 16.523h75c14.906-0.042969 29.188-5.9844 39.727-16.523 10.539-10.539 16.48-24.82 16.523-39.727h131.25c4.9727 0 9.7422-1.9766 13.258-5.4922 3.5156-3.5156 5.4922-8.2852 5.4922-13.258v-262.5c0-4.9727-1.9766-9.7422-5.4922-13.258-3.5156-3.5156-8.2852-5.4922-13.258-5.4922zm-956.25 262.5h-112.5v-225h112.5zm150 37.5c0 4.9727-1.9766 9.7422-5.4922 13.258-3.5156 3.5156-8.2852 5.4922-13.258 5.4922h-75c-4.9727 0-9.7422-1.9766-13.258-5.4922-3.5156-3.5156-5.4922-8.2852-5.4922-13.258v-300c0-4.9727 1.9766-9.7422 5.4922-13.258 3.5156-3.5156 8.2852-5.4922 13.258-5.4922h75c4.9727 0 9.7422 1.9766 13.258 5.4922 3.5156 3.5156 5.4922 8.2852 5.4922 13.258zm150-712.5h225v150h-225zm-56.25 281.25v-75c0-4.9727 1.9766-9.7422 5.4922-13.258 3.5156-3.5156 8.2852-5.4922 13.258-5.4922h300c4.9727 0 9.7422 1.9766 13.258 5.4922 3.5156 3.5156 5.4922 8.2852 5.4922 13.258v75c0 4.9727-1.9766 9.7422-5.4922 13.258-3.5156 3.5156-8.2852 5.4922-13.258 5.4922h-300c-4.9727 0-9.7422-1.9766-13.258-5.4922-3.5156-3.5156-5.4922-8.2852-5.4922-13.258zm225 393.75h-37.5v-11.062l37.5-37.5zm168.75 0h-131.25v-93.75c0.015625-3.7109-1.0859-7.3359-3.1602-10.414-2.0703-3.0742-5.0234-5.457-8.4648-6.8359-3.4141-1.4375-7.1797-1.8281-10.816-1.1289-3.6367 0.70312-6.9844 2.4648-9.6211 5.0664l-75 75c-3.4531 3.5742-5.4023 8.3398-5.4375 13.312v18.75h-206.25v-225h93.75c4.9727 0 9.7422-1.9766 13.258-5.4922 3.5156-3.5156 5.4922-8.2852 5.4922-13.258v-93.75h225v93.75c0 4.9727 1.9766 9.7422 5.4922 13.258 3.5156 3.5156 8.2852 5.4922 13.258 5.4922h93.75zm150 37.5c0 4.9727-1.9766 9.7422-5.4922 13.258-3.5156 3.5156-8.2852 5.4922-13.258 5.4922h-75c-4.9727 0-9.7422-1.9766-13.258-5.4922-3.5156-3.5156-5.4922-8.2852-5.4922-13.258v-300c0-4.9727 1.9766-9.7422 5.4922-13.258 3.5156-3.5156 8.2852-5.4922 13.258-5.4922h75c4.9727 0 9.7422 1.9766 13.258 5.4922 3.5156 3.5156 5.4922 8.2852 5.4922 13.258zm150-37.5h-112.5v-225h112.5z"/>
  <path d="m715.82 1020.6c-12.281 17.754-40.82 61.688-40.82 85.648 0 20.098 10.723 38.664 28.125 48.715 17.402 10.047 38.848 10.047 56.25 0 17.402-10.051 28.125-28.617 28.125-48.715 0-23.961-28.539-67.895-40.82-85.648-3.6836-4.793-9.3828-7.6055-15.43-7.6055s-11.746 2.8125-15.43 7.6055zm15.43 104.4c-4.9727 0-9.7422-1.9766-13.258-5.4922-3.5156-3.5156-5.4922-8.2852-5.4922-13.258 4.0664-14.332 10.395-27.922 18.75-40.258 8.3516 12.336 14.684 25.926 18.75 40.258 0 4.9727-1.9766 9.7422-5.4922 13.258-3.5156 3.5156-8.2852 5.4922-13.258 5.4922z"/>
  <path d="m731.25 918.75c0-23.961-28.539-67.895-40.82-85.648-3.6836-4.793-9.3828-7.6055-15.43-7.6055s-11.746 2.8125-15.43 7.6055c-12.281 17.754-40.82 61.688-40.82 85.648 0 20.098 10.723 38.664 28.125 48.715 17.402 10.047 38.848 10.047 56.25 0 17.402-10.051 28.125-28.617 28.125-48.715zm-75 0c4.0664-14.332 10.395-27.922 18.75-40.258 8.3516 12.336 14.684 25.926 18.75 40.258 0 6.6992-3.5742 12.887-9.375 16.238-5.8008 3.3477-12.949 3.3477-18.75 0-5.8008-3.3516-9.375-9.5391-9.375-16.238z"/>
  <path d="m565.82 964.35c-12.281 17.754-40.82 61.688-40.82 85.648 0 20.098 10.723 38.664 28.125 48.715 17.402 10.047 38.848 10.047 56.25 0 17.402-10.051 28.125-28.617 28.125-48.715 0-23.961-28.539-67.895-40.82-85.648-3.6836-4.793-9.3828-7.6055-15.43-7.6055s-11.746 2.8125-15.43 7.6055zm15.43 104.4c-4.9727 0-9.7422-1.9766-13.258-5.4922-3.5156-3.5156-5.4922-8.2852-5.4922-13.258 4.0664-14.332 10.395-27.922 18.75-40.258 8.3516 12.336 14.684 25.926 18.75 40.258 0 4.9727-1.9766 9.7422-5.4922 13.258-3.5156 3.5156-8.2852 5.4922-13.258 5.4922z"/>
  <path d="m112.5 562.5h37.5v37.5h-37.5z"/>
  <path d="m412.5 675h37.5v37.5h-37.5z"/>
  <path d="m487.5 675h75v37.5h-75z"/>
  <path d="m1050 562.5h37.5v37.5h-37.5z"/>
 </g>
</svg>
