<?xml version="1.0" encoding="UTF-8"?>
<svg width="1200pt" height="1200pt" version="1.1" viewBox="0 0 1200 1200" xmlns="http://www.w3.org/2000/svg">
 <path d="m492.18 508.48c0 20.531-8.3281 39.125-21.781 52.578-13.457 13.457-32.051 21.781-52.582 21.781s-39.125-8.3281-52.578-21.781c-13.453-13.457-21.781-32.051-21.781-52.578 0-24.309 16.586-51.281 29.805-72.777 2.9688-4.832 5.7852-9.4141 7.5859-12.535l0.34375-0.55469 27.051-46.852c3.0352-5.2852 9.793-7.1094 15.078-4.0703 1.7578 1.0078 3.1328 2.4336 4.0742 4.0703l27.375 47.418c1.8242 3.1602 4.6211 7.7109 7.5977 12.551 13.215 21.496 29.793 48.457 29.793 72.762zm-37.469 36.895c9.4375-9.4375 15.281-22.484 15.281-36.895 0-18.059-14.746-42.035-26.5-61.152-2.6328-4.2852-5.1367-8.3594-7.8555-13.066l-17.82-30.867-17.48 30.277c-0.11719 0.22266-0.22266 0.40234-0.34375 0.63281-2.7383 4.7344-5.2188 8.7734-7.8477 13.051-11.758 19.117-26.508 43.109-26.508 61.168 0 14.406 5.8438 27.457 15.281 36.895s22.484 15.277 36.895 15.277 27.457-5.8438 36.895-15.277zm310.22 281.79c0 38.348-15.551 73.07-40.68 98.203-25.137 25.129-59.859 40.68-98.207 40.68s-73.074-15.551-98.207-40.68c-25.129-25.129-40.68-59.855-40.68-98.203 0-45.914 32.559-98.863 58.512-141.07 5.832-9.4922 11.34-18.441 15.469-25.594l0.34375-0.55469 54.988-95.246c3.0391-5.2852 9.793-7.1094 15.078-4.0703 1.7578 1.0078 3.1328 2.4336 4.0703 4.0703l55.336 95.844c3.707 6.4258 9.4219 15.711 15.461 25.535 25.953 42.207 58.516 95.164 58.516 141.08zm-56.367 82.516c21.113-21.113 34.18-50.293 34.18-82.516 0-39.664-30.727-89.641-55.219-129.47-5.2773-8.5859-10.262-16.684-15.719-26.141l-45.758-79.258-45.418 78.668c-0.10547 0.22266-0.22266 0.40234-0.34375 0.63281-5.043 8.7344-10.23 17.168-15.727 26.109-24.488 39.832-55.215 89.797-55.215 129.46 0 32.223 13.062 61.406 34.176 82.516 21.117 21.113 50.297 34.18 82.523 34.18 32.223 0 61.406-13.066 82.52-34.18zm147.97-487.34c0 27.418-11.117 52.242-29.086 70.211s-42.797 29.086-70.215 29.086c-27.414 0-52.238-11.117-70.207-29.086s-29.086-42.797-29.086-70.211c0-32.66 22.762-69.68 40.902-99.18 4.0742-6.625 7.9258-12.887 10.625-17.566l0.34375-0.55469 37.844-65.559c3.0391-5.2852 9.793-7.1094 15.078-4.0703 1.7578 1.0078 3.1328 2.4336 4.0703 4.0703l38.176 66.121c2.7109 4.6953 6.5586 10.953 10.637 17.586 18.141 29.496 40.895 66.504 40.895 99.156zm-44.77 54.527c13.953-13.953 22.582-33.23 22.582-54.527 0-26.406-20.922-60.43-37.598-87.551-3.7422-6.0859-7.2773-11.836-10.895-18.102l-28.617-49.57-28.273 48.98-0.34375 0.63281c-3.6211 6.2695-7.1523 12.008-10.883 18.082-16.684 27.125-37.609 61.156-37.609 87.57 0 21.293 8.6328 40.574 22.582 54.527 13.953 13.953 33.23 22.586 54.523 22.586s40.578-8.6328 54.527-22.586z" fill-rule="evenodd"/>
</svg>
