<?xml version="1.0" encoding="UTF-8"?>
<svg width="1200pt" height="1200pt" version="1.1" viewBox="0 0 1200 1200" xmlns="http://www.w3.org/2000/svg">
 <g>
  <path d="m550 1e3c0-27.613-22.387-50-50-50h-250v-700h250c27.613 0 50-22.387 50-50s-22.387-50-50-50h-250c-55.227 0-100 44.773-100 100v700c0 55.23 44.773 100 100 100h250c27.613 0 50-22.387 50-50z" fill-rule="evenodd"/>
  <path d="m1085.7 635.02c4.6367-4.7148 8.1406-10.125 10.523-15.883 2.4336-5.8555 3.7773-12.266 3.7969-18.992v-0.29688c-0.039062-12.746-4.9219-25.48-14.645-35.207l-200-200c-19.527-19.527-51.184-19.527-70.711 0-19.523 19.527-19.523 51.184 0 70.711l114.64 114.64h-479.29c-27.613 0-50 22.387-50 50s22.387 50 50 50h479.29l-114.64 114.64c-19.523 19.527-19.523 51.184 0 70.711 19.527 19.523 51.184 19.523 70.711 0l199.96-199.96z"/>
 </g>
</svg>
