<svg width="1154" height="1154" viewBox="0 0 1154 1154" fill="none" xmlns="http://www.w3.org/2000/svg">
<path fill-rule="evenodd" clip-rule="evenodd" d="M311 116.274C475.601 21.242 678.399 21.242 843 116.274C1007.6 211.307 1109 386.929 1109 577C1109 767.071 1007.6 942.697 843 1037.73C678.399 1132.76 475.601 1132.76 311 1037.73C146.399 942.693 45 767.071 45 577C45 386.929 146.401 211.303 311 116.275L311 116.274ZM854.25 96.7889L865.5 77.3033C686.976 -25.7677 467.024 -25.7678 288.5 77.3032C109.978 180.37 0 370.852 0 577C0 783.149 109.976 973.626 288.5 1076.7C467.024 1179.77 686.976 1179.77 865.5 1076.7C1044.02 973.63 1154 783.148 1154 577C1154 370.852 1044.02 180.375 865.5 77.3034L854.25 96.7889ZM872.399 337.127C880.103 344.926 887.801 352.718 895.491 360.526C902.836 367.953 902.836 380.415 895.491 387.829C751.784 533.379 608.087 678.899 464.371 824.418C457.035 831.861 444.769 831.861 437.419 824.418C377.774 764.026 318.136 703.638 258.512 643.241C251.163 635.815 251.163 623.391 258.512 615.948L290.007 584.054C297.343 576.625 309.625 576.625 316.958 584.054C337.564 604.926 358.172 625.794 378.781 646.664C402.813 671 426.847 695.339 450.881 719.685C524.939 644.677 598.996 569.681 673.052 494.687C727.712 439.335 782.37 383.984 837.027 328.63C840.994 324.614 845.443 323.022 849.767 323.022C850.015 323 850.263 323.012 850.522 323C850.77 323.012 851.018 323 851.266 323.022C855.58 323.008 860.041 324.614 864.006 328.63C866.804 331.464 869.602 334.296 872.399 337.127Z" fill="#17A63F"/>
</svg>
