<svg width="1200" height="1200" viewBox="0 0 1200 1200" fill="none" xmlns="http://www.w3.org/2000/svg">
<path d="M868.943 679.837L725.949 775.262L1083.07 1013.25V651.88C1037.26 675.296 986.91 687.155 936.708 687.155C914.02 687.298 891.337 684.664 868.941 679.837H868.943Z" fill="#1B61AA"/>
<path d="M0 537.28V1013.1L356.974 775.263L0 537.28Z" fill="#1B61AA"/>
<path d="M673.256 810.243L590.271 865.566C575.345 875.519 558.512 880.35 541.532 880.35C524.551 880.35 507.576 875.519 492.792 865.566L409.807 810.243L23.4149 1067.99L3.3623 1081.16C8.1933 1090.53 17.9984 1097.11 29.2657 1097.11H1053.79C1065.06 1097.11 1074.72 1090.53 1079.69 1081.16L1059.5 1067.99L673.256 810.243Z" fill="#1B61AA"/>
<path d="M525.29 817.119C535.095 823.561 547.83 823.561 557.784 817.119L799.132 656.122C766.491 640.752 735.904 619.97 708.972 593.042C676.478 560.549 652.624 522.786 636.963 482.537C633.157 472.875 629.936 463.07 627.158 453.265H29.2755C18.0078 453.265 8.19831 459.706 3.37207 469.073L23.421 482.537L525.29 817.119Z" fill="#1B61AA"/>
<path d="M1123.05 178.987C1071.68 127.613 1004.21 102 936.733 102C869.261 102 801.789 127.613 750.416 178.987C647.673 281.73 647.673 448.877 750.416 551.623C853.159 654.223 1020.31 654.223 1123.05 551.623C1225.65 448.875 1225.65 281.879 1123.05 178.987ZM1086.76 297.978L910.83 474.05C905.27 479.615 897.951 482.54 890.195 482.54C882.291 482.54 874.974 479.467 869.413 473.907L786.571 391.212C775.155 379.796 775.155 361.205 786.571 349.79C798.134 338.375 816.577 338.375 827.992 349.79L837.797 359.453L890.195 411.851L1001.43 300.618L1045.34 256.562C1056.75 245.146 1075.34 245.146 1086.76 256.562C1098.17 268.12 1098.17 286.711 1086.76 297.978L1086.76 297.978Z" fill="#17A63F"/>
</svg>
