<svg width="1200" height="1200" viewBox="0 0 1200 1200" fill="none" xmlns="http://www.w3.org/2000/svg">
<path opacity="0.991" fill-rule="evenodd" clip-rule="evenodd" d="M595.5 341.5C608.756 341.209 618.923 346.542 626 357.5C717.667 516.167 809.333 674.833 901 833.5C910.988 856.685 904.154 872.518 880.5 881C692.833 881.667 505.167 881.667 317.5 881C297.2 874.915 289.366 861.415 294 840.5C386.4 679.369 479.067 518.369 572 357.5C577.825 349.02 585.658 343.686 595.5 341.5Z" fill="black"/>
<path fill-rule="evenodd" clip-rule="evenodd" d="M822.5 818.5C674.001 819.5 525.334 819.833 376.5 819.5C450.138 690.228 524.304 561.228 599 432.5C673.764 561.031 748.264 689.697 822.5 818.5Z" fill="#F0EB6B"/>
<path opacity="0.982" fill-rule="evenodd" clip-rule="evenodd" d="M226.5 52.5C342.5 52.5 458.5 52.5 574.5 52.5C574.5 72.8333 574.5 93.1667 574.5 113.5C458.833 113.333 343.166 113.5 227.5 114C178.448 121.057 145.615 147.89 129 194.5C127.154 201.065 125.82 207.731 125 214.5C124.5 338.5 124.333 462.5 124.5 586.5C104.167 586.5 83.8333 586.5 63.5 586.5C63.3333 461.5 63.5 336.5 64 211.5C72.8312 142.307 108.998 93.4735 172.5 65C190.069 58.324 208.069 54.1573 226.5 52.5Z" fill="black"/>
<path opacity="0.982" fill-rule="evenodd" clip-rule="evenodd" d="M623.5 52.4999C743.184 52.021 862.851 52.521 982.5 53.9999C1046.32 64.1619 1092.15 98.3286 1120 156.5C1127.64 174.066 1132.31 192.399 1134 211.5C1134.5 336.5 1134.67 461.5 1134.5 586.5C1114.17 586.5 1093.83 586.5 1073.5 586.5C1073.67 462.5 1073.5 338.5 1073 214.5C1066.54 172.054 1044.04 141.554 1005.5 123C994.279 118.278 982.612 115.278 970.5 114C854.834 113.5 739.167 113.333 623.5 113.5C623.5 93.1666 623.5 72.8332 623.5 52.4999Z" fill="black"/>
<path opacity="0.982" fill-rule="evenodd" clip-rule="evenodd" d="M63.5 636.5C83.8333 636.5 104.167 636.5 124.5 636.5C124.333 760.5 124.5 884.5 125 1008.5C132.468 1055.3 158.302 1087.13 202.5 1104C210.313 1106.56 218.313 1108.23 226.5 1109C342.5 1109.5 458.5 1109.67 574.5 1109.5C574.5 1129.83 574.5 1150.17 574.5 1170.5C454.481 1170.98 334.481 1170.48 214.5 1169C141.613 1156.11 93.446 1114.61 70 1044.5C67.0991 1033.66 65.0991 1022.66 64 1011.5C63.5 886.5 63.3333 761.5 63.5 636.5Z" fill="black"/>
<path opacity="0.982" fill-rule="evenodd" clip-rule="evenodd" d="M1073.5 635.5C1093.83 635.5 1114.17 635.5 1134.5 635.5C1134.67 760.5 1134.5 885.5 1134 1010.5C1125.58 1077.57 1091.08 1125.73 1030.5 1155C1015.4 1161.37 999.735 1165.7 983.5 1168C863.519 1169.48 743.519 1169.98 623.5 1169.5C623.5 1149.17 623.5 1128.83 623.5 1108.5C739.5 1108.67 855.5 1108.5 971.5 1108C1020.01 1100.49 1052.51 1073.65 1069 1027.5C1070.85 1020.94 1072.18 1014.27 1073 1007.5C1073.5 883.5 1073.67 759.5 1073.5 635.5Z" fill="black"/>
<path fill-rule="evenodd" clip-rule="evenodd" d="M591.5 541.5C609.105 539.377 621.272 546.377 628 562.5C628.667 600.167 628.667 637.833 628 675.5C621.657 694.159 608.824 701.325 589.5 697C579.91 693.077 573.41 686.244 570 676.5C569.333 638.5 569.333 600.5 570 562.5C573.751 551.915 580.917 544.915 591.5 541.5Z" fill="black"/>
<path fill-rule="evenodd" clip-rule="evenodd" d="M590.5 730.5C609.286 727.466 621.786 734.8 628 752.5C628.667 760.5 628.667 768.5 628 776.5C620.692 796.281 606.859 803.114 586.5 797C573.437 789.875 567.77 778.875 569.5 764C568.537 747.745 575.537 736.578 590.5 730.5Z" fill="#010100"/>
</svg>
