<svg width="1501" height="1500" viewBox="0 0 1501 1500" fill="none" xmlns="http://www.w3.org/2000/svg">
<path d="M1475.07 600H1300.07C1300.01 580.125 1292.09 561.083 1278.04 547.031C1263.98 532.979 1244.94 525.057 1225.07 525H1125.07C1105.19 525.057 1086.15 532.979 1072.1 547.031C1058.05 561.083 1050.12 580.124 1050.07 600H950.067V500C969.941 499.943 988.984 492.021 1003.04 477.969C1017.09 463.917 1025.01 444.876 1025.07 425V325C1025.01 305.125 1017.09 286.083 1003.04 272.031C988.984 257.979 969.943 250.057 950.067 250V25C950.067 18.3698 947.431 12.0104 942.744 7.32269C938.056 2.63522 931.697 -0.000244141 925.066 -0.000244141H575.066C568.436 -0.000244141 562.077 2.63522 557.389 7.32269C552.702 12.0102 550.066 18.3696 550.066 25V250C530.191 250.057 511.149 257.979 497.097 272.031C483.045 286.083 475.123 305.124 475.066 325V425C475.123 444.875 483.045 463.917 497.097 477.969C511.149 492.021 530.19 499.943 550.066 500V600H450.066C450.009 580.125 442.087 561.083 428.035 547.031C413.983 532.979 394.942 525.057 375.066 525H275.066C255.191 525.057 236.149 532.979 222.097 547.031C208.045 561.083 200.123 580.124 200.066 600H25.0661C18.4359 600 12.0765 602.635 7.38879 607.323C2.70132 612.01 0.0658569 618.37 0.0658569 625V975C0.0658569 981.631 2.70132 987.99 7.38879 992.678C12.0763 997.365 18.4357 1000 25.0661 1000H200.066C200.123 1019.88 208.045 1038.92 222.097 1052.97C236.149 1067.02 255.19 1074.94 275.066 1075H375.066C394.941 1074.94 413.983 1067.02 428.035 1052.97C442.087 1038.92 450.009 1019.88 450.066 1000H1050.07C1050.12 1019.88 1058.05 1038.92 1072.1 1052.97C1086.15 1067.02 1105.19 1074.94 1125.07 1075H1225.07C1244.94 1074.94 1263.98 1067.02 1278.04 1052.97C1292.09 1038.92 1300.01 1019.88 1300.07 1000H1475.07C1481.7 1000 1488.06 997.365 1492.74 992.678C1497.43 987.99 1500.07 981.631 1500.07 975V625C1500.07 618.37 1497.43 612.011 1492.74 607.323C1488.06 602.635 1481.7 600 1475.07 600ZM200.067 950H50.0667V650H200.067V950ZM400.067 1000C400.067 1006.63 397.431 1012.99 392.744 1017.68C388.056 1022.36 381.697 1025 375.066 1025H275.066C268.436 1025 262.077 1022.36 257.389 1017.68C252.702 1012.99 250.066 1006.63 250.066 1000V600C250.066 593.37 252.702 587.01 257.389 582.323C262.077 577.635 268.436 575 275.066 575H375.066C381.697 575 388.056 577.635 392.744 582.323C397.431 587.01 400.067 593.37 400.067 600V1000ZM600.067 50H900.067V250H600.067V50ZM525.067 425V325C525.067 318.37 527.702 312.01 532.39 307.323C537.077 302.635 543.437 300 550.067 300H950.067C956.697 300 963.057 302.635 967.744 307.323C972.432 312.01 975.067 318.37 975.067 325V425C975.067 431.63 972.432 437.99 967.744 442.677C963.057 447.365 956.697 450 950.067 450H550.067C543.437 450 537.077 447.365 532.39 442.677C527.702 437.99 525.067 431.63 525.067 425ZM825.067 950H775.067V935.251L825.067 885.251V950ZM1050.07 950H875.067V825C875.088 820.052 873.619 815.219 870.853 811.115C868.093 807.016 864.155 803.839 859.567 802C855.015 800.084 849.994 799.563 845.145 800.495C840.296 801.432 835.833 803.781 832.317 807.25L732.317 907.25C727.713 912.016 725.114 918.37 725.067 924.999V949.999H450.067V649.999H575.067C581.697 649.999 588.057 647.364 592.745 642.677C597.432 637.989 600.067 631.63 600.067 624.999V499.999H900.068V624.999C900.068 631.629 902.703 637.989 907.39 642.677C912.078 647.364 918.437 649.999 925.068 649.999H1050.07L1050.07 950ZM1250.07 1000C1250.07 1006.63 1247.43 1012.99 1242.74 1017.68C1238.06 1022.36 1231.7 1025 1225.07 1025H1125.07C1118.44 1025 1112.08 1022.36 1107.39 1017.68C1102.7 1012.99 1100.07 1006.63 1100.07 1000V600C1100.07 593.37 1102.7 587.01 1107.39 582.323C1112.08 577.635 1118.44 575 1125.07 575H1225.07C1231.7 575 1238.06 577.635 1242.74 582.323C1247.43 587.01 1250.07 593.37 1250.07 600V1000ZM1450.07 950H1300.07V650H1450.07V950Z" fill="#E74C3C"/>
<path d="M904.427 1310.8C888.052 1334.47 850 1393.05 850 1425C850 1451.79 864.297 1476.55 887.5 1489.95C910.703 1503.35 939.297 1503.35 962.5 1489.95C985.703 1476.55 1000 1451.79 1000 1425C1000 1393.05 961.948 1334.47 945.573 1310.8C940.662 1304.41 933.063 1300.66 925 1300.66C916.937 1300.66 909.339 1304.41 904.427 1310.8ZM925 1450C918.37 1450 912.01 1447.36 907.323 1442.68C902.635 1437.99 900 1431.63 900 1425C905.422 1405.89 913.86 1387.77 925 1371.32C936.135 1387.77 944.578 1405.89 950 1425C950 1431.63 947.364 1437.99 942.677 1442.68C937.989 1447.36 931.63 1450 925 1450Z" fill="#E74C3C"/>
<path d="M925 1175C925 1143.05 886.948 1084.47 870.573 1060.8C865.662 1054.41 858.063 1050.66 850 1050.66C841.937 1050.66 834.339 1054.41 829.427 1060.8C813.052 1084.47 775 1143.05 775 1175C775 1201.8 789.297 1226.55 812.5 1239.95C835.703 1253.35 864.297 1253.35 887.5 1239.95C910.703 1226.55 925 1201.8 925 1175ZM825 1175C830.422 1155.89 838.86 1137.77 850 1121.32C861.135 1137.77 869.579 1155.89 875 1175C875 1183.93 870.234 1192.18 862.5 1196.65C854.766 1201.11 845.235 1201.11 837.5 1196.65C829.766 1192.18 825 1183.93 825 1175Z" fill="#E74C3C"/>
<path d="M704.427 1235.8C688.052 1259.47 650 1318.05 650 1350C650 1376.79 664.297 1401.55 687.5 1414.95C710.703 1428.35 739.297 1428.35 762.5 1414.95C785.703 1401.55 800 1376.79 800 1350C800 1318.05 761.948 1259.47 745.573 1235.8C740.662 1229.41 733.063 1225.66 725 1225.66C716.937 1225.66 709.339 1229.41 704.427 1235.8ZM725 1375C718.37 1375 712.01 1372.36 707.323 1367.68C702.635 1362.99 700 1356.63 700 1350C705.422 1330.89 713.86 1312.77 725 1296.32C736.135 1312.77 744.578 1330.89 750 1350C750 1356.63 747.364 1362.99 742.677 1367.68C737.989 1372.36 731.63 1375 725 1375Z" fill="#E74C3C"/>
<path d="M100 700H150V750H100V700Z" fill="#E74C3C"/>
<path d="M500 850H550V900H500V850Z" fill="#E74C3C"/>
<path d="M600 850H700V900H600V850Z" fill="#E74C3C"/>
<path d="M1350 700H1400V750H1350V700Z" fill="#E74C3C"/>
</svg>
