<svg width="1501" height="1075" viewBox="0 0 1501 1075" fill='none' xmlns="http://www.w3.org/2000/svg">
<path d="M1475.07 600H1300.07C1300.01 580.125 1292.09 561.083 1278.04 547.031C1263.98 532.979 1244.94 525.057 1225.07 525H1125.07C1105.19 525.057 1086.15 532.979 1072.1 547.031C1058.05 561.083 1050.12 580.124 1050.07 600H950.067V500C969.941 499.943 988.984 492.021 1003.04 477.969C1017.09 463.917 1025.01 444.876 1025.07 425V325C1025.01 305.125 1017.09 286.083 1003.04 272.031C988.984 257.979 969.943 250.057 950.067 250V25C950.067 18.3698 947.431 12.0104 942.744 7.32269C938.056 2.63522 931.697 -0.000244141 925.066 -0.000244141H575.066C568.436 -0.000244141 562.077 2.63522 557.389 7.32269C552.702 12.0102 550.066 18.3696 550.066 25V250C530.191 250.057 511.149 257.979 497.097 272.031C483.045 286.083 475.123 305.124 475.066 325V425C475.123 444.875 483.045 463.917 497.097 477.969C511.149 492.021 530.19 499.943 550.066 500V600H450.066C450.009 580.125 442.087 561.083 428.035 547.031C413.983 532.979 394.942 525.057 375.066 525H275.066C255.191 525.057 236.149 532.979 222.097 547.031C208.045 561.083 200.123 580.124 200.066 600H25.0661C18.4358 600 12.0765 602.635 7.38873 607.323C2.70126 612.01 0.0657959 618.37 0.0657959 625V975C0.0657959 981.631 2.70126 987.99 7.38873 992.678C12.0762 997.365 18.4357 1000 25.0661 1000H200.066C200.123 1019.88 208.045 1038.92 222.097 1052.97C236.149 1067.02 255.19 1074.94 275.066 1075H375.066C394.941 1074.94 413.983 1067.02 428.035 1052.97C442.087 1038.92 450.009 1019.88 450.066 1000H1050.07C1050.12 1019.88 1058.05 1038.92 1072.1 1052.97C1086.15 1067.02 1105.19 1074.94 1125.07 1075H1225.07C1244.94 1074.94 1263.98 1067.02 1278.04 1052.97C1292.09 1038.92 1300.01 1019.88 1300.07 1000H1475.07C1481.7 1000 1488.06 997.365 1492.74 992.678C1497.43 987.99 1500.07 981.631 1500.07 975V625C1500.07 618.37 1497.43 612.011 1492.74 607.323C1488.06 602.635 1481.7 600 1475.07 600ZM200.067 950H50.0666V650H200.067V950ZM400.067 1000C400.067 1006.63 397.431 1012.99 392.744 1017.68C388.056 1022.36 381.697 1025 375.066 1025H275.066C268.436 1025 262.077 1022.36 257.389 1017.68C252.702 1012.99 250.066 1006.63 250.066 1000V600C250.066 593.37 252.702 587.01 257.389 582.323C262.076 577.635 268.436 575 275.066 575H375.066C381.697 575 388.056 577.635 392.744 582.323C397.431 587.01 400.067 593.37 400.067 600V1000ZM600.067 50H900.067V250H600.067V50ZM525.067 425V325C525.067 318.37 527.702 312.01 532.39 307.323C537.077 302.635 543.436 300 550.067 300H950.067C956.697 300 963.057 302.635 967.744 307.323C972.432 312.01 975.067 318.37 975.067 325V425C975.067 431.63 972.432 437.99 967.744 442.677C963.057 447.365 956.697 450 950.067 450H550.067C543.437 450 537.077 447.365 532.39 442.677C527.702 437.99 525.067 431.63 525.067 425ZM825.067 950H775.067V935.251L825.067 885.251V950ZM1050.07 950H875.067V825C875.087 820.052 873.619 815.219 870.853 811.115C868.093 807.016 864.155 803.839 859.567 802C855.015 800.084 849.994 799.563 845.145 800.495C840.296 801.432 835.833 803.781 832.317 807.25L732.317 907.25C727.713 912.016 725.114 918.37 725.067 924.999V949.999H450.067V649.999H575.067C581.697 649.999 588.057 647.364 592.744 642.677C597.432 637.989 600.067 631.63 600.067 624.999V499.999H900.067V624.999C900.067 631.629 902.703 637.989 907.39 642.677C912.078 647.364 918.437 649.999 925.068 649.999H1050.07L1050.07 950ZM1250.07 1000C1250.07 1006.63 1247.43 1012.99 1242.74 1017.68C1238.06 1022.36 1231.7 1025 1225.07 1025H1125.07C1118.44 1025 1112.08 1022.36 1107.39 1017.68C1102.7 1012.99 1100.07 1006.63 1100.07 1000V600C1100.07 593.37 1102.7 587.01 1107.39 582.323C1112.08 577.635 1118.44 575 1125.07 575H1225.07C1231.7 575 1238.06 577.635 1242.74 582.323C1247.43 587.01 1250.07 593.37 1250.07 600V1000ZM1450.07 950H1300.07V650H1450.07V950Z"  fill='#27AE60'/>
<path d="M100 700H150V750H100V700Z"  fill='#27AE60'/>
<path d="M500 850H550V900H500V850Z" fill='#27AE60' />
<path d="M600 850H700V900H600V850Z"  fill='#27AE60'/>
<path d="M1350 700H1400V750H1350V700Z"  fill='#27AE60'/>
</svg>
