<?xml version="1.0" encoding="UTF-8"?>
<svg width="1200pt" height="1200pt" version="1.1" viewBox="0 0 1200 1200" xmlns="http://www.w3.org/2000/svg">
 <path d="m600 246.8c195.07 0 353.2 158.14 353.2 353.2 0 195.07-158.13 353.2-353.2 353.2-195.05 0-353.2-158.13-353.2-353.2 0-195.05 158.14-353.2 353.2-353.2zm0 86.711c147.19 0 266.49 119.32 266.49 266.49 0 147.18-119.3 266.49-266.49 266.49-147.16 0-266.49-119.31-266.49-266.49 0-147.16 119.32-266.49 266.49-266.49zm-35.488 81.355h70.996v248.54h-70.996zm35.488 287.43c22.891 0 41.43 18.539 41.43 41.398 0 22.875-18.539 41.43-41.43 41.43-22.863 0-41.398-18.555-41.398-41.43 0-22.863 18.539-41.398 41.398-41.398zm0-403.97c166.61 0 301.66 135.06 301.66 301.66 0 166.61-135.06 301.66-301.66 301.66-166.61 0-301.66-135.06-301.66-301.66 0-166.61 135.06-301.66 301.66-301.66z" fill-rule="evenodd"/>
</svg>
