<?xml version="1.0" encoding="UTF-8"?>
<svg width="1200pt" height="1200pt" version="1.1" viewBox="0 0 1200 1200" xmlns="http://www.w3.org/2000/svg">
 <path d="m967.81 757.81c0 204.17-168.78 376.19-361.04 376.19-193.58 0-372.77-174.52-372.77-376.19 0-88.809 45.867-187.54 143.16-340.2 10.316-16.184 21.07-32.805 35.082-54.266 108.1-165.58 134.74-210.05 154.77-268.88 13.066-38.387 67.562-37.801 79.801 0.85938 18.527 58.527 43.992 102.58 149.8 270.08 14.234 22.535 25.137 39.961 35.578 56.941 91.895 149.43 135.62 247.54 135.62 335.47zm-265.81 178.19c23.195 0 42-18.805 42-42s-18.805-42-42-42-42 18.805-42 42 18.805 42 42 42zm-204-240c23.195 0 42-18.805 42-42s-18.805-42-42-42-42 18.805-42 42 18.805 42 42 42zm189.2-72.762-223.48 259.97c-11.562 13.449-9.9492 33.656 3.6055 45.133 13.555 11.477 33.914 9.875 45.48-3.5781l223.48-259.97c11.562-13.449 9.9492-33.656-3.6055-45.133-13.555-11.477-33.914-9.875-45.48 3.5781z"/>
</svg>
