<?xml version="1.0" encoding="UTF-8"?>
<svg width="1200pt" height="1200pt" version="1.1" viewBox="0 0 1200 1200" xmlns="http://www.w3.org/2000/svg">
 <path d="m723.33 733.33v-124.33h57c11.91 0 22.914-6.3516 28.867-16.668 5.957-10.312 5.957-23.02 0-33.332-5.9531-10.312-16.957-16.668-28.867-16.668h-57v-100h57c11.91 0 22.914-6.3516 28.867-16.664 5.957-10.316 5.957-23.02 0-33.336-5.9531-10.312-16.957-16.664-28.867-16.664h-57v-100h57c11.91 0 22.914-6.3555 28.867-16.668 5.957-10.312 5.957-23.02 0-33.332-5.9531-10.316-16.957-16.668-28.867-16.668h-57v-85.668c-2.2109-42.598-26.223-81.047-63.527-101.73-37.305-20.684-82.637-20.684-119.94 0-37.305 20.688-61.316 59.137-63.531 101.73v610c-47.977 27.262-85.59 69.629-106.97 120.5-21.383 50.871-25.332 107.39-11.234 160.73 14.098 53.352 45.449 100.54 89.172 134.21 43.719 33.668 97.352 51.926 152.53 51.926 55.184 0 108.81-18.258 152.54-51.926 43.719-33.668 75.07-80.855 89.168-134.21 14.098-53.348 10.148-109.86-11.23-160.73-21.383-50.871-58.992-93.238-106.97-120.5zm-123.33 400c-45.746-0.11719-89.812-17.246-123.63-48.047-33.824-30.805-54.984-73.082-59.367-118.62 4 3 7.668 6.332 12 10 25.199 26.816 60.367 42.027 97.168 42.027s71.965-15.211 97.164-42.027c13.301-15.883 32.953-25.059 53.668-25.059s40.367 9.1758 53.668 25.059c12.977 12.121 27.695 22.234 43.664 30-12.098 36.73-35.441 68.727-66.727 91.461-31.289 22.73-68.934 35.047-107.61 35.203z"/>
</svg>
