<?xml version="1.0" encoding="UTF-8"?>
<svg width="1200pt" height="1200pt" version="1.1" viewBox="0 0 1200 1200" xmlns="http://www.w3.org/2000/svg">
 <path d="m1008 192h-144v-48c0-13.246-10.754-24-24-24s-24 10.754-24 24v48h-192v-48c0-13.246-10.754-24-24-24s-24 10.754-24 24v48h-192v-48c0-13.246-10.754-24-24-24s-24 10.754-24 24v48h-144c-39.707 0-72 32.293-72 72v744c0 39.707 32.293 72 72 72h816c39.707 0 72-32.293 72-72v-744c0-39.707-32.293-72-72-72zm0 840h-816c-13.234 0-24-10.766-24-24v-552h588c6.6367 0 12-5.3633 12-12s-5.3633-12-12-12h-588v-168c0-13.234 10.766-24 24-24h144v48c0 13.246 10.754 24 24 24s24-10.754 24-24v-48h192v48c0 13.246 10.754 24 24 24s24-10.754 24-24v-48h192v48c0 13.246 10.754 24 24 24s24-10.754 24-24v-48h144c13.234 0 24 10.766 24 24v168h-180c-6.6367 0-12 5.3633-12 12s5.3633 12 12 12h180v552c0 13.234-10.766 24-24 24zm-216-588c0-6.625 5.375-12 12-12s12 5.375 12 12-5.375 12-12 12-12-5.375-12-12zm-372 348h-120c-6.6367 0-12 5.3633-12 12v96c0 6.6367 5.3633 12 12 12h120c6.6367 0 12-5.3633 12-12v-96c0-6.6367-5.3633-12-12-12zm-12 96h-96v-72h96zm252-96h-120c-6.6367 0-12 5.3633-12 12v96c0 6.6367 5.3633 12 12 12h120c6.6367 0 12-5.3633 12-12v-96c0-6.6367-5.3633-12-12-12zm-12 96h-96v-72h96zm-228-312h-120c-6.6367 0-12 5.3633-12 12v96c0 6.6367 5.3633 12 12 12h120c6.6367 0 12-5.3633 12-12v-96c0-6.6367-5.3633-12-12-12zm-12 96h-96v-72h96zm252-96h-120c-6.6367 0-12 5.3633-12 12v96c0 6.6367 5.3633 12 12 12h120c6.6367 0 12-5.3633 12-12v-96c0-6.6367-5.3633-12-12-12zm-12 96h-96v-72h96zm252-96h-120c-6.6367 0-12 5.3633-12 12v96c0 6.6367 5.3633 12 12 12h120c6.6367 0 12-5.3633 12-12v-96c0-6.6367-5.3633-12-12-12zm-12 96h-96v-72h96z"/>
</svg>
