<?xml version="1.0" encoding="UTF-8"?>
<svg width="1200pt" height="1200pt" version="1.1" viewBox="0 0 1200 1200" xmlns="http://www.w3.org/2000/svg">
 <g>
  <path d="m706.62 640.71c-35.262 63.781-36.562 140.57-4.5977 205.86 25.648 52.387 73.691 91.879 128.67 110.11 44.102 14.625 93.965 13.797 137.79-1.2461-10.383-7.9102-20.77-15.82-31.152-23.73v85 38.668c0 1.1016-0.003907 2.2031-0.007813 3.3047-0.011719 3.1172-0.13281 6.2344-0.30469 9.3477-0.082032 1.4688-0.20313 2.9336-0.32813 4.3945-0.15625 1.8359-1.1328 8.793 0.0625 0.38281-0.70312 4.9609-1.8438 9.8516-3.3945 14.617-0.35547 1.0898-0.76562 2.1562-1.1797 3.2266 2.8984-7.4961 1.5078-3.543 0.69531-1.8359-1.0625 2.2266-2.3516 4.3359-3.7305 6.3789-2.4023 3.5469 4.0625-5.0195 1.3594-1.7266-0.64453 0.78516-1.3438 1.5234-2.0391 2.2617-1.5547 1.6445-7.6055 6.3242-0.37109 0.83594-1.6641 1.2617-3.4531 2.3477-5.2695 3.375-0.9375 0.53125-1.9102 1-2.875 1.4727-3.668 1.7812 6.543-2.5039 0.71484-0.33594-4.625 1.7227-9.4766 2.793-14.332 3.6211-5.0273 0.85547 6.3242-0.75781 1.1367-0.13281-1.418 0.17188-2.8438 0.29297-4.2695 0.41406-3.5508 0.30859-7.1172 0.42969-10.68 0.5-3.0352 0.0625-6.0742 0.023437-9.1094 0.023437h-45.582-184.83-230.18-180.06-41.402c-7.3164 0-14.613-0.15234-21.895-0.94531-5.1953-0.5625 6.1758 0.92578 1.1328 0.13281-1.2891-0.20312-2.5664-0.45703-3.8477-0.71094-2.418-0.48047-4.8008-1.1094-7.1641-1.8086-2.1406-0.63281-9.9844-3.9727-1.6133-0.30859-2.2891-1-4.4727-2.2227-6.5938-3.5469-0.87891-0.54688-1.7188-1.1562-2.5547-1.7617 6.5195 4.7109 3.2734 2.5469 1.8164 1.2695-1.5273-1.3359-2.9102-2.832-4.2344-4.3672-2.7812-3.2305 3.8438 5.2188 1.3594 1.7266-0.60547-0.85156-1.1484-1.7383-1.6953-2.625-1.2383-2.0117-4.8008-10.375-1.3438-1.9141-1.8242-4.4727-3-9.1953-3.9219-13.926-0.25391-1.2969-0.45313-2.6094-0.65625-3.9141 1.2266 7.9219 0.38281 2.7891 0.19531 1.043-0.36719-3.4531-0.54688-6.9297-0.67578-10.398-0.089844-2.4688-0.10156-4.9375-0.10156-7.4062v-10.117-48.945-180.7-230.12-206.32-109.33c0-5.9062 0.074219-11.805 0.51953-17.703 0.10547-1.4219 0.25781-2.8438 0.41016-4.2656 0.55469-5.1953-0.92578 6.1758-0.14453 1.1406 0.39063-2.5273 0.92578-5.0273 1.5273-7.5117 0.55469-2.3086 1.2695-4.5742 2.0469-6.8125 0.60547-1.7422 2.457-5.8398-0.81641 1.7148 0.57422-1.3203 1.2344-2.6016 1.9102-3.8711 0.98047-1.8359 2.1328-3.5742 3.3438-5.2656-5.2031 7.2539-0.88281 1.3125 0.79688-0.36719 0.71484-0.71484 1.4805-1.375 2.2422-2.0352 3.2109-2.7812-5.2227 3.8516-1.7461 1.3672 1.9961-1.4258 4.1523-2.6172 6.3398-3.7227 1.6445-0.82812 5.707-2.3984-1.8555 0.69531 1.0547-0.43359 2.1328-0.80469 3.2109-1.1758 2.2695-0.78516 4.6016-1.3906 6.9336-1.9531 2.5195-0.60547 5.0742-1.0391 7.6328-1.4375-7.9297 1.2266-2.8047 0.38672-1.0547 0.19922 1.9336-0.20703 3.875-0.33984 5.8125-0.46484 4.8906-0.31641 9.7891-0.3125 14.688-0.3125h39.441 105.66c-8.2031-8.2031-16.406-16.406-24.609-24.609 0 20.625-1.6484 41.559 10.156 59.781 12.617 19.48 33.82 29.738 56.711 29.738h65.539 212.64 33.73c28.883 0 53.52-19.586 61.977-46.781 4.1289-13.281 2.4414-28.98 2.4414-42.734l-24.609 24.609h79.676c27.531 0 55.59-1.5352 83.082 0.51562 1.4258 0.10547 2.8477 0.25781 4.2695 0.40625 5.1953 0.55469-6.1758-0.92188-1.1367-0.14453 2.5273 0.39063 5.0273 0.92188 7.5156 1.5195 2.3086 0.55469 4.5781 1.2656 6.8164 2.043 1.7422 0.60156 5.8516 2.4453-1.7109-0.82031 1.3203 0.57031 2.6016 1.2305 3.875 1.9062 1.8398 0.97656 3.5781 2.125 5.2695 3.3359-7.2578-5.1875-1.3125-0.89453 0.37109 0.78906 0.71484 0.71484 1.3789 1.4766 2.0391 2.2383 2.7852 3.207-3.8516-5.2266-1.3594-1.7539 1.4297 1.9922 2.625 4.1445 3.7305 6.3281 0.83203 1.6406 2.4102 5.7031-0.69531-1.8633 0.43359 1.0547 0.80469 2.1328 1.1797 3.207 0.78906 2.2695 1.3945 4.5938 1.957 6.9297 0.60547 2.5156 1.043 5.0703 1.4375 7.6289-1.2266-7.9297-0.38672-2.8086-0.19922-1.0586 0.20703 1.9297 0.33984 3.8711 0.46484 5.8086 0.27734 4.2969 0.3125 8.5977 0.3125 12.898v66.027 207.92 21.719c10.383-7.9102 20.77-15.82 31.152-23.73-51.699-17.75-108-14.574-158.05 6.5781-43.68 18.473-80.52 52.371-103.82 93.551-6.6094 11.68-2.8555 26.828 8.8281 33.672 11.449 6.707 27.074 2.8281 33.672-8.8281 2.4922-4.4062 5.1328-8.7148 7.9258-12.938 1.2383-1.8711 2.5312-3.7031 3.832-5.5312 0.65234-0.91016 1.3164-1.8125 1.9844-2.7109 3.4805-4.7148-3.3828 4.2539 0.25781-0.33594 6.2539-7.8906 13.211-15.207 20.602-22.039 3.6953-3.418 7.5664-6.6445 11.516-9.7656-5.5312 4.375 0.60937-0.375 1.7422-1.1914 2.2734-1.6445 4.6016-3.207 6.9414-4.75 8.9453-5.8984 18.441-10.934 28.23-15.273 2.4727-1.0664 2.082-0.90234-1.1758 0.49219 1.0547-0.42969 2.1094-0.84766 3.1719-1.2578 2.6562-1.0391 5.3477-1.9844 8.043-2.9062 4.8906-1.6719 9.8711-3.0781 14.875-4.3516 5.0625-1.2852 10.195-2.3008 15.344-3.1719 1.1562-0.19141 2.3125-0.37109 3.4688-0.53906-6.9609 1.0508-0.90234 0.14062 0.45313-0.015625 2.9414-0.33594 5.8945-0.5625 8.8477-0.76562 12.051-0.82422 24.16-0.36719 36.148 1.0156-6.1484-0.71094 2.8203 0.48828 3.9102 0.67188 3.4414 0.58984 6.8594 1.3242 10.262 2.0977 6.7422 1.5312 13.367 3.5312 19.898 5.7734 15.305 5.2539 31.152-8.4844 31.152-23.73v-159.92-103.04c0-22.438 1.0352-45.164-2.9922-67.34-4.1602-22.902-18.199-44.434-39.77-54.258-18.16-8.2695-37.688-10.238-57.473-10.238h-95.055-50.824c-13.414 0-24.609 11.195-24.609 24.609v21.402 3.4453c0 0.63672-0.019531 1.2539-0.03125 1.9062-0.11719 5.7266 1.125-5.7148 0.10547-0.16406-0.28516 1.5508-0.75391 3.0586-1.2188 4.5586-1.6367 5.2617 2.4922-5.0781 0.066406-0.17187-0.67969 1.3789-1.5195 2.6719-2.3555 3.9609-1.5156 2.125-1.1602 1.6797 1.0664-1.332-0.66016 0.77344-1.3555 1.5195-2.0742 2.2422-1.0547 1.0938-5.2188 4.3789 0.34375 0.12891-1.2227 0.92969-2.543 1.7188-3.8594 2.5-1.3633 0.8125-6.2422 2.7578 0.28906 0.14844-1.457 0.58203-2.9727 0.98828-4.4844 1.3945-1.6367 0.4375-6.8984 0.87109 0.24219 0.14844-0.875 0.089844-2.3906 0.13281-3.2695 0.13281h-0.35938-5.6133-74.148-209.11-25.141c-1.2617 0-2.0312-0.054687-3.2852-0.13281 7.3359 0.44531 0.66016-0.035156-1.2734-0.55469-1-0.28906-1.9883-0.61719-2.9648-0.98828 3.4688 1.5312 4.0156 1.7266 1.6406 0.58984-1.7617-0.87109-8.3281-6-2.6289-1.293-1.5742-1.2969-2.9609-2.8008-4.3164-4.3203 4.7109 5.2852 0.41016 0.34375-0.55469-1.2773-0.50781-0.89453-0.98047-1.8086-1.418-2.7383 1.4141 3.5234 1.668 4.043 0.75 1.5547-0.69141-1.9492-1.7969-10.434-1.0156-2.7734-0.94531-9.3125-0.13281-19.023-0.13281-28.375 0-13.414-11.195-24.609-24.609-24.609h-79.664c-27.531 0-55.582-1.5352-83.074 0.51562-14.473 1.082-27.348 4.0039-40.602 9.7227-11.363 4.9062-19.957 13.637-27.262 23.34-13.164 17.492-15.516 42.625-15.516 63.711v24.113 148.88 222.09 222.09 148.88 24.113c0 21.562 2.6484 45.809 15.516 63.902 16.207 22.789 40.977 31 67.863 33.332 11.336 0.98047 22.938 0.52734 34.309 0.52734h62.18 202.64 227.46 156.81c10.02 0 20.078 0.21875 30.094-0.16016 24.477-0.92188 51.379-6.875 68.09-26.301 17.023-19.789 21.246-45.895 21.246-71.27v-125.29c0-15.246-15.848-28.984-31.152-23.73-7.8672 2.7031-15.852 4.9219-23.984 6.6758-4.1133 0.88672-8.2695 1.5742-12.43 2.1914 6.0234-0.89453-1.0195 0.050781-1.8906 0.14062-2.8398 0.29688-5.6875 0.48438-8.5391 0.65625-7.5625 0.45703-15.152 0.35938-22.711-0.0625-3.3594-0.1875-6.7109-0.50781-10.051-0.86719-1.4492-0.15625-7.2891-1.0117-0.074219 0.019532-2.1875-0.3125-4.3672-0.69141-6.5469-1.0781-13.391-2.3828-26.469-6.3477-39.051-11.477 7.0391 2.8711-2.7227-1.3164-4.3984-2.1172-2.8945-1.3828-5.7344-2.8711-8.5547-4.3906-6.0859-3.2891-11.949-6.9727-17.652-10.887-1.5039-1.0352-9.9258-7.3516-3.9883-2.7539-2.5156-1.9453-4.9531-3.9805-7.3672-6.0469-5.2305-4.4727-10.164-9.2812-14.891-14.281-2.1836-2.3086-4.2812-4.6953-6.3477-7.1055-1.1914-1.3906-7.6719-9.6602-3.1172-3.6953-4.1875-5.4883-8.0195-11.246-11.602-17.145-3.3242-5.4766-6.3125-11.148-9.0781-16.926-0.69531-1.4492-1.3516-2.918-2.0117-4.3828-2.3359-5.2031 2.1289 5.2344-0.035157-0.054687-1.4297-3.4961-2.7148-7.0469-3.9375-10.621-2.3398-6.8281-4.1953-13.805-5.7617-20.848-0.94531-4.2383-1.6719-8.5195-2.3281-12.809 0.89453 5.832-0.12109-1.3867-0.20313-2.1523-0.31641-2.9297-0.51562-5.8672-0.69531-8.8047-0.57812-9.2773-0.34375-18.594 0.39062-27.852 0.16406-2.0586 0.39453-4.1094 0.62109-6.1641 0.76562-6.8789-0.80469 5.2266 0.24609-1.5859 0.72266-4.6875 1.6953-9.332 2.7578-13.953 1.9531-8.4688 4.6094-16.762 7.6875-24.883 0.33203-0.875 2.9023-7.0547 0.52344-1.4805 0.77734-1.8203 1.6094-3.6211 2.4414-5.418 1.9336-4.1797 4.082-8.2578 6.3125-12.285 6.4922-11.742 2.9414-26.777-8.8281-33.672-11.375-6.6484-27.203-2.8906-33.684 8.8359z"/>
  <path d="m715.83 176.39v41.855c0 0.88281-0.015625 1.7539-0.03125 2.6367-0.11719 5.7266 1.125-5.7109 0.10547-0.16406-0.28516 1.5508-0.75391 3.0547-1.2227 4.5586-1.6367 5.2617 2.4922-5.0781 0.066406-0.16797-0.67969 1.3789-1.5195 2.6719-2.3555 3.9609-2.9531 4.5547 3.6523-4.2344 0.046875-0.19141-1.1055 1.2422-6.5586 5.6875-0.71484 1.2305-1.7578 1.3398-10.551 5.4375-3.5781 2.6484-1.457 0.58203-2.9727 0.98828-4.4844 1.3945-1.6367 0.4375-6.9023 0.87109 0.24219 0.14453-1.3125 0.13281-2.6367 0.13281-3.9531 0.13281h-57.727-214.3-32.141-7.9023-1.4883c-0.59375 0-1.1797-0.019532-1.7852-0.03125-5.7266-0.11719 5.7109 1.125 0.16406 0.10156-2.0625-0.37891-4.0586-1.043-6.0273-1.7422 6.418 2.2773 1.8086 0.68359 0.28516-0.14844-1.3477-0.73438-2.6094-1.6211-3.8594-2.5 5.5625 3.9141 1.5391 1.0195 0.34375-0.12891-1.0938-1.0547-4.375-5.2227-0.12891 0.34375-1.3398-1.7578-5.4375-10.551-2.6484-3.5742-0.58203-1.457-0.98828-2.9727-1.3945-4.4844-0.25391-1.0273-0.46484-2.0625-0.63672-3.1094 0.47266 3.8984 0.60547 4.4727 0.39062 1.7266-0.38281-6.293-0.03125-12.699-0.03125-18.996v-24.074-1.418c0-1.6055 0.67578-7.1719-0.35938 0.085938 0.22266-1.5664 0.63281-3.1016 1.043-4.6289 0.41406-1.5391 2.5859-6.3711-0.28516 0.058594 0.62891-1.4062 1.418-2.7344 2.2031-4.0586 0.82031-1.3789 4.1562-5.2695-0.23047 0.042969 1.2969-1.5742 2.8008-2.9648 4.3203-4.3164-5.2812 4.7109-0.34766 0.41016 1.2773-0.55469 0.89453-0.50781 1.8086-0.98047 2.7383-1.418-3.5234 1.4141-4.043 1.668-1.5547 0.75 1.9844-0.70703 4.0547-1.1289 6.125-1.5078-7.0078 1.2891-1.8359 0.35938-0.066406 0.35938h5.3438 29.852 52.598l-24.609-24.609v1.0234c0 13.414 11.195 24.609 24.609 24.609 13.551 0 24.43-11.195 24.609-24.609 0.027344-1.9062 0.10156-3.7891 0.23047-5.6914 0.28906-2.8203 0.22266-2.4922-0.19922 0.97656 0.19922-1.2148 0.42969-2.4258 0.69141-3.6289 0.36719-1.793 0.875-3.5547 1.3867-5.3125 0.38281-1.3242 3.4336-8.793 0.71094-2.582 1.6797-3.8242 3.8438-7.4141 6.1797-10.867 1.582-2.1797 1.3711-1.9375-0.63672 0.71875 0.75-0.91797 1.5195-1.8164 2.3125-2.6953 1.5664-1.7773 3.2852-3.4141 5.0195-5.0195 0.89062-0.82812 5.6445-4.4961 0.52734-0.64062 1.8984-1.4297 3.9219-2.6875 5.957-3.9141 2.0469-1.2344 4.1992-2.2812 6.3633-3.2969-6.0859 2.8594 1.2188-0.27344 2.5781-0.71094 1.7461-0.55469 3.5312-0.96875 5.3125-1.3867 1.2031-0.26562 2.4141-0.49219 3.6289-0.69141-3.4727 0.42578-3.7969 0.49219-0.97656 0.19922 4.5859-0.43359 9.2148-0.24219 13.785 0.23828-7.2812-0.76172-1.8477-0.17188-0.26562 0.14453 2.0547 0.40625 4.0703 0.97656 6.0781 1.5703 1.4922 0.44141 2.9531 0.98047 4.4102 1.5234-6.9727-2.5859-0.36328-0.085938 1.1523 0.67969 3.1914 1.6094 6.1914 3.5664 9.0898 5.6406-5.9922-4.293-0.32422-0.12109 0.90625 0.98047 1.5117 1.3555 2.918 2.8242 4.3047 4.3047 1.043 1.1133 2.0078 2.2891 2.9727 3.4648-4.6875-5.7109-0.30469-0.15234 0.59375 1.2188 1.1172 1.7109 2.0977 3.5078 3.0586 5.3086 0.77344 1.4531 3.4453 8.1289 0.67969 1.1523 1.3438 3.3945 2.3008 6.9258 3.0938 10.484 0.21875 1.0352 0.41016 2.0742 0.58203 3.1172-0.48047-3.9141-0.57031-4.5078-0.26953-1.7812 0.22656 2.1562 0.27344 4.3281 0.30078 6.4961 0.15625 13.414 11.078 24.609 24.609 24.609 13.414 0 24.609-11.195 24.609-24.609v-1.0234l-24.609 24.609h62.594 25.039c0.60938 0 1.2031 0.019531 1.8203 0.03125 2.7461 0.21484 2.1719 0.082031-1.7266-0.39062 1.5664 0.22266 3.1016 0.63281 4.6289 1.043 1 0.28906 1.9883 0.61719 2.9648 0.98828-3.4688-1.5312-4.0156-1.7266-1.6367-0.58984 1.7617 0.86719 8.332 5.9961 2.6289 1.2891 1.5742 1.2969 2.9609 2.8008 4.3164 4.3164-4.8008-5.3867 0.28516 0.78125 1.2891 2.6289 1.1406 2.375 0.94531 1.832-0.58984-1.6367 0.58203 1.457 0.99219 2.9727 1.3945 4.4844 0.25391 1.0273 0.46484 2.0625 0.63672 3.1094-1.3008-7-0.40625-1.8516-0.37109-0.089844 0.26953 13.41 10.988 24.609 24.609 24.609 13.211 0 24.879-11.195 24.609-24.609-0.58984-29.207-19.887-54.758-48.301-62.367-10.926-2.9297-22.98-2.0352-34.199-2.0352h-69.723c-13.414 0-24.609 11.195-24.609 24.609v1.0234h49.219c-0.27344-23.762-9.0352-45.215-24.406-63.133-15.652-18.246-38.211-27.418-61.492-30.395-25.746-3.2891-51.23 7.2031-70.645 23.445-20.297 16.984-31.09 44.039-31.441 70.078h49.219v-1.0234c0-13.414-11.195-24.609-24.609-24.609h-84.594c-30.016 0-54.625 16.867-64.715 45.285-3.1562 8.8945-2.9062 18.578-2.9062 27.891v27.168c0 9.8047 0.3125 19.715 4.0078 28.949 7.5664 18.91 21.035 31.434 39.809 38.941 9.2539 3.7031 19.465 3.4297 29.266 3.4297h78.789 206.28c20.137 0 40.609 1.1367 57.785-11.965 12.277-9.3672 21.18-21.227 25.227-36.332 2.0234-7.5391 2.0352-15.301 2.0352-23.023v-35.938c0-13.414-11.195-24.609-24.609-24.609-13.41 0-24.605 11.195-24.605 24.609z"/>
  <path d="m291.5 470.28h151.8 173.96 2.3672c13.414 0 24.609-11.195 24.609-24.609s-11.195-24.609-24.609-24.609h-151.8-173.96-2.3672c-13.414 0-24.609 11.195-24.609 24.609 0 13.418 11.195 24.609 24.609 24.609z"/>
  <path d="m502 752.32h-175.38-35.109c-13.414 0-24.609 11.195-24.609 24.609 0 13.414 11.195 24.609 24.609 24.609h175.38 35.109c13.414 0 24.609-11.195 24.609-24.609 0-13.414-11.195-24.609-24.609-24.609z"/>
  <path d="m522.86 586.69h-173.44-57.914c-13.414 0-24.609 11.195-24.609 24.609s11.195 24.609 24.609 24.609h173.44 57.914c13.414 0 24.609-11.195 24.609-24.609s-11.195-24.609-24.609-24.609z"/>
  <path d="m578.61 917.94h-162.23-124.88c-13.414 0-24.609 11.195-24.609 24.609 0 13.414 11.195 24.609 24.609 24.609h162.23 124.88c13.414 0 24.609-11.195 24.609-24.609 0-13.414-11.195-24.609-24.609-24.609z"/>
  <path d="m1067.7 748.02c-0.03125 7.0234-0.40234 14.02-1.1211 21.004-0.14062 1.3828-0.96484 7.3906 0.019531 0.32031-0.23828 1.7031-0.51953 3.4023-0.80078 5.0977-0.65234 3.9297-1.4805 7.8359-2.375 11.719-1.5156 6.5859-3.4648 13.066-5.6641 19.457-1.0898 3.168-2.3047 6.293-3.5586 9.3984 2.5742-6.3789 0.39844-0.98047-0.14844 0.25391-0.90234 2.0273-1.8633 4.0273-2.832 6.0234-2.8984 5.9609-6.1758 11.734-9.668 17.363-1.7383 2.8086-3.5859 5.5469-5.4648 8.2578-0.9375 1.3555-1.9102 2.6875-2.8828 4.0156-0.65234 0.88281-1.3125 1.7617-1.9766 2.6367 2.1758-2.8047 2.4414-3.168 0.80078-1.0938-8.5508 10.719-18.355 20.414-28.945 29.105-1.0234 0.83984-5.5938 4.3555-0.19922 0.22266-1.3086 1-2.6406 1.9727-3.9766 2.9375-2.668 1.9375-5.4141 3.7773-8.1797 5.5781-6.0156 3.918-12.289 7.4219-18.695 10.648-3.2969 1.6641-6.668 3.1797-10.051 4.6562 4.957-2.1641-1.8281 0.63281-2.3516 0.83203-2.0273 0.77344-4.082 1.4805-6.1367 2.1836-8.5273 2.9297-17.297 5.1172-26.148 6.8281-2.0703 0.39844-4.1484 0.73438-6.2266 1.0625-6.9883 1.1172 5.1953-0.58594-1.8633 0.22656-4.2539 0.49219-8.5312 0.76953-12.809 0.98047-7.9727 0.39453-15.973 0.18359-23.93-0.40234-3.3438-0.24609-6.6758-0.61719-10.004-1.0352 7.8086 0.97656-3.0391-0.60938-4.9297-0.96094-6.9844-1.3047-13.871-3.082-20.668-5.1445-3.1055-0.94531-6.1758-2.0039-9.2305-3.1016-1.7461-0.62891-11.621-4.6914-4.6211-1.6992-6.3906-2.7344-12.598-5.8867-18.66-9.2891-5.5625-3.125-10.93-6.5898-16.16-10.242-1.3047-0.91016-2.5859-1.8555-3.8672-2.7969-4.5391-3.3398 4.3594 3.457-0.0625-0.023438-2.9141-2.293-5.7305-4.7031-8.5078-7.1602-4.7617-4.207-9.2578-8.6992-13.586-13.348-2.1641-2.3242-4.2422-4.7266-6.293-7.1562-1.0234-1.2148-2.0195-2.4531-3.0156-3.6914-1.625-2.0664-1.3164-1.6602 0.92188 1.2109-0.64063-0.84375-1.2734-1.6953-1.8984-2.5508-7.9141-10.719-14.578-22.332-20.137-34.434-0.58594-1.2773-2.8047-6.5234-0.082031-0.03125-0.625-1.4883-1.2109-2.9922-1.7969-4.4961-1.1758-3.0195-2.2422-6.082-3.2656-9.1562-2.5664-7.7031-4.5312-15.586-6.1211-23.543-0.42578-2.1289-0.77734-4.2734-1.1328-6.418-1.1797-7.1602 0.5625 5.1172-0.29688-2.1211-0.52344-4.3867-0.82031-8.7969-1.0469-13.207-0.46875-9.2305-0.14062-18.492 0.69141-27.695 0.18359-2.0547 0.43359-4.1016 0.6875-6.1445-0.75781 6.2148 0.17188-0.58984 0.32812-1.5586 0.66016-4.0078 1.5156-7.9844 2.4258-11.938 1.9531-8.4688 4.6094-16.762 7.6875-24.883 0.33203-0.875 2.9023-7.0547 0.52344-1.4805 0.77734-1.8203 1.6094-3.6211 2.4414-5.418 1.6602-3.582 3.4844-7.0898 5.3555-10.562 3.5117-6.5117 7.4961-12.762 11.734-18.824 0.96484-1.3789 1.9609-2.7305 2.9609-4.082 3.4805-4.7148-3.3828 4.2539 0.25781-0.33594 2.0859-2.6328 4.2734-5.1797 6.4883-7.6992 4.8047-5.457 9.9766-10.578 15.355-15.465 2.4844-2.2578 5.0547-4.418 7.6484-6.543 1-0.81641 5.6445-4.3672 0.30859-0.29688 1.3359-1.0195 2.6992-2.0039 4.0586-2.9883 5.918-4.2773 12.129-8.1445 18.484-11.734 5.9062-3.332 12.027-6.2734 18.25-8.9688-6.2461 2.7031-0.78516 0.38672 0.43359-0.089843 1.5898-0.625 3.1992-1.2031 4.8086-1.7852 3.7695-1.3633 7.5938-2.5586 11.441-3.6836 6.6641-1.9492 13.457-3.4492 20.289-4.6719 1.7266-0.30859 3.4609-0.57031 5.1953-0.83203-6.9609 1.0508-0.90234 0.14063 0.45313-0.015624 4.125-0.47266 8.2734-0.75391 12.418-0.96094 8.0312-0.40234 16.074-0.19922 24.09 0.37109 2.1289 0.15234 4.2539 0.37109 6.375 0.59375 7.0664 0.73828-5.1367-0.8125 1.8633 0.23047 4.8438 0.71875 9.6484 1.7031 14.422 2.7852 8.1875 1.8594 16.215 4.3867 24.086 7.2891 0.52344 0.19141 7.3398 2.9414 2.3516 0.83203 1.8711 0.78906 3.7148 1.6406 5.5586 2.4922 3.5195 1.625 6.9688 3.3984 10.383 5.2305 5.8281 3.125 11.453 6.625 16.934 10.328 2.7305 1.8438 5.3906 3.7969 8.0273 5.7773-5.4258-4.082-0.83984-0.61328 0.19922 0.22266 1.707 1.375 3.375 2.8047 5.0352 4.2383 4.9805 4.3008 9.6836 8.9141 14.203 13.691 2.2617 2.3906 4.4297 4.8672 6.5664 7.3672 1.0703 1.25 2.1055 2.5273 3.1445 3.8086 1.6406 2.0742 1.375 1.7109-0.80078-1.0938 0.66797 0.87109 1.3281 1.75 1.9766 2.6328 5.5898 7.5156 10.539 15.496 14.988 23.73 2.3711 4.3906 4.5156 8.8984 6.5391 13.453 1.0625 2.4609 0.88672 2.0391-0.52734-1.2695 0.42188 1.0312 0.83594 2.0703 1.2383 3.1055 1.0234 2.6016 1.957 5.2383 2.8672 7.8828 3.3164 9.6328 5.7344 19.559 7.4922 29.586 0.25781 1.4727 1.3477 9.4141 0.38281 1.9805 0.37109 2.8711 0.64453 5.7539 0.88672 8.6367 0.44922 5.2812 0.61328 10.559 0.63672 15.836 0.058594 13.414 11.148 24.609 24.609 24.609 13.371 0 24.668-11.195 24.609-24.609-0.27344-61.223-26.156-120.7-71.547-161.95-51.781-47.062-122.71-65.668-191.18-52.789-60.273 11.336-113.64 50.824-145.01 103.05-37.527 62.477-39.332 140.3-9.2109 205.9 24.379 53.102 71.656 93.277 126.15 112.89 62.523 22.5 135.39 12.922 190.82-23.195 61.891-40.324 99.645-110.1 99.973-183.9 0.058594-13.414-11.238-24.609-24.609-24.609-13.465 0-24.555 11.195-24.613 24.609z"/>
  <path d="m972.81 677.44c-38.859 38.859-77.719 77.719-116.58 116.58-0.55078 0.54687-1.0977 1.0977-1.6484 1.6445h34.805c-22.125-22.125-44.25-44.246-66.375-66.371-9.4805-9.4805-25.32-9.4805-34.805 0-9.4805 9.4805-9.4805 25.32 0 34.805 22.125 22.125 44.25 44.246 66.375 66.371 9.4805 9.4805 25.32 9.4805 34.805 0 38.859-38.859 77.719-77.719 116.58-116.58 0.55078-0.54688 1.0977-1.0977 1.6484-1.6445 9.4805-9.4805 9.4805-25.32 0-34.805-9.4844-9.4805-25.324-9.4805-34.805 0z"/>
 </g>
</svg>
