<?xml version="1.0" encoding="UTF-8"?>
<svg width="1200pt" height="1200pt" version="1.1" viewBox="0 0 1200 1200" xmlns="http://www.w3.org/2000/svg">
 <path d="m1171.7 529.2-395.04-395.04c-17.961-18.898-42.789-29.746-68.859-30.082-26.066-0.33594-51.168 9.8633-69.609 28.289-18.445 18.43-28.668 43.52-28.352 69.59 0.3125 26.066 11.137 50.906 30.02 68.883l233.52 233.16h-776.64c-34.555 0-66.484 18.434-83.762 48.359-17.277 29.926-17.277 66.797 0 96.719 17.277 29.926 49.207 48.363 83.762 48.363h774.48l-231.36 231.72c-23.41 24.629-32.176 59.738-23.094 92.48 9.082 32.742 34.68 58.32 67.434 67.375 32.75 9.0508 67.852 0.25391 92.461-23.176l395.04-395.04c18.207-18.098 28.406-42.73 28.32-68.402 0.0625-0.79688 0.0625-1.6016 0-2.3984 0.058594-0.80078 0.058594-1.6016 0-2.3984-0.007812-25.652-10.195-50.254-28.32-68.402z"/>
</svg>
