<?xml version="1.0" encoding="UTF-8"?>
<svg width="1200pt" height="1200pt" version="1.1" viewBox="0 0 1200 1200" xmlns="http://www.w3.org/2000/svg">
 <path d="m1071 542.4c-8.6211-14.438-23.102-22.398-41.059-22.398-33.344 0.12109-73.461 13.34-104.7 34.48-28.84 19.48-70.598 55.641-105.86 117.26-6.6211 11.562-17.48 19.402-29.098 21.281-0.042969-2.6797-0.023438-5.7578-0.023438-8.6211 0-6.1992 0.023438-13.559-0.23828-21.68v-442.72c0-44.121-35.879-80-80-80s-80 35.879-80 80v310c0 5.5-4.5 10-10 10s-10-4.5-10-10v-450c0-44.121-35.879-80-80-80s-80 35.879-80 80v450c0 5.5-4.5 10-10 10s-10-4.5-10-10v-360c0-38.602-31.398-70-70-70s-70 31.398-70 70v400c0 5.5-4.5 10-10 10s-10-4.5-10-10v-250c0-38.602-31.398-70-70.199-70-38.582 0-70 31.398-70 70l0.039063 543.94c19.359 279.68 190.9 317.4 356.16 317.4 136.92 0 259.9-67.941 320.54-176.5 7.8008-12.602 28.922-45.762 53.922-85.078 62.559-98.262 114.96-180.82 122.7-195.5 17.262-32.684 36.52-58.223 55.68-73.863 17.359-14.16 27.961-32.238 36.582-48.098 4.418-8.2227 8.2969-38.52-4.4414-59.902zm-285.38 151.96-0.76172 19-1.7617-19.98z" fill-rule="evenodd"/>
</svg>
