<?xml version="1.0" encoding="UTF-8"?>
<svg width="1200pt" height="1200pt" version="1.1" viewBox="0 0 1200 1200" xmlns="http://www.w3.org/2000/svg">
 <path d="m747.44 221.46v-41.523c0-43.551-35.625-79.188-79.176-79.188h-236.4c-43.551 0-79.188 35.637-79.188 79.188v41.523h70.102v-41.523c0-4.8633 4.2266-9.0859 9.0859-9.0859h236.39c4.8633 0 9.0859 4.2266 9.0859 9.0859v41.523zm201.32 464.36c-114.16 0-206.71 92.551-206.71 206.71 0 114.16 92.551 206.71 206.71 206.71 114.16 0 206.71-92.551 206.71-206.71 0.003906-114.17-92.547-206.71-206.71-206.71zm-147.55 233.38c-10.238-10.238-10.238-26.836 0-37.074 10.238-10.238 26.836-10.238 37.074 0l64.938 64.938 131.69-133c10.176-10.238 26.738-10.289 36.977-0.10156 10.238 10.176 10.289 26.738 0.10156 36.977-50.051 50.551-99.887 101.5-150.19 151.79-10.238 10.238-26.836 10.238-37.074 0zm-325.5-267.02c0 41.062 33.289 74.352 74.352 74.352s74.352-33.289 74.352-74.352-33.289-74.352-74.352-74.352c-20.562 0-39.125 8.3242-52.551 21.75-13.488 13.477-21.801 32.102-21.801 52.602zm511.78-93.062c-60.863 38.512-187.65 61.773-327.88 69.699-10.961-51.586-56.648-88.648-109.56-88.648-52.926 0-98.637 37.086-109.57 88.699-140-7.8359-266.66-31.039-327.86-69.75-36.75-23.25-68.102-54.836-68.102-101.45v-160.62c0-20.887 17.039-37.914 37.914-37.914h184.8v103.54c0 36.539 29.824 66.363 66.363 66.363h432.91c36.539 0 66.363-29.824 66.363-66.363l-0.003907-103.54h184.8c20.875 0 37.914 17.039 37.914 37.914v160.62c0.007813 46.625-31.34 78.188-68.09 101.45zm-192.28-299.99h-490.31v103.54c0 15.75 12.949 28.699 28.699 28.699h432.91c15.75 0 28.699-12.949 28.699-28.699zm-705.62 329.95c0.96094 0.625 1.9375 1.25 2.8984 1.8633 66.539 42.102 199.88 67.324 346.49 75.699 7.1875 55.699 54.812 97.539 111.09 97.539 56.262 0 103.9-41.836 111.07-97.539 146.62-8.3867 279.96-33.613 346.49-75.699 0.97656-0.61328 1.9375-1.2383 2.8984-1.8633v66.961c-19.727-5.1367-40.426-7.875-61.762-7.875-134.96 0-244.38 109.41-244.38 244.38 0 26.688 4.2891 52.375 12.188 76.414h-553c-40.699 0-73.988-33.301-73.988-73.988z" fill-rule="evenodd"/>
</svg>
