<?xml version="1.0" encoding="UTF-8"?>
<svg width="1200pt" height="1200pt" version="1.1" viewBox="0 0 1200 1200" xmlns="http://www.w3.org/2000/svg">
 <g>
  <path d="m1027.5 375h-238.95l-27-90c-1.4922-4.5-4.4023-8.3984-8.2969-11.102-3.8984-2.707-8.5664-4.0742-13.305-3.8984h-279.9c-4.7383-0.17578-9.4062 1.1914-13.305 3.8984-3.8945 2.7031-6.8047 6.6016-8.2969 11.102l-27 90h-36.449v-52.5c0-5.9688-2.3711-11.691-6.5898-15.91s-9.9414-6.5898-15.91-6.5898h-120c-5.9688 0-11.691 2.3711-15.91 6.5898s-6.5898 9.9414-6.5898 15.91v52.5h-37.5c-5.9688 0-11.691 2.3711-15.91 6.5898s-6.5898 9.9414-6.5898 15.91v510c0 5.9688 2.3711 11.691 6.5898 15.91s9.9414 6.5898 15.91 6.5898h855c5.9688 0 11.691-2.3711 15.91-6.5898s6.5898-9.9414 6.5898-15.91v-510c0-5.9688-2.3711-11.691-6.5898-15.91s-9.9414-6.5898-15.91-6.5898zm-550.8-60h246.6l16.5 60h-279.6zm-221.7 30h75v30h-75zm750 540h-810v-465h810z"/>
  <path d="m600 832.5c49.41 0 96.797-19.629 131.73-54.566s54.566-82.324 54.566-131.73c0-49.41-19.629-96.797-54.566-131.73s-82.324-54.566-131.73-54.566-96.797 19.629-131.73 54.566-54.566 82.324-54.566 131.73c0.039062 49.398 19.68 96.762 54.609 131.69 34.93 34.93 82.293 54.57 131.69 54.609zm0-327.45c37.477 0 73.414 14.887 99.914 41.387 26.5 26.496 41.387 62.438 41.387 99.914 0 37.473-14.887 73.414-41.387 99.914-26.5 26.496-62.438 41.383-99.914 41.383s-73.414-14.887-99.914-41.383c-26.5-26.5-41.387-62.441-41.387-99.914 0.039062-37.465 14.941-73.383 41.43-99.871 26.492-26.492 62.406-41.391 99.871-41.43z"/>
  <path d="m600 769.35c32.66 0 63.984-12.977 87.082-36.07 23.094-23.098 36.066-54.418 36.066-87.082 0-32.66-12.973-63.984-36.066-87.078-23.098-23.098-54.422-36.07-87.082-36.07s-63.984 12.973-87.082 36.07c-23.094 23.094-36.066 54.418-36.066 87.078 0.039063 32.648 13.027 63.949 36.113 87.039 23.086 23.086 54.387 36.07 87.035 36.113zm0-201.3c20.727 0 40.605 8.2344 55.262 22.891 14.656 14.652 22.887 34.531 22.887 55.258 0 20.727-8.2305 40.605-22.887 55.262s-34.535 22.891-55.262 22.891-40.605-8.2344-55.262-22.891-22.887-34.535-22.887-55.262c0.039063-20.699 8.2891-40.539 22.941-55.164 14.652-14.621 34.508-22.836 55.207-22.836z"/>
  <path d="m948.75 489.15c0 15.824-12.828 28.652-28.648 28.652-15.824 0-28.652-12.828-28.652-28.652 0-15.82 12.828-28.648 28.652-28.648 15.82 0 28.648 12.828 28.648 28.648"/>
  <path d="m864.45 489.15c0 15.824-12.828 28.652-28.648 28.652-15.824 0-28.652-12.828-28.652-28.652 0-15.82 12.828-28.648 28.652-28.648 15.82 0 28.648 12.828 28.648 28.648"/>
 </g>
</svg>
