<?xml version="1.0" encoding="UTF-8"?>
<svg width="1200pt" height="1200pt" version="1.1" viewBox="0 0 1200 1200" xmlns="http://www.w3.org/2000/svg">
 <g>
  <path d="m1126.8 835.2-123.6-88.801v-488.4c0-21.602-18-39.602-39.602-39.602h-50.398l-294 1.1992-333.6 0.003906h-40.801c-21.602 0-39.602 18-39.602 39.602v486l-122.4 89.996c-34.801 51.602 2.3984 122.4 66 122.4h912c62.398 0 100.8-70.801 66-122.4zm-499.2-594c2.3984 0 4.8008 1.1992 4.8008 4.8008 0 1.1992-1.1992 2.3984-2.3984 2.3984-2.3984 0-4.8008-1.1992-4.8008-4.8008-0.003906-1.1992 1.1953-2.3984 2.3984-2.3984zm-36 0c1.1992-4.8008 4.8008-9.6016 10.801-10.801 9.6016-1.1992 16.801 6 15.602 15.602-1.1992 4.8008-4.8008 9.6016-10.801 10.801-9.6016 2.3984-16.805-6-15.602-15.602zm-330 328.8v-276c0-13.199 10.801-24 24-24h628.8c19.199 0 33.602 15.602 33.602 33.602v422.4h-686.4zm798 332.4h-910.8c-19.199 0-31.199-21.602-20.398-37.199l118.8-82.801h712.8l120 81.602c10.801 16.801-1.1992 38.398-20.398 38.398z"/>
  <path d="m934.8 807.6h-660l-56.398 44.398c-7.1992 6-3.6016 16.801 6 16.801h762c8.3984 0 13.199-10.801 6-16.801z"/>
  <path d="m464.4 506.4c4.8008 0 8.3984-1.1992 12-4.8008l110.4-102v238.8c0 9.6016 8.3984 18 18 18s18-8.3984 18-18l0.003906-238.8 109.2 102c7.1992 7.1992 19.199 6 25.199-1.1992 6-7.1992 6-19.199-1.1992-25.199l-139.2-130.8c-7.1992-6-18-6-24 0l-140.4 130.8c-7.1992 7.1992-7.1992 18-1.1992 25.199 3.6016 3.6016 8.4023 6 13.199 6z"/>
 </g>
</svg>
