<?xml version="1.0" encoding="UTF-8"?>
<svg width="1200pt" height="1200pt" version="1.1" viewBox="0 0 1200 1200" xmlns="http://www.w3.org/2000/svg">
 <path d="m59.996 1076.6v-953.28c0.023437-16.797 6.707-32.898 18.586-44.773 11.875-11.879 27.977-18.562 44.773-18.586h713.28c16.797 0.023438 32.898 6.707 44.773 18.586 11.879 11.875 18.559 27.977 18.586 44.773v394.92l-48 48v-442.92c-0.027344-4.0625-1.6562-7.9531-4.5312-10.828s-6.7656-4.5039-10.828-4.5312h-713.28c-4.0664 0.027344-7.9531 1.6562-10.828 4.5312s-4.5039 6.7656-4.5312 10.828v953.28c0.027344 4.0625 1.6562 7.9531 4.5312 10.828s6.7617 4.5039 10.828 4.5312h713.28c4.0625-0.027344 7.9531-1.6562 10.828-4.5312s4.5039-6.7656 4.5312-10.828v-154.08l48-48v202.08c-0.027344 16.797-6.707 32.898-18.586 44.773-11.875 11.879-27.977 18.562-44.773 18.586h-713.28c-16.797-0.023438-32.898-6.707-44.773-18.586-11.879-11.875-18.562-27.977-18.586-44.773zm708.16-155.04 307.44-307.44-93.359-93.238-307.44 307.32zm352.52-352.52c16.672-16.68 23.18-40.988 17.07-63.77-6.1133-22.781-23.91-40.57-46.695-46.668-22.781-6.0977-47.086 0.42187-63.762 17.102l-14.566 14.57 93.359 93.359zm-496.52 413.83 93.48-18.48v0.003906c6.1836-1.1797 11.871-4.1875 16.32-8.6406l3.5977-3.6016-93.359-93.359-3.6016 3.5977 0.003906 0.003906c-4.4531 4.4492-7.4648 10.133-8.6406 16.32l-18.48 93.48c-0.57422 2.9688 0.36719 6.0312 2.5039 8.1719 2.1406 2.1406 5.2031 3.0781 8.1758 2.5039zm-270.99-703.3c0-1.3828-0.54687-2.707-1.5273-3.6836-0.97656-0.98047-2.3008-1.5312-3.6836-1.5312h-136.77c-2.8789 0-5.2109 2.3359-5.2148 5.2148v136.77c0.003906 2.8789 2.3359 5.2148 5.2148 5.2148h136.77c1.3828 0 2.707-0.55078 3.6875-1.5273 0.97656-0.98047 1.5234-2.3047 1.5234-3.6875zm400.86 93.977h-340.09v48h340.09zm-400.86 158.02c0-1.3828-0.54687-2.707-1.5273-3.6836-0.97656-0.98047-2.3008-1.5312-3.6836-1.5312h-136.77c-2.8789 0-5.2109 2.3359-5.2148 5.2148v136.77c0.003906 2.8789 2.3359 5.2148 5.2148 5.2148h136.77c1.3828 0 2.707-0.55078 3.6875-1.5273 0.97656-0.98047 1.5234-2.3047 1.5234-3.6875zm400.86 93.977h-340.09v48h340.09zm-406.07 152.81h-136.77c-2.8789 0-5.2109 2.3359-5.2148 5.2148v136.77c0.003906 2.8789 2.3359 5.2148 5.2148 5.2148h136.77c1.3828 0 2.707-0.55078 3.6875-1.5273 0.97656-0.98047 1.5234-2.3047 1.5234-3.6875v-136.77c0-1.3828-0.54687-2.707-1.5234-3.6875-0.98047-0.97656-2.3047-1.5273-3.6875-1.5273zm65.977 147.19h148.09v-48h-148.09z"/>
</svg>
