<?xml version="1.0" encoding="UTF-8"?>
<svg width="1200pt" height="1200pt" version="1.1" viewBox="0 0 1200 1200" xmlns="http://www.w3.org/2000/svg">
 <path d="m695.93 906.56h-80.004v-109.92c0-13.246-10.754-24-24-24-13.246 0-24 10.754-24 24v133.92c0 13.246 10.754 24 24 24h104c13.246 0 24-10.754 24-24s-10.742-24-24-24zm382.92-66.574-413.24-413.29 130.56-130.55c23.641-23.699 23.641-62.258 0-85.945-0.011718-0.011719-0.011718-0.011719-0.023437-0.023437l-180.04-180.06c-23.699-23.699-62.281-23.699-86.027 0l-425.21 425.17c-23.652 23.734-23.641 62.305 0.035156 86.004l180.04 180c11.508 11.508 26.773 17.844 43.02 17.844h0.070313c16.234-0.023437 31.488-6.3711 42.91-17.844l130.54-130.51 83.461 83.449c-134.75 7.8594-242.03 119.65-242.03 256.32 0 141.76 115.32 257.09 257.09 257.09 136.69 0 248.47-107.29 256.32-242.05l58.453 58.441c21.887 21.926 51.023 33.996 82.02 33.996h0.011719c30.996 0 60.133-12.07 82.008-33.973 21.961-21.938 34.043-51.098 34.043-82.105-0.015625-30.977-12.098-60.102-34.012-81.965zm-741.88-152.59c-2.3984 2.4102-5.6055 3.7422-8.9883 3.7578h-0.023437c-3.4062 0-6.6484-1.3438-9.0859-3.7812l-180.02-180c-5.0039-4.9922-4.9922-13.152-0.011718-18.156l425.16-425.15c2.5078-2.5078 5.7969-3.7578 9.0977-3.7578 3.3008 0 6.5742 1.2461 9.0703 3.7422l180.01 180.04c4.9922 5.0156 4.9922 13.152 0.023437 18.145zm263.03 452.26c-115.29 0-209.09-93.793-209.09-209.09 0-115.29 93.805-209.09 209.09-209.09s209.09 93.793 209.09 209.09c0 115.29-93.805 209.09-209.09 209.09zm444.88-169.52c-12.828 12.84-29.902 19.906-48.07 19.906h-0.011719c-18.168 0-35.242-7.0664-48.07-19.922l-98.797-98.773c-22.332-94.219-96.504-168.38-190.72-190.7l-123.79-123.79 96.238-96.227 413.27 413.32c12.84 12.805 19.922 29.867 19.934 48.023 0 18.191-7.0898 35.293-19.98 48.168z"/>
</svg>
