<?xml version="1.0" encoding="UTF-8"?>
<svg width="1200pt" height="1200pt" version="1.1" viewBox="0 0 1200 1200" xmlns="http://www.w3.org/2000/svg">
 <g>
  <path d="m1120.9 343.83-26.719-21.328c0.82031-6.7969 1.1719-13.711 1.1719-20.508 0-6.9141-0.35156-13.711-1.1719-20.508l26.719-21.328c12.656-10.078 15.938-27.656 7.8516-41.719l-30-51.914c-8.0859-14.062-24.961-19.922-40.078-14.062l-31.875 12.422c-11.016-8.3203-22.969-15.234-35.508-20.625l-5.1562-33.75c-2.4609-16.055-15.938-27.656-32.227-27.656h-59.883c-16.172 0-29.766 11.602-32.227 27.656l-5.1562 33.75c-12.656 5.3906-24.609 12.305-35.625 20.625l-31.758-12.422c-15.117-5.8594-31.992 0-40.078 14.062l-29.648 51.914c-8.0859 14.062-4.8047 31.523 7.8516 41.719l26.719 21.328c-0.82031 6.7969-1.1719 13.711-1.1719 20.508 0 6.7969 0.46875 13.711 1.1719 20.508l-26.719 21.328c-12.656 10.078-15.938 27.656-7.8516 41.719l29.883 51.914c8.0859 14.062 24.961 19.922 40.078 14.062l31.758-12.422c11.016 8.2031 22.969 15.117 35.625 20.508l5.1562 33.75c2.4609 16.055 15.938 27.656 32.227 27.656h59.883c16.172 0 29.766-11.602 32.227-27.656l5.1562-33.75c12.656-5.3906 24.609-12.305 35.508-20.508l31.875 12.422c15.117 5.8594 31.992 0 40.078-14.062l30-51.914c7.9688-14.062 4.5703-31.523-8.0859-41.719zm-196.76 45.82c-48.281 0-87.656-39.258-87.656-87.656 0-48.281 39.258-87.656 87.656-87.656 48.281 0 87.656 39.258 87.656 87.656 0 48.281-39.258 87.656-87.656 87.656z"/>
  <path d="m799.22 694.69-37.969-8.0859c-8.2031-1.7578-15-7.7344-17.578-15.586-4.8047-14.648-10.781-29.062-17.695-42.773-3.75-7.5-3.2812-16.523 1.2891-23.555l21.211-32.578c11.016-16.992 8.6719-39.609-5.625-54.023l-44.766-44.648c-14.297-14.297-37.031-16.758-54.023-5.7422l-32.578 21.211c-7.0312 4.5703-16.055 5.1562-23.555 1.2891-13.711-6.9141-28.125-12.891-42.773-17.695-7.8516-2.5781-13.828-9.375-15.586-17.578l-8.0859-37.969c-4.2188-19.805-21.914-34.102-42.188-34.102h-63.047c-20.273 0-37.969 14.414-42.188 34.102l-8.0859 37.969c-1.7578 8.2031-7.7344 15-15.586 17.578-14.648 4.8047-29.062 10.781-42.773 17.695-7.5 3.75-16.523 3.2812-23.555-1.2891l-32.578-21.211c-16.992-11.016-39.727-8.6719-54.023 5.7422l-44.648 44.648c-14.297 14.297-16.758 37.031-5.7422 54.023l21.211 32.578c4.5703 7.0312 5.1562 16.055 1.2891 23.555-6.9141 13.711-12.891 28.125-17.695 42.773-2.5781 7.8516-9.375 13.828-17.578 15.586l-37.969 8.0859c-19.805 4.2188-34.102 21.914-34.102 42.188v63.164c0 20.273 14.414 37.969 34.102 42.188l37.969 8.0859c8.2031 1.7578 15 7.7344 17.578 15.586 4.8047 14.648 10.781 29.062 17.695 42.773 3.75 7.3828 3.2812 16.406-1.2891 23.555l-21.211 32.578c-11.016 16.992-8.6719 39.727 5.7422 54.023l44.648 44.648c14.297 14.297 37.031 16.758 54.023 5.625l32.578-21.211c7.0312-4.5703 16.055-5.1562 23.555-1.4062 13.711 6.9141 28.125 12.891 42.773 17.695 7.8516 2.5781 13.828 9.2578 15.586 17.578l8.0859 37.969c4.2188 19.805 21.914 34.102 42.188 34.102h63.047c20.273 0 37.969-14.414 42.188-34.102l8.0859-37.969c1.7578-8.2031 7.7344-15 15.586-17.578 14.648-4.8047 29.062-10.781 42.773-17.695 7.5-3.75 16.406-3.2812 23.555 1.4062l32.578 21.211c16.992 11.016 39.727 8.6719 54.023-5.625l44.648-44.648c14.297-14.297 16.641-37.031 5.625-54.023l-21.211-32.578c-4.5703-7.0312-5.0391-16.055-1.2891-23.555 6.9141-13.711 12.891-28.125 17.695-42.773 2.5781-7.8516 9.2578-13.828 17.578-15.586l37.969-8.0859c19.805-4.2188 34.102-21.914 34.102-42.188v-63.164c0.11719-20.156-14.18-37.969-33.984-42.188zm-351.45 236.6c-89.766 0-162.89-73.008-162.89-162.89 0-89.883 73.125-162.89 162.89-162.89 89.766 0 162.89 73.008 162.89 162.89 0 89.883-73.125 162.89-162.89 162.89z"/>
  <path d="m701.48 143.09-97.266 84.141-30.703-35.508 32.812-28.359c-95.859 4.2188-183.28 52.617-237.89 133.12-17.461 25.781-30.82 53.906-39.727 83.438l-44.883-13.477c10.195-34.102 25.547-66.445 45.82-96.211 34.453-50.742 81.562-91.641 136.41-118.36 46.758-22.852 98.438-34.922 150.35-35.508l-34.453-39.727 35.508-30.703z"/>
  <path d="m1011.9 874.92 0.46875 46.875-129.14 1.1719-1.1719-129.14 46.875-0.46875 0.46875 50.508c87.773-72.773 139.1-180.94 139.1-296.02 0-6.5625-0.11719-13.125-0.46875-19.688l46.875-2.3438c0.35156 7.2656 0.58594 14.766 0.58594 22.031 0 126.68-55.43 245.86-150.47 327.42z"/>
 </g>
</svg>
