<?xml version="1.0" encoding="UTF-8"?>
<svg width="1200pt" height="1200pt" version="1.1" viewBox="0 0 1200 1200" xmlns="http://www.w3.org/2000/svg">
 <g>
  <path d="m830.62 56.25v150c0 11.25 7.5 18.75 18.75 18.75h168.75z"/>
  <path d="m281.25 708.75-3.75-9.375 3.75-1.875v-80.625l-31.875 13.125-15-33.75 46.875-18.75v-80.625l-75 28.125-15-33.75 90-37.5v-80.625l-118.12 48.75-15-33.75 133.12-54.375v-80.625l-161.25 67.5-15-33.75 176.25-73.125v-84.375l-240 99.375c-18.75 7.5-28.125 30-20.625 48.75l260.62 626.25z"/>
  <path d="m311.25 975 26.25 63.75c7.5 18.75 30 28.125 48.75 20.625l204.38-84.375z"/>
  <path d="m618.75 918.75c0-33.75 5.625-63.75 16.875-93.75h-241.88v-37.5h256.88c15-28.125 35.625-54.375 58.125-75h-315v-37.5h365.62c41.25-24.375 88.125-37.5 140.62-37.5 46.875 0 91.875 11.25 131.25 31.875v-406.88h-181.88c-31.875 0-61.875-24.375-61.875-56.25v-168.75h-425.62c-20.625 0-43.125 16.875-43.125 37.5v825c0 20.625 22.5 37.5 43.125 37.5h256.88v-18.75zm-225-806.25h356.25v37.5h-356.25zm0 112.5h356.25v37.5h-356.25zm0 112.5h562.5v37.5h-562.5zm0 112.5h562.5v37.5h-562.5zm0 112.5h562.5v37.5h-562.5z"/>
  <path d="m900 675c-135 0-243.75 108.75-243.75 243.75s108.75 243.75 243.75 243.75 243.75-108.75 243.75-243.75-108.75-243.75-243.75-243.75zm-39.375 378.75-133.12-133.12 26.25-26.25 106.88 106.88 185.62-185.62 26.25 26.25z"/>
 </g>
</svg>
