<?xml version="1.0" encoding="UTF-8"?>
<svg width="1200pt" height="1200pt" version="1.1" viewBox="0 0 1200 1200" xmlns="http://www.w3.org/2000/svg">
 <g fill-rule="evenodd">
  <path d="m229.8 1133.8 360-339.48 9.2383 2.0391c55.312 12.012 113.08 4.3281 163.33-21.723 50.25-26.051 89.82-68.832 111.88-120.95 22.062-52.125 25.227-110.32 8.9492-164.52l-89.879 84c-14.293 13.422-33.324 20.629-52.922 20.039-19.566-0.52734-38.105-8.8672-51.477-23.16l-47.398-50.281h-0.003907c-13.383-14.281-20.57-33.277-19.984-52.844 0.58203-19.562 8.8906-38.098 23.105-51.555l89.879-84.602c-26.887-9.9414-55.332-15.02-84-15-46.895-0.003906-92.785 13.566-132.13 39.074-39.352 25.508-70.477 61.859-89.617 104.67-19.141 42.812-25.477 90.246-18.25 136.58l1.4414 9.3594-357.12 336z"/>
  <path d="m1044.7 536.4 90.84-86.281 8.6406-8.1602-44.52-118.56-163.68-6.957c-7.4414-8.7617-15.359-17.281-24-25.441l4.1992-163.32-114.48-52.32-120 110.52c-12-0.96094-23.281-1.3203-34.801-1.1992l-112.8-118.44-118.56 44.398v12c-1.8398 41.762-3.6016 83.48-5.2812 125.16l-1.0781 26.039c-8.7617 7.4414-17.281 15.359-25.441 24l-163.32-4.1992-52.441 115.08 110.52 120c-0.96094 12-1.3203 23.16-1.1992 34.801l-118.92 112.8 33.602 88.441 182.52-172.2c-6.2227-52.23 2.4492-105.16 25.012-152.67s58.098-87.688 102.5-115.88c44.41-28.188 95.883-43.25 148.48-43.449 32.762 0.007812 65.266 5.8164 96 17.16l54.48 20.16-132 124.44c-7.2617 6.9141-11.5 16.418-11.789 26.438-0.29297 10.023 3.3828 19.758 10.23 27.082l47.398 50.281c6.8398 7.3711 16.348 11.695 26.398 12 10.07 0.54688 19.91-3.1523 27.121-10.199l132-124.44 16.801 55.559c18.312 61.051 15.141 126.53-8.9844 185.52s-67.746 107.93-123.59 138.66-120.53 41.379-183.27 30.18l-182.76 172.08 82.32 37.441 120-110.52c12 0.96094 23.16 1.3203 34.801 1.1992l112.32 118.32 119.04-43.922 6.9609-163.2c8.7617-7.4414 17.281-15.48 25.441-24l163.32 4.1992 52.441-115.32-110.52-120c0.96094-12 1.3203-23.16 1.1992-34.801z"/>
 </g>
</svg>
