<?xml version="1.0" encoding="UTF-8"?>
<svg width="1200pt" height="1200pt" version="1.1" viewBox="0 0 1200 1200" xmlns="http://www.w3.org/2000/svg">
 <path d="m810 468c34.168 0.03125 66.949-13.504 91.137-37.637 24.191-24.129 37.809-56.875 37.863-91.043 0.050781-34.168-13.465-66.957-37.578-91.164-24.117-24.203-56.855-37.84-91.023-37.914-34.168-0.074219-66.965 13.422-91.184 37.52-24.219 24.102-37.879 56.832-37.977 91-0.0625 34.211 13.469 67.047 37.613 91.285 24.148 24.238 56.934 37.891 91.148 37.953zm0-197.64c18.281-0.03125 35.828 7.207 48.77 20.117 12.941 12.914 20.219 30.441 20.23 48.723s-7.2461 35.82-20.176 48.746c-12.926 12.926-30.461 20.184-48.746 20.176-18.281-0.011719-35.809-7.2891-48.719-20.23-12.914-12.945-20.152-30.488-20.121-48.77-0.0625-18.289 7.1484-35.852 20.047-48.82 12.898-12.965 30.426-20.27 48.715-20.301zm270-180.36h-768c-7.957 0-15.586 3.1602-21.215 8.7852-5.625 5.6289-8.7852 13.258-8.7852 21.215v162h-162c-7.957 0-15.586 3.1602-21.215 8.7852-5.625 5.6289-8.7852 13.258-8.7852 21.215v768c0 7.957 3.1602 15.586 8.7852 21.215 5.6289 5.625 13.258 8.7852 21.215 8.7852h768c7.957 0 15.586-3.1602 21.215-8.7852 5.625-5.6289 8.7852-13.258 8.7852-21.215v-162h162c7.957 0 15.586-3.1602 21.215-8.7852 5.625-5.6289 8.7852-13.258 8.7852-21.215v-768c0-7.957-3.1602-15.586-8.7852-21.215-5.6289-5.625-13.258-8.7852-21.215-8.7852zm-738 60h708v483.36l-97.32-112.92v0.003906c-5.1602-6.0508-12.52-9.793-20.445-10.402-7.9297-0.60547-15.773 1.9688-21.793 7.1602l-132.96 114.36-216.72-260.76c-5.9531-7.3711-15.051-11.48-24.516-11.078s-18.18 5.2695-23.484 13.117l-170.76 245.88zm516 900h-708v-708h132v546c0 7.957 3.1602 15.586 8.7852 21.215 5.6289 5.625 13.258 8.7852 21.215 8.7852h546zm30-192h-546v-134.28l198-284.28 210.96 253.92c5.0977 6.2266 12.5 10.125 20.52 10.801 8.0234 0.62109 15.965-1.9688 22.078-7.1992l133.32-114.72 123.12 143.16v132z"/>
</svg>
