<?xml version="1.0" encoding="UTF-8"?>
<svg width="1200pt" height="1200pt" version="1.1" viewBox="0 0 1200 1200" xmlns="http://www.w3.org/2000/svg">
 <path d="m600 168.91c-237.7 0-431.09 193.38-431.09 431.09s193.39 431.09 431.09 431.09 431.09-193.38 431.09-431.09-193.39-431.09-431.09-431.09zm41.668 628.87c0 23.016-18.652 41.668-41.668 41.668s-41.668-18.652-41.668-41.668v-212.56h-27.75c-23.016 0-41.668-18.652-41.668-41.668 0-23.016 18.652-41.668 41.668-41.668h69.418c23.016 0 41.668 18.652 41.668 41.668zm-9.2266-363.15c-2.2031 2.2031-4.582 4.0312-6.9648 5.6875-2.5586 1.6484-5.1367 3.1172-7.8789 4.2188-2.7578 1.1016-5.6953 2.0156-8.6133 2.5625-2.9336 0.73438-6.0469 0.92188-8.9844 0.92188s-6.0508-0.1875-8.9883-0.92188c-2.9375-0.54688-5.8711-1.4609-8.6133-2.5625-2.7578-1.1016-5.3164-2.5703-7.8945-4.2188-2.3828-1.6562-4.7617-3.4844-6.9648-5.6875-2.0039-2.0156-4.0273-4.4062-5.6758-6.9688-1.6484-2.5703-3.1133-5.1406-4.2266-7.8945-1.0898-2.75-2.0039-5.6875-2.5586-8.625-0.55469-2.9297-0.91016-5.8672-0.91016-8.9883 0-2.9375 0.35938-5.8672 0.91406-8.9922 0.55469-2.9297 1.4688-5.6914 2.5586-8.4375 1.1094-2.75 2.5781-5.5 4.2266-7.8828 1.6484-2.5703 3.6719-4.9531 5.6758-6.9766 2.2031-2.1953 4.582-4.0312 6.9648-5.6797 2.5781-1.8359 5.1367-3.125 7.8945-4.4062 2.7383-1.1016 5.6758-2.0156 8.6133-2.5703 14.84-2.9297 30.617 1.8359 41.43 12.656 2.0234 2.0234 4.0469 4.4062 5.6953 6.9766 1.6484 2.3828 3.1133 5.1328 4.207 7.8828 1.1094 2.75 2.0234 5.5078 2.5781 8.4375 0.53125 3.125 0.90625 6.0547 0.90625 8.9922 0 12.113-4.957 24.035-13.391 32.477z"/>
</svg>
