<?xml version="1.0" encoding="UTF-8"?>
<svg width="1200pt" height="1200pt" version="1.1" viewBox="0 0 1200 1200" xmlns="http://www.w3.org/2000/svg">
 <g>
  <path d="m356.25 131.25c10.352 0 18.75-8.3828 18.75-18.75v-18.75c0-31.012 25.238-56.25 56.25-56.25h187.5c31.012 0 56.25 25.238 56.25 56.25v18.75c0 10.367 8.3984 18.75 18.75 18.75s18.75-8.3828 18.75-18.75v-18.75c0-51.695-42.055-93.75-93.75-93.75h-187.5c-51.695 0-93.75 42.055-93.75 93.75v18.75c0 10.367 8.3984 18.75 18.75 18.75z"/>
  <path d="m487.5 506.25c-31.012 0-56.25 25.238-56.25 56.25v150c0 31.012 25.238 56.25 56.25 56.25h75c31.012 0 56.25-25.238 56.25-56.25v-150c0-31.012-25.238-56.25-56.25-56.25zm93.75 56.25v150c0 10.352-8.418 18.75-18.75 18.75h-75c-10.332 0-18.75-8.3984-18.75-18.75v-150c0-10.352 8.418-18.75 18.75-18.75h75c10.332 0 18.75 8.3984 18.75 18.75z"/>
  <path d="m1125 712.5h-243.75c-41.363 0-75 33.637-75 75v225h-37.5c-41.363 0-75 33.637-75 75v37.5c0 41.363 33.637 75 75 75h356.25c41.363 0 75-33.637 75-75v-337.5c0-41.363-33.637-75-75-75zm-356.25 450c-20.68 0-37.5-16.82-37.5-37.5v-37.5c0-20.68 16.82-37.5 37.5-37.5h37.5v75c0 20.68-16.82 37.5-37.5 37.5zm393.75-37.5c0 20.68-16.82 37.5-37.5 37.5h-291.32c6.4141-11.043 10.07-23.852 10.07-37.5v-337.5c0-20.68 16.82-37.5 37.5-37.5h243.75c20.68 0 37.5 16.82 37.5 37.5z"/>
  <path d="m1087.5 843.75h-150c-10.352 0-18.75 8.3828-18.75 18.75s8.3984 18.75 18.75 18.75h150c10.352 0 18.75-8.3828 18.75-18.75s-8.3984-18.75-18.75-18.75z"/>
  <path d="m1087.5 937.5h-150c-10.352 0-18.75 8.3828-18.75 18.75s8.3984 18.75 18.75 18.75h150c10.352 0 18.75-8.3828 18.75-18.75s-8.3984-18.75-18.75-18.75z"/>
  <path d="m1087.5 1031.2h-150c-10.352 0-18.75 8.3828-18.75 18.75s8.3984 18.75 18.75 18.75h150c10.352 0 18.75-8.3828 18.75-18.75s-8.3984-18.75-18.75-18.75z"/>
  <path d="m787.5 956.25c0-10.367-8.3984-18.75-18.75-18.75h-675c-31.012 0-56.25-25.238-56.25-56.25v-375.3c5.457 4.1055 11.25 7.8203 17.625 10.707l224.12 130.74c0.61719 0.35547 1.2578 0.67578 1.9297 0.97656 11.91 5.2109 24.566 7.875 37.578 7.875h75c10.352 0 18.75-8.3828 18.75-18.75s-8.3984-18.75-18.75-18.75h-75c-7.4609 0-14.738-1.4453-21.617-4.3125l-224.01-130.69c-0.61719-0.35547-1.2734-0.67578-1.9297-0.97656-20.457-8.9414-33.695-29.191-33.695-51.523v-187.5c0-31.012 25.238-56.25 56.25-56.25h862.5c31.012 0 56.25 25.238 56.25 56.25v187.5c0 22.895-13.668 43.312-34.82 52.012-0.60156 0.26172-1.1797 0.52344-1.7422 0.82422l-242.83 130.76c-6.5977 2.5898-13.535 3.9023-20.605 3.9023h-56.25c-10.352 0-18.75 8.3828-18.75 18.75s8.3984 18.75 18.75 18.75h56.25c12.281 0 24.281-2.3633 35.68-7.0508 0.60156-0.24219 1.1992-0.50781 1.7812-0.82422l242.95-130.84c7.125-3.0195 13.594-7.0312 19.594-11.531v168.99c0 10.367 8.3984 18.75 18.75 18.75s18.75-8.3828 18.75-18.75v-431.25c0-51.695-42.055-93.75-93.75-93.75h-862.5c-51.695 0-93.75 42.055-93.75 93.75v637.5c0 51.695 42.055 93.75 93.75 93.75h675c10.352 0 18.75-8.3828 18.75-18.75z"/>
 </g>
</svg>
