<?xml version="1.0" encoding="UTF-8"?>
<svg width="1200pt" height="1200pt" version="1.1" viewBox="0 0 1200 1200" xmlns="http://www.w3.org/2000/svg">
 <path d="m441.95 394.03c9.2891 5.7617 0.55469 19.965-8.7305 14.203-49.336-30.703-104.21-49.008-162.7-46.098-10.93 0.51562-11.711-16.176-0.78125-16.691 61.93-3.082 119.94 16.059 172.21 48.586zm-103.59 4.7422c6.4805 2.2344 3.1016 12.133-3.3789 9.9023-16.316-5.6445-33.238-8.8711-50.488-9.4844-6.832-0.24219-6.4648-10.676 0.36719-10.434 18.203 0.64844 36.285 4.0586 53.504 10.02zm259.83 32.195c2.9648 0 5.9102 0.078125 8.8359 0.23047 6.0391-17.355 10.742-34.582 13.98-51.629-1.6562-35.824-10.684-64.461-27.926-99.992-13.781-28.398-31.766-53.012-52.73-73.625-22.004-21.633-47.332-38.902-74.574-51.551-4.1758-1.9336-6-6.9023-4.0742-11.094 1.9258-4.1953 6.8711-6.0234 11.047-4.0898 28.918 13.43 55.84 31.793 79.266 54.824 22.32 21.945 41.438 48.094 56.051 78.207 7.1484 14.727 13.199 30.148 18.023 46.496-0.55859-19.219-3.2969-38.117-8.418-56.613-13.965-50.465-45.719-98.234-99.273-141.8-12.703-10.336-22.062-23.52-27.133-37.285-4.4062-11.961-5.6016-24.445-3.0039-36.035 2.6641-11.875 9.2422-22.66 20.34-30.867 9.7539-7.2148 22.98-12.352 40.074-14.301 66.168-7.5508 127.05 8.4062 177.09 39.914 53.582 33.734 94.676 85.277 116.49 144.86 22.484 61.418 23.258 128.28 2.0391 190.16-1.3672 3.9883-2.8359 7.9805-4.4023 11.969 3.0312-4.5625 5.9062-9.2383 8.625-14.031 25.934-45.754 37.434-102.17 30.246-170.84-6.793-64.918 48.762-107.09 104.79-62.289 37.016 29.594 63.793 65.66 80.945 104.78 32.699 74.586 30.469 160.84-3.3828 234.41-18.438 40.07-44.914 73.949-77.336 100.52-16.914 13.863-35.438 25.727-55.273 35.438 3.2656-0.74219 6.5195-1.5547 9.7578-2.4414 50.75-13.867 98.773-45.469 141.93-99.004 40.941-50.789 109.87-41.047 117.95 30.418 7.5156 66.469-8.3672 127.62-39.734 177.9-33.582 53.828-84.895 95.105-144.2 117.02-29.867 11.035-61.828 17.164-94.633 17.52-31.246 0.33594-63.164-4.5703-94.668-15.473-8.1484-2.8203-16.289-6.0508-24.406-9.707 8.6953 6.7656 17.836 12.93 27.434 18.449 45.645 26.242 101.85 38.004 170.07 30.805 64.625-6.8242 106.61 48.984 62.008 105.27-41.504 52.379-95.789 84.355-153.35 97.621-61.602 14.199-126.93 6.9336-184.31-19.707-58.98-27.387-106.23-73.594-134.9-132.17 0.32422 1.2852 0.65625 2.5664 1.0039 3.8477 13.805 50.98 45.262 99.223 98.559 142.57 50.559 41.129 40.863 110.37-30.281 118.48-66.168 7.5508-127.05-8.4062-177.09-39.914-53.582-33.734-94.676-85.277-116.49-144.86-23.773-64.938-23.199-135.74 1.6328-200.25-38.988 56.027-49.082 121.74-42.059 188.89 6.793 64.918-48.762 107.09-104.79 62.289-52.145-41.691-83.973-96.227-97.18-154.05-14.137-61.883-6.9023-127.51 19.617-185.15 30.062-65.336 78.656-112.54 144.12-140.79-67.871 11.477-121.92 50.945-164.71 104.02-40.941 50.789-109.87 41.047-117.95-30.418-8.9297-78.953 14.926-155.51 67.398-215.04 7.2344-8.2109 19.68 2.8516 12.445 11.062-49.34 55.969-71.688 127.91-63.293 202.14 6.3984 56.57 56.871 60.941 88.496 21.711 45.406-56.328 102.89-97.848 174.86-110.01 50.312-8.5039 101.18-1.5273 149.87 14.73 3.8789-39.809 21.578-75.547 48.215-102.31 30.289-30.426 72.133-49.246 118.35-49.246zm-252.25 150.67c-19.262 4.6133-37.531 10.582-54.711 17.977-59.828 25.762-106.44 68.859-135.72 132.5-24.996 54.324-31.82 116.14-18.512 174.41 12.398 54.281 42.309 105.5 91.316 144.68 44.336 35.449 83.141 2.7891 77.879-47.492-7.5586-72.246 4.9414-132.04 32.75-180.86 28.754-50.473 73.773-88.965 129.82-117.17-23.551-28.824-37.746-65.652-37.934-105.8-28.57-9.9102-56.969-16.191-84.887-18.25zm124.05-300.88c6.9102 0 12.512 5.625 12.512 12.57 0 6.9414-5.6016 12.57-12.512 12.57h-290.12c-12.852 0-28.086-1.4375-40.109 2.0859-22.152 6.4883-37.254 26.875-37.254 50.023 0 28.754 23.199 52.062 51.824 52.062s51.824-23.305 51.824-52.062c0-16.531 25.023-16.531 25.023 0 0 42.633-34.41 77.199-76.848 77.199-42.441 0-76.848-34.566-76.848-77.199 0-34.234 22.625-64.5 55.336-74.082 14.496-4.2461 31.074-3.1641 46.16-3.1641h291.01zm-43.793-75.953c6.9102 0 12.512 5.625 12.512 12.57 0 6.9414-5.6016 12.57-12.512 12.57h-318.82v-0.050781c-14.312-0.019531-28.621 0.97266-42.578-3.1172-32.715-9.582-55.336-39.848-55.336-74.082 0-42.633 34.41-77.199 76.848-77.199 42.441 0 76.848 34.566 76.848 77.199 0 6.9414-5.6016 12.57-12.512 12.57-6.9102 0-12.512-5.6289-12.512-12.57 0-28.754-23.199-52.062-51.824-52.062s-51.824 23.305-51.824 52.062c0 23.148 15.102 43.535 37.254 50.023 10.789 3.1602 24.27 2.1211 35.637 2.1328v-0.050781h318.82zm-21.906-69.949c16.457 0 16.457 25.137 0 25.137-28.074 0-56.32-0.33203-84.32 0.003906-11.727 0.14062-24.09 0.28906-35.895-3.168-32.715-9.582-55.336-39.848-55.336-74.082 0-42.633 34.41-77.199 76.848-77.199 42.441 0 76.848 34.566 76.848 77.199 0 16.531-25.023 16.531-25.023 0 0-28.754-23.199-52.062-51.824-52.062s-51.824 23.305-51.824 52.062c0 23.148 15.102 43.535 37.254 50.023 8.3008 2.4297 18.75 2.3047 28.664 2.1875 28.125-0.33594 56.422-0.10156 84.613-0.10156zm402.37 205.03c-2.2227 6.5117-12.078 3.1172-9.8555-3.3945 13.137-38.301 12.668-79.352-1.25-117.37-2.3555-6.457 7.418-10.059 9.7734-3.6016 14.707 40.168 15.211 83.891 1.332 124.36zm-182.65 93.074c35.879 5.582 67.988 22.609 92.523 47.254 2.082 2.0898 4.1055 4.2383 6.0781 6.4375 26.52-12.992 50.418-28.285 71.129-46.078 0.12891-0.23828 0.26953-0.46875 0.42188-0.69531 7.4141-10.973 13.953-22.176 19.66-33.547 5.7734-11.504 10.66-23.188 14.707-34.984 20.031-58.406 19.316-120.99-1.9062-178.96-20.57-56.184-59.25-104.75-109.64-136.48-46.969-29.57-104.19-44.535-166.47-37.426-13.988 1.5977-24.535 5.5977-32.059 11.16-7.6367 5.6484-12.148 12.996-13.957 21.047-1.8711 8.332-0.91797 17.562 2.4141 26.609 4.0664 11.039 11.645 21.672 21.984 30.082 56.391 45.871 89.93 96.531 104.81 150.3 15.484 55.957 10.668 114.99-9.6914 175.28zm304.04 130.93c-6.1602 3.0117-10.723-6.3945-4.5625-9.4102 36.285-17.77 64.785-47.062 81.723-83.867 2.8672-6.2422 12.316-1.8633 9.4492 4.3789-17.922 38.945-48.211 70.094-86.609 88.898zm-194.7-63.957c20.246 27.801 32.199 62.078 32.199 99.164 0 1.125-0.015625 2.2422-0.035156 3.3633 33.113 11.836 66.016 18.844 98.219 20.09 0.38281-0.15625 0.78125-0.28906 1.1914-0.39063 40.539-10.086 77.352-28.387 108.37-53.809 30.453-24.961 55.344-56.828 72.707-94.566 31.852-69.223 34.02-150.49 3.2539-220.66-16.105-36.734-41.27-70.613-76.059-98.43-44.336-35.449-83.141-2.7891-77.879 47.492 7.5703 72.328-4.7148 132.06-32.332 180.79-28.578 50.418-73.445 88.793-129.63 116.97zm128.29 304.94c-6.4805-2.2344-3.1016-12.133 3.3789-9.9023 38.129 13.195 78.992 12.727 116.84-1.2578 6.4297-2.3672 10.012 7.4492 3.582 9.8203-39.988 14.773-83.516 15.281-123.8 1.3398zm-97.344-185.13c-4.6523 38.176-22.039 72.398-47.77 98.246-0.79297 0.79297-1.5938 1.582-2.3984 2.3594 11.633 24.602 25.207 47.082 40.855 66.977 11.742 8.4844 23.754 15.934 35.965 22.391 12.949 6.8477 26.105 12.539 39.371 17.129 29.766 10.301 59.809 14.938 89.129 14.621 30.758-0.33203 60.828-6.1172 89.031-16.539 55.93-20.664 104.27-59.52 135.86-110.14 29.438-47.184 44.336-104.66 37.258-167.23-6.3984-56.57-56.871-60.941-88.496-21.711-45.52 56.469-96.449 89.875-150.47 104.64-57.133 15.613-117.47 10.281-178.34-10.738zm-63.18 111.94c-28.199 22.125-63.637 35.371-102.15 35.551-11.047 32.137-17.566 64.059-18.723 95.32 2.4961 11.152 5.5312 21.781 9.0977 32.027 3.6289 10.434 7.8633 20.543 12.684 30.473 26.973 55.582 71.434 99.234 127.3 125.18 54.078 25.109 115.62 31.965 173.62 18.594 54.039-12.457 105.02-42.5 144.03-91.73 35.289-44.535 2.7734-83.52-47.281-78.234-71.922 7.5938-131.45-4.9648-180.04-32.898-53.977-31.031-91.676-78.996-118.55-134.28zm-61.492 200.06c-1.2578-2.5977-0.18359-5.7305 2.4023-6.9961 2.5859-1.2656 5.7031-0.18359 6.9648 2.4141 17.691 36.449 46.848 65.082 83.488 82.094 6.2148 2.8789 1.8555 12.371-4.3594 9.4922-38.77-18-69.777-48.43-88.496-87.004zm-240.87-71.625c0.93359-2.7344 3.8984-4.1914 6.6172-3.2539 2.7227 0.9375 4.1719 3.9141 3.2383 6.6484-13.137 38.301-12.668 79.352 1.25 117.37 2.3555 6.457-7.418 10.059-9.7734 3.6016-14.707-40.168-15.211-83.895-1.332-124.36zm182.92-93.691c-39.355-3.8711-74.715-21.434-101.29-47.887-27.473 13.43-52.215 29.359-73.559 47.988-0.20312 0.57812-0.47656 1.1406-0.81641 1.6797-6.2227 9.8555-11.707 19.758-16.48 29.664-4.875 10.121-9.082 20.398-12.641 30.781-20.031 58.406-19.316 120.99 1.9062 178.96 20.57 56.184 59.25 104.75 109.64 136.48 46.969 29.57 104.19 44.535 166.47 37.426 56.312-6.4258 60.668-57.129 21.613-88.898-56.211-45.727-89.469-96.887-104.16-151.15-15.195-56.109-10.461-115.3 9.3125-175.05zm-308.23-124.41c6.1602-3.0117 10.723 6.3945 4.5625 9.4102-36.285 17.77-64.785 47.062-81.723 83.867-1.2031 2.6211-4.293 3.7656-6.9023 2.5586-2.6094-1.207-3.75-4.3125-2.5469-6.9336 17.922-38.945 48.211-70.094 86.609-88.898zm282.02-369.11c3 6.1875-6.3672 10.77-9.3672 4.582-17.691-36.449-46.848-65.082-83.488-82.094-6.2148-2.8789-1.8555-12.371 4.3594-9.4922 38.77 18 69.777 48.43 88.496 87.004zm131.84 338.28c0.70703-5.4453 8.9492-4.3672 8.2422 1.082-5.2578 39.613-34.066 72.293-72.566 82.355-5.293 1.3789-7.3789-6.707-2.0859-8.0859 35.215-9.2031 61.598-39.113 66.41-75.352zm-89.125-142.91c35.969 0 68.531 14.645 92.102 38.324 23.57 23.68 38.152 56.391 38.152 92.52 0 72.262-58.316 130.84-130.25 130.84-35.969 0-68.531-14.645-92.102-38.324s-38.152-56.391-38.152-92.52c0-36.133 14.578-68.844 38.152-92.52 23.57-23.68 56.133-38.324 92.102-38.324zm83.258 47.211c-21.309-21.402-50.742-34.641-83.258-34.641-32.516 0-61.949 13.238-83.258 34.641s-34.484 50.973-34.484 83.633c0 32.66 13.18 62.23 34.484 83.633 21.305 21.402 50.742 34.641 83.258 34.641 65.027 0 117.74-52.953 117.74-118.28 0-32.66-13.18-62.23-34.484-83.633zm23.297-23.402c-27.27-27.395-64.941-44.336-106.55-44.336-41.613 0-79.285 16.941-106.55 44.336-27.27 27.391-44.133 65.234-44.133 107.04s16.867 79.645 44.133 107.04c27.27 27.391 64.941 44.336 106.55 44.336 41.613 0 79.285-16.941 106.55-44.336 27.27-27.391 44.137-65.234 44.137-107.04s-16.867-79.645-44.137-107.04z"/>
</svg>
