<?xml version="1.0" encoding="UTF-8"?>
<svg width="1200pt" height="1200pt" version="1.1" viewBox="0 0 1200 1200" xmlns="http://www.w3.org/2000/svg">
 <g>
  <path d="m838.29 624.24c-7.332-7.332-19.199-7.332-26.512 0l-13.258 13.258h-33.207c-0.65625-1.8359-1.3516-3.6016-2.1758-5.3438l37.633-37.668c7.332-7.332 7.332-19.199 0-26.512-7.332-7.3125-19.219-7.332-26.512 0.019532l-37.613 37.648c-1.7422-0.84375-3.5234-1.5547-5.3828-2.2109v-33.188l13.258-13.258c7.332-7.332 7.332-19.18 0-26.512-7.332-7.332-19.18-7.332-26.512 0l-5.5117 5.5117-5.4922-5.4922c-7.332-7.332-19.18-7.332-26.512 0-7.332 7.332-7.332 19.18 0 26.512l13.254 13.254v33.188c-1.8359 0.65625-3.6016 1.3516-5.3438 2.1953l-37.648-37.648c-7.332-7.332-19.18-7.332-26.512 0-7.332 7.3125-7.332 19.18 0 26.512l37.648 37.648c-0.84375 1.7422-1.5391 3.5234-2.1953 5.3633h-33.148l-13.273-13.273c-7.332-7.3125-19.18-7.3125-26.512 0-7.332 7.332-7.332 19.199 0 26.531l5.4922 5.4922-5.4766 5.4766c-7.332 7.332-7.332 19.18 0 26.512 3.6562 3.6719 8.457 5.4922 13.258 5.4922 4.8008 0 9.6016-1.8359 13.258-5.4766l13.258-13.258h33.168c0.65625 1.8359 1.3516 3.6172 2.1758 5.3633l-37.648 37.613c-7.332 7.3125-7.332 19.18 0 26.512 3.6484 3.6602 8.4492 5.4961 13.25 5.4961s9.6016-1.8359 13.258-5.4766l37.688-37.633c1.7266 0.82422 3.5078 1.5195 5.3047 2.1562v33.207l-13.258 13.258c-7.332 7.332-7.332 19.18 0 26.512 7.332 7.332 19.18 7.332 26.512 0l5.4961-5.5117 5.4922 5.4922c3.6562 3.6602 8.457 5.4961 13.258 5.4961s9.6016-1.8359 13.258-5.4922c7.332-7.332 7.332-19.18 0-26.512l-13.258-13.258v-33.188c1.8359-0.65625 3.6016-1.3516 5.3438-2.1953l37.648 37.648c3.6562 3.6602 8.457 5.4961 13.258 5.4961s9.6016-1.8359 13.258-5.4922c7.332-7.332 7.332-19.18 0-26.512l-37.648-37.648c0.82422-1.7266 1.5391-3.5078 2.1758-5.3242h33.227l13.258 13.258c3.668 3.6484 8.4688 5.4688 13.27 5.4688 4.8008 0 9.6016-1.8359 13.258-5.4922 7.332-7.332 7.332-19.18 0-26.512l-5.4961-5.4961 5.4922-5.4922c7.332-7.3125 7.332-19.184 0-26.516zm-144.52 32.062v-0.039063c0-0.015625-0.019531-0.035156-0.019531-0.054687 0.019531-5.1562 2.1016-9.8242 5.4922-13.219 3.4141-3.3906 8.1016-5.4922 13.258-5.4922 10.352 0 18.75 8.418 18.75 18.75s-8.3984 18.75-18.75 18.75c-10.332 0-18.711-8.3828-18.73-18.695z"/>
  <path d="m337.5 393.75c31.012 0 56.25-25.238 56.25-56.25s-25.238-56.25-56.25-56.25-56.25 25.238-56.25 56.25 25.238 56.25 56.25 56.25zm0-75c10.352 0 18.75 8.418 18.75 18.75s-8.3984 18.75-18.75 18.75-18.75-8.418-18.75-18.75 8.3984-18.75 18.75-18.75z"/>
  <path d="m337.5 431.25c-31.012 0-56.25 25.238-56.25 56.25s25.238 56.25 56.25 56.25 56.25-25.238 56.25-56.25-25.238-56.25-56.25-56.25zm0 75c-10.352 0-18.75-8.418-18.75-18.75s8.3984-18.75 18.75-18.75 18.75 8.418 18.75 18.75-8.3984 18.75-18.75 18.75z"/>
  <path d="m1143.8 843.75h-150v-600c0-31.012-25.238-56.25-56.25-56.25h-675c-31.012 0-56.25 25.238-56.25 56.25v600h-150c-31.012 0-56.25 25.238-56.25 56.25v168.75c0 10.352 8.3828 18.75 18.75 18.75h1162.5c10.367 0 18.75-8.3984 18.75-18.75v-168.75c0-31.012-25.238-56.25-56.25-56.25zm0 37.5c10.352 0 18.75 8.418 18.75 18.75v18.75h-168.75v-37.5zm-187.5-637.5v806.25h-487.5v-825h468.75c10.352 0 18.75 8.418 18.75 18.75zm-900 637.5h150v37.5h-168.75v-18.75c0-10.332 8.3984-18.75 18.75-18.75zm-18.75 75h168.75v93.75h-168.75zm206.25-712.5c0-10.332 8.3984-18.75 18.75-18.75h168.75v825h-187.5zm750 806.25v-93.75h168.75v93.75z"/>
  <path d="m318.75 600h-18.75c-10.367 0-18.75 8.3984-18.75 18.75s8.3828 18.75 18.75 18.75h18.75c10.367 0 18.75-8.3984 18.75-18.75s-8.3828-18.75-18.75-18.75z"/>
  <path d="m361.69 605.44c-3.3945 3.5625-5.4375 8.4375-5.4375 13.312s2.043 9.75 5.4375 13.312c3.543 3.375 8.4375 5.4375 13.312 5.4375s9.7305-2.0625 13.312-5.4375c3.375-3.5625 5.4375-8.4375 5.4375-13.312s-2.0625-9.75-5.4375-13.312c-6.9375-6.9375-19.5-6.9375-26.625 0z"/>
  <path d="m318.75 675h-18.75c-10.367 0-18.75 8.3984-18.75 18.75s8.3828 18.75 18.75 18.75h18.75c10.367 0 18.75-8.3984 18.75-18.75s-8.3828-18.75-18.75-18.75z"/>
  <path d="m361.69 680.44c-3.3945 3.5625-5.4375 8.4375-5.4375 13.312s2.043 9.75 5.4375 13.312c3.543 3.375 8.4375 5.4375 13.312 5.4375s9.7305-2.0625 13.312-5.4375c3.375-3.5625 5.4375-8.4375 5.4375-13.312s-2.0625-9.75-5.4375-13.312c-7.125-6.9375-19.5-6.9375-26.625 0z"/>
  <path d="m318.75 750h-18.75c-10.367 0-18.75 8.3984-18.75 18.75s8.3828 18.75 18.75 18.75h18.75c10.367 0 18.75-8.3984 18.75-18.75s-8.3828-18.75-18.75-18.75z"/>
  <path d="m361.69 755.44c-3.3945 3.5625-5.4375 8.4375-5.4375 13.312s2.043 9.75 5.4375 13.312c3.543 3.375 8.4375 5.4375 13.312 5.4375s9.7305-2.0625 13.312-5.4375c3.375-3.5625 5.4375-8.4375 5.4375-13.312s-2.0625-9.75-5.4375-13.312c-7.125-6.9375-19.5-6.9375-26.625 0z"/>
  <path d="m600 450h225c31.012 0 56.25-25.238 56.25-56.25v-37.5c0-31.012-25.238-56.25-56.25-56.25h-225c-31.012 0-56.25 25.238-56.25 56.25v37.5c0 31.012 25.238 56.25 56.25 56.25zm-18.75-93.75c0-10.332 8.3984-18.75 18.75-18.75h225c10.352 0 18.75 8.418 18.75 18.75v37.5c0 10.332-8.3984 18.75-18.75 18.75h-225c-10.352 0-18.75-8.418-18.75-18.75z"/>
 </g>
</svg>
