<?xml version="1.0" encoding="UTF-8"?>
<svg width="1200pt" height="1200pt" version="1.1" viewBox="0 0 1200 1200" xmlns="http://www.w3.org/2000/svg">
 <path transform="scale(3.6036)" d="m255 60-118-29.999v286l118-25.999zm0 0" fill="none" stroke="#000" stroke-linecap="round" stroke-linejoin="round" stroke-width="6.9449"/>
 <path transform="scale(3.6036)" d="m137 44h-45.001v244h20.001v-226h25" fill="none" stroke="#000" stroke-linecap="round" stroke-linejoin="round" stroke-width="6.9449"/>
 <path transform="scale(3.6036)" d="m170 170c0 4.9701-4.0292 9.0003-9.0003 9.0003-4.9701 0-9.0003-4.0303-9.0003-9.0003 0-4.9712 4.0303-9.0003 9.0003-9.0003 4.9712 0 9.0003 4.0292 9.0003 9.0003" fill="none" stroke="#000" stroke-width="6.9449"/>
 <path d="m403.61 223.42v814.41h-72.074v-879.28h162.16v64.863z" fill-rule="evenodd"/>
 <path d="m493.7 1138.7v-1030.6l425.23 108.11v828.83l-425.23 93.695zm118.92-526.12c0-18.02-14.414-36.035-32.434-36.035-21.621 0-36.035 18.02-36.035 36.035 0 18.02 14.414 32.434 36.035 32.434 18.02 0 32.434-14.414 32.434-32.434z" fill-rule="evenodd"/>
</svg>
