<?xml version="1.0" encoding="UTF-8"?>
<svg width="1200pt" height="1200pt" version="1.1" viewBox="0 0 1200 1200" xmlns="http://www.w3.org/2000/svg">
 <g>
  <path d="m686.4 602.4h-1.1992c-2.3984 0-4.8008-2.3984-4.8008-4.8008v-14.398c0-2.3984 2.3984-4.8008 4.8008-4.8008h1.1992c2.3984 0 4.8008 2.3984 4.8008 4.8008v14.398c0 3.6016-2.3984 4.8008-4.8008 4.8008z"/>
  <path d="m806.4 602.4h-1.1992c-2.3984 0-4.8008-2.3984-4.8008-4.8008v-14.398c0-2.3984 2.3984-4.8008 4.8008-4.8008h1.1992c2.3984 0 4.8008 2.3984 4.8008 4.8008v14.398c0 3.6016-2.3984 4.8008-4.8008 4.8008z"/>
  <path d="m890.4 1057.2v-940.8h-550.8v939.6h-279.6v27.602h1080v-27.602h-249.6zm-66-453.6c0 8.3984-7.1992 15.602-15.602 15.602h-6c-8.3984 0-15.602-7.1992-15.602-15.602v-54l-44.398 1.1992c-3.6016 0-6-2.3984-6-6 0-3.6016 2.3984-6 6-6l45.602-1.1992v-9.6016c0-8.3984 7.1992-15.602 15.602-15.602h6c8.3984 0 15.602 7.1992 15.602 15.602v75.602z"/>
 </g>
</svg>
