<?xml version="1.0" encoding="UTF-8"?>
<svg width="1200pt" height="1200pt" version="1.1" viewBox="0 0 1200 1200" xmlns="http://www.w3.org/2000/svg">
 <g>
  <path d="m33.332 1200h226.67c11.91 0 22.914-6.3516 28.867-16.668 5.9531-10.312 5.9531-23.02 0-33.332-5.9531-10.312-16.957-16.668-28.867-16.668h-146.33l260-259.67v0.003907c8.4531-8.457 11.758-20.781 8.6602-32.332-3.0938-11.547-12.117-20.57-23.664-23.664-11.551-3.0977-23.875 0.20703-32.332 8.6602l-259.66 260v-146.33c0-11.91-6.3555-22.914-16.668-28.867-10.312-5.9531-23.02-5.9531-33.332 0-10.316 5.9531-16.668 16.957-16.668 28.867v226.67c0 8.8398 3.5117 17.316 9.7617 23.57 6.2539 6.25 14.73 9.7617 23.57 9.7617z"/>
  <path d="m1166.7 906.67c-8.8438 0-17.32 3.5117-23.57 9.7617-6.2539 6.25-9.7656 14.73-9.7656 23.57v146.33l-259.67-260h0.003907c-8.457-8.4531-20.781-11.758-32.332-8.6602-11.547 3.0938-20.57 12.117-23.664 23.664-3.0977 11.551 0.20703 23.875 8.6602 32.332l260 259.66h-146.33c-11.91 0-22.914 6.3555-28.867 16.668-5.9531 10.312-5.9531 23.02 0 33.332 5.9531 10.316 16.957 16.668 28.867 16.668h226.67c8.8398 0 17.316-3.5117 23.57-9.7617 6.25-6.2539 9.7617-14.73 9.7617-23.57v-226.67c0-8.8398-3.5117-17.32-9.7617-23.57-6.2539-6.25-14.73-9.7617-23.57-9.7617z"/>
  <path d="m33.332 293.33c8.8438 0 17.32-3.5117 23.57-9.7617 6.2539-6.25 9.7656-14.73 9.7656-23.57v-146.33l259.67 260h-0.003907c6.2617 6.3086 14.781 9.8594 23.668 9.8594s17.406-3.5508 23.668-9.8594c6.3086-6.2617 9.8594-14.781 9.8594-23.668s-3.5508-17.406-9.8594-23.668l-260-259.66h146.33c11.91 0 22.914-6.3555 28.867-16.668 5.9531-10.312 5.9531-23.02 0-33.332-5.9531-10.316-16.957-16.668-28.867-16.668h-226.67c-8.8398 0-17.316 3.5117-23.57 9.7617-6.25 6.2539-9.7617 14.73-9.7617 23.57v226.67c0 8.8398 3.5117 17.32 9.7617 23.57 6.2539 6.25 14.73 9.7617 23.57 9.7617z"/>
  <path d="m1166.7 0h-226.67c-11.91 0-22.914 6.3516-28.867 16.668-5.9531 10.312-5.9531 23.02 0 33.332 5.9531 10.312 16.957 16.668 28.867 16.668h146.33l-260 259.67v-0.003907c-6.3086 6.2617-9.8594 14.781-9.8594 23.668s3.5508 17.406 9.8594 23.668c6.2617 6.3086 14.781 9.8594 23.668 9.8594s17.406-3.5508 23.668-9.8594l259.66-260v146.33c0 11.91 6.3555 22.914 16.668 28.867 10.312 5.9531 23.02 5.9531 33.332 0 10.316-5.9531 16.668-16.957 16.668-28.867v-226.67c0-8.8398-3.5117-17.316-9.7617-23.57-6.2539-6.25-14.73-9.7617-23.57-9.7617z"/>
 </g>
</svg>
