<?xml version="1.0" encoding="UTF-8"?>
<svg width="1200pt" height="1200pt" version="1.1" viewBox="0 0 1200 1200" xmlns="http://www.w3.org/2000/svg">
 <g>
  <path d="m492.43 492.43h-231.23v-52.734h178.5v-178.5h52.734z"/>
  <path d="m492.43 938.8h-52.734v-178.5h-178.5v-52.734h231.23z"/>
  <path d="m938.8 492.43h-231.23v-231.23h52.734v178.5h178.5z"/>
  <path d="m760.3 938.8h-52.734v-231.23h231.23v52.734h-178.5z"/>
  <path d="m194.62 231.93 37.289-37.289 252.78 252.78-37.289 37.289z"/>
  <path d="m715.28 752.59 37.289-37.289 252.78 252.78-37.289 37.289z"/>
  <path d="m715.28 447.43 252.78-252.78 37.289 37.289-252.78 252.78z"/>
  <path d="m194.62 968.06 252.78-252.78 37.289 37.289-252.78 252.78z"/>
 </g>
</svg>
