<svg width="1600" height="1600" viewBox="0 0 1600 1600" fill="none" xmlns="http://www.w3.org/2000/svg">
<g clip-path="url(#clip0_2061_7320)">
<path d="M1273.46 588.3V163.62L948.422 117.515V1099.11L1246.24 1055.93C1246.48 1055.88 1246.73 1055.85 1246.98 1055.83L1273.46 1051.99V658.278C1265.4 653.684 1256.56 649.989 1246.95 647.313V716.422H1246.93C1247.63 762.973 1222.58 786.981 1189.19 799.344C1180.03 802.734 1170.26 805.215 1160.27 807.031C1152.45 820.164 1150.24 834.508 1175.45 860.179C1191.56 876.597 1198.02 891.691 1198.55 905.441C1199.09 919.371 1193.55 931.492 1185.75 942.066C1182.93 945.887 1180.32 950.07 1178.19 954.777C1176.83 957.793 1175.66 961.031 1174.76 964.539C1176.59 966.652 1177.56 969.52 1177.21 972.535C1177.02 974.129 1176.89 975.586 1176.82 976.891C1176.73 978.539 1176.7 980.105 1176.71 981.586C1176.78 987.242 1172.33 991.887 1166.77 991.953C1161.22 992.019 1156.66 987.488 1156.6 981.828C1156.57 979.644 1156.6 977.656 1156.7 975.847C1156.82 973.695 1156.97 971.793 1157.17 970.125C1157.59 966.496 1159.82 963.531 1162.83 962.062C1163.94 957.574 1165.41 953.453 1167.13 949.632C1169.66 944.027 1172.73 939.097 1176.02 934.64C1182.32 926.101 1186.81 916.519 1186.4 905.929C1185.98 895.159 1180.51 882.921 1166.82 868.968C1139.92 841.581 1138.47 824.3 1145.02 809.3C1137.4 810.207 1129.75 810.804 1122.24 811.199C1116.5 823.285 1117.08 837.187 1139.66 860.179C1155.78 876.597 1162.24 891.691 1162.77 905.441C1163.31 919.371 1157.76 931.492 1149.96 942.066C1146.86 946.265 1144 950.929 1141.76 956.273C1140.41 959.499 1139.28 962.98 1138.45 966.761C1140.42 968.839 1141.51 971.745 1141.23 974.843C1141.12 975.995 1141.04 977.202 1140.99 978.46C1140.94 979.804 1140.92 981.093 1140.93 982.319C1141 987.975 1136.55 992.62 1130.99 992.686C1125.44 992.753 1120.88 988.221 1120.81 982.561C1120.79 980.796 1120.81 979.167 1120.87 977.659C1120.94 976.065 1121.04 974.483 1121.19 972.917C1121.52 969.389 1123.57 966.448 1126.41 964.874C1127.42 959.995 1128.84 955.538 1130.56 951.425C1133.22 945.093 1136.59 939.589 1140.24 934.644C1146.54 926.105 1151.03 916.523 1150.62 905.933C1150.2 895.163 1144.73 882.925 1131.03 868.972C1105.58 843.05 1102.92 826.183 1108.26 811.73C1100.77 811.913 1093.53 811.949 1086.71 811.949C1071.31 811.949 1063.25 805.601 1058.97 795.113C1055.22 785.913 1054.99 773.992 1054.99 760.543V570.703C1054.99 532.969 1083.56 506.062 1118.68 494.066C1131.17 489.8 1144.52 487.421 1157.69 487.124C1170.94 486.827 1184.03 488.636 1195.89 492.745C1225.04 502.839 1246.94 526.409 1246.94 566.202V581.409C1256.18 583.077 1265.02 585.398 1273.46 588.308L1273.46 588.3ZM1098.67 335.4C1096.45 335.248 1094.77 333.291 1094.92 331.029C1095.07 328.767 1096.99 327.052 1099.21 327.205L1181.47 332.908C1183.7 333.06 1185.38 335.017 1185.23 337.279C1185.08 339.541 1183.16 341.256 1180.93 341.103L1098.67 335.4ZM1077.25 283.08L1206.18 293.162C1209.33 293.408 1212.22 294.775 1214.32 296.908C1216.45 299.084 1217.77 302.033 1217.77 305.428L1217.65 369.549C1217.65 369.896 1217.64 370.119 1217.64 370.221C1217.47 373.31 1216.16 376.174 1214.14 378.264C1212.02 380.447 1209.13 381.826 1205.9 381.818C1205.57 381.818 1205.36 381.814 1205.27 381.811L1076.45 374.4C1073.25 374.217 1070.33 372.85 1068.22 370.701C1066.06 368.506 1064.72 365.521 1064.72 362.139V295.346C1064.72 295.092 1064.74 294.779 1064.77 294.416C1064.99 291.428 1066.29 288.639 1068.27 286.592C1070.36 284.42 1073.22 283.041 1076.4 283.041C1076.62 283.041 1076.9 283.053 1077.24 283.08L1077.25 283.08ZM1205.28 305.541L1076.94 295.506V361.971C1076.99 361.998 1077.06 362.018 1077.14 362.022L1205.51 369.405L1205.62 305.635C1205.54 305.584 1205.42 305.553 1205.28 305.541L1205.28 305.541ZM1076.37 295.459H1076.35C1076.3 295.455 1076.34 295.459 1076.37 295.463V295.459ZM645.75 864.179C644.574 866.105 642.086 866.695 640.196 865.496C638.305 864.296 637.727 861.765 638.903 859.839C650.989 840.03 661.989 817.413 670.883 792.831C679.074 770.19 685.477 745.882 689.289 720.565C689.621 718.319 691.675 716.772 693.882 717.108C696.085 717.444 697.605 719.538 697.273 721.784C693.375 747.659 686.832 772.507 678.457 795.655C669.367 820.776 658.117 843.905 645.75 864.171L645.75 864.179ZM1169.95 759.559C1170.06 756.141 1172.86 753.458 1176.22 753.563C1179.58 753.669 1182.21 756.528 1182.11 759.946C1181.7 773.223 1176.36 783.18 1170.32 792.208C1175.38 790.934 1180.32 789.442 1185.05 787.692C1196.89 783.309 1207.51 777.235 1215.87 768.829C1223.71 760.568 1226.87 752.653 1226.31 745.778C1225.93 741.067 1223.75 736.704 1220.1 732.973C1216.12 728.895 1210.43 725.555 1203.43 723.266C1182.81 716.528 1151.77 719.122 1119.14 738.391C1105.98 746.165 1092.61 756.289 1083.49 767.852C1077.02 776.063 1072.73 784.95 1072.39 794.106C1075.15 797.54 1079.6 799.516 1086.71 799.516C1095.53 799.516 1105.06 799.458 1114.89 799.091C1116.63 796.423 1118.49 793.774 1120.38 791.091C1126.91 781.825 1133.78 772.064 1134.17 759.56C1134.27 756.142 1137.08 753.458 1140.44 753.564C1143.79 753.669 1146.43 756.528 1146.32 759.946C1145.82 776.239 1137.9 787.528 1130.36 798.235C1137.9 797.669 1145.5 796.856 1152.95 795.688C1154 794.161 1155.08 792.63 1156.17 791.087C1162.69 781.821 1169.57 772.06 1169.95 759.556L1169.95 759.559ZM1067.29 770.043C1069.21 766.617 1071.47 763.293 1074.01 760.086C1084.17 747.203 1098.76 736.098 1113.04 727.664C1148.94 706.465 1183.71 703.816 1207.15 711.473C1216.02 714.372 1223.38 718.766 1228.72 724.235C1230.77 726.325 1232.52 728.571 1233.95 730.946C1234.57 726.442 1234.86 721.637 1234.77 716.516L1234.75 716.418V566.198C1234.75 532.737 1216.41 512.94 1191.99 504.487C1181.45 500.839 1169.79 499.233 1157.94 499.499C1146.01 499.769 1133.9 501.929 1122.55 505.808C1092.03 516.234 1067.19 539.081 1067.19 570.695V760.535C1067.19 763.824 1067.21 767.007 1067.28 770.039L1067.29 770.043ZM1246.96 634.493C1273.22 641.138 1294.44 654.591 1310.76 672.946C1329.14 693.63 1341.18 720.438 1347.06 750.634C1353.62 784.263 1353.14 826.236 1340.49 863.374C1330.54 892.589 1313.09 918.831 1285.68 935.87V977.464C1324.31 961.194 1350.25 930.351 1366.3 894.749C1388.61 845.245 1391.95 786.659 1383.77 744.749C1375.94 704.612 1358.82 668.288 1332.95 641.019C1310.7 617.574 1281.93 600.789 1246.96 594.023L1246.96 634.493ZM1285.68 666.333V921.033C1306.83 905.674 1320.71 883.666 1329 859.345C1340.89 824.447 1341.3 784.837 1335.1 753.005C1329.62 724.939 1318.57 700.161 1301.75 681.239C1296.88 675.766 1291.53 670.774 1285.67 666.325L1285.68 666.333ZM1285.68 990.803V1056.32C1285.68 1058.15 1285.01 1059.85 1283.88 1061.17C1282.76 1062.49 1281.19 1063.4 1279.41 1063.66L1253.59 1067.4V1098.79C1253.59 1100.42 1252.98 1101.95 1251.98 1103.12C1250.98 1104.3 1249.58 1105.12 1247.98 1105.35L716.19 1183.94C712.284 1184.51 708.803 1181.42 708.776 1177.4L708.698 1158.32L650.229 1164.96C646.42 1165.39 642.995 1162.27 642.995 1158.37V1139.97C642.995 1120.43 646.928 1118.48 663.995 1116.21L837.035 1093.23L554.455 1041.91L280.274 1076.77C276.419 1077.26 272.946 1074.23 272.931 1070.23L272.849 1052.39L207.689 1058.76C203.892 1059.14 200.501 1056.11 200.501 1052.19V1034.76C200.501 1019.42 203.364 1014.19 217.923 1012.5L324.483 1000.14L206.033 978.627C204.283 978.311 202.779 977.381 201.705 976.076C200.631 974.768 199.998 973.108 199.998 971.315V293.015C199.998 291.308 200.568 289.71 201.561 288.425C202.541 287.155 203.932 286.222 205.58 285.812L940.26 104.352C940.303 104.34 940.342 104.332 940.385 104.32C940.994 104.113 941.651 104 942.33 104C943.123 104 943.885 104.156 944.58 104.438L1279.38 151.925C1281.2 152.183 1282.77 153.09 1283.88 154.394C1285.01 155.711 1285.68 157.418 1285.68 159.269V593.029C1307.29 602.393 1326.01 615.861 1341.72 632.42C1369.26 661.459 1387.46 699.951 1395.74 742.37C1404.31 786.358 1400.81 847.88 1377.36 899.89C1359.47 939.558 1330.06 973.765 1285.68 990.796L1285.68 990.803ZM936.235 1098.63V118.103L212.205 296.923V967.133L555.505 1029.49C555.634 1029.5 555.763 1029.53 555.888 1029.56L749.078 1064.64H749.086C811.469 1075.97 873.856 1087.3 936.236 1098.63L936.235 1098.63ZM882.251 880.153C884.474 880.348 886.118 882.341 885.927 884.606C885.736 886.868 883.779 888.548 881.556 888.352L744.696 876.25C742.473 876.055 740.829 874.063 741.02 871.797C741.212 869.536 743.169 867.856 745.391 868.051L882.251 880.153ZM882.361 837.88C884.583 838.032 886.263 839.99 886.115 842.251C885.966 844.513 884.044 846.228 881.822 846.075L744.962 836.525C742.739 836.372 741.059 834.415 741.208 832.154C741.356 829.892 743.278 828.177 745.501 828.329L882.361 837.88ZM882.47 795.607C884.693 795.713 886.408 797.634 886.306 799.896C886.2 802.158 884.314 803.908 882.091 803.802L745.231 796.802C743.008 796.697 741.294 794.775 741.395 792.513C741.501 790.252 743.387 788.502 745.606 788.607L882.466 795.607H882.47ZM882.599 753.334C884.822 753.404 886.568 755.299 886.497 757.561C886.427 759.822 884.572 761.6 882.349 761.53L745.489 757.08C743.266 757.01 741.52 755.116 741.591 752.854C741.661 750.592 743.516 748.815 745.739 748.885L882.599 753.334ZM882.708 711.061C884.931 711.089 886.712 712.944 886.685 715.206C886.658 717.467 884.837 719.284 882.615 719.256L745.755 717.358C743.532 717.331 741.751 715.475 741.778 713.214C741.805 710.952 743.626 709.135 745.848 709.163L882.708 711.061ZM882.837 668.788C885.06 668.78 886.868 670.608 886.876 672.87C886.884 675.132 885.091 676.976 882.869 676.983L746.009 677.636C743.786 677.644 741.977 675.815 741.969 673.554C741.962 671.292 743.755 669.448 745.977 669.44L882.837 668.788ZM882.962 626.515C885.185 626.472 887.021 628.269 887.064 630.535C887.107 632.796 885.341 634.667 883.119 634.714L746.249 637.917C744.026 637.96 742.19 636.164 742.147 633.898C742.104 631.636 743.87 629.765 746.092 629.718L882.962 626.515ZM883.072 584.242C885.294 584.152 887.165 585.918 887.251 588.18C887.337 590.441 885.607 592.352 883.384 592.437L746.514 598.187C744.291 598.277 742.42 596.512 742.334 594.25C742.248 591.988 743.979 590.082 746.202 589.992L883.072 584.242ZM883.181 541.969C885.404 541.836 887.31 543.563 887.443 545.825C887.572 548.086 885.876 550.032 883.657 550.164L746.787 558.465C744.565 558.598 742.659 556.871 742.526 554.61C742.397 552.348 744.092 550.403 746.311 550.27L883.181 541.969ZM883.306 499.696C885.529 499.528 887.462 501.227 887.63 503.489C887.794 505.751 886.13 507.724 883.907 507.891L747.037 518.743C744.815 518.911 742.881 517.212 742.713 514.95C742.549 512.689 744.213 510.716 746.436 510.548L883.306 499.696ZM883.415 457.438C885.63 457.227 887.591 458.88 887.802 461.133C888.013 463.387 886.388 465.387 884.173 465.602L747.303 479.004C745.088 479.219 743.127 477.563 742.916 475.309C742.706 473.055 744.331 471.055 746.545 470.84L883.415 457.438ZM883.525 415.165C885.74 414.907 887.736 416.528 887.99 418.782C888.243 421.036 886.654 423.071 884.439 423.329L747.559 439.282C745.344 439.54 743.348 437.919 743.094 435.665C742.84 433.411 744.43 431.376 746.645 431.118L883.525 415.165ZM883.654 372.907C885.857 372.614 887.88 374.196 888.165 376.442C888.454 378.688 886.9 380.747 884.693 381.04L747.813 399.544C745.61 399.837 743.586 398.255 743.301 396.009C743.012 393.763 744.567 391.704 746.774 391.411L883.654 372.907ZM883.763 330.634C885.966 330.298 888.025 331.845 888.357 334.091C888.689 336.337 887.169 338.431 884.966 338.767L748.086 359.822C745.883 360.158 743.825 358.611 743.496 356.365C743.164 354.119 744.684 352.025 746.887 351.689L883.767 330.634H883.763ZM481.663 375.232C493.175 376.099 504.354 378.912 515.077 383.467C515.866 367.865 517.417 351.83 520.292 335.287C506.96 330.099 493.069 327.169 478.792 326.771C478.702 343.857 479.839 359.912 481.663 375.232ZM522.972 387.17C533.613 392.651 543.749 399.877 553.257 408.627C556.632 393.857 560.859 378.955 566.503 364.057C560.046 358.37 553.362 353.268 546.476 348.795C540.445 344.877 534.253 341.447 527.925 338.529C525.12 355.213 523.667 371.404 522.972 387.17ZM560.058 415.264C569.488 424.995 578.222 436.28 586.109 448.893C591.824 435.893 598.382 423.112 606.316 410.913C596.203 395.386 585.007 381.636 572.925 369.983C567.406 385.077 563.319 400.229 560.058 415.264ZM591.218 457.459C598.777 470.74 605.448 485.326 611.089 500.979C618.784 490.647 627.261 480.858 636.984 472.182C629.636 452.752 620.937 434.752 611.086 418.514C603.266 430.998 596.836 444.123 591.215 457.459H591.218ZM614.3 510.346C619.507 526.342 623.663 543.35 626.616 561.131C635.776 554.198 645.612 548.084 656.491 543.533C654.448 532.142 651.987 521.029 649.135 510.232C646.432 500.005 643.385 490.072 640.01 480.462C630.366 489.439 621.963 499.622 614.303 510.345L614.3 510.346ZM628.03 570.366C630.51 587.991 631.819 606.319 631.819 625.124V625.132C641.823 622.077 652.342 620.066 663.604 619.968C663.354 596.495 661.389 573.687 657.897 551.839C647.069 556.589 637.237 563.062 628.03 570.362L628.03 570.366ZM631.725 633.772C631.319 652.686 629.593 671.069 626.686 688.698C636.854 689.753 647.342 692.011 658.229 696.401C659.928 685.424 661.253 674.139 662.167 662.581C663.057 651.331 663.553 639.854 663.624 628.186C652.382 628.299 641.819 630.499 631.726 633.776L631.725 633.772ZM625.253 696.827C621.878 714.78 617.268 731.886 611.585 747.893C621.194 752.999 630.909 759.381 640.64 767.971C647.507 748.104 652.984 726.901 656.863 704.686C646.023 700.12 635.5 697.846 625.254 696.827L625.253 696.827ZM608.706 755.663C602.631 771.409 595.495 786.007 587.452 799.186C595.83 807.987 604.093 818.049 611.999 830.229C621.772 813.885 630.397 795.784 637.667 776.249C628.03 767.394 618.339 760.858 608.706 755.659V755.663ZM582.952 806.268C574.682 818.776 565.554 829.87 555.722 839.307C562.284 851.174 568.519 864.225 574.062 879.166C586.089 867.377 597.226 853.502 607.273 837.857C599.503 825.431 591.308 815.189 582.953 806.263L582.952 806.268ZM549.561 844.928C539.701 853.452 529.198 860.35 518.194 865.408C522.51 879.463 526.303 894.537 529.112 911.17C535.026 908.373 540.823 905.127 546.475 901.455C553.775 896.713 560.85 891.264 567.663 885.162C562.26 870.076 556.097 856.9 549.558 844.928L549.561 844.928ZM510.694 868.541C499.971 872.572 488.819 874.873 477.358 875.252C479.123 890.455 480.217 906.412 480.127 923.44C494.361 922.885 508.205 919.815 521.482 914.503C518.759 897.804 515.005 882.663 510.697 868.546L510.694 868.541ZM469.225 875.197C457.815 874.662 446.717 872.225 436.049 868.068C435.205 883.244 433.588 898.861 430.677 915.009C443.974 920.17 457.829 923.084 472.072 923.482C472.162 906.462 471.033 890.466 469.221 875.197L469.225 875.197ZM428.155 864.642C417.257 859.424 406.858 852.392 397.104 843.767C393.811 857.837 389.729 872.017 384.366 886.193C390.823 891.881 397.507 896.982 404.393 901.455C410.455 905.393 416.682 908.842 423.045 911.771C425.873 895.568 427.396 879.888 428.15 864.638L428.155 864.642ZM390.272 837.365C380.631 827.799 371.694 816.623 363.604 804.08C358.17 816.131 351.963 827.978 344.545 839.334C354.658 854.865 365.857 868.615 377.936 880.268C383.158 865.975 387.096 851.623 390.268 837.366L390.272 837.365ZM358.467 795.728C350.642 782.412 343.725 767.728 337.865 751.927C330.693 761.279 322.822 770.142 313.881 778.075C321.232 797.516 329.94 815.52 339.791 831.766C347.064 820.192 353.135 808.068 358.467 795.728ZM334.623 742.74C329.166 726.49 324.802 709.17 321.689 691.025C313.259 697.174 304.248 702.591 294.377 706.72C296.42 718.111 298.88 729.224 301.732 740.017C304.435 750.251 307.49 760.201 310.869 769.818C319.709 761.635 327.498 752.435 334.619 742.736L334.623 742.74ZM320.244 681.912C317.615 663.928 316.208 645.201 316.169 625.971C307.029 628.549 297.45 630.202 287.263 630.288C287.513 653.761 289.478 676.569 292.97 698.417C302.787 694.108 311.787 688.385 320.244 681.912ZM316.244 617.392C316.615 598.044 318.369 579.244 321.353 561.24C312.072 560.076 302.525 557.85 292.65 553.869C289.259 575.756 287.392 598.588 287.244 622.076C297.412 621.971 307.029 620.162 316.244 617.392ZM322.794 553.119C326.255 534.787 331.005 517.338 336.876 501.045C328.052 496.166 319.149 490.15 310.231 482.287C307.106 491.33 304.27 500.658 301.735 510.244C298.716 521.678 296.13 533.474 294.02 545.576C303.864 549.725 313.446 551.979 322.797 553.123L322.794 553.119ZM339.79 493.279C346.04 477.299 353.392 462.525 361.673 449.228C353.888 440.869 346.22 431.369 338.864 420.037C329.087 436.389 320.462 454.486 313.196 474.006C322.04 482.131 330.934 488.299 339.79 493.279ZM366.243 442.181C374.728 429.619 384.083 418.529 394.161 409.161C387.958 397.774 382.071 385.286 376.806 371.095C364.783 382.88 353.646 396.751 343.599 412.396C350.853 423.998 358.47 433.689 366.24 442.185L366.243 442.181ZM400.399 403.658C410.434 395.276 421.11 388.556 432.286 383.736C428.126 369.982 424.474 355.263 421.751 339.091C415.837 341.888 410.044 345.134 404.392 348.802C397.092 353.544 390.017 358.993 383.204 365.099C388.357 379.486 394.2 392.13 400.399 403.661V403.658ZM439.848 380.791C450.684 377.018 461.946 375.01 473.504 374.952C471.743 359.764 470.653 343.827 470.743 326.823C456.509 327.377 442.665 330.448 429.388 335.76C432.04 352.072 435.677 366.92 439.853 380.791L439.848 380.791ZM579.348 453.334C572.813 442.877 565.688 433.389 558.059 425.002C554.958 440.857 552.63 456.541 550.364 471.846C549.083 480.491 547.817 489.018 546.442 497.397C548.106 499.749 549.723 502.179 551.29 504.686C554.364 509.608 557.255 514.827 559.938 520.311C561.829 514.913 563.696 509.428 565.583 503.885C570.716 488.819 575.981 473.35 582.228 458.069C581.282 456.472 580.322 454.89 579.349 453.331L579.348 453.334ZM551.239 417.924C542.278 409.17 532.704 401.897 522.653 396.299C522.189 413.475 522.501 430.158 522.81 446.436C522.974 455.151 523.138 463.756 523.177 472.264C528.997 476.928 534.517 482.397 539.669 488.576C540.591 482.662 541.481 476.674 542.376 470.623C544.923 453.447 547.536 435.803 551.235 417.924H551.239ZM514.716 392.272C504.454 387.581 493.751 384.616 482.736 383.589C485.205 401.663 488.522 418.765 491.748 435.409C493.174 442.764 494.584 450.034 495.896 457.261C502.537 459.394 508.955 462.483 515.084 466.425C515.014 459.866 514.889 453.249 514.764 446.562C514.432 428.976 514.092 410.925 514.717 392.269L514.716 392.272ZM474.536 383.179C474.357 383.179 474.177 383.175 473.997 383.175C463.13 383.175 452.524 385.057 442.302 388.636C447.759 405.534 453.927 421.054 459.923 436.152C462.326 442.195 464.701 448.175 466.994 454.148C469.306 453.917 471.642 453.8 473.994 453.8C478.494 453.8 482.923 454.23 487.275 455.062C486.165 449.081 485.001 443.062 483.822 436.984C480.478 419.742 477.044 402.015 474.532 383.179H474.536ZM434.763 391.608C424.142 396.272 413.986 402.784 404.435 410.913C412.459 424.94 420.939 437.378 429.189 449.479C432.314 454.061 435.404 458.596 438.428 463.151C444.963 459.593 451.783 456.987 458.83 455.444C456.752 450.065 454.611 444.678 452.447 439.233C446.435 424.104 440.256 408.553 434.763 391.608ZM398.271 416.463C388.787 425.483 379.966 436.143 371.962 448.193C381.794 458.174 391.786 466.537 401.513 474.677C405.193 477.755 408.834 480.806 412.419 483.896C418.369 477.427 424.747 471.876 431.481 467.365C428.563 462.974 425.579 458.596 422.563 454.174C414.481 442.319 406.184 430.147 398.274 416.463L398.271 416.463ZM367.474 455.229C359.728 467.897 352.845 481.924 346.97 497.073C357.673 502.394 368.271 506.261 378.599 510.026C382.767 511.546 386.892 513.05 390.966 514.624C392.798 511.194 394.712 507.878 396.705 504.686C399.966 499.468 403.439 494.581 407.1 490.061C403.584 487.026 400.006 484.034 396.393 481.011C386.881 473.05 377.12 464.882 367.471 455.23L367.474 455.229ZM344.095 504.807C338.619 520.174 334.162 536.6 330.868 553.85C341.536 554.503 351.907 553.96 362.02 553.436C366.571 553.198 371.067 552.964 375.528 552.835C378.755 541.87 382.692 531.538 387.247 521.991C383.505 520.553 379.712 519.17 375.884 517.776C365.513 513.995 354.876 510.112 344.091 504.811L344.095 504.807ZM329.407 562.002C326.583 578.897 324.864 596.525 324.388 614.674C334.364 611.038 343.904 606.495 353.22 602.057C357.872 599.838 362.474 597.647 367.052 595.6C368.364 583.635 370.462 572.096 373.255 561.12C369.681 561.249 366.071 561.437 362.431 561.628C351.736 562.187 340.762 562.756 329.407 562.002ZM324.255 623.424C324.251 623.991 324.247 624.561 324.247 625.127C324.247 642.588 325.396 659.607 327.575 676.014C336.497 668.514 344.868 660.346 353.04 652.369C357.345 648.17 361.595 644.022 365.852 640.033C365.583 635.119 365.446 630.147 365.446 625.123C365.446 618.303 365.7 611.576 366.188 604.967C363.02 606.428 359.837 607.948 356.626 609.479C346.224 614.436 335.552 619.518 324.251 623.42L324.255 623.424ZM328.95 685.451C331.685 702.619 335.556 719.049 340.43 734.525C348.012 723.412 354.895 711.853 361.61 700.572C365.056 694.787 368.458 689.072 371.895 683.513C369.481 672.958 367.7 661.919 366.63 650.517C363.974 653.064 361.309 655.666 358.626 658.287C349.188 667.502 339.493 676.959 328.95 685.451ZM343.626 744.119C348.943 759.267 355.247 773.4 362.392 786.299C368.115 772.037 373.017 757.611 377.794 743.537C380.15 736.608 382.474 729.76 384.857 723.053C380.915 714.112 377.501 704.545 374.681 694.467C372.622 697.877 370.568 701.331 368.493 704.815C360.704 717.897 352.7 731.337 343.626 744.119ZM367.513 795.092C367.888 795.706 368.267 796.319 368.646 796.928C375.849 808.455 383.775 818.815 392.298 827.811C395.654 811.108 398.107 794.577 400.497 778.463C401.618 770.908 402.724 763.447 403.908 756.092C401.408 752.756 399.005 749.248 396.708 745.572C394.283 741.689 391.97 737.619 389.786 733.381C388.326 737.612 386.868 741.893 385.404 746.205C379.943 762.275 374.33 778.803 367.513 795.088L367.513 795.092ZM399.146 834.619C408.369 843.252 418.205 850.342 428.525 855.67C429.103 837.365 428.721 819.678 428.342 802.459C428.178 795.026 428.018 787.674 427.936 780.397C421.881 775.928 416.135 770.604 410.76 764.522C409.99 769.53 409.24 774.584 408.482 779.682C405.826 797.573 403.096 815.975 399.146 834.616L399.146 834.619ZM436.458 859.381C446.653 863.651 457.267 866.229 468.169 866.909C465.697 848.749 462.369 831.573 459.126 814.854C457.759 807.807 456.412 800.838 455.142 793.909C448.552 792.1 442.169 789.358 436.052 785.772C436.138 791.237 436.259 796.745 436.38 802.303C436.782 820.733 437.197 839.69 436.454 859.381L436.458 859.381ZM476.337 867.057C487.282 866.784 497.95 864.6 508.22 860.705C502.865 844.33 496.857 829.264 491.005 814.596C488.49 808.284 486.001 802.045 483.603 795.807C480.439 796.241 477.236 796.464 473.998 796.464C470.521 796.464 467.083 796.206 463.689 795.706C464.771 801.522 465.903 807.37 467.048 813.28C470.388 830.514 473.825 848.233 476.333 867.057L476.337 867.057ZM515.692 857.534C526.133 852.631 536.106 845.944 545.481 837.682C537.743 824.334 529.61 812.401 521.688 800.78C518.294 795.803 514.942 790.881 511.668 785.928C505.266 789.65 498.574 792.447 491.66 794.221C493.875 799.959 496.168 805.701 498.481 811.51C504.32 826.151 510.317 841.186 515.688 857.533L515.692 857.534ZM551.567 832.014C560.806 822.939 569.391 812.299 577.18 800.323C567.911 791.104 558.52 783.245 549.364 775.585C545.13 772.042 540.946 768.542 536.844 764.968C531.118 771.386 524.977 776.948 518.492 781.534C521.699 786.385 524.988 791.209 528.313 796.089C536.043 807.425 543.969 819.054 551.567 832.015L551.567 832.014ZM581.598 793.248C589.106 780.717 595.782 766.889 601.481 751.994C591.595 747.267 581.809 743.697 572.254 740.217C567.282 738.404 562.368 736.611 557.524 734.697C555.544 738.463 553.462 742.092 551.286 745.572C548.376 750.228 545.298 754.615 542.067 758.72C546.13 762.263 550.278 765.732 554.473 769.247C563.391 776.712 572.528 784.36 581.594 793.247L581.598 793.248ZM604.325 744.252C609.622 729.186 613.946 713.115 617.157 696.264C607.489 695.857 598.067 696.346 588.856 696.826C583.317 697.115 577.856 697.4 572.446 697.494C569.329 708.068 565.552 718.056 561.196 727.318C565.72 729.095 570.317 730.771 574.969 732.466C584.559 735.963 594.375 739.541 604.324 744.247L604.325 744.252ZM618.614 688.096C621.368 671.588 623.064 654.381 623.579 636.674C614.653 640.103 606.063 644.197 597.657 648.201C591.974 650.908 586.372 653.576 580.794 655.994C579.47 667.514 577.419 678.635 574.72 689.228C579.243 689.107 583.822 688.868 588.45 688.63C598.247 688.118 608.274 687.599 618.618 688.095L618.614 688.096ZM623.735 627.862C623.743 626.951 623.747 626.041 623.747 625.131C623.747 608.455 622.7 592.174 620.708 576.451C612.747 583.33 605.212 590.685 597.833 597.885C592.603 602.991 587.446 608.022 582.267 612.772C582.451 616.854 582.544 620.975 582.544 625.127C582.544 632.416 582.255 639.596 581.697 646.647C585.845 644.776 590.021 642.784 594.248 640.772C603.759 636.241 613.502 631.6 623.736 627.854L623.735 627.862ZM619.372 566.901C616.798 550.096 613.13 533.987 608.505 518.772C601.747 528.901 595.517 539.338 589.423 549.553C585.22 556.596 581.079 563.533 576.864 570.213C579.059 580.498 580.657 591.225 581.591 602.279C585.126 598.931 588.669 595.47 592.251 591.978C600.923 583.513 609.81 574.841 619.372 566.904L619.372 566.901ZM605.356 508.991C600.255 493.995 594.196 479.96 587.309 467.1C582.133 480.284 577.61 493.569 573.188 506.557C570.372 514.822 567.598 522.971 564.723 530.909C568.419 539.772 571.606 549.218 574.223 559.132C576.993 554.604 579.755 549.979 582.54 545.308C589.743 533.238 597.13 520.863 605.356 508.992L605.356 508.991ZM544.504 509.092L544.438 508.987C540.676 529.522 535.84 549.065 527.918 567.178C529.777 571.107 531.457 575.26 532.929 579.6C542.312 565.541 549.476 548.971 556.05 531.147C552.605 523.256 548.738 515.877 544.499 509.096L544.504 509.092ZM537.914 499.436C533.321 493.272 528.383 487.752 523.16 482.971C522.946 505.42 521.516 527.256 516.629 548.826C518.461 551.127 520.211 553.584 521.864 556.178C522.246 556.775 522.621 557.381 522.992 557.994C530.102 539.912 534.406 520.189 537.914 499.439L537.914 499.436ZM515.141 476.377C509.524 472.26 503.633 468.955 497.532 466.565C501.357 489.213 503.9 511.682 502.716 535.491C505.22 537.252 507.634 539.252 509.946 541.471C514.142 520.315 515.137 498.698 515.141 476.377ZM488.864 463.818C484.013 462.642 479.048 462.029 474.001 462.029C472.669 462.029 471.341 462.072 470.021 462.158C477.697 482.92 484.111 503.978 487.009 527.97C489.677 528.696 492.29 529.669 494.829 530.872C495.536 507.97 492.751 486.056 488.86 463.817L488.864 463.818ZM461.794 463.232C455.298 464.521 448.989 466.822 442.931 470.037C453.818 487.006 463.56 504.74 470.408 526.709C472.072 526.517 473.752 526.42 475.447 526.42C476.541 526.42 477.627 526.463 478.709 526.541C475.69 503.721 469.326 483.4 461.799 463.232L461.794 463.232ZM435.958 474.209C429.822 478.307 423.981 483.365 418.517 489.268C431.591 501.049 443.712 514.014 453.845 531.987C456.634 530.495 459.517 529.284 462.474 528.378C455.892 507.616 446.486 490.588 435.958 474.209ZM413.196 495.428C409.786 499.651 406.544 504.217 403.497 509.096C401.771 511.858 400.11 514.713 398.509 517.666C412.626 523.635 426.071 531.131 438.529 543.9C441.212 541.064 444.048 538.529 447.013 536.33C437.427 519.264 425.794 506.795 413.197 495.432L413.196 495.428ZM394.766 524.998C390.626 533.604 387.005 542.893 383.985 552.744C398.13 552.893 411.926 554.791 425.688 561.822C426.751 559.873 427.864 557.99 429.02 556.178C430.368 554.068 431.774 552.053 433.239 550.131C421.466 537.94 408.485 530.76 394.766 524.998ZM381.637 560.955C379.024 570.826 376.993 581.201 375.618 591.963C388.954 586.631 402.286 583.131 416.434 584.377C418.016 579.029 419.899 573.936 422.051 569.154C408.992 562.521 395.555 560.939 381.637 560.955ZM374.61 601.232C373.903 609.033 373.536 617.013 373.536 625.134C373.536 627.767 373.575 630.38 373.653 632.982C385.532 622.611 397.731 614.041 411.497 609.689C412.106 603.759 413.056 597.998 414.321 592.466C400.891 591.638 387.856 595.614 374.61 601.235L374.61 601.232ZM374.165 643.447C374.887 653.888 376.216 664.029 378.094 673.775C387.923 658.798 398.364 645.474 411.078 635.744C410.836 632.256 410.707 628.717 410.707 625.135C410.707 622.928 410.754 620.741 410.848 618.569C397.848 623.432 385.977 632.639 374.16 643.452L374.165 643.447ZM380.532 684.959C382.833 694.389 385.657 703.389 388.954 711.865C396.102 692.959 404.114 675.474 415.024 660.74C413.782 655.81 412.789 650.689 412.071 645.416C400.192 655.639 390.204 669.553 380.532 684.959ZM393.555 722.697C396.582 729.248 399.907 735.427 403.496 741.17C404.258 742.385 405.032 743.58 405.813 744.76C409.668 722.948 414.598 702.217 422.961 683.088C421.101 679.162 419.426 675.014 417.953 670.674C407.933 685.686 400.465 703.529 393.555 722.694V722.697ZM412.45 753.904C417.266 759.982 422.43 765.369 427.884 769.966C427.923 746.614 429.173 723.935 434.255 701.439C432.423 699.134 430.673 696.681 429.017 694.087C428.634 693.49 428.259 692.884 427.888 692.271C420.431 711.24 416.056 732.021 412.447 753.904H412.45ZM435.95 776.049C441.579 779.811 447.462 782.764 453.544 784.819C449.614 761.792 446.966 738.971 448.169 714.772C445.669 713.01 443.259 711.014 440.946 708.799C436.626 730.69 435.806 752.99 435.954 776.049L435.95 776.049ZM462.134 787.096C466.028 787.846 469.989 788.237 474.001 788.237C476.224 788.237 478.431 788.116 480.618 787.881C473.005 767.256 466.673 746.279 463.86 722.291C461.196 721.565 458.591 720.596 456.052 719.393C455.341 742.522 458.181 764.639 462.134 787.096ZM488.728 786.479C495.099 784.948 501.279 782.44 507.208 779.053C496.618 762.436 487.169 745.014 480.481 723.557C478.821 723.748 477.141 723.846 475.446 723.846C474.344 723.846 473.25 723.803 472.165 723.721C475.086 746.405 481.317 766.549 488.731 786.479L488.728 786.479ZM514.044 774.678C519.938 770.498 525.54 765.424 530.786 759.565C518.313 748.159 506.755 735.522 497.032 718.284C494.243 719.772 491.368 720.983 488.415 721.889C494.813 742.077 503.88 758.725 514.044 774.682L514.044 774.678ZM536.017 753.315C538.986 749.522 541.822 745.467 544.509 741.17C546.431 738.096 548.275 734.9 550.036 731.588C536.782 725.787 524.138 718.432 512.364 706.361C509.677 709.201 506.845 711.736 503.88 713.935C513.04 730.247 524.068 742.357 536.021 753.318L536.017 753.315ZM553.728 724.237C557.673 715.905 561.13 706.944 564.037 697.464C550.889 697.093 538.025 694.999 525.193 688.448C524.13 690.394 523.021 692.276 521.865 694.089C520.517 696.202 519.107 698.222 517.638 700.144C528.72 711.621 540.884 718.652 553.724 724.242L553.728 724.237ZM566.373 689.288C568.889 679.784 570.861 669.815 572.232 659.483C559.9 664.139 547.525 667.041 534.451 665.885C532.869 671.229 530.987 676.319 528.838 681.1C540.998 687.28 553.483 689.077 566.373 689.288ZM573.283 650.272C574.068 642.077 574.475 633.682 574.475 625.127C574.475 623.31 574.455 621.502 574.42 619.701C563.424 628.978 552.072 636.572 539.397 640.58C538.788 646.51 537.838 652.264 536.573 657.795C548.995 658.557 561.069 655.217 573.288 650.272L573.283 650.272ZM574.002 609.272C573.4 599.186 572.232 589.37 570.549 579.905C561.35 593.507 551.533 605.561 539.811 614.53C540.053 618.01 540.178 621.546 540.178 625.124C540.178 627.327 540.131 629.514 540.037 631.682C552.045 627.19 563.08 619.002 574.002 609.268L574.002 609.272ZM568.268 568.655C566.158 559.417 563.549 550.573 560.49 542.21C553.689 559.655 546.025 575.78 535.861 589.511C537.103 594.441 538.096 599.558 538.814 604.835C549.826 595.362 559.228 582.722 568.267 568.659L568.268 568.655ZM513.428 561.756C503.553 546.276 490.112 536.701 475.448 536.701C460.78 536.701 447.339 546.276 437.468 561.756C427.179 577.885 420.816 600.284 420.816 625.128C420.816 649.972 427.179 672.369 437.468 688.498C447.343 703.978 460.784 713.553 475.448 713.553C490.116 713.553 503.557 703.979 513.428 688.498C523.717 672.369 530.08 649.972 530.08 625.128C530.08 600.284 523.716 577.885 513.428 561.756ZM504.459 648.389C504.842 646.151 506.931 644.655 509.131 645.046C511.326 645.436 512.795 647.565 512.412 649.803C510.849 658.788 507.83 666.865 503.763 673.385C499.56 680.124 494.201 685.248 488.118 688.076C486.095 689.018 483.708 688.112 482.786 686.053C481.865 683.995 482.751 681.561 484.775 680.619C489.384 678.475 493.56 674.412 496.947 668.982C500.462 663.346 503.087 656.294 504.462 648.392L504.459 648.389ZM553.018 338.359C577.541 354.285 599.561 377.543 617.94 406.355C636.21 434.996 650.913 469.144 660.92 507.035C670.541 543.445 675.85 583.332 675.85 625.125C675.85 638.098 675.334 650.922 674.334 663.547C673.326 676.285 671.803 688.867 669.803 701.235C665.412 728.383 658.741 754.079 650.127 777.786C641.326 802.013 630.475 824.239 617.939 843.891C599.56 872.703 577.544 895.961 553.017 911.887C529.138 927.391 502.939 935.949 475.447 935.949C447.951 935.949 421.756 927.391 397.877 911.887C373.354 895.961 351.334 872.703 332.955 843.891C314.685 815.25 299.982 781.102 289.975 743.211C280.354 706.801 275.045 666.914 275.045 625.121C275.045 583.328 280.354 543.437 289.975 507.031C299.987 469.144 314.686 434.997 332.955 406.352C351.334 377.54 373.35 354.281 397.877 338.355C421.756 322.851 447.955 314.294 475.447 314.294C502.943 314.294 529.138 322.852 553.017 338.355L553.018 338.359ZM257.458 1020.41C267.919 1023.46 284.571 1029.39 284.97 1042.35C284.97 1049.45 285.036 1056.55 285.067 1063.65L513.927 1034.55L366.447 1007.76L257.458 1020.41ZM212.716 1034.77V1045.84L271.142 1040.13C264.075 1033.76 230.474 1025.49 216.595 1025.15C213.645 1025.4 212.927 1027.22 212.759 1030.24C212.688 1031.54 212.716 1033.06 212.716 1034.78L212.716 1034.77ZM694.136 1124.71C704.781 1128.14 720.468 1134.72 720.82 1148.02C720.82 1155.58 720.878 1163.15 720.91 1170.72L1241.39 1093.8V1069.18L944.01 1112.28C943.33 1112.38 942.4 1112.37 941.724 1112.25L876.759 1100.45L694.136 1124.71ZM655.202 1139.98V1151.92L707.753 1145.95C701.956 1137.84 677.386 1132.96 668.128 1131.09C666.772 1130.82 665.569 1130.58 664.163 1130.27L664.085 1130.26C656.159 1129.33 655.202 1128.74 655.202 1139.98L655.202 1139.98Z" fill="#9B9B9B"/>
</g>
<path d="M625.303 1437.68V1456.85H529.111V1437.68H625.303ZM532.773 1361.27V1539H509.214V1361.27H532.773ZM645.811 1361.27V1539H622.373V1361.27H645.811ZM735.054 1512.02L787.422 1361.27H812.935L747.139 1539H728.95L735.054 1512.02ZM686.104 1361.27L737.983 1512.02L744.453 1539H726.265L660.591 1361.27H686.104ZM883.379 1377.01L824.541 1539H800.493L868.242 1361.27H883.745L883.379 1377.01ZM932.695 1539L873.735 1377.01L873.369 1361.27H888.872L956.865 1539H932.695ZM929.644 1473.2V1492.49H829.79V1473.2H929.644ZM1076.5 1482.48H1099.94C1098.72 1493.71 1095.51 1503.76 1090.3 1512.63C1085.09 1521.5 1077.72 1528.54 1068.2 1533.75C1058.68 1538.88 1046.8 1541.44 1032.56 1541.44C1022.14 1541.44 1012.66 1539.49 1004.12 1535.58C995.653 1531.68 988.369 1526.14 982.266 1518.98C976.162 1511.74 971.442 1503.07 968.105 1492.98C964.85 1482.81 963.223 1471.5 963.223 1459.04V1441.34C963.223 1428.89 964.85 1417.62 968.105 1407.53C971.442 1397.36 976.203 1388.65 982.388 1381.41C988.654 1374.16 996.182 1368.59 1004.97 1364.68C1013.76 1360.78 1023.65 1358.82 1034.63 1358.82C1048.06 1358.82 1059.41 1361.35 1068.69 1366.39C1077.97 1371.44 1085.17 1378.44 1090.3 1387.39C1095.51 1396.26 1098.72 1406.55 1099.94 1418.27H1076.5C1075.36 1409.97 1073.25 1402.85 1070.16 1396.91C1067.06 1390.89 1062.67 1386.25 1056.97 1382.99C1051.28 1379.74 1043.83 1378.11 1034.63 1378.11C1026.74 1378.11 1019.78 1379.62 1013.76 1382.63C1007.82 1385.64 1002.81 1389.91 998.745 1395.45C994.757 1400.98 991.746 1407.61 989.712 1415.34C987.677 1423.07 986.66 1431.66 986.66 1441.1V1459.04C986.66 1467.75 987.555 1475.93 989.346 1483.58C991.217 1491.23 994.025 1497.94 997.769 1503.72C1001.51 1509.5 1006.27 1514.06 1012.05 1517.39C1017.83 1520.65 1024.66 1522.28 1032.56 1522.28C1042.57 1522.28 1050.54 1520.69 1056.48 1517.52C1062.43 1514.34 1066.9 1509.78 1069.91 1503.84C1073 1497.9 1075.2 1490.78 1076.5 1482.48Z" fill="#9B9B9B"/>
<defs>
<clipPath id="clip0_2061_7320">
<rect width="1200" height="1200" fill="white" transform="translate(199.998)"/>
</clipPath>
</defs>
</svg>
