<svg width="1600" height="1600" viewBox="0 0 1600 1600" fill="none" xmlns="http://www.w3.org/2000/svg">
<path d="M656.309 456.246C664.754 461.485 656.813 474.398 648.371 469.159C603.516 441.245 553.626 424.602 500.448 427.248C490.511 427.717 489.801 412.541 499.738 412.073C556.043 409.271 608.784 426.673 656.307 456.246H656.309ZM562.127 460.558C568.019 462.589 564.947 471.589 559.055 469.561C544.221 464.429 528.836 461.495 513.152 460.938C506.941 460.717 507.275 451.231 513.486 451.451C530.036 452.041 546.476 455.141 562.131 460.561L562.127 460.558ZM798.359 489.829C801.054 489.829 803.732 489.9 806.392 490.038C811.883 474.259 816.158 458.597 819.102 443.098C817.597 410.528 809.389 384.492 793.713 352.188C781.183 326.369 764.832 303.99 745.772 285.25C725.766 265.581 702.739 249.881 677.971 238.38C674.174 236.622 672.516 232.105 674.267 228.294C676.017 224.48 680.514 222.818 684.31 224.576C710.602 236.786 735.079 253.481 756.377 274.42C776.67 294.372 794.052 318.146 807.337 345.525C813.837 358.914 819.338 372.934 823.723 387.798C823.216 370.324 820.726 353.143 816.07 336.326C803.373 290.445 774.503 247.014 725.813 207.405C714.264 198.008 705.755 186.021 701.145 173.506C697.139 162.632 696.052 151.281 698.413 140.744C700.836 129.948 706.816 120.142 716.906 112.68C725.774 106.121 737.799 101.45 753.341 99.6782C813.499 92.8132 868.851 107.321 914.347 135.967C963.062 166.637 1000.42 213.499 1020.26 267.671C1040.7 323.511 1041.4 384.3 1022.11 440.56C1020.87 444.186 1019.53 447.816 1018.11 451.442C1020.86 447.294 1023.48 443.043 1025.95 438.685C1049.53 397.087 1059.98 345.795 1053.45 283.361C1047.27 224.339 1097.78 185.997 1148.72 226.73C1182.38 253.636 1206.72 286.426 1222.31 321.993C1252.04 389.805 1250.02 468.225 1219.24 535.114C1202.48 571.544 1178.4 602.347 1148.93 626.504C1133.55 639.108 1116.71 649.895 1098.67 658.724C1101.64 658.049 1104.6 657.31 1107.55 656.504C1153.69 643.897 1197.35 615.165 1236.59 566.492C1273.81 520.316 1336.48 529.173 1343.82 594.147C1350.66 654.579 1336.22 710.176 1307.7 755.89C1277.17 804.829 1230.51 842.357 1176.59 862.282C1149.44 872.315 1120.38 877.887 1090.56 878.211C1062.15 878.516 1033.13 874.056 1004.49 864.143C997.078 861.579 989.676 858.642 982.297 855.318C990.202 861.469 998.513 867.073 1007.24 872.091C1048.74 895.95 1099.84 906.644 1161.86 900.098C1220.62 893.894 1258.79 944.634 1218.24 995.808C1180.5 1043.43 1131.15 1072.5 1078.82 1084.56C1022.81 1097.47 963.415 1090.87 911.246 1066.65C857.623 1041.75 814.664 999.735 788.598 946.479C788.893 947.648 789.195 948.812 789.511 949.977C802.062 996.327 830.662 1040.19 879.119 1079.6C925.086 1116.99 916.27 1179.95 851.588 1187.32C791.429 1194.18 736.077 1179.68 690.582 1151.03C641.866 1120.36 604.504 1073.5 584.671 1019.33C563.058 960.286 563.579 895.914 586.156 837.263C550.709 888.201 541.532 947.946 547.917 1009C554.093 1068.02 503.584 1106.36 452.644 1065.63C405.235 1027.72 376.298 978.142 364.29 925.571C351.437 869.308 358.015 809.641 382.126 757.236C409.457 697.834 453.638 654.917 513.156 629.233C451.449 639.668 402.309 675.551 363.406 723.806C326.183 769.982 263.514 761.125 256.168 696.15C248.049 624.368 269.739 554.764 317.445 500.641C324.022 493.175 335.338 503.233 328.76 510.698C283.901 561.584 263.582 626.991 271.215 694.479C277.032 745.911 322.921 749.885 351.674 714.218C392.956 663.006 445.219 625.257 510.652 614.2C556.395 606.468 602.643 612.811 646.911 627.592C650.437 591.398 666.529 558.906 690.747 534.574C718.285 506.911 756.328 489.801 798.348 489.801L798.359 489.829ZM569.019 626.815C551.506 631.009 534.896 636.436 519.277 643.159C464.882 666.581 422.504 705.764 395.883 763.625C373.157 813.015 366.953 869.217 379.052 922.195C390.324 971.546 417.519 1018.11 462.075 1053.73C502.384 1085.96 537.665 1056.27 532.881 1010.56C526.008 944.872 537.373 890.508 562.656 846.122C588.799 800.233 629.729 765.237 680.686 739.594C659.274 713.387 646.368 679.904 646.197 643.403C620.222 634.392 594.402 628.682 569.02 626.81L569.019 626.815ZM681.802 353.261C688.085 353.261 693.178 358.375 693.178 364.689C693.178 371 688.085 376.118 681.802 376.118H418.031C406.347 376.118 392.496 374.811 381.565 378.014C361.425 383.913 347.695 402.448 347.695 423.494C347.695 449.637 368.787 470.828 394.812 470.828C420.837 470.828 441.929 449.639 441.929 423.494C441.929 408.464 464.68 408.464 464.68 423.494C464.68 462.255 433.395 493.682 394.811 493.682C356.225 493.682 324.943 462.255 324.943 423.494C324.943 392.369 345.513 364.852 375.253 356.14C388.432 352.28 403.505 353.264 417.22 353.264H681.8L681.802 353.261ZM641.986 284.206C648.269 284.206 653.362 289.32 653.362 295.635C653.362 301.946 648.269 307.063 641.986 307.063H352.122V307.017C339.11 306.999 326.101 307.901 313.412 304.183C283.668 295.471 263.101 267.954 263.101 236.829C263.101 198.068 294.386 166.641 332.97 166.641C371.556 166.641 402.838 198.068 402.838 236.829C402.838 243.14 397.745 248.257 391.463 248.257C385.18 248.257 380.087 243.14 380.087 236.829C380.087 210.686 358.995 189.495 332.97 189.495C306.945 189.495 285.853 210.684 285.853 236.829C285.853 257.875 299.583 276.41 319.723 282.309C329.532 285.182 341.789 284.237 352.123 284.248V284.202H641.987L641.986 284.206ZM622.07 220.61C637.032 220.61 637.032 243.464 622.07 243.464C596.546 243.464 570.865 243.162 545.408 243.468C534.746 243.596 523.506 243.731 512.773 240.587C483.029 231.876 462.463 204.359 462.463 173.234C462.463 134.473 493.748 103.046 532.331 103.046C570.918 103.046 602.2 134.473 602.2 173.234C602.2 188.263 579.45 188.263 579.45 173.234C579.45 147.091 558.358 125.9 532.332 125.9C506.307 125.9 485.215 147.088 485.215 173.234C485.215 194.279 498.946 212.815 519.086 218.714C526.633 220.923 536.133 220.809 545.146 220.702C570.717 220.397 596.444 220.61 622.075 220.61L622.07 220.61ZM987.896 407.019C985.875 412.939 976.915 409.853 978.935 403.933C990.879 369.11 990.453 331.788 977.799 297.223C975.657 291.352 984.543 288.077 986.685 293.948C1000.06 330.468 1000.51 370.22 987.896 407.013L987.896 407.019ZM821.834 491.64C854.455 496.715 883.648 512.195 905.954 534.602C907.847 536.502 909.687 538.456 911.48 540.455C935.592 528.643 957.319 514.739 976.149 498.562C976.266 498.345 976.394 498.136 976.533 497.93C983.274 487.953 989.219 477.768 994.407 467.429C999.656 456.97 1004.1 446.347 1007.78 435.623C1025.99 382.521 1025.34 325.621 1006.05 272.916C987.344 221.835 952.177 177.68 906.363 148.832C863.66 121.947 811.636 108.341 755.012 114.805C742.295 116.257 732.706 119.894 725.865 124.951C718.922 130.087 714.82 136.767 713.176 144.087C711.475 151.662 712.341 160.054 715.371 168.279C719.068 178.315 725.958 187.983 735.358 195.629C786.627 237.334 817.12 283.393 830.649 332.278C844.727 383.153 840.348 436.825 821.838 491.639L821.834 491.64ZM1098.26 610.679C1092.66 613.417 1088.51 604.865 1094.11 602.123C1127.1 585.967 1153.01 559.335 1168.41 525.873C1171.02 520.198 1179.61 524.179 1177 529.854C1160.71 565.262 1133.17 593.582 1098.26 610.679ZM921.244 552.53C939.651 577.806 950.519 608.97 950.519 642.688C950.519 643.711 950.504 644.726 950.487 645.746C980.592 656.507 1010.51 662.878 1039.79 664.011C1040.13 663.869 1040.5 663.748 1040.87 663.656C1077.73 654.486 1111.19 637.847 1139.4 614.734C1167.08 592.04 1189.71 563.067 1205.5 528.757C1234.46 465.821 1236.43 391.934 1208.46 328.137C1193.82 294.74 1170.94 263.938 1139.31 238.647C1099 206.418 1063.72 236.111 1068.5 281.826C1075.38 347.585 1064.21 401.892 1039.11 446.196C1013.12 492.035 972.331 526.925 921.249 552.543L921.244 552.53ZM1037.88 829.775C1031.99 827.744 1035.06 818.744 1040.95 820.772C1075.62 832.769 1112.77 832.343 1147.18 819.628C1153.03 817.476 1156.29 826.401 1150.44 828.557C1114.08 841.988 1074.51 842.45 1037.88 829.775ZM949.379 661.459C945.15 696.168 929.342 727.282 905.948 750.782C905.227 751.503 904.499 752.22 903.767 752.927C914.344 775.295 926.685 795.733 940.912 813.821C951.587 821.535 962.508 828.308 973.61 834.179C985.383 840.404 997.344 845.579 1009.41 849.752C1036.47 859.117 1063.78 863.333 1090.44 863.045C1118.4 862.743 1145.74 857.483 1171.38 848.008C1222.23 829.221 1266.18 793.894 1294.91 747.871C1321.67 704.972 1335.21 652.717 1328.78 595.829C1322.96 544.397 1277.07 540.423 1248.32 576.09C1206.94 627.43 1160.63 657.802 1111.52 671.227C1059.57 685.422 1004.72 680.574 949.374 661.464L949.379 661.459ZM891.938 763.232C866.3 783.348 834.08 795.391 799.065 795.554C789.021 824.773 783.094 853.796 782.043 882.217C784.312 892.357 787.071 902.02 790.314 911.336C793.613 920.822 797.463 930.013 801.846 939.041C826.369 989.575 866.792 1029.26 917.584 1052.85C966.751 1075.68 1022.7 1081.91 1075.44 1069.76C1124.57 1058.43 1170.92 1031.12 1206.38 986.358C1238.47 945.868 1208.91 910.424 1163.4 915.23C1098.01 922.134 1043.89 910.716 999.709 885.319C950.635 857.107 916.36 813.498 891.926 763.235L891.938 763.232ZM836.03 945.122C834.887 942.761 835.863 939.912 838.214 938.762C840.566 937.611 843.4 938.595 844.547 940.957C860.631 974.095 887.14 1000.13 920.452 1015.59C926.102 1018.21 922.139 1026.84 916.489 1024.22C881.24 1007.86 853.049 980.193 836.03 945.122ZM617.037 880.003C617.886 877.516 620.581 876.192 623.053 877.044C625.528 877.897 626.846 880.603 625.997 883.089C614.053 917.911 614.48 955.234 627.134 989.799C629.275 995.67 620.389 998.944 618.248 993.073C604.877 956.554 604.418 916.798 617.037 880.008L617.037 880.003ZM783.344 794.821C747.563 791.301 715.414 775.333 691.253 751.283C666.275 763.493 643.78 777.976 624.375 794.913C624.19 795.438 623.941 795.95 623.632 796.44C617.975 805.4 612.989 814.403 608.649 823.41C604.217 832.611 600.392 841.955 597.156 851.395C578.945 904.496 579.595 961.396 598.889 1014.1C617.591 1065.18 652.758 1109.34 698.572 1138.19C741.275 1165.07 793.299 1178.68 849.922 1172.21C901.12 1166.37 905.08 1120.27 869.572 1091.39C818.467 1049.81 788.229 1003.3 774.873 953.967C761.058 902.954 765.362 849.138 783.339 794.815L783.344 794.821ZM503.108 681.71C508.708 678.972 512.857 687.524 507.256 690.265C474.266 706.422 448.355 733.053 432.955 766.515C431.861 768.899 429.052 769.939 426.68 768.842C424.307 767.744 423.27 764.921 424.364 762.538C440.658 727.13 468.197 698.81 503.107 681.714L503.108 681.71ZM759.514 346.123C762.242 351.749 753.725 355.915 750.998 350.289C734.913 317.15 708.404 291.118 675.092 275.651C669.442 273.033 673.405 264.403 679.056 267.021C714.304 283.386 742.495 311.052 759.514 346.123ZM879.38 653.68C880.023 648.729 887.516 649.709 886.874 654.664C882.093 690.679 855.902 720.391 820.898 729.539C816.086 730.793 814.189 723.441 819.002 722.187C851.018 713.82 875.005 686.628 879.38 653.68ZM798.35 523.749C831.052 523.749 860.656 537.064 882.087 558.593C903.516 580.122 916.774 609.862 916.774 642.71C916.774 708.409 863.754 761.667 798.353 761.667C765.651 761.667 736.046 748.352 714.616 726.823C693.186 705.295 679.929 675.554 679.929 642.706C679.929 609.855 693.183 580.115 714.616 558.589C736.045 537.06 765.651 523.746 798.353 523.746L798.35 523.749ZM874.046 566.672C854.672 547.214 827.912 535.178 798.35 535.178C768.787 535.178 742.027 547.213 722.653 566.672C703.28 586.132 691.301 613.016 691.301 642.71C691.301 672.404 703.284 699.288 722.653 718.747C742.023 738.205 768.787 750.242 798.35 750.242C857.471 750.242 905.396 702.098 905.396 642.704C905.396 613.011 893.413 586.126 874.044 566.667L874.046 566.672ZM895.227 545.396C870.434 520.489 836.184 505.087 798.354 505.087C760.52 505.087 726.27 520.489 701.481 545.396C676.688 570.299 661.356 604.705 661.356 642.714C661.356 680.723 676.692 715.126 701.481 740.033C726.274 764.936 760.524 780.342 798.354 780.342C836.188 780.342 870.438 764.94 895.227 740.033C920.02 715.129 935.355 680.723 935.355 642.714C935.355 604.705 920.02 570.303 895.227 545.396Z" fill="#9B9B9B"/>
<path d="M653.872 1361.27V1539H630.312V1361.27H653.872ZM754.712 1377.01L695.874 1539H671.826L739.575 1361.27H755.078L754.712 1377.01ZM804.028 1539L745.068 1377.01L744.702 1361.27H760.205L828.198 1539H804.028ZM800.977 1473.2V1492.49H701.123V1473.2H800.977ZM931.724 1518.61L976.89 1554.38L961.021 1569.03L916.587 1533.75L931.724 1518.61ZM976.279 1444.52V1455.75C976.279 1469.09 974.611 1481.06 971.274 1491.64C967.938 1502.22 963.136 1511.21 956.87 1518.61C950.604 1526.02 943.076 1531.68 934.287 1535.58C925.579 1539.49 915.814 1541.44 904.99 1541.44C894.492 1541.44 884.849 1539.49 876.06 1535.58C867.352 1531.68 859.784 1526.02 853.354 1518.61C847.007 1511.21 842.083 1502.22 838.584 1491.64C835.085 1481.06 833.335 1469.09 833.335 1455.75V1444.52C833.335 1431.17 835.044 1419.25 838.462 1408.75C841.961 1398.17 846.885 1389.18 853.232 1381.77C859.58 1374.29 867.108 1368.59 875.815 1364.68C884.604 1360.78 894.248 1358.82 904.746 1358.82C915.57 1358.82 925.376 1360.78 934.165 1364.68C942.954 1368.59 950.482 1374.29 956.748 1381.77C963.014 1389.18 967.816 1398.17 971.152 1408.75C974.57 1419.25 976.279 1431.17 976.279 1444.52ZM952.964 1455.75V1444.27C952.964 1433.69 951.865 1424.34 949.668 1416.2C947.552 1408.06 944.419 1401.22 940.269 1395.69C936.118 1390.16 931.073 1385.96 925.132 1383.12C919.191 1380.27 912.396 1378.84 904.746 1378.84C897.503 1378.84 890.911 1380.27 884.971 1383.12C879.111 1385.96 874.066 1390.16 869.834 1395.69C865.602 1401.22 862.347 1408.06 860.068 1416.2C857.79 1424.34 856.65 1433.69 856.65 1444.27V1455.75C856.65 1466.41 857.79 1475.85 860.068 1484.07C862.347 1492.21 865.602 1499.08 869.834 1504.7C874.147 1510.23 879.274 1514.42 885.215 1517.27C891.156 1520.12 897.747 1521.54 904.99 1521.54C912.64 1521.54 919.435 1520.12 925.376 1517.27C931.317 1514.42 936.322 1510.23 940.391 1504.7C944.541 1499.08 947.674 1492.21 949.79 1484.07C951.906 1475.85 952.964 1466.41 952.964 1455.75Z" fill="#9B9B9B"/>
</svg>
