<svg width="1600" height="1600" viewBox="0 0 1600 1600" fill="none" xmlns="http://www.w3.org/2000/svg">
<g clip-path="url(#clip0_2061_7325)">
<path d="M1038.29 624.24C1030.96 616.908 1019.09 616.908 1011.78 624.24L998.52 637.498H965.313C964.657 635.662 963.962 633.896 963.137 632.154L1000.77 594.486C1008.1 587.154 1008.1 575.287 1000.77 567.974C993.438 560.661 981.551 560.642 974.258 567.994L936.645 605.642C934.903 604.798 933.122 604.087 931.263 603.431V570.243L944.521 556.985C951.853 549.653 951.853 537.805 944.521 530.473C937.189 523.141 925.341 523.141 918.009 530.473L912.497 535.984L907.005 530.492C899.673 523.16 887.825 523.16 880.493 530.492C873.161 537.824 873.161 549.672 880.493 557.004L893.747 570.258V603.446C891.911 604.102 890.145 604.798 888.403 605.641L850.755 567.993C843.423 560.661 831.575 560.661 824.243 567.993C816.911 575.306 816.911 587.173 824.243 594.505L861.891 632.153C861.047 633.896 860.352 635.677 859.696 637.517H826.548L813.275 624.244C805.943 616.931 794.095 616.931 786.763 624.244C779.431 631.576 779.431 643.443 786.763 650.775L792.255 656.267L786.778 661.743C779.446 669.075 779.446 680.924 786.778 688.256C790.434 691.927 795.235 693.748 800.036 693.748C804.837 693.748 809.638 691.912 813.294 688.271L826.552 675.013H859.72C860.377 676.849 861.072 678.63 861.896 680.376L824.248 717.989C816.916 725.302 816.916 737.169 824.248 744.501C827.896 748.162 832.697 749.998 837.498 749.998C842.299 749.998 847.1 748.162 850.756 744.521L888.444 706.888C890.171 707.712 891.952 708.407 893.749 709.044V742.251L880.491 755.509C873.159 762.841 873.159 774.689 880.491 782.021C887.823 789.353 899.671 789.353 907.003 782.021L912.499 776.509L917.991 782.002C921.647 785.662 926.448 787.498 931.249 787.498C936.05 787.498 940.851 785.662 944.507 782.006C951.839 774.674 951.839 762.825 944.507 755.493L931.249 742.236V709.048C933.085 708.391 934.851 707.696 936.593 706.852L974.241 744.5C977.897 748.16 982.698 749.996 987.499 749.996C992.3 749.996 997.1 748.16 1000.76 744.504C1008.09 737.172 1008.09 725.324 1000.76 717.992L963.109 680.344C963.933 678.618 964.648 676.836 965.285 675.02H998.512L1011.77 688.278C1015.44 691.926 1020.24 693.747 1025.04 693.747C1029.84 693.747 1034.64 691.911 1038.3 688.255C1045.63 680.923 1045.63 669.075 1038.3 661.743L1032.8 656.246L1038.29 650.754C1045.63 643.442 1045.63 631.57 1038.29 624.238L1038.29 624.24ZM893.77 656.302V656.263C893.77 656.247 893.751 656.228 893.751 656.208C893.77 651.052 895.852 646.384 899.243 642.989C902.657 639.598 907.345 637.497 912.501 637.497C922.853 637.497 931.251 645.915 931.251 656.247C931.251 666.579 922.853 674.997 912.501 674.997C902.169 674.997 893.789 666.614 893.77 656.302Z" fill="#9B9B9B"/>
<path d="M537.5 393.75C568.512 393.75 593.75 368.512 593.75 337.5C593.75 306.488 568.512 281.25 537.5 281.25C506.488 281.25 481.25 306.488 481.25 337.5C481.25 368.512 506.488 393.75 537.5 393.75ZM537.5 318.75C547.852 318.75 556.25 327.168 556.25 337.5C556.25 347.832 547.852 356.25 537.5 356.25C527.148 356.25 518.75 347.832 518.75 337.5C518.75 327.168 527.148 318.75 537.5 318.75Z" fill="#9B9B9B"/>
<path d="M537.5 431.25C506.488 431.25 481.25 456.488 481.25 487.5C481.25 518.512 506.488 543.75 537.5 543.75C568.512 543.75 593.75 518.512 593.75 487.5C593.75 456.488 568.512 431.25 537.5 431.25ZM537.5 506.25C527.148 506.25 518.75 497.832 518.75 487.5C518.75 477.168 527.148 468.75 537.5 468.75C547.852 468.75 556.25 477.168 556.25 487.5C556.25 497.832 547.852 506.25 537.5 506.25Z" fill="#9B9B9B"/>
<path d="M1343.8 843.75H1193.8V243.75C1193.8 212.738 1168.56 187.5 1137.55 187.5H462.55C431.538 187.5 406.3 212.738 406.3 243.75V843.75H256.3C225.288 843.75 200.05 868.988 200.05 900V1068.75C200.05 1079.1 208.433 1087.5 218.8 1087.5H1381.3C1391.67 1087.5 1400.05 1079.1 1400.05 1068.75V900C1400.05 868.988 1374.81 843.75 1343.8 843.75ZM1343.8 881.25C1354.15 881.25 1362.55 889.668 1362.55 900V918.75H1193.8V881.25H1343.8ZM1156.3 243.75V1050H668.8V225H1137.55C1147.9 225 1156.3 233.418 1156.3 243.75ZM256.3 881.25H406.3V918.75H237.55V900C237.55 889.668 245.948 881.25 256.3 881.25ZM237.55 956.25H406.3V1050H237.55V956.25ZM443.8 243.75C443.8 233.418 452.198 225 462.55 225H631.3V1050H443.8V243.75ZM1193.8 1050V956.25H1362.55V1050H1193.8Z" fill="#9B9B9B"/>
<path d="M518.75 600H500C489.633 600 481.25 608.398 481.25 618.75C481.25 629.102 489.633 637.5 500 637.5H518.75C529.117 637.5 537.5 629.102 537.5 618.75C537.5 608.398 529.117 600 518.75 600Z" fill="#9B9B9B"/>
<path d="M561.689 605.44C558.295 609.003 556.252 613.878 556.252 618.752C556.252 623.627 558.295 628.502 561.689 632.064C565.232 635.439 570.127 637.502 575.001 637.502C579.876 637.502 584.732 635.439 588.313 632.064C591.688 628.502 593.751 623.627 593.751 618.752C593.751 613.878 591.688 609.002 588.313 605.44C581.376 598.503 568.813 598.503 561.688 605.44H561.689Z" fill="#9B9B9B"/>
<path d="M518.75 675H500C489.633 675 481.25 683.398 481.25 693.75C481.25 704.102 489.633 712.5 500 712.5H518.75C529.117 712.5 537.5 704.102 537.5 693.75C537.5 683.398 529.117 675 518.75 675Z" fill="#9B9B9B"/>
<path d="M561.689 680.44C558.295 684.003 556.252 688.878 556.252 693.752C556.252 698.627 558.295 703.502 561.689 707.064C565.232 710.439 570.127 712.502 575.001 712.502C579.876 712.502 584.732 710.439 588.313 707.064C591.688 703.502 593.751 698.627 593.751 693.752C593.751 688.878 591.688 684.002 588.313 680.44C581.188 673.503 568.813 673.503 561.688 680.44H561.689Z" fill="#9B9B9B"/>
<path d="M518.75 750H500C489.633 750 481.25 758.398 481.25 768.75C481.25 779.102 489.633 787.5 500 787.5H518.75C529.117 787.5 537.5 779.102 537.5 768.75C537.5 758.398 529.117 750 518.75 750Z" fill="#9B9B9B"/>
<path d="M561.689 755.44C558.295 759.003 556.252 763.878 556.252 768.752C556.252 773.627 558.295 778.502 561.689 782.064C565.232 785.439 570.127 787.502 575.001 787.502C579.876 787.502 584.732 785.439 588.313 782.064C591.688 778.502 593.751 773.627 593.751 768.752C593.751 763.878 591.688 759.002 588.313 755.44C581.188 748.503 568.813 748.503 561.688 755.44H561.689Z" fill="#9B9B9B"/>
<path d="M800 450H1025C1056.01 450 1081.25 424.762 1081.25 393.75V356.25C1081.25 325.238 1056.01 300 1025 300H800C768.988 300 743.75 325.238 743.75 356.25V393.75C743.75 424.762 768.988 450 800 450ZM781.25 356.25C781.25 345.918 789.648 337.5 800 337.5H1025C1035.35 337.5 1043.75 345.918 1043.75 356.25V393.75C1043.75 404.082 1035.35 412.5 1025 412.5H800C789.648 412.5 781.25 404.082 781.25 393.75V356.25Z" fill="#9B9B9B"/>
</g>
<path d="M165.054 1361.27H223.892C237.238 1361.27 248.509 1363.3 257.705 1367.37C266.982 1371.44 274.022 1377.46 278.823 1385.44C283.706 1393.33 286.147 1403.05 286.147 1414.61C286.147 1422.75 284.479 1430.19 281.143 1436.95C277.887 1443.62 273.167 1449.32 266.982 1454.04C260.879 1458.68 253.555 1462.14 245.01 1464.42L238.418 1466.98H183.12L182.876 1447.81H224.624C233.088 1447.81 240.127 1446.35 245.742 1443.42C251.357 1440.41 255.589 1436.38 258.438 1431.33C261.286 1426.29 262.71 1420.71 262.71 1414.61C262.71 1407.77 261.367 1401.79 258.682 1396.67C255.996 1391.54 251.764 1387.59 245.986 1384.83C240.29 1381.98 232.925 1380.55 223.892 1380.55H188.613V1539H165.054V1361.27ZM268.936 1539L225.723 1458.43L250.259 1458.31L294.082 1537.54V1539H268.936ZM360.498 1541.44C351.302 1541.44 342.961 1539.9 335.474 1536.8C328.068 1533.63 321.68 1529.19 316.309 1523.5C311.019 1517.8 306.95 1511.05 304.102 1503.23C301.253 1495.42 299.829 1486.88 299.829 1477.6V1472.47C299.829 1461.73 301.416 1452.17 304.59 1443.79C307.764 1435.32 312.077 1428.16 317.529 1422.3C322.982 1416.44 329.167 1412.01 336.084 1409C343.001 1405.98 350.163 1404.48 357.568 1404.48C367.008 1404.48 375.146 1406.11 381.982 1409.36C388.9 1412.62 394.556 1417.17 398.95 1423.03C403.345 1428.81 406.6 1435.65 408.716 1443.54C410.832 1451.35 411.89 1459.9 411.89 1469.18V1479.31H313.257V1460.88H389.307V1459.17C388.981 1453.31 387.76 1447.61 385.645 1442.08C383.61 1436.54 380.355 1431.99 375.879 1428.4C371.403 1424.82 365.299 1423.03 357.568 1423.03C352.441 1423.03 347.721 1424.13 343.408 1426.33C339.095 1428.44 335.392 1431.62 332.3 1435.85C329.207 1440.08 326.807 1445.25 325.098 1451.35C323.389 1457.46 322.534 1464.5 322.534 1472.47V1477.6C322.534 1483.86 323.389 1489.76 325.098 1495.3C326.888 1500.75 329.451 1505.55 332.788 1509.7C336.206 1513.85 340.316 1517.11 345.117 1519.47C350 1521.83 355.534 1523.01 361.719 1523.01C369.694 1523.01 376.449 1521.38 381.982 1518.13C387.516 1514.87 392.358 1510.52 396.509 1505.06L410.181 1515.93C407.332 1520.24 403.711 1524.35 399.316 1528.26C394.922 1532.16 389.51 1535.34 383.081 1537.78C376.733 1540.22 369.206 1541.44 360.498 1541.44ZM461.948 1539H439.365V1393C439.365 1383.48 441.074 1375.47 444.492 1368.96C447.992 1362.36 452.996 1357.4 459.507 1354.06C466.017 1350.65 473.748 1348.94 482.7 1348.94C485.304 1348.94 487.909 1349.1 490.513 1349.42C493.198 1349.75 495.802 1350.24 498.325 1350.89L497.104 1369.32C495.396 1368.92 493.442 1368.63 491.245 1368.47C489.129 1368.31 487.013 1368.22 484.897 1368.22C480.096 1368.22 475.946 1369.2 472.446 1371.15C469.028 1373.03 466.424 1375.79 464.634 1379.45C462.843 1383.12 461.948 1387.63 461.948 1393V1539ZM490.024 1406.92V1424.25H418.491V1406.92H490.024ZM527.754 1427.67V1539H505.171V1406.92H527.144L527.754 1427.67ZM569.014 1406.19L568.892 1427.18C567.02 1426.78 565.229 1426.53 563.521 1426.45C561.893 1426.29 560.021 1426.21 557.905 1426.21C552.697 1426.21 548.099 1427.02 544.111 1428.65C540.124 1430.28 536.746 1432.55 533.979 1435.48C531.213 1438.41 529.015 1441.91 527.388 1445.98C525.841 1449.97 524.824 1454.36 524.336 1459.17L517.988 1462.83C517.988 1454.85 518.761 1447.37 520.308 1440.37C521.935 1433.37 524.417 1427.18 527.754 1421.81C531.09 1416.36 535.322 1412.13 540.449 1409.12C545.658 1406.02 551.842 1404.48 559.004 1404.48C560.632 1404.48 562.503 1404.68 564.619 1405.09C566.735 1405.41 568.2 1405.78 569.014 1406.19ZM604.424 1406.92V1539H581.719V1406.92H604.424ZM580.01 1371.89C580.01 1368.22 581.108 1365.13 583.306 1362.61C585.584 1360.09 588.921 1358.82 593.315 1358.82C597.629 1358.82 600.924 1360.09 603.203 1362.61C605.563 1365.13 606.743 1368.22 606.743 1371.89C606.743 1375.39 605.563 1378.4 603.203 1380.92C600.924 1383.36 597.629 1384.58 593.315 1384.58C588.921 1384.58 585.584 1383.36 583.306 1380.92C581.108 1378.4 580.01 1375.39 580.01 1371.89ZM716.25 1406.92H736.758V1536.19C736.758 1547.83 734.398 1557.76 729.678 1565.98C724.958 1574.2 718.366 1580.42 709.902 1584.65C701.52 1588.97 691.836 1591.12 680.85 1591.12C676.292 1591.12 670.921 1590.39 664.736 1588.93C658.633 1587.54 652.611 1585.14 646.67 1581.72C640.811 1578.39 635.887 1573.87 631.899 1568.17L643.74 1554.75C649.274 1561.42 655.052 1566.06 661.074 1568.66C667.178 1571.27 673.2 1572.57 679.141 1572.57C686.302 1572.57 692.487 1571.23 697.695 1568.54C702.904 1565.86 706.932 1561.87 709.78 1556.58C712.71 1551.37 714.175 1544.94 714.175 1537.29V1435.97L716.25 1406.92ZM625.308 1474.42V1471.86C625.308 1461.77 626.488 1452.61 628.848 1444.4C631.289 1436.09 634.748 1428.97 639.224 1423.03C643.781 1417.09 649.274 1412.54 655.703 1409.36C662.132 1406.11 669.375 1404.48 677.432 1404.48C685.732 1404.48 692.975 1405.94 699.16 1408.87C705.426 1411.72 710.716 1415.91 715.029 1421.45C719.424 1426.9 722.882 1433.49 725.405 1441.22C727.928 1448.95 729.678 1457.7 730.654 1467.47V1478.7C729.759 1488.38 728.009 1497.09 725.405 1504.82C722.882 1512.55 719.424 1519.14 715.029 1524.6C710.716 1530.05 705.426 1534.24 699.16 1537.17C692.894 1540.02 685.57 1541.44 677.188 1541.44C669.294 1541.44 662.132 1539.77 655.703 1536.44C649.355 1533.1 643.903 1528.42 639.346 1522.4C634.788 1516.38 631.289 1509.3 628.848 1501.16C626.488 1492.94 625.308 1484.03 625.308 1474.42ZM647.891 1471.86V1474.42C647.891 1481.02 648.542 1487.2 649.844 1492.98C651.227 1498.76 653.302 1503.84 656.069 1508.24C658.918 1512.63 662.539 1516.09 666.934 1518.61C671.328 1521.06 676.577 1522.28 682.681 1522.28C690.168 1522.28 696.353 1520.69 701.235 1517.52C706.118 1514.34 709.984 1510.15 712.832 1504.94C715.762 1499.73 718.04 1494.08 719.668 1487.97V1458.56C718.773 1454.08 717.389 1449.77 715.518 1445.62C713.727 1441.38 711.367 1437.64 708.438 1434.39C705.589 1431.05 702.049 1428.4 697.817 1426.45C693.586 1424.5 688.621 1423.52 682.925 1423.52C676.74 1423.52 671.41 1424.82 666.934 1427.43C662.539 1429.95 658.918 1433.45 656.069 1437.93C653.302 1442.32 651.227 1447.45 649.844 1453.31C648.542 1459.08 647.891 1465.27 647.891 1471.86ZM815.869 1541.44C806.673 1541.44 798.332 1539.9 790.845 1536.8C783.439 1533.63 777.051 1529.19 771.68 1523.5C766.39 1517.8 762.321 1511.05 759.473 1503.23C756.624 1495.42 755.2 1486.88 755.2 1477.6V1472.47C755.2 1461.73 756.787 1452.17 759.961 1443.79C763.135 1435.32 767.448 1428.16 772.9 1422.3C778.353 1416.44 784.538 1412.01 791.455 1409C798.372 1405.98 805.534 1404.48 812.939 1404.48C822.38 1404.48 830.518 1406.11 837.354 1409.36C844.271 1412.62 849.927 1417.17 854.321 1423.03C858.716 1428.81 861.971 1435.65 864.087 1443.54C866.203 1451.35 867.261 1459.9 867.261 1469.18V1479.31H768.628V1460.88H844.678V1459.17C844.352 1453.31 843.132 1447.61 841.016 1442.08C838.981 1436.54 835.726 1431.99 831.25 1428.4C826.774 1424.82 820.671 1423.03 812.939 1423.03C807.812 1423.03 803.092 1424.13 798.779 1426.33C794.466 1428.44 790.763 1431.62 787.671 1435.85C784.578 1440.08 782.178 1445.25 780.469 1451.35C778.76 1457.46 777.905 1464.5 777.905 1472.47V1477.6C777.905 1483.86 778.76 1489.76 780.469 1495.3C782.259 1500.75 784.823 1505.55 788.159 1509.7C791.577 1513.85 795.687 1517.11 800.488 1519.47C805.371 1521.83 810.905 1523.01 817.09 1523.01C825.065 1523.01 831.82 1521.38 837.354 1518.13C842.887 1514.87 847.729 1510.52 851.88 1505.06L865.552 1515.93C862.703 1520.24 859.082 1524.35 854.688 1528.26C850.293 1532.16 844.881 1535.34 838.452 1537.78C832.104 1540.22 824.577 1541.44 815.869 1541.44ZM906.211 1427.67V1539H883.628V1406.92H905.601L906.211 1427.67ZM947.471 1406.19L947.349 1427.18C945.477 1426.78 943.687 1426.53 941.978 1426.45C940.35 1426.29 938.478 1426.21 936.362 1426.21C931.154 1426.21 926.556 1427.02 922.568 1428.65C918.581 1430.28 915.203 1432.55 912.437 1435.48C909.67 1438.41 907.472 1441.91 905.845 1445.98C904.299 1449.97 903.281 1454.36 902.793 1459.17L896.445 1462.83C896.445 1454.85 897.218 1447.37 898.765 1440.37C900.392 1433.37 902.874 1427.18 906.211 1421.81C909.548 1416.36 913.779 1412.13 918.906 1409.12C924.115 1406.02 930.299 1404.48 937.461 1404.48C939.089 1404.48 940.96 1404.68 943.076 1405.09C945.192 1405.41 946.657 1405.78 947.471 1406.19ZM1031.34 1516.42V1448.42C1031.34 1443.22 1030.28 1438.7 1028.17 1434.87C1026.13 1430.97 1023.04 1427.96 1018.89 1425.84C1014.74 1423.72 1009.61 1422.67 1003.51 1422.67C997.814 1422.67 992.809 1423.64 988.496 1425.6C984.264 1427.55 980.928 1430.11 978.486 1433.29C976.126 1436.46 974.946 1439.88 974.946 1443.54H952.363C952.363 1438.82 953.584 1434.14 956.025 1429.5C958.467 1424.86 961.966 1420.67 966.523 1416.93C971.162 1413.1 976.696 1410.09 983.125 1407.9C989.635 1405.62 996.878 1404.48 1004.85 1404.48C1014.46 1404.48 1022.92 1406.11 1030.24 1409.36C1037.65 1412.62 1043.43 1417.54 1047.58 1424.13C1051.81 1430.64 1053.93 1438.82 1053.93 1448.67V1510.19C1053.93 1514.59 1054.29 1519.27 1055.02 1524.23C1055.84 1529.19 1057.02 1533.47 1058.56 1537.05V1539H1035C1033.87 1536.4 1032.97 1532.94 1032.32 1528.62C1031.67 1524.23 1031.34 1520.16 1031.34 1516.42ZM1035.25 1458.92L1035.49 1474.79H1012.67C1006.24 1474.79 1000.5 1475.32 995.454 1476.38C990.409 1477.35 986.177 1478.86 982.759 1480.89C979.341 1482.93 976.737 1485.49 974.946 1488.58C973.156 1491.6 972.261 1495.14 972.261 1499.21C972.261 1503.36 973.197 1507.14 975.068 1510.56C976.94 1513.98 979.748 1516.7 983.491 1518.74C987.316 1520.69 991.995 1521.67 997.529 1521.67C1004.45 1521.67 1010.55 1520.2 1015.84 1517.27C1021.13 1514.34 1025.32 1510.76 1028.41 1506.53C1031.59 1502.3 1033.3 1498.19 1033.54 1494.2L1043.18 1505.06C1042.61 1508.48 1041.07 1512.27 1038.54 1516.42C1036.02 1520.57 1032.64 1524.56 1028.41 1528.38C1024.26 1532.12 1019.3 1535.26 1013.52 1537.78C1007.82 1540.22 1001.39 1541.44 994.233 1541.44C985.282 1541.44 977.428 1539.69 970.674 1536.19C964.001 1532.69 958.792 1528.01 955.049 1522.15C951.387 1516.21 949.556 1509.58 949.556 1502.26C949.556 1495.18 950.939 1488.95 953.706 1483.58C956.473 1478.13 960.461 1473.61 965.669 1470.03C970.877 1466.37 977.144 1463.6 984.468 1461.73C991.792 1459.86 999.971 1458.92 1009 1458.92H1035.25ZM1134.75 1406.92V1424.25H1063.33V1406.92H1134.75ZM1087.5 1374.82H1110.09V1506.29C1110.09 1510.76 1110.78 1514.14 1112.16 1516.42C1113.55 1518.7 1115.34 1520.2 1117.53 1520.93C1119.73 1521.67 1122.09 1522.03 1124.61 1522.03C1126.49 1522.03 1128.44 1521.87 1130.47 1521.54C1132.59 1521.14 1134.18 1520.81 1135.23 1520.57L1135.36 1539C1133.57 1539.57 1131.21 1540.1 1128.28 1540.59C1125.43 1541.16 1121.97 1541.44 1117.9 1541.44C1112.37 1541.44 1107.28 1540.34 1102.64 1538.15C1098 1535.95 1094.3 1532.29 1091.53 1527.16C1088.85 1521.95 1087.5 1514.95 1087.5 1506.16V1374.82ZM1175.77 1406.92V1539H1153.07V1406.92H1175.77ZM1151.36 1371.89C1151.36 1368.22 1152.46 1365.13 1154.65 1362.61C1156.93 1360.09 1160.27 1358.82 1164.66 1358.82C1168.98 1358.82 1172.27 1360.09 1174.55 1362.61C1176.91 1365.13 1178.09 1368.22 1178.09 1371.89C1178.09 1375.39 1176.91 1378.4 1174.55 1380.92C1172.27 1383.36 1168.98 1384.58 1164.66 1384.58C1160.27 1384.58 1156.93 1383.36 1154.65 1380.92C1152.46 1378.4 1151.36 1375.39 1151.36 1371.89ZM1196.04 1474.42V1471.62C1196.04 1462.1 1197.43 1453.27 1200.2 1445.13C1202.96 1436.91 1206.95 1429.79 1212.16 1423.77C1217.37 1417.66 1223.67 1412.94 1231.08 1409.61C1238.48 1406.19 1246.79 1404.48 1255.98 1404.48C1265.26 1404.48 1273.6 1406.19 1281.01 1409.61C1288.49 1412.94 1294.84 1417.66 1300.05 1423.77C1305.34 1429.79 1309.37 1436.91 1312.13 1445.13C1314.9 1453.27 1316.28 1462.1 1316.28 1471.62V1474.42C1316.28 1483.95 1314.9 1492.78 1312.13 1500.91C1309.37 1509.05 1305.34 1516.17 1300.05 1522.28C1294.84 1528.3 1288.53 1533.02 1281.13 1536.44C1273.8 1539.77 1265.5 1541.44 1256.23 1541.44C1246.95 1541.44 1238.61 1539.77 1231.2 1536.44C1223.8 1533.02 1217.45 1528.3 1212.16 1522.28C1206.95 1516.17 1202.96 1509.05 1200.2 1500.91C1197.43 1492.78 1196.04 1483.95 1196.04 1474.42ZM1218.63 1471.62V1474.42C1218.63 1481.02 1219.4 1487.24 1220.95 1493.1C1222.49 1498.88 1224.81 1504.01 1227.91 1508.48C1231.08 1512.96 1235.03 1516.5 1239.75 1519.1C1244.47 1521.63 1249.96 1522.89 1256.23 1522.89C1262.41 1522.89 1267.82 1521.63 1272.46 1519.1C1277.18 1516.5 1281.09 1512.96 1284.18 1508.48C1287.27 1504.01 1289.59 1498.88 1291.14 1493.1C1292.77 1487.24 1293.58 1481.02 1293.58 1474.42V1471.62C1293.58 1465.11 1292.77 1458.96 1291.14 1453.18C1289.59 1447.33 1287.23 1442.16 1284.06 1437.68C1280.97 1433.12 1277.06 1429.54 1272.34 1426.94C1267.7 1424.34 1262.25 1423.03 1255.98 1423.03C1249.8 1423.03 1244.34 1424.34 1239.62 1426.94C1234.99 1429.54 1231.08 1433.12 1227.91 1437.68C1224.81 1442.16 1222.49 1447.33 1220.95 1453.18C1219.4 1458.96 1218.63 1465.11 1218.63 1471.62ZM1357.19 1435.12V1539H1334.6V1406.92H1355.97L1357.19 1435.12ZM1351.82 1467.96L1342.42 1467.59C1342.5 1458.56 1343.84 1450.21 1346.45 1442.56C1349.05 1434.83 1352.71 1428.12 1357.43 1422.42C1362.15 1416.73 1367.77 1412.33 1374.28 1409.24C1380.87 1406.07 1388.15 1404.48 1396.13 1404.48C1402.64 1404.48 1408.5 1405.37 1413.71 1407.16C1418.91 1408.87 1423.35 1411.64 1427.01 1415.46C1430.76 1419.29 1433.6 1424.25 1435.56 1430.36C1437.51 1436.38 1438.49 1443.74 1438.49 1452.45V1539H1415.78V1452.21C1415.78 1445.29 1414.76 1439.76 1412.73 1435.61C1410.69 1431.37 1407.72 1428.32 1403.82 1426.45C1399.91 1424.5 1395.11 1423.52 1389.41 1423.52C1383.8 1423.52 1378.67 1424.7 1374.03 1427.06C1369.48 1429.42 1365.53 1432.68 1362.19 1436.83C1358.94 1440.98 1356.37 1445.74 1354.5 1451.11C1352.71 1456.4 1351.82 1462.01 1351.82 1467.96Z" fill="#9B9B9B"/>
<defs>
<clipPath id="clip0_2061_7325">
<rect width="1200" height="1200" fill="white" transform="translate(200)"/>
</clipPath>
</defs>
</svg>
