<svg width="1600" height="1600" viewBox="0 0 1600 1600" fill="none" xmlns="http://www.w3.org/2000/svg">
<path d="M846.799 1248.48C868.526 1262.13 895.779 1263.54 918.799 1252.2L1207.4 1110.72C1220.85 1104.05 1232.19 1093.81 1240.18 1081.1C1248.16 1068.39 1252.47 1053.72 1252.64 1038.72V305.399C1252.47 290.391 1248.16 275.723 1240.18 263.016C1232.19 250.309 1220.85 240.059 1207.4 233.399L918.679 91.4391C895.699 80.2981 868.605 81.7477 846.941 95.2711C825.281 108.794 812.082 132.501 812 158.041V243.6H598.04C578.438 243.506 559.602 251.225 545.708 265.053C531.814 278.881 524.001 297.678 524.001 317.28V370.44C524.001 381.159 529.72 391.061 539.001 396.42C548.283 401.779 559.72 401.779 569.001 396.42C578.282 391.061 584.001 381.158 584.001 370.44V317.28C584.068 309.819 590.099 303.784 597.56 303.721H812V1039.8H598.04C594.372 1039.9 590.818 1038.52 588.177 1035.97C585.536 1033.42 584.033 1029.91 584.001 1026.24V973.082C584.001 962.363 578.282 952.461 569.001 947.102C559.72 941.743 548.282 941.743 539.001 947.102C529.72 952.462 524.001 962.364 524.001 973.082V1026.24C524.032 1045.74 531.794 1064.43 545.583 1078.22C559.368 1092.01 578.06 1099.77 597.56 1099.8H812V1185.36C811.84 1211.02 825.016 1234.92 846.801 1248.48L846.799 1248.48ZM871.998 158.076C871.967 153.17 874.522 148.612 878.717 146.076C880.909 144.666 883.436 143.881 886.037 143.795C888.209 143.83 890.346 144.362 892.28 145.354L1181 286.714C1184.55 288.397 1187.56 291.046 1189.68 294.354C1191.8 297.663 1192.95 301.503 1193 305.432V1038.15C1192.95 1042.08 1191.8 1045.92 1189.68 1049.23C1187.56 1052.54 1184.55 1055.19 1181 1056.87L892.28 1198.23C887.893 1200.26 882.78 1199.94 878.69 1197.37C874.596 1194.8 872.08 1190.34 871.998 1185.51L871.998 158.076Z" fill="#9B9B9B"/>
<path d="M967.999 735.976C975.956 735.976 983.585 732.816 989.214 727.191C994.839 721.566 998 713.933 998 705.976V637.578C998 626.859 992.281 616.957 983 611.598C973.718 606.238 962.281 606.238 953 611.598C943.718 616.957 938 626.86 938 637.578V705.976C938 713.933 941.16 721.566 946.785 727.191C952.414 732.816 960.042 735.976 967.999 735.976Z" fill="#9B9B9B"/>
<path d="M414.319 565.816V615.617C395.803 618.063 378.803 627.148 366.487 641.187C354.171 655.226 347.374 673.261 347.358 691.937V805.817C347.358 826.251 355.476 845.844 369.924 860.294C384.369 874.743 403.967 882.856 424.397 882.856H630.437C650.867 882.856 670.464 874.743 684.91 860.294C699.359 845.845 707.476 826.251 707.476 805.817V691.937C707.461 673.261 700.664 655.226 688.347 641.187C676.031 627.148 659.031 618.062 640.515 615.617V565.816C640.484 537.949 629.398 511.226 609.691 491.519C589.984 471.812 563.265 460.73 535.394 460.699H519.437C491.566 460.73 464.847 471.812 445.14 491.519C425.433 511.226 414.347 537.949 414.316 565.816H414.319ZM647.479 691.936V805.816C647.479 810.336 645.682 814.672 642.487 817.867C639.292 821.062 634.96 822.855 630.44 822.855H424.28C419.761 822.855 415.425 821.062 412.229 817.867C409.034 814.672 407.237 810.336 407.237 805.816V691.936C407.237 687.417 409.034 683.081 412.229 679.885C415.425 676.69 419.76 674.897 424.28 674.897H630.44C634.96 674.897 639.292 676.69 642.487 679.885C645.682 683.081 647.479 687.416 647.479 691.936ZM580.518 565.816V614.894L474.318 614.898V565.816C474.35 553.859 479.115 542.402 487.568 533.949C496.022 525.492 507.482 520.73 519.439 520.699H535.4H535.396C547.353 520.73 558.815 525.492 567.268 533.949C575.721 542.402 580.487 553.859 580.518 565.816Z" fill="#9B9B9B"/>
<path d="M502.603 1488.28C502.603 1484.13 501.951 1480.47 500.649 1477.29C499.429 1474.04 497.231 1471.11 494.058 1468.51C490.965 1465.9 486.652 1463.42 481.118 1461.06C475.666 1458.7 468.748 1456.3 460.366 1453.86C451.577 1451.25 443.643 1448.36 436.562 1445.19C429.482 1441.93 423.42 1438.23 418.374 1434.08C413.328 1429.93 409.463 1425.17 406.777 1419.8C404.092 1414.43 402.749 1408.28 402.749 1401.37C402.749 1394.45 404.173 1388.06 407.021 1382.2C409.87 1376.34 413.939 1371.26 419.229 1366.94C424.6 1362.55 430.988 1359.13 438.394 1356.69C445.799 1354.25 454.059 1353.03 463.174 1353.03C476.52 1353.03 487.832 1355.59 497.109 1360.72C506.468 1365.76 513.589 1372.4 518.472 1380.61C523.354 1388.75 525.796 1397.46 525.796 1406.74H502.358C502.358 1400.06 500.934 1394.16 498.086 1389.04C495.238 1383.83 490.924 1379.76 485.146 1376.83C479.368 1373.82 472.044 1372.31 463.174 1372.31C454.792 1372.31 447.874 1373.58 442.422 1376.1C436.969 1378.62 432.9 1382.04 430.215 1386.35C427.611 1390.67 426.309 1395.59 426.309 1401.12C426.309 1404.87 427.082 1408.28 428.628 1411.38C430.256 1414.39 432.738 1417.2 436.074 1419.8C439.492 1422.4 443.805 1424.8 449.014 1427C454.303 1429.2 460.61 1431.31 467.935 1433.35C478.026 1436.2 486.733 1439.37 494.058 1442.87C501.382 1446.37 507.404 1450.32 512.124 1454.71C516.925 1459.02 520.465 1463.95 522.744 1469.48C525.104 1474.93 526.284 1481.12 526.284 1488.04C526.284 1495.28 524.819 1501.83 521.89 1507.69C518.96 1513.55 514.769 1518.55 509.316 1522.7C503.864 1526.85 497.313 1530.07 489.663 1532.35C482.095 1534.55 473.631 1535.64 464.272 1535.64C456.053 1535.64 447.956 1534.5 439.98 1532.23C432.087 1529.95 424.884 1526.53 418.374 1521.97C411.945 1517.41 406.777 1511.8 402.871 1505.13C399.046 1498.37 397.134 1490.56 397.134 1481.69H420.571C420.571 1487.79 421.751 1493.04 424.111 1497.44C426.471 1501.75 429.686 1505.33 433.755 1508.18C437.905 1511.03 442.585 1513.14 447.793 1514.53C453.083 1515.83 458.576 1516.48 464.272 1516.48C472.492 1516.48 479.45 1515.34 485.146 1513.06C490.843 1510.78 495.156 1507.53 498.086 1503.3C501.097 1499.06 502.603 1494.06 502.603 1488.28ZM597.705 1535.64C588.509 1535.64 580.168 1534.1 572.681 1531.01C565.275 1527.83 558.887 1523.4 553.516 1517.7C548.226 1512 544.157 1505.25 541.309 1497.44C538.46 1489.62 537.036 1481.08 537.036 1471.8V1466.67C537.036 1455.93 538.623 1446.37 541.797 1437.99C544.971 1429.52 549.284 1422.36 554.736 1416.5C560.189 1410.64 566.374 1406.21 573.291 1403.2C580.208 1400.19 587.37 1398.68 594.775 1398.68C604.215 1398.68 612.354 1400.31 619.189 1403.56C626.107 1406.82 631.763 1411.38 636.157 1417.24C640.552 1423.01 643.807 1429.85 645.923 1437.74C648.039 1445.56 649.097 1454.1 649.097 1463.38V1473.51H550.464V1455.08H626.514V1453.37C626.188 1447.51 624.967 1441.81 622.852 1436.28C620.817 1430.74 617.562 1426.19 613.086 1422.61C608.61 1419.03 602.507 1417.24 594.775 1417.24C589.648 1417.24 584.928 1418.33 580.615 1420.53C576.302 1422.65 572.599 1425.82 569.507 1430.05C566.414 1434.28 564.014 1439.45 562.305 1445.56C560.596 1451.66 559.741 1458.7 559.741 1466.67V1471.8C559.741 1478.07 560.596 1483.97 562.305 1489.5C564.095 1494.95 566.659 1499.76 569.995 1503.91C573.413 1508.06 577.523 1511.31 582.324 1513.67C587.207 1516.03 592.741 1517.21 598.926 1517.21C606.901 1517.21 613.656 1515.58 619.189 1512.33C624.723 1509.07 629.565 1504.72 633.716 1499.27L647.388 1510.13C644.539 1514.44 640.918 1518.55 636.523 1522.46C632.129 1526.37 626.717 1529.54 620.288 1531.98C613.94 1534.42 606.413 1535.64 597.705 1535.64ZM718.32 1517.09C723.691 1517.09 728.656 1515.99 733.213 1513.79C737.77 1511.6 741.514 1508.59 744.443 1504.76C747.373 1500.85 749.041 1496.42 749.448 1491.45H770.933C770.526 1499.27 767.881 1506.55 762.998 1513.31C758.197 1519.98 751.89 1525.39 744.077 1529.54C736.265 1533.61 727.679 1535.64 718.32 1535.64C708.392 1535.64 699.725 1533.89 692.319 1530.4C684.995 1526.9 678.892 1522.09 674.009 1515.99C669.207 1509.89 665.586 1502.89 663.145 1494.99C660.785 1487.02 659.604 1478.6 659.604 1469.73V1464.6C659.604 1455.73 660.785 1447.35 663.145 1439.45C665.586 1431.48 669.207 1424.44 674.009 1418.33C678.892 1412.23 684.995 1407.43 692.319 1403.93C699.725 1400.43 708.392 1398.68 718.32 1398.68C728.656 1398.68 737.689 1400.8 745.42 1405.03C753.151 1409.18 759.214 1414.88 763.608 1422.12C768.084 1429.28 770.526 1437.42 770.933 1446.53H749.448C749.041 1441.08 747.495 1436.16 744.81 1431.76C742.205 1427.37 738.625 1423.87 734.067 1421.26C729.591 1418.58 724.342 1417.24 718.32 1417.24C711.403 1417.24 705.584 1418.62 700.864 1421.39C696.226 1424.07 692.523 1427.73 689.756 1432.37C687.07 1436.93 685.117 1442.02 683.896 1447.63C682.757 1453.17 682.188 1458.82 682.188 1464.6V1469.73C682.188 1475.5 682.757 1481.2 683.896 1486.82C685.036 1492.43 686.948 1497.52 689.634 1502.07C692.401 1506.63 696.104 1510.29 700.742 1513.06C705.462 1515.75 711.322 1517.09 718.32 1517.09ZM867.134 1502.69V1401.12H889.839V1533.2H868.232L867.134 1502.69ZM871.406 1474.85L880.806 1474.61C880.806 1483.4 879.87 1491.54 877.998 1499.02C876.208 1506.43 873.278 1512.86 869.209 1518.31C865.14 1523.76 859.81 1528.03 853.218 1531.13C846.626 1534.14 838.61 1535.64 829.17 1535.64C822.741 1535.64 816.841 1534.71 811.47 1532.84C806.18 1530.96 801.623 1528.08 797.798 1524.17C793.973 1520.26 791.003 1515.18 788.887 1508.91C786.852 1502.64 785.835 1495.12 785.835 1486.33V1401.12H808.418V1486.57C808.418 1492.51 809.069 1497.44 810.371 1501.34C811.755 1505.17 813.586 1508.22 815.864 1510.5C818.224 1512.69 820.828 1514.24 823.677 1515.14C826.606 1516.03 829.618 1516.48 832.71 1516.48C842.313 1516.48 849.922 1514.65 855.537 1510.99C861.152 1507.24 865.181 1502.24 867.622 1495.97C870.145 1489.62 871.406 1482.58 871.406 1474.85ZM936.846 1421.87V1533.2H914.263V1401.12H936.235L936.846 1421.87ZM978.105 1400.39L977.983 1421.39C976.112 1420.98 974.321 1420.74 972.612 1420.65C970.985 1420.49 969.113 1420.41 966.997 1420.41C961.789 1420.41 957.191 1421.22 953.203 1422.85C949.215 1424.48 945.838 1426.76 943.071 1429.69C940.304 1432.62 938.107 1436.12 936.479 1440.19C934.933 1444.17 933.916 1448.57 933.428 1453.37L927.08 1457.03C927.08 1449.06 927.853 1441.57 929.399 1434.57C931.027 1427.57 933.509 1421.39 936.846 1416.02C940.182 1410.56 944.414 1406.33 949.541 1403.32C954.749 1400.23 960.934 1398.68 968.096 1398.68C969.723 1398.68 971.595 1398.88 973.711 1399.29C975.827 1399.62 977.292 1399.98 978.105 1400.39ZM1013.52 1401.12V1533.2H990.811V1401.12H1013.52ZM989.102 1366.09C989.102 1362.43 990.2 1359.33 992.397 1356.81C994.676 1354.29 998.013 1353.03 1002.41 1353.03C1006.72 1353.03 1010.02 1354.29 1012.29 1356.81C1014.65 1359.33 1015.83 1362.43 1015.83 1366.09C1015.83 1369.59 1014.65 1372.6 1012.29 1375.12C1010.02 1377.56 1006.72 1378.78 1002.41 1378.78C998.013 1378.78 994.676 1377.56 992.397 1375.12C990.2 1372.6 989.102 1369.59 989.102 1366.09ZM1095.07 1401.12V1418.46H1023.66V1401.12H1095.07ZM1047.83 1369.02H1070.41V1500.49C1070.41 1504.96 1071.1 1508.34 1072.49 1510.62C1073.87 1512.9 1075.66 1514.4 1077.86 1515.14C1080.05 1515.87 1082.41 1516.23 1084.94 1516.23C1086.81 1516.23 1088.76 1516.07 1090.8 1515.75C1092.91 1515.34 1094.5 1515.01 1095.56 1514.77L1095.68 1533.2C1093.89 1533.77 1091.53 1534.3 1088.6 1534.79C1085.75 1535.36 1082.29 1535.64 1078.22 1535.64C1072.69 1535.64 1067.6 1534.55 1062.96 1532.35C1058.33 1530.15 1054.62 1526.49 1051.86 1521.36C1049.17 1516.15 1047.83 1509.15 1047.83 1500.37V1369.02ZM1148.67 1519.53L1185.41 1401.12H1209.58L1156.6 1553.59C1155.38 1556.84 1153.75 1560.34 1151.72 1564.09C1149.77 1567.91 1147.24 1571.53 1144.15 1574.95C1141.06 1578.37 1137.31 1581.14 1132.92 1583.25C1128.61 1585.45 1123.44 1586.55 1117.42 1586.55C1115.63 1586.55 1113.35 1586.3 1110.58 1585.81C1107.81 1585.33 1105.86 1584.92 1104.72 1584.59L1104.6 1566.28C1105.25 1566.37 1106.27 1566.45 1107.65 1566.53C1109.12 1566.69 1110.13 1566.77 1110.7 1566.77C1115.83 1566.77 1120.18 1566.08 1123.76 1564.7C1127.35 1563.39 1130.36 1561.16 1132.8 1557.98C1135.32 1554.89 1137.48 1550.62 1139.27 1545.17L1148.67 1519.53ZM1121.69 1401.12L1155.99 1503.66L1161.85 1527.47L1145.62 1535.77L1097.03 1401.12H1121.69Z" fill="#9B9B9B"/>
</svg>
