<svg width="1600" height="1600" viewBox="0 0 1600 1600" fill="none" xmlns="http://www.w3.org/2000/svg">
<path fill-rule="evenodd" clip-rule="evenodd" d="M671.904 501.559C671.904 529.569 660.542 554.937 642.188 573.292C623.828 591.651 598.46 603.008 570.449 603.008C542.439 603.008 517.07 591.646 498.716 573.292C480.362 554.932 469 529.564 469 501.559C469 468.393 491.629 431.595 509.664 402.268C513.714 395.675 517.556 389.424 520.013 385.166L520.482 384.409L557.388 320.488C561.529 313.278 570.749 310.789 577.96 314.935C580.358 316.31 582.234 318.255 583.518 320.488L620.866 385.181C623.355 389.493 627.171 395.702 631.232 402.305C649.262 431.632 671.879 468.416 671.879 501.575L671.904 501.559ZM620.785 551.895C633.66 539.019 641.633 521.22 641.633 501.559C641.633 476.92 621.515 444.21 605.478 418.128C601.886 412.282 598.47 406.723 594.761 400.302L570.449 358.189L546.6 399.497C546.441 399.801 546.297 400.046 546.131 400.36C542.396 406.819 539.011 412.33 535.425 418.166C519.383 444.248 499.259 476.98 499.259 501.618C499.259 521.273 507.232 539.078 520.108 551.955C532.983 564.831 550.783 572.798 570.444 572.798C590.105 572.798 607.904 564.825 620.781 551.955L620.785 551.895ZM1044.02 936.346C1044.02 988.665 1022.81 1036.04 988.524 1070.33C954.229 1104.61 906.857 1125.83 854.538 1125.83C802.219 1125.83 754.841 1104.61 720.552 1070.33C686.268 1036.04 665.051 988.665 665.051 936.346C665.051 873.705 709.472 801.465 744.881 743.882C752.837 730.931 760.352 718.722 765.985 708.963L766.454 708.207L841.475 578.261C845.622 571.05 854.836 568.561 862.047 572.708C864.445 574.083 866.321 576.028 867.6 578.261L943.096 709.023C948.153 717.789 955.95 730.457 964.19 743.86C999.598 801.444 1044.02 873.694 1044.02 936.338V936.346ZM967.122 1048.92C995.926 1020.12 1013.75 980.308 1013.75 936.346C1013.75 882.232 971.833 814.047 938.418 759.708C931.218 747.994 924.417 736.946 916.972 724.043L854.543 615.91L792.579 723.238C792.435 723.542 792.275 723.787 792.11 724.102C785.229 736.018 778.153 747.524 770.653 759.723C737.243 814.066 695.322 882.234 695.322 936.347C695.322 980.31 713.143 1020.12 741.949 1048.93C770.759 1077.73 810.57 1095.56 854.537 1095.56C898.499 1095.56 938.314 1077.73 967.12 1048.93L967.122 1048.92ZM1169 384.038C1169 421.445 1153.83 455.312 1129.32 479.828C1104.8 504.343 1070.93 519.51 1033.52 519.51C996.12 519.51 962.252 504.343 937.737 479.828C913.221 455.312 898.054 421.439 898.054 384.038C898.054 339.479 929.109 288.972 953.858 248.725C959.416 239.686 964.671 231.143 968.353 224.759L968.822 224.002L1020.45 134.559C1024.6 127.348 1033.81 124.86 1041.03 129.006C1043.42 130.381 1045.3 132.326 1046.58 134.559L1098.66 224.769C1102.36 231.175 1107.61 239.713 1113.17 248.762C1137.92 289.004 1168.97 339.495 1168.97 384.042L1169 384.038ZM1107.92 458.43C1126.96 439.394 1138.73 413.094 1138.73 384.038C1138.73 348.012 1110.18 301.592 1087.43 264.59C1082.33 256.287 1077.5 248.442 1072.57 239.894L1033.53 172.264L994.952 239.089L994.483 239.952C989.543 248.506 984.725 256.335 979.635 264.622C956.873 301.629 928.325 348.058 928.325 384.095C928.325 413.145 940.103 439.451 959.134 458.487C978.17 477.523 1004.47 489.301 1033.52 489.301C1062.57 489.301 1088.88 477.523 1107.91 458.487L1107.92 458.43Z" fill="#9B9B9B"/>
<path d="M560.967 1485.29L596.245 1361.27H613.335L603.447 1409.48L565.483 1539H548.516L560.967 1485.29ZM524.468 1361.27L552.544 1482.85L560.967 1539H544.121L501.03 1361.27H524.468ZM658.989 1482.73L686.455 1361.27H710.015L667.046 1539H650.2L658.989 1482.73ZM615.898 1361.27L650.2 1485.29L662.651 1539H645.684L609.062 1409.48L599.053 1361.27H615.898ZM796.45 1516.42V1448.42C796.45 1443.22 795.392 1438.7 793.276 1434.87C791.242 1430.97 788.149 1427.96 783.999 1425.84C779.849 1423.72 774.722 1422.67 768.618 1422.67C762.922 1422.67 757.917 1423.64 753.604 1425.6C749.372 1427.55 746.035 1430.11 743.594 1433.29C741.234 1436.46 740.054 1439.88 740.054 1443.54H717.471C717.471 1438.82 718.691 1434.14 721.133 1429.5C723.574 1424.86 727.074 1420.67 731.631 1416.93C736.27 1413.1 741.803 1410.09 748.232 1407.9C754.743 1405.62 761.986 1404.48 769.961 1404.48C779.564 1404.48 788.027 1406.11 795.352 1409.36C802.757 1412.62 808.535 1417.54 812.686 1424.13C816.917 1430.64 819.033 1438.82 819.033 1448.67V1510.19C819.033 1514.59 819.399 1519.27 820.132 1524.23C820.946 1529.19 822.126 1533.47 823.672 1537.05V1539H800.112C798.973 1536.4 798.078 1532.94 797.427 1528.62C796.776 1524.23 796.45 1520.16 796.45 1516.42ZM800.356 1458.92L800.601 1474.79H777.773C771.344 1474.79 765.607 1475.32 760.562 1476.38C755.516 1477.35 751.284 1478.86 747.866 1480.89C744.448 1482.93 741.844 1485.49 740.054 1488.58C738.263 1491.6 737.368 1495.14 737.368 1499.21C737.368 1503.36 738.304 1507.14 740.176 1510.56C742.048 1513.98 744.855 1516.7 748.599 1518.74C752.424 1520.69 757.103 1521.67 762.637 1521.67C769.554 1521.67 775.658 1520.2 780.947 1517.27C786.237 1514.34 790.428 1510.76 793.521 1506.53C796.694 1502.3 798.403 1498.19 798.647 1494.2L808.291 1505.06C807.721 1508.48 806.175 1512.27 803.652 1516.42C801.13 1520.57 797.752 1524.56 793.521 1528.38C789.37 1532.12 784.406 1535.26 778.628 1537.78C772.931 1540.22 766.502 1541.44 759.341 1541.44C750.389 1541.44 742.536 1539.69 735.781 1536.19C729.108 1532.69 723.9 1528.01 720.156 1522.15C716.494 1516.21 714.663 1509.58 714.663 1502.26C714.663 1495.18 716.047 1488.95 718.813 1483.58C721.58 1478.13 725.568 1473.61 730.776 1470.03C735.985 1466.37 742.251 1463.6 749.575 1461.73C756.899 1459.86 765.078 1458.92 774.111 1458.92H800.356ZM899.854 1406.92V1424.25H828.442V1406.92H899.854ZM852.612 1374.82H875.195V1506.29C875.195 1510.76 875.887 1514.14 877.271 1516.42C878.654 1518.7 880.444 1520.2 882.642 1520.93C884.839 1521.67 887.199 1522.03 889.722 1522.03C891.593 1522.03 893.547 1521.87 895.581 1521.54C897.697 1521.14 899.284 1520.81 900.342 1520.57L900.464 1539C898.674 1539.57 896.313 1540.1 893.384 1540.59C890.535 1541.16 887.077 1541.44 883.008 1541.44C877.474 1541.44 872.388 1540.34 867.749 1538.15C863.11 1535.95 859.408 1532.29 856.641 1527.16C853.955 1521.95 852.612 1514.95 852.612 1506.16V1374.82ZM971.152 1541.44C961.956 1541.44 953.615 1539.9 946.128 1536.8C938.722 1533.63 932.334 1529.19 926.963 1523.5C921.673 1517.8 917.604 1511.05 914.756 1503.23C911.908 1495.42 910.483 1486.88 910.483 1477.6V1472.47C910.483 1461.73 912.07 1452.17 915.244 1443.79C918.418 1435.32 922.731 1428.16 928.184 1422.3C933.636 1416.44 939.821 1412.01 946.738 1409C953.656 1405.98 960.817 1404.48 968.223 1404.48C977.663 1404.48 985.801 1406.11 992.637 1409.36C999.554 1412.62 1005.21 1417.17 1009.6 1423.03C1014 1428.81 1017.25 1435.65 1019.37 1443.54C1021.49 1451.35 1022.54 1459.9 1022.54 1469.18V1479.31H923.911V1460.88H999.961V1459.17C999.635 1453.31 998.415 1447.61 996.299 1442.08C994.264 1436.54 991.009 1431.99 986.533 1428.4C982.057 1424.82 975.954 1423.03 968.223 1423.03C963.096 1423.03 958.376 1424.13 954.062 1426.33C949.749 1428.44 946.047 1431.62 942.954 1435.85C939.862 1440.08 937.461 1445.25 935.752 1451.35C934.043 1457.46 933.188 1464.5 933.188 1472.47V1477.6C933.188 1483.86 934.043 1489.76 935.752 1495.3C937.542 1500.75 940.106 1505.55 943.442 1509.7C946.86 1513.85 950.97 1517.11 955.771 1519.47C960.654 1521.83 966.188 1523.01 972.373 1523.01C980.348 1523.01 987.103 1521.38 992.637 1518.13C998.171 1514.87 1003.01 1510.52 1007.16 1505.06L1020.83 1515.93C1017.99 1520.24 1014.37 1524.35 1009.97 1528.26C1005.58 1532.16 1000.16 1535.34 993.735 1537.78C987.388 1540.22 979.86 1541.44 971.152 1541.44ZM1061.49 1427.67V1539H1038.91V1406.92H1060.88L1061.49 1427.67ZM1102.75 1406.19L1102.63 1427.18C1100.76 1426.78 1098.97 1426.53 1097.26 1426.45C1095.63 1426.29 1093.76 1426.21 1091.65 1426.21C1086.44 1426.21 1081.84 1427.02 1077.85 1428.65C1073.86 1430.28 1070.49 1432.55 1067.72 1435.48C1064.95 1438.41 1062.76 1441.91 1061.13 1445.98C1059.58 1449.97 1058.56 1454.36 1058.08 1459.17L1051.73 1462.83C1051.73 1454.85 1052.5 1447.37 1054.05 1440.37C1055.68 1433.37 1058.16 1427.18 1061.49 1421.81C1064.83 1416.36 1069.06 1412.13 1074.19 1409.12C1079.4 1406.02 1085.58 1404.48 1092.74 1404.48C1094.37 1404.48 1096.24 1404.68 1098.36 1405.09C1100.48 1405.41 1101.94 1405.78 1102.75 1406.19Z" fill="#9B9B9B"/>
</svg>
