<svg width="1600" height="1600" viewBox="0 0 1600 1600" fill="none" xmlns="http://www.w3.org/2000/svg">
<path d="M1343.75 600H1212.5C1212.46 585.094 1206.52 570.812 1195.98 560.273C1185.44 549.734 1171.16 543.793 1156.25 543.75H1081.25C1066.34 543.793 1052.06 549.735 1041.52 560.273C1030.98 570.812 1025.04 585.093 1025 600H950.001V525C964.907 524.957 979.189 519.016 989.728 508.477C1000.27 497.938 1006.21 483.657 1006.25 468.75V393.75C1006.21 378.844 1000.27 364.562 989.728 354.023C979.189 343.484 964.908 337.543 950.001 337.5V168.75C950.001 163.777 948.024 159.008 944.508 155.492C940.993 151.977 936.223 150 931.25 150H668.75C663.778 150 659.008 151.977 655.492 155.492C651.977 159.008 650 163.777 650 168.75V337.5C635.094 337.543 620.812 343.485 610.273 354.023C599.734 364.562 593.793 378.843 593.75 393.75V468.75C593.793 483.656 599.735 497.938 610.273 508.477C620.812 519.016 635.093 524.957 650 525V600H575C574.957 585.094 569.016 570.812 558.477 560.273C547.938 549.734 533.657 543.793 518.75 543.75H443.75C428.844 543.793 414.562 549.735 404.023 560.273C393.484 570.812 387.543 585.093 387.5 600H256.25C251.277 600 246.508 601.977 242.992 605.492C239.477 609.008 237.5 613.778 237.5 618.75V881.25C237.5 886.223 239.477 890.993 242.992 894.508C246.508 898.024 251.277 900.001 256.25 900.001H387.5C387.543 914.907 393.485 929.189 404.023 939.728C414.562 950.267 428.843 956.208 443.75 956.251H518.75C533.656 956.208 547.938 950.266 558.477 939.728C569.016 929.189 574.957 914.908 575 900.001H1025C1025.04 914.907 1030.98 929.189 1041.52 939.728C1052.06 950.267 1066.34 956.208 1081.25 956.251H1156.25C1171.16 956.208 1185.44 950.266 1195.98 939.728C1206.52 929.189 1212.46 914.908 1212.5 900.001H1343.75C1348.72 900.001 1353.49 898.024 1357.01 894.508C1360.52 890.993 1362.5 886.223 1362.5 881.25V618.75C1362.5 613.778 1360.52 609.008 1357.01 605.492C1353.49 601.977 1348.72 600 1343.75 600ZM387.501 862.5H275.001V637.5H387.501V862.5ZM537.501 900C537.501 904.973 535.524 909.742 532.008 913.258C528.493 916.774 523.723 918.75 518.75 918.75H443.75C438.778 918.75 434.008 916.774 430.492 913.258C426.977 909.743 425 904.973 425 900V600C425 595.028 426.977 590.258 430.492 586.742C434.008 583.227 438.778 581.25 443.75 581.25H518.75C523.723 581.25 528.493 583.227 532.008 586.742C535.524 590.258 537.501 595.027 537.501 600V900ZM687.501 187.5H912.501V337.5H687.501V187.5ZM631.251 468.75V393.75C631.251 388.778 633.227 384.008 636.743 380.492C640.258 376.977 645.028 375 650.001 375H950.001C954.973 375 959.743 376.977 963.259 380.492C966.774 384.008 968.751 388.777 968.751 393.75V468.75C968.751 473.723 966.774 478.492 963.259 482.008C959.743 485.524 954.974 487.5 950.001 487.5H650.001C645.028 487.5 640.259 485.524 636.743 482.008C633.227 478.493 631.251 473.723 631.251 468.75ZM856.251 862.5H818.751V851.438L856.251 813.938V862.5ZM1025 862.5H893.751V768.75C893.766 765.039 892.665 761.414 890.59 758.336C888.52 755.262 885.567 752.879 882.126 751.5C878.712 750.063 874.946 749.672 871.31 750.371C867.673 751.075 864.325 752.836 861.689 755.438L786.689 830.438C783.235 834.012 781.286 838.778 781.251 843.75V862.5H575.001V637.5H668.751C673.724 637.5 678.493 635.523 682.009 632.008C685.525 628.492 687.501 623.722 687.501 618.75V525H912.501V618.75C912.501 623.722 914.478 628.492 917.993 632.008C921.509 635.523 926.279 637.5 931.251 637.5H1025L1025 862.5ZM1175 900C1175 904.973 1173.02 909.742 1169.51 913.258C1165.99 916.774 1161.22 918.75 1156.25 918.75H1081.25C1076.28 918.75 1071.51 916.774 1067.99 913.258C1064.48 909.743 1062.5 904.973 1062.5 900V600C1062.5 595.028 1064.48 590.258 1067.99 586.742C1071.51 583.227 1076.28 581.25 1081.25 581.25H1156.25C1161.22 581.25 1165.99 583.227 1169.51 586.742C1173.02 590.258 1175 595.027 1175 600V900ZM1325 862.5H1212.5V637.5H1325V862.5Z" fill="#9B9B9B"/>
<path d="M915.771 1133.1C903.49 1150.85 874.951 1194.79 874.951 1218.75C874.951 1238.85 885.674 1257.41 903.076 1267.46C920.478 1277.51 941.924 1277.51 959.326 1267.46C976.728 1257.41 987.451 1238.85 987.451 1218.75C987.451 1194.79 958.912 1150.85 946.631 1133.1C942.947 1128.31 937.248 1125.49 931.201 1125.49C925.153 1125.49 919.455 1128.31 915.771 1133.1ZM931.201 1237.5C926.228 1237.5 921.458 1235.52 917.943 1232.01C914.427 1228.49 912.451 1223.72 912.451 1218.75C916.517 1204.42 922.846 1190.83 931.201 1178.49C939.552 1190.83 945.885 1204.42 949.951 1218.75C949.951 1223.72 947.974 1228.49 944.458 1232.01C940.943 1235.52 936.173 1237.5 931.201 1237.5Z" fill="#9B9B9B"/>
<path d="M931.201 1031.25C931.201 1007.29 902.662 963.356 890.381 945.603C886.697 940.81 880.998 937.997 874.951 937.997C868.903 937.997 863.205 940.81 859.521 945.603C847.24 963.357 818.701 1007.29 818.701 1031.25C818.701 1051.35 829.424 1069.91 846.826 1079.97C864.228 1090.01 885.674 1090.01 903.076 1079.97C920.478 1069.91 931.201 1051.35 931.201 1031.25ZM856.201 1031.25C860.267 1016.92 866.596 1003.33 874.951 990.993C883.302 1003.33 889.635 1016.92 893.701 1031.25C893.701 1037.95 890.126 1044.14 884.326 1047.49C878.525 1050.84 871.377 1050.84 865.576 1047.49C859.775 1044.14 856.201 1037.95 856.201 1031.25Z" fill="#9B9B9B"/>
<path d="M765.771 1076.85C753.49 1094.6 724.951 1138.54 724.951 1162.5C724.951 1182.6 735.674 1201.16 753.076 1211.21C770.478 1221.26 791.924 1221.26 809.326 1211.21C826.728 1201.16 837.451 1182.6 837.451 1162.5C837.451 1138.54 808.912 1094.6 796.631 1076.85C792.947 1072.06 787.248 1069.24 781.201 1069.24C775.153 1069.24 769.455 1072.06 765.771 1076.85ZM781.201 1181.25C776.228 1181.25 771.458 1179.27 767.943 1175.76C764.427 1172.24 762.451 1167.47 762.451 1162.5C766.517 1148.17 772.846 1134.58 781.201 1122.24C789.552 1134.58 795.885 1148.17 799.951 1162.5C799.951 1167.47 797.974 1172.24 794.458 1175.76C790.943 1179.27 786.173 1181.25 781.201 1181.25Z" fill="#9B9B9B"/>
<path d="M312.451 675H349.951V712.5H312.451V675Z" fill="#9B9B9B"/>
<path d="M612.451 787.5H649.951V825H612.451V787.5Z" fill="#9B9B9B"/>
<path d="M687.451 787.5H762.451V825H687.451V787.5Z" fill="#9B9B9B"/>
<path d="M1249.95 675H1287.45V712.5H1249.95V675Z" fill="#9B9B9B"/>
<path d="M77.4734 1490.44L111.341 1371.38H127.747L118.255 1417.66L81.8094 1542H65.5203L77.4734 1490.44ZM42.4344 1371.38L69.3875 1488.09L77.4734 1542H61.3016L19.9344 1371.38H42.4344ZM171.575 1487.98L197.942 1371.38H220.559L179.309 1542H163.138L171.575 1487.98ZM130.208 1371.38L163.138 1490.44L175.091 1542H158.802L123.645 1417.66L114.036 1371.38H130.208ZM303.538 1520.32V1455.05C303.538 1450.05 302.522 1445.71 300.491 1442.04C298.538 1438.29 295.569 1435.4 291.584 1433.37C287.6 1431.34 282.678 1430.32 276.819 1430.32C271.35 1430.32 266.545 1431.26 262.405 1433.13C258.342 1435.01 255.139 1437.47 252.795 1440.52C250.53 1443.56 249.397 1446.84 249.397 1450.36H227.717C227.717 1445.83 228.889 1441.34 231.233 1436.88C233.577 1432.43 236.936 1428.41 241.311 1424.81C245.764 1421.14 251.077 1418.25 257.248 1416.14C263.498 1413.95 270.452 1412.86 278.108 1412.86C287.327 1412.86 295.452 1414.42 302.483 1417.55C309.592 1420.67 315.139 1425.4 319.123 1431.73C323.186 1437.98 325.217 1445.83 325.217 1455.28V1514.34C325.217 1518.56 325.569 1523.05 326.272 1527.82C327.053 1532.59 328.186 1536.69 329.67 1540.12V1542H307.053C305.959 1539.5 305.1 1536.18 304.475 1532.04C303.85 1527.82 303.538 1523.91 303.538 1520.32ZM307.288 1465.12L307.522 1480.36H285.608C279.436 1480.36 273.928 1480.87 269.084 1481.88C264.241 1482.82 260.178 1484.27 256.897 1486.22C253.616 1488.17 251.116 1490.63 249.397 1493.6C247.678 1496.49 246.819 1499.89 246.819 1503.8C246.819 1507.78 247.717 1511.41 249.514 1514.7C251.311 1517.98 254.006 1520.59 257.6 1522.55C261.272 1524.42 265.764 1525.36 271.077 1525.36C277.717 1525.36 283.577 1523.95 288.655 1521.14C293.733 1518.33 297.756 1514.89 300.725 1510.83C303.772 1506.77 305.413 1502.82 305.647 1498.99L314.905 1509.42C314.358 1512.7 312.873 1516.34 310.452 1520.32C308.03 1524.3 304.788 1528.13 300.725 1531.8C296.741 1535.4 291.975 1538.41 286.428 1540.83C280.959 1543.17 274.788 1544.34 267.913 1544.34C259.319 1544.34 251.78 1542.66 245.295 1539.3C238.889 1535.95 233.889 1531.45 230.295 1525.83C226.78 1520.12 225.022 1513.76 225.022 1506.73C225.022 1499.93 226.35 1493.95 229.006 1488.8C231.663 1483.56 235.491 1479.23 240.491 1475.79C245.491 1472.27 251.506 1469.62 258.538 1467.82C265.569 1466.02 273.42 1465.12 282.092 1465.12H307.288ZM402.805 1415.2V1431.84H334.25V1415.2H402.805ZM357.453 1384.38H379.133V1510.59C379.133 1514.89 379.797 1518.13 381.125 1520.32C382.453 1522.51 384.172 1523.95 386.281 1524.66C388.391 1525.36 390.656 1525.71 393.078 1525.71C394.875 1525.71 396.75 1525.55 398.703 1525.24C400.734 1524.85 402.258 1524.54 403.273 1524.3L403.391 1542C401.672 1542.55 399.406 1543.05 396.594 1543.52C393.859 1544.07 390.539 1544.34 386.633 1544.34C381.32 1544.34 376.438 1543.29 371.984 1541.18C367.531 1539.07 363.977 1535.55 361.32 1530.63C358.742 1525.63 357.453 1518.91 357.453 1510.48V1384.38ZM471.252 1544.34C462.423 1544.34 454.416 1542.86 447.228 1539.89C440.119 1536.84 433.986 1532.59 428.83 1527.12C423.752 1521.65 419.845 1515.16 417.111 1507.66C414.377 1500.16 413.009 1491.96 413.009 1483.05V1478.13C413.009 1467.82 414.533 1458.64 417.58 1450.59C420.627 1442.47 424.767 1435.59 430.002 1429.97C435.236 1424.34 441.173 1420.09 447.814 1417.2C454.455 1414.3 461.33 1412.86 468.439 1412.86C477.502 1412.86 485.314 1414.42 491.877 1417.55C498.517 1420.67 503.947 1425.05 508.166 1430.67C512.384 1436.22 515.509 1442.78 517.541 1450.36C519.572 1457.86 520.588 1466.06 520.588 1474.97V1484.7H425.9V1467H498.908V1465.36C498.595 1459.73 497.423 1454.27 495.392 1448.95C493.439 1443.64 490.314 1439.27 486.017 1435.83C481.72 1432.39 475.861 1430.67 468.439 1430.67C463.517 1430.67 458.986 1431.73 454.845 1433.84C450.705 1435.87 447.15 1438.91 444.181 1442.98C441.213 1447.04 438.908 1452 437.267 1457.86C435.627 1463.72 434.806 1470.48 434.806 1478.13V1483.05C434.806 1489.07 435.627 1494.73 437.267 1500.05C438.986 1505.28 441.447 1509.89 444.65 1513.88C447.931 1517.86 451.877 1520.98 456.486 1523.25C461.173 1525.52 466.486 1526.65 472.423 1526.65C480.08 1526.65 486.564 1525.09 491.877 1521.96C497.189 1518.84 501.838 1514.66 505.822 1509.42L518.947 1519.85C516.213 1523.99 512.736 1527.94 508.517 1531.69C504.298 1535.44 499.103 1538.48 492.931 1540.83C486.838 1543.17 479.611 1544.34 471.252 1544.34ZM557.98 1435.12V1542H536.3V1415.2H557.394L557.98 1435.12ZM597.589 1414.5L597.472 1434.66C595.675 1434.27 593.956 1434.03 592.316 1433.95C590.753 1433.8 588.956 1433.72 586.925 1433.72C581.925 1433.72 577.511 1434.5 573.683 1436.06C569.855 1437.62 566.613 1439.81 563.956 1442.62C561.3 1445.44 559.191 1448.8 557.628 1452.7C556.144 1456.53 555.167 1460.75 554.698 1465.36L548.605 1468.88C548.605 1461.22 549.347 1454.03 550.831 1447.31C552.394 1440.59 554.777 1434.66 557.98 1429.5C561.183 1424.27 565.245 1420.2 570.167 1417.31C575.167 1414.34 581.105 1412.86 587.98 1412.86C589.542 1412.86 591.339 1413.05 593.37 1413.45C595.402 1413.76 596.808 1414.11 597.589 1414.5ZM707.413 1542H671.788L672.022 1523.6H707.413C719.6 1523.6 729.756 1521.06 737.881 1515.98C746.006 1510.83 752.1 1503.64 756.163 1494.42C760.303 1485.12 762.373 1474.27 762.373 1461.84V1451.41C762.373 1441.65 761.202 1432.98 758.858 1425.4C756.514 1417.74 753.077 1411.3 748.545 1406.06C744.014 1400.75 738.467 1396.73 731.905 1393.99C725.42 1391.26 717.959 1389.89 709.522 1389.89H671.084V1371.38H709.522C720.694 1371.38 730.889 1373.25 740.108 1377C749.327 1380.67 757.256 1386.02 763.897 1393.05C770.616 1400.01 775.772 1408.45 779.366 1418.37C782.959 1428.21 784.756 1439.3 784.756 1451.65V1461.84C784.756 1474.19 782.959 1485.32 779.366 1495.24C775.772 1505.09 770.577 1513.48 763.78 1520.44C757.061 1527.39 748.936 1532.74 739.405 1536.49C729.952 1540.16 719.288 1542 707.413 1542ZM683.858 1371.38V1542H661.241V1371.38H683.858ZM858.477 1544.34C849.648 1544.34 841.641 1542.86 834.453 1539.89C827.344 1536.84 821.211 1532.59 816.055 1527.12C810.977 1521.65 807.07 1515.16 804.336 1507.66C801.602 1500.16 800.234 1491.96 800.234 1483.05V1478.13C800.234 1467.82 801.758 1458.64 804.805 1450.59C807.852 1442.47 811.992 1435.59 817.227 1429.97C822.461 1424.34 828.398 1420.09 835.039 1417.2C841.68 1414.3 848.555 1412.86 855.664 1412.86C864.727 1412.86 872.539 1414.42 879.102 1417.55C885.742 1420.67 891.172 1425.05 895.391 1430.67C899.609 1436.22 902.734 1442.78 904.766 1450.36C906.797 1457.86 907.812 1466.06 907.812 1474.97V1484.7H813.125V1467H886.133V1465.36C885.82 1459.73 884.648 1454.27 882.617 1448.95C880.664 1443.64 877.539 1439.27 873.242 1435.83C868.945 1432.39 863.086 1430.67 855.664 1430.67C850.742 1430.67 846.211 1431.73 842.07 1433.84C837.93 1435.87 834.375 1438.91 831.406 1442.98C828.438 1447.04 826.133 1452 824.492 1457.86C822.852 1463.72 822.031 1470.48 822.031 1478.13V1483.05C822.031 1489.07 822.852 1494.73 824.492 1500.05C826.211 1505.28 828.672 1509.89 831.875 1513.88C835.156 1517.86 839.102 1520.98 843.711 1523.25C848.398 1525.52 853.711 1526.65 859.648 1526.65C867.305 1526.65 873.789 1525.09 879.102 1521.96C884.414 1518.84 889.062 1514.66 893.047 1509.42L906.172 1519.85C903.438 1523.99 899.961 1527.94 895.742 1531.69C891.523 1535.44 886.328 1538.48 880.156 1540.83C874.062 1543.17 866.836 1544.34 858.477 1544.34ZM976.611 1415.2V1431.84H908.056V1415.2H976.611ZM931.259 1384.38H952.939V1510.59C952.939 1514.89 953.603 1518.13 954.931 1520.32C956.259 1522.51 957.978 1523.95 960.088 1524.66C962.197 1525.36 964.463 1525.71 966.884 1525.71C968.681 1525.71 970.556 1525.55 972.509 1525.24C974.541 1524.85 976.064 1524.54 977.08 1524.3L977.197 1542C975.478 1542.55 973.213 1543.05 970.4 1543.52C967.666 1544.07 964.345 1544.34 960.439 1544.34C955.127 1544.34 950.244 1543.29 945.791 1541.18C941.338 1539.07 937.783 1535.55 935.127 1530.63C932.548 1525.63 931.259 1518.91 931.259 1510.48V1384.38ZM1045.06 1544.34C1036.23 1544.34 1028.22 1542.86 1021.03 1539.89C1013.92 1536.84 1007.79 1532.59 1002.64 1527.12C997.558 1521.65 993.652 1515.16 990.917 1507.66C988.183 1500.16 986.816 1491.96 986.816 1483.05V1478.13C986.816 1467.82 988.339 1458.64 991.386 1450.59C994.433 1442.47 998.573 1435.59 1003.81 1429.97C1009.04 1424.34 1014.98 1420.09 1021.62 1417.2C1028.26 1414.3 1035.14 1412.86 1042.25 1412.86C1051.31 1412.86 1059.12 1414.42 1065.68 1417.55C1072.32 1420.67 1077.75 1425.05 1081.97 1430.67C1086.19 1436.22 1089.32 1442.78 1091.35 1450.36C1093.38 1457.86 1094.39 1466.06 1094.39 1474.97V1484.7H999.706V1467H1072.71V1465.36C1072.4 1459.73 1071.23 1454.27 1069.2 1448.95C1067.25 1443.64 1064.12 1439.27 1059.82 1435.83C1055.53 1432.39 1049.67 1430.67 1042.25 1430.67C1037.32 1430.67 1032.79 1431.73 1028.65 1433.84C1024.51 1435.87 1020.96 1438.91 1017.99 1442.98C1015.02 1447.04 1012.71 1452 1011.07 1457.86C1009.43 1463.72 1008.61 1470.48 1008.61 1478.13V1483.05C1008.61 1489.07 1009.43 1494.73 1011.07 1500.05C1012.79 1505.28 1015.25 1509.89 1018.46 1513.88C1021.74 1517.86 1025.68 1520.98 1030.29 1523.25C1034.98 1525.52 1040.29 1526.65 1046.23 1526.65C1053.89 1526.65 1060.37 1525.09 1065.68 1521.96C1071 1518.84 1075.64 1514.66 1079.63 1509.42L1092.75 1519.85C1090.02 1523.99 1086.54 1527.94 1082.32 1531.69C1078.1 1535.44 1072.91 1538.48 1066.74 1540.83C1060.64 1543.17 1053.42 1544.34 1045.06 1544.34ZM1160.85 1526.53C1166 1526.53 1170.77 1525.48 1175.15 1523.37C1179.52 1521.26 1183.11 1518.37 1185.93 1514.7C1188.74 1510.95 1190.34 1506.69 1190.73 1501.92H1211.36C1210.97 1509.42 1208.43 1516.41 1203.74 1522.9C1199.13 1529.3 1193.07 1534.5 1185.57 1538.48C1178.07 1542.39 1169.83 1544.34 1160.85 1544.34C1151.32 1544.34 1143 1542.66 1135.89 1539.3C1128.86 1535.95 1123 1531.34 1118.31 1525.48C1113.7 1519.62 1110.22 1512.9 1107.88 1505.32C1105.61 1497.66 1104.48 1489.58 1104.48 1481.06V1476.14C1104.48 1467.62 1105.61 1459.58 1107.88 1452C1110.22 1444.34 1113.7 1437.59 1118.31 1431.73C1123 1425.87 1128.86 1421.26 1135.89 1417.9C1143 1414.54 1151.32 1412.86 1160.85 1412.86C1170.77 1412.86 1179.44 1414.89 1186.86 1418.95C1194.29 1422.94 1200.11 1428.41 1204.32 1435.36C1208.62 1442.23 1210.97 1450.05 1211.36 1458.8H1190.73C1190.34 1453.56 1188.86 1448.84 1186.28 1444.62C1183.78 1440.4 1180.34 1437.04 1175.97 1434.54C1171.67 1431.96 1166.63 1430.67 1160.85 1430.67C1154.21 1430.67 1148.62 1432 1144.09 1434.66C1139.64 1437.23 1136.08 1440.75 1133.43 1445.2C1130.85 1449.58 1128.97 1454.46 1127.8 1459.85C1126.71 1465.16 1126.16 1470.59 1126.16 1476.14V1481.06C1126.16 1486.61 1126.71 1492.08 1127.8 1497.47C1128.9 1502.86 1130.73 1507.74 1133.31 1512.12C1135.97 1516.49 1139.52 1520.01 1143.97 1522.66C1148.5 1525.24 1154.13 1526.53 1160.85 1526.53ZM1279.22 1415.2V1431.84H1210.66V1415.2H1279.22ZM1233.87 1384.38H1255.55V1510.59C1255.55 1514.89 1256.21 1518.13 1257.54 1520.32C1258.87 1522.51 1260.58 1523.95 1262.69 1524.66C1264.8 1525.36 1267.07 1525.71 1269.49 1525.71C1271.29 1525.71 1273.16 1525.55 1275.12 1525.24C1277.15 1524.85 1278.67 1524.54 1279.69 1524.3L1279.8 1542C1278.08 1542.55 1275.82 1543.05 1273.01 1543.52C1270.27 1544.07 1266.95 1544.34 1263.05 1544.34C1257.73 1544.34 1252.85 1543.29 1248.4 1541.18C1243.94 1539.07 1240.39 1535.55 1237.73 1530.63C1235.15 1525.63 1233.87 1518.91 1233.87 1510.48V1384.38ZM1318.6 1415.2V1542H1296.8V1415.2H1318.6ZM1295.16 1381.57C1295.16 1378.05 1296.22 1375.09 1298.33 1372.66C1300.52 1370.24 1303.72 1369.03 1307.94 1369.03C1312.08 1369.03 1315.24 1370.24 1317.43 1372.66C1319.7 1375.09 1320.83 1378.05 1320.83 1381.57C1320.83 1384.93 1319.7 1387.82 1317.43 1390.24C1315.24 1392.59 1312.08 1393.76 1307.94 1393.76C1303.72 1393.76 1300.52 1392.59 1298.33 1390.24C1296.22 1387.82 1295.16 1384.93 1295.16 1381.57ZM1338.06 1480.01V1477.31C1338.06 1468.17 1339.39 1459.7 1342.05 1451.88C1344.7 1443.99 1348.53 1437.16 1353.53 1431.38C1358.53 1425.52 1364.59 1420.98 1371.7 1417.78C1378.81 1414.5 1386.77 1412.86 1395.6 1412.86C1404.51 1412.86 1412.52 1414.5 1419.63 1417.78C1426.81 1420.98 1432.91 1425.52 1437.91 1431.38C1442.99 1437.16 1446.85 1443.99 1449.51 1451.88C1452.17 1459.7 1453.49 1468.17 1453.49 1477.31V1480.01C1453.49 1489.15 1452.17 1497.62 1449.51 1505.44C1446.85 1513.25 1442.99 1520.09 1437.91 1525.95C1432.91 1531.73 1426.85 1536.26 1419.74 1539.54C1412.71 1542.74 1404.74 1544.34 1395.84 1544.34C1386.93 1544.34 1378.92 1542.74 1371.81 1539.54C1364.7 1536.26 1358.61 1531.73 1353.53 1525.95C1348.53 1520.09 1344.7 1513.25 1342.05 1505.44C1339.39 1497.62 1338.06 1489.15 1338.06 1480.01ZM1359.74 1477.31V1480.01C1359.74 1486.34 1360.49 1492.31 1361.97 1497.94C1363.45 1503.48 1365.68 1508.41 1368.65 1512.7C1371.7 1517 1375.49 1520.4 1380.02 1522.9C1384.55 1525.32 1389.82 1526.53 1395.84 1526.53C1401.77 1526.53 1406.97 1525.32 1411.42 1522.9C1415.95 1520.4 1419.7 1517 1422.67 1512.7C1425.64 1508.41 1427.87 1503.48 1429.35 1497.94C1430.92 1492.31 1431.7 1486.34 1431.7 1480.01V1477.31C1431.7 1471.06 1430.92 1465.16 1429.35 1459.62C1427.87 1453.99 1425.6 1449.03 1422.56 1444.73C1419.59 1440.36 1415.84 1436.92 1411.31 1434.42C1406.85 1431.92 1401.62 1430.67 1395.6 1430.67C1389.67 1430.67 1384.43 1431.92 1379.9 1434.42C1375.45 1436.92 1371.7 1440.36 1368.65 1444.73C1365.68 1449.03 1363.45 1453.99 1361.97 1459.62C1360.49 1465.16 1359.74 1471.06 1359.74 1477.31ZM1492.76 1442.27V1542H1471.08V1415.2H1491.59L1492.76 1442.27ZM1487.6 1473.8L1478.58 1473.45C1478.66 1464.77 1479.95 1456.77 1482.45 1449.42C1484.95 1442 1488.46 1435.55 1493 1430.09C1497.53 1424.62 1502.92 1420.4 1509.17 1417.43C1515.5 1414.38 1522.49 1412.86 1530.14 1412.86C1536.39 1412.86 1542.02 1413.72 1547.02 1415.44C1552.02 1417.08 1556.28 1419.73 1559.79 1423.41C1563.39 1427.08 1566.12 1431.84 1568 1437.7C1569.87 1443.48 1570.81 1450.55 1570.81 1458.91V1542H1549.01V1458.68C1549.01 1452.04 1548.03 1446.73 1546.08 1442.74C1544.13 1438.68 1541.28 1435.75 1537.53 1433.95C1533.78 1432.08 1529.17 1431.14 1523.7 1431.14C1518.31 1431.14 1513.39 1432.27 1508.93 1434.54C1504.56 1436.8 1500.77 1439.93 1497.57 1443.91C1494.44 1447.9 1491.98 1452.47 1490.18 1457.62C1488.46 1462.7 1487.6 1468.09 1487.6 1473.8Z" fill="#9B9B9B"/>
</svg>
